<svg width="17" height="17" viewBox="0 0 17 17" fill="none" xmlns="http://www.w3.org/2000/svg">
<g clip-path="url(#clip0_203_1239)">
<path fill-rule="evenodd" clip-rule="evenodd" d="M7.05583 6.05323C6.06699 6.05323 5.26258 5.2487 5.26258 4.25978C5.26258 3.2709 6.06699 2.46638 7.05583 2.46638C8.04472 2.46638 8.84928 3.2709 8.84928 4.25978C8.84928 5.2487 8.04471 6.05323 7.05583 6.05323ZM16.5979 16.1405H15.5955C15.3755 16.1405 15.1972 15.9623 15.1972 15.7422C15.1972 15.5222 15.3755 15.344 15.5955 15.344H15.995L15.2292 13.5493H11.7995L13.2231 15.344H14.268C14.488 15.344 14.6662 15.5222 14.6662 15.7422C14.6662 15.9623 14.4879 16.1405 14.268 16.1405H13.0308H3.97644H3.96209H0.401946C0.268218 16.1405 0.143353 16.0734 0.0696645 15.9617C-0.00402326 15.8501 -0.0168078 15.709 0.0356246 15.5859L1.7204 11.6378C1.80668 11.4355 2.0408 11.3414 2.243 11.4276C2.44532 11.514 2.53936 11.7479 2.45305 11.9502L1.0049 15.344H3.70017L5.41204 11.0967C5.46059 10.9766 5.56444 10.8874 5.69068 10.8578C5.81664 10.8286 5.9497 10.8622 6.04633 10.9482L10.9802 15.344H12.2064L10.6633 13.3986C10.5682 13.2788 10.5502 13.1154 10.6167 12.9778C10.683 12.8402 10.8225 12.7528 10.9752 12.7528H14.8894L14.5758 12.0178H9.62397C9.5375 12.0178 9.45358 11.9897 9.38459 11.9378L6.73831 9.94655H3.30793L2.96024 10.7615C2.87396 10.9639 2.63996 11.0581 2.43764 10.9717C2.23532 10.8852 2.14128 10.6514 2.22759 10.4491L2.67854 9.39219C2.74121 9.24533 2.88529 9.15019 3.04487 9.15019H6.31928L5.21318 7.46035C4.15293 6.81716 3.49856 5.66027 3.49856 4.41707C3.49856 2.4555 5.0944 0.859863 7.0558 0.859863C9.01721 0.859863 10.613 2.45566 10.613 4.41707C10.613 5.66027 9.95864 6.81716 8.89854 7.46035L7.79245 9.15019H13.9552C14.1146 9.15019 14.2588 9.24532 14.3215 9.39219L15.201 11.4535C15.2042 11.4603 15.2071 11.4672 15.2098 11.4742L16.9643 15.5861C17.0167 15.7092 17.004 15.8503 16.9303 15.9618C16.8565 16.0733 16.7317 16.1405 16.5979 16.1405ZM14.2359 11.2212L13.692 9.94654H8.06314L9.75726 11.2212H14.2359ZM4.55915 15.344H9.78278L5.9393 11.9198L4.55915 15.344ZM7.05583 1.65621C5.53361 1.65621 4.29515 2.89467 4.29515 4.4169C4.29515 5.40731 4.83061 6.32732 5.69251 6.81796C5.74737 6.84922 5.79415 6.8931 5.8287 6.94604L7.05599 8.8209L8.28327 6.94604C8.31782 6.89318 8.3646 6.84922 8.41951 6.81796C9.28129 6.32736 9.81675 5.40735 9.81675 4.4169C9.81656 2.89467 8.57806 1.65621 7.05583 1.65621ZM7.05583 3.26295C6.50618 3.26295 6.05911 3.71017 6.05911 4.25987C6.05911 4.80953 6.50633 5.25676 7.05583 5.25676C7.60537 5.25676 8.0526 4.80953 8.0526 4.25987C8.0526 3.71018 7.60553 3.26295 7.05583 3.26295Z" fill="#272F2F"/>
<path fill-rule="evenodd" clip-rule="evenodd" d="M7.056 8.82094L8.28328 6.94608C8.31783 6.89322 8.36462 6.84925 8.41952 6.818C9.2813 6.3274 9.81676 5.40738 9.81676 4.41693C9.81657 2.89471 8.57808 1.65625 7.05585 1.65625C5.53362 1.65625 4.29517 2.89471 4.29517 4.41693C4.29517 5.40735 4.83063 6.32736 5.69252 6.818C5.74739 6.84925 5.79417 6.89314 5.82872 6.94608L7.056 8.82094ZM7.05584 6.05328C6.067 6.05328 5.26259 5.24875 5.26259 4.25983C5.26259 3.27095 6.06699 2.46643 7.05584 2.46643C8.04472 2.46643 8.84929 3.27095 8.84929 4.25983C8.84929 5.24875 8.04472 6.05328 7.05584 6.05328Z" fill="#F16461"/>
<path fill-rule="evenodd" clip-rule="evenodd" d="M7.05581 5.2565C7.60535 5.2565 8.05257 4.80928 8.05257 4.25962C8.05257 3.70992 7.60551 3.2627 7.05581 3.2627C6.50615 3.2627 6.05908 3.70992 6.05908 4.25962C6.05908 4.80928 6.50631 5.2565 7.05581 5.2565Z" fill="#FEFEFE"/>
<path fill-rule="evenodd" clip-rule="evenodd" d="M6.73829 9.94629H3.30791L2.96022 10.7612C2.87394 10.9637 2.63994 11.0578 2.43762 10.9714L2.24299 11.4273C2.4453 11.5138 2.53935 11.7476 2.45303 11.9499L1.00488 15.3437H3.70015L5.41203 11.0965C5.46058 10.9764 5.56442 10.8871 5.69066 10.8575C5.81662 10.8284 5.94968 10.862 6.04631 10.948L10.9801 15.3437H12.2064L10.6633 13.3983C10.5682 13.2786 10.5502 13.1151 10.6167 12.9775C10.683 12.8399 10.8224 12.7525 10.9752 12.7525H14.8893L14.5757 12.0175H9.62395C9.53748 12.0175 9.45356 11.9894 9.38458 11.9376L6.73829 9.94629Z" fill="#FFDB56"/>
<path fill-rule="evenodd" clip-rule="evenodd" d="M5.93929 11.9199L4.55914 15.3441H9.78277L5.93929 11.9199Z" fill="#28E0CE"/>
<path fill-rule="evenodd" clip-rule="evenodd" d="M9.75728 11.221H14.2359L13.6921 9.94629H8.06317L9.75728 11.221Z" fill="#28E0CE"/>
<path fill-rule="evenodd" clip-rule="evenodd" d="M15.2292 13.5493H11.7996L13.2231 15.344H14.268C14.488 15.344 14.6662 15.5222 14.6662 15.7423H15.1973C15.1973 15.5222 15.3755 15.344 15.5956 15.344H15.995L15.2292 13.5493Z" fill="#28E0CE"/>
</g>
<defs>
<clipPath id="clip0_203_1239">
<rect width="17" height="17" fill="white"/>
</clipPath>
</defs>
</svg>
