<svg width="20" height="20" viewBox="0 0 20 20" fill="none" xmlns="http://www.w3.org/2000/svg">
<path d="M0.375 2.4375C0.375 1.89049 0.592299 1.36589 0.979092 0.979092C1.36589 0.592299 1.89049 0.375 2.4375 0.375H6.5625C7.10951 0.375 7.63411 0.592299 8.02091 0.979092C8.4077 1.36589 8.625 1.89049 8.625 2.4375V6.5625C8.625 7.10951 8.4077 7.63411 8.02091 8.02091C7.63411 8.4077 7.10951 8.625 6.5625 8.625H2.4375C1.89049 8.625 1.36589 8.4077 0.979092 8.02091C0.592299 7.63411 0.375 7.10951 0.375 6.5625V2.4375ZM2.4375 1.75C2.25516 1.75 2.0803 1.82243 1.95136 1.95136C1.82243 2.0803 1.75 2.25516 1.75 2.4375V6.5625C1.75 6.74484 1.82243 6.9197 1.95136 7.04864C2.0803 7.17757 2.25516 7.25 2.4375 7.25H6.5625C6.74484 7.25 6.9197 7.17757 7.04864 7.04864C7.17757 6.9197 7.25 6.74484 7.25 6.5625V2.4375C7.25 2.25516 7.17757 2.0803 7.04864 1.95136C6.9197 1.82243 6.74484 1.75 6.5625 1.75H2.4375ZM11.375 2.4375C11.375 1.89049 11.5923 1.36589 11.9791 0.979092C12.3659 0.592299 12.8905 0.375 13.4375 0.375H17.5625C18.1095 0.375 18.6341 0.592299 19.0209 0.979092C19.4077 1.36589 19.625 1.89049 19.625 2.4375V6.5625C19.625 7.10951 19.4077 7.63411 19.0209 8.02091C18.6341 8.4077 18.1095 8.625 17.5625 8.625H13.4375C12.8905 8.625 12.3659 8.4077 11.9791 8.02091C11.5923 7.63411 11.375 7.10951 11.375 6.5625V2.4375ZM13.4375 1.75C13.2552 1.75 13.0803 1.82243 12.9514 1.95136C12.8224 2.0803 12.75 2.25516 12.75 2.4375V6.5625C12.75 6.74484 12.8224 6.9197 12.9514 7.04864C13.0803 7.17757 13.2552 7.25 13.4375 7.25H17.5625C17.7448 7.25 17.9197 7.17757 18.0486 7.04864C18.1776 6.9197 18.25 6.74484 18.25 6.5625V2.4375C18.25 2.25516 18.1776 2.0803 18.0486 1.95136C17.9197 1.82243 17.7448 1.75 17.5625 1.75H13.4375ZM0.375 13.4375C0.375 12.8905 0.592299 12.3659 0.979092 11.9791C1.36589 11.5923 1.89049 11.375 2.4375 11.375H6.5625C7.10951 11.375 7.63411 11.5923 8.02091 11.9791C8.4077 12.3659 8.625 12.8905 8.625 13.4375V17.5625C8.625 18.1095 8.4077 18.6341 8.02091 19.0209C7.63411 19.4077 7.10951 19.625 6.5625 19.625H2.4375C1.89049 19.625 1.36589 19.4077 0.979092 19.0209C0.592299 18.6341 0.375 18.1095 0.375 17.5625V13.4375ZM2.4375 12.75C2.25516 12.75 2.0803 12.8224 1.95136 12.9514C1.82243 13.0803 1.75 13.2552 1.75 13.4375V17.5625C1.75 17.7448 1.82243 17.9197 1.95136 18.0486C2.0803 18.1776 2.25516 18.25 2.4375 18.25H6.5625C6.74484 18.25 6.9197 18.1776 7.04864 18.0486C7.17757 17.9197 7.25 17.7448 7.25 17.5625V13.4375C7.25 13.2552 7.17757 13.0803 7.04864 12.9514C6.9197 12.8224 6.74484 12.75 6.5625 12.75H2.4375ZM11.375 13.4375C11.375 12.8905 11.5923 12.3659 11.9791 11.9791C12.3659 11.5923 12.8905 11.375 13.4375 11.375H17.5625C18.1095 11.375 18.6341 11.5923 19.0209 11.9791C19.4077 12.3659 19.625 12.8905 19.625 13.4375V17.5625C19.625 18.1095 19.4077 18.6341 19.0209 19.0209C18.6341 19.4077 18.1095 19.625 17.5625 19.625H13.4375C12.8905 19.625 12.3659 19.4077 11.9791 19.0209C11.5923 18.6341 11.375 18.1095 11.375 17.5625V13.4375ZM13.4375 12.75C13.2552 12.75 13.0803 12.8224 12.9514 12.9514C12.8224 13.0803 12.75 13.2552 12.75 13.4375V17.5625C12.75 17.7448 12.8224 17.9197 12.9514 18.0486C13.0803 18.1776 13.2552 18.25 13.4375 18.25H17.5625C17.7448 18.25 17.9197 18.1776 18.0486 18.0486C18.1776 17.9197 18.25 17.7448 18.25 17.5625V13.4375C18.25 13.2552 18.1776 13.0803 18.0486 12.9514C17.9197 12.8224 17.7448 12.75 17.5625 12.75H13.4375Z" fill="black"/>
</svg>
