<svg width="204" height="185" viewBox="0 0 204 185" fill="none" xmlns="http://www.w3.org/2000/svg">
<path d="M193 83.4598C193 125.694 160.311 164.538 118.292 164.538C58.9908 174.672 17 130.3 17 88.0665C17 45.8327 62.0637 1 104.083 1C146.103 1 193 41.226 193 83.4598Z" fill="#BEDADB"/>
<circle cx="78.5" cy="169.5" r="7.5" fill="#DD433A"/>
<circle cx="152.5" cy="169.5" r="7.5" fill="#DD433A"/>
<path d="M192.654 40.6902H199.293C199.416 40.6902 201.388 41.5881 201.633 41.7513C203.143 42.8806 203.551 45.071 203.062 46.826L179.498 127.34C178.967 129.327 177.43 130.415 175.457 130.782C169.036 131.993 161.335 131.898 154.737 132.51C124.153 135.394 93.5823 138.184 62.9439 140.714C58.4542 140.877 54.6857 144.551 55.3931 149.19C55.8013 151.884 58.4542 154.646 61.2024 154.958C68.9709 155.843 76.7121 153.271 84.3173 154.958C104.466 153.802 126.289 156.469 146.247 154.958C148.193 154.809 150.506 153.897 152.356 153.897C154.084 153.897 156.111 154.782 157.798 154.945C162.927 155.407 169.566 154.224 174.437 154.972C177.62 155.462 179.362 159.285 177.498 162.074C177.144 162.604 175.267 164.128 174.79 164.128H166.791C170.546 176.604 160.342 187.855 147.485 184.277C139.118 181.964 134.452 172.169 137.54 164.128H92.6436C92.5075 165.298 93.215 166.223 93.3238 167.353C94.3034 177.856 85.8139 186.549 75.2292 184.767C65.7737 183.189 59.9236 173.135 63.3929 164.115C53.2435 164.155 45.4751 156.645 46.3866 146.265C46.9036 140.401 52.1415 133.694 58.2774 133.15V132.347L26.5642 28.3232L25.7206 27.4661L2.26565 22.3506C-2.08794 19.4664 0.592239 13.2489 5.69411 14.1604L32.2238 19.9426C33.0265 20.4051 33.353 21.0446 33.7204 21.8473C36.3597 27.4389 37.1488 34.9489 39.8018 40.663L110.847 40.6357C113.119 40.731 115.051 42.8534 114.33 45.1662L104.915 64.6349C104.956 65.2608 114.656 69.3831 116.017 70.1449C116.371 70.349 116.411 70.6892 116.711 70.8932C118.017 71.7503 119.677 71.451 119.01 73.9952C118.194 77.0699 114.711 81.5732 113.432 84.7431C113.228 85.2329 112.929 85.641 113.051 86.2261L126.615 71.7095C126.724 71.0293 118.316 64.7438 117.133 63.6146C116.452 62.9751 115.024 61.8595 115.146 60.9752L126.629 41.2071C127.214 40.6629 128.778 41.3704 129.01 40.4589C129.091 40.146 128.057 35.1665 128.017 34.0373C127.105 10.0381 151.349 -6.53275 173.498 2.50096C188.123 8.45995 196.422 25.3165 192.654 40.663V40.6902ZM190.014 32.6224C190.014 16.4733 176.926 3.38529 160.777 3.38529C144.628 3.38529 131.54 16.4733 131.54 32.6224C131.54 48.7715 144.628 61.8595 160.777 61.8595C176.926 61.8595 190.014 48.7715 190.014 32.6224ZM49.8015 73.6823H75.9911L72.5354 49.5742L72.0864 49.5062L42.3187 49.5334L49.8015 73.6823ZM106.602 49.5334H79.0522L82.1541 73.4646C82.5215 74.6482 85.5962 73.6959 86.6846 73.6687C90.1539 73.5734 93.6095 74.0496 96.8883 74.036C102.385 74.036 107.895 73.1925 113.405 74.0224C113.595 73.1108 113.174 73.4374 112.738 73.1789C109.378 71.1925 104.126 69.696 101.051 67.5056C99.6365 66.4988 99.5277 65.9954 100.126 64.3084C101.473 60.5943 104.072 56.3087 105.65 52.4857C105.84 52.0231 106.861 49.7647 106.616 49.5334H106.602ZM131.091 73.6823H150.138L151.104 63.8594C145.894 62.1724 140.438 59.0161 136.697 54.9754C135.907 54.1183 133.118 49.9007 132.792 49.6967C132.234 49.3701 127.676 49.411 127.023 49.6967C124.656 53.1659 122.479 56.9345 120.303 60.5806L131.799 70.4171C132.806 71.7095 131.268 72.485 131.105 73.6687L131.091 73.6823ZM156.601 73.6823H185.334L192.627 50.0232C192.708 49.3429 192.627 49.6014 192.137 49.5334C187.947 48.9756 188.341 51.0299 186.015 53.6149C178.518 61.9275 169.008 66.0771 157.662 65.2199C157.458 66.3356 156.192 73.2741 156.587 73.6823H156.601ZM77.0114 80.1446H51.8422L57.9645 101.572H79.7324L77.0114 80.1446ZM111.024 80.1446H83.4738L86.1948 101.572H112.561C112.561 101.572 113.078 101.096 113.078 101.055V93.2326C113.078 92.634 108.466 87.8451 108.317 86.4029C108.167 84.9608 111.296 80.3759 111.038 80.1446H111.024ZM119.527 86.4437V101.572H146.397L149.118 80.1446C145.88 80.1718 142.642 80.1174 139.404 80.131C138.52 80.131 137.69 80.4983 136.71 80.4983C133.391 80.5119 128.574 79.5596 125.472 80.1446C124.806 80.2671 119.649 85.9812 119.513 86.4301L119.527 86.4437ZM183.811 80.4847H155.58C155.104 87.1648 153.39 94.1033 152.859 100.729C152.669 103.205 153.594 101.232 154.029 101.192C154.954 101.124 155.839 101.572 156.75 101.586C161.975 101.695 167.553 101.736 172.763 101.586C174.41 101.532 175.865 100.865 177.675 101.572L183.811 80.4847ZM80.7528 108.035H60.3453L67.2023 130.592L67.7056 131.109L83.8139 129.789L80.7528 108.021V108.035ZM112.725 108.035H87.2152L90.3171 129.082L113.037 127.408V108.375L112.711 108.035H112.725ZM145.377 108.035H119.527V126.742L142.955 124.66L145.377 108.035ZM175.648 108.035H151.839L149.975 124.021L171.525 122.266L175.661 108.035H175.648ZM84.8207 169.625C84.8207 165.856 81.7596 162.795 77.991 162.795C74.2224 162.795 71.1613 165.856 71.1613 169.625C71.1613 173.393 74.2224 176.454 77.991 176.454C81.7596 176.454 84.8207 173.393 84.8207 169.625ZM159.022 169.584C159.022 165.802 155.948 162.727 152.165 162.727C148.383 162.727 145.308 165.802 145.308 169.584C145.308 173.366 148.383 176.441 152.165 176.441C155.948 176.441 159.022 173.366 159.022 169.584Z" fill="#158C8F"/>
<path d="M190.015 32.6229C190.015 48.772 176.927 61.86 160.778 61.86C144.629 61.86 131.541 48.772 131.541 32.6229C131.541 16.4737 144.629 3.38574 160.778 3.38574C176.927 3.38574 190.015 16.4737 190.015 32.6229ZM165.445 16.5418H156.601L158.642 37.2894L163.023 37.2486L165.445 16.5418ZM160.261 40.4185C155.431 41.1124 155.962 49.1801 162.139 47.7652C166.356 46.7992 165.186 39.7111 160.261 40.4185Z" fill="#69C8C5"/>
<path d="M165.444 16.541L163.022 37.2478L158.641 37.2886L156.601 16.541H165.444Z" fill="#FEFEFE"/>
<path d="M160.261 40.4178C165.186 39.7103 166.356 46.7849 162.138 47.7645C155.961 49.193 155.431 41.1116 160.261 40.4178Z" fill="#FEFEFE"/>
</svg>
