<svg width="20" height="20" viewBox="0 0 20 20" fill="none" xmlns="http://www.w3.org/2000/svg">
<path d="M2.0835 4.16699C1.3982 4.16699 0.833496 4.7317 0.833496 5.41699V7.91699C0.833519 8.1471 1.02005 8.33364 1.25016 8.33366C2.17557 8.33366 2.91683 9.07492 2.91683 10.0003C2.91683 10.9257 2.17557 11.667 1.25016 11.667C1.02005 11.667 0.833519 11.8536 0.833496 12.0837V14.5837C0.833496 15.269 1.3982 15.8337 2.0835 15.8337H5.00016V12.917C5.00016 12.6869 5.18671 12.5003 5.41683 12.5003C5.64695 12.5003 5.8335 12.6869 5.8335 12.917V15.8337H17.9168C18.6021 15.8337 19.1668 15.269 19.1668 14.5837V12.0837C19.1668 11.8536 18.9803 11.667 18.7502 11.667C17.8248 11.667 17.0835 10.9257 17.0835 10.0003C17.0835 9.07492 17.8248 8.33366 18.7502 8.33366C18.9803 8.33364 19.1668 8.1471 19.1668 7.91699V5.41699C19.1668 4.7317 18.6021 4.16699 17.9168 4.16699H5.8335V7.08366C5.8335 7.31378 5.64695 7.50033 5.41683 7.50033C5.18671 7.50033 5.00016 7.31378 5.00016 7.08366V4.16699H2.0835ZM12.8949 6.71094C13.1007 6.81384 13.1842 7.06417 13.0812 7.27002L10.1646 13.1034C10.0616 13.3092 9.81132 13.3927 9.60547 13.2897C9.3996 13.1868 9.31616 12.9365 9.41911 12.7306L12.3358 6.8973C12.454 6.66767 12.6813 6.6162 12.8949 6.71094ZM9.16683 7.29199C9.85225 7.29199 10.4168 7.85657 10.4168 8.54199C10.4168 9.22741 9.85225 9.79199 9.16683 9.79199C8.48141 9.79199 7.91683 9.22741 7.91683 8.54199C7.91683 7.85657 8.48141 7.29199 9.16683 7.29199ZM9.16683 8.12533C8.93178 8.12533 8.75016 8.30694 8.75016 8.54199C8.75016 8.77705 8.93178 8.95866 9.16683 8.95866C9.40188 8.95866 9.5835 8.77705 9.5835 8.54199C9.5835 8.30694 9.40188 8.12533 9.16683 8.12533ZM5.41683 8.33366C5.64695 8.33366 5.8335 8.52021 5.8335 8.75033V11.2503C5.8335 11.4804 5.64695 11.667 5.41683 11.667C5.18671 11.667 5.00016 11.4804 5.00016 11.2503V8.75033C5.00016 8.52021 5.18671 8.33366 5.41683 8.33366ZM13.3335 10.2087C14.0189 10.2087 14.5835 10.7732 14.5835 11.4587C14.5835 12.1441 14.0189 12.7087 13.3335 12.7087C12.6481 12.7087 12.0835 12.1441 12.0835 11.4587C12.0835 10.7732 12.6481 10.2087 13.3335 10.2087ZM13.3335 11.042C13.0984 11.042 12.9168 11.2236 12.9168 11.4587C12.9168 11.6937 13.0984 11.8753 13.3335 11.8753C13.5686 11.8753 13.7502 11.6937 13.7502 11.4587C13.7502 11.2236 13.5686 11.042 13.3335 11.042Z" fill="#008080"/>
</svg>
