<svg width="30" height="30" viewBox="0 0 30 30" fill="none" xmlns="http://www.w3.org/2000/svg">
<path d="M26.4094 6.33789H3.59062C2.88654 6.33913 2.21172 6.6197 1.7143 7.118C1.21687 7.6163 0.937499 8.29162 0.9375 8.9957V21.0145C0.939484 21.7171 1.21979 22.3903 1.71706 22.8866C2.21432 23.383 2.88801 23.6621 3.59062 23.6629H26.4094C27.112 23.6621 27.7857 23.383 28.2829 22.8866C28.7802 22.3903 29.0605 21.7171 29.0625 21.0145V8.9957C29.0625 8.29162 28.7831 7.6163 28.2857 7.118C27.7883 6.6197 27.1135 6.33913 26.4094 6.33789ZM28.125 21.0145C28.1238 21.4687 27.9425 21.9038 27.6208 22.2246C27.2992 22.5453 26.8636 22.7254 26.4094 22.7254H3.59062C3.13642 22.7254 2.70076 22.5453 2.37915 22.2246C2.05754 21.9038 1.87624 21.4687 1.875 21.0145V14.1332H28.125V21.0145ZM28.125 10.477H1.875V8.9957C1.875 8.54026 2.0556 8.1034 2.37721 7.78091C2.69882 7.45843 3.13518 7.27663 3.59062 7.27539H26.4094C26.8648 7.27663 27.3012 7.45843 27.6228 7.78091C27.9444 8.1034 28.125 8.54026 28.125 8.9957V10.477Z" fill="black"/>
<path d="M10.7205 17.8359H3.35645C3.09756 17.8359 2.8877 18.0458 2.8877 18.3047V20.3578C2.8877 20.6167 3.09756 20.8266 3.35645 20.8266H10.7205C10.9794 20.8266 11.1893 20.6167 11.1893 20.3578V18.3047C11.1893 18.0458 10.9794 17.8359 10.7205 17.8359Z" fill="black"/>
</svg>
