<svg width="18" height="20" viewBox="0 0 18 20" fill="none" xmlns="http://www.w3.org/2000/svg">
<path d="M11.5117 7.25048L11.1945 15.5005M6.8055 15.5005L6.48833 7.25048M15.6257 4.30798C15.9392 4.35564 16.2508 4.40606 16.5625 4.46014M15.6257 4.30798L14.6467 17.0341C14.6067 17.5522 14.3726 18.0361 13.9913 18.3891C13.6099 18.7421 13.1093 18.9381 12.5897 18.938H5.41033C4.89067 18.9381 4.3901 18.7421 4.00873 18.3891C3.62736 18.0361 3.39329 17.5522 3.35333 17.0341L2.37433 4.30798M15.6257 4.30798C14.5677 4.14803 13.5043 4.02665 12.4375 3.94406M2.37433 4.30798C2.06083 4.35473 1.74917 4.40514 1.4375 4.45923M2.37433 4.30798C3.43229 4.14804 4.49572 4.02665 5.5625 3.94406M12.4375 3.94406V3.10439C12.4375 2.02273 11.6033 1.12073 10.5217 1.08681C9.50748 1.0544 8.49252 1.0544 7.47833 1.08681C6.39667 1.12073 5.5625 2.02364 5.5625 3.10439V3.94406M12.4375 3.94406C10.1492 3.76722 7.85076 3.76722 5.5625 3.94406" stroke="black" stroke-width="1.5" stroke-linecap="round" stroke-linejoin="round"/>
</svg>
