<svg width="18" height="18" viewBox="0 0 18 18" fill="none" xmlns="http://www.w3.org/2000/svg">
<path d="M15.1875 11.5315H15.0947L14.0794 9.16334C14.2515 9.23878 14.4371 9.27895 14.625 9.28146C14.6996 9.28146 14.7711 9.25183 14.8239 9.19909C14.8766 9.14634 14.9062 9.07481 14.9062 9.00021V6.75021C14.9062 6.67562 14.8766 6.60408 14.8239 6.55134C14.7711 6.49859 14.6996 6.46896 14.625 6.46896C14.3321 6.47055 14.047 6.56355 13.8095 6.73498C13.5721 6.90641 13.394 7.14772 13.3003 7.42521C13.2176 7.30967 13.1119 7.21235 12.99 7.1393C12.8681 7.06624 12.7325 7.01901 12.5916 7.00053C12.4129 6.97745 12.2315 6.98891 12.0572 7.03428H11.8125C11.3372 7.03428 11.1263 6.75303 10.7944 6.29459L10.6284 6.06115C10.7986 6.05247 10.9635 5.99912 11.1066 5.90646C11.2151 5.82769 11.307 5.72825 11.377 5.61386C11.4469 5.49948 11.4936 5.37239 11.5144 5.2399C11.6058 5.18724 11.6857 5.1168 11.7495 5.03276C11.8133 4.94871 11.8595 4.85275 11.8856 4.75052C11.8975 4.6699 11.8896 4.5876 11.8627 4.51068C11.8357 4.43377 11.7905 4.36455 11.7309 4.30896C11.6161 4.11235 11.5532 3.88973 11.5481 3.66209C11.6207 3.65774 11.6888 3.62543 11.7381 3.57194C11.7874 3.51845 11.8141 3.44794 11.8125 3.37521C11.8125 3.07712 11.7533 2.78199 11.6383 2.50697C11.5233 2.23195 11.3548 1.98252 11.1426 1.77318C10.9304 1.56384 10.6787 1.39876 10.4021 1.28752C10.1255 1.17629 9.82963 1.12111 9.53156 1.12521C8.94664 1.13673 8.38888 1.37422 7.97519 1.7879C7.5615 2.20159 7.32401 2.75935 7.3125 3.34428C7.30724 3.64248 7.36177 3.93872 7.47287 4.21551C7.58397 4.4923 7.7494 4.74403 7.95937 4.95584C8.0216 5.01769 8.08734 5.07591 8.15625 5.13021C7.07062 5.39459 6.49969 6.41271 6.20719 7.29584C6.12396 7.21197 6.02493 7.14542 5.91583 7.10004C5.80673 7.05467 5.68972 7.03136 5.57156 7.03146H2.58469C2.4347 7.03121 2.28705 7.06869 2.15533 7.14044C2.02362 7.2122 1.91207 7.31593 1.83094 7.44209C1.79028 7.50475 1.77619 7.58099 1.79175 7.65404C1.80731 7.72709 1.85125 7.79097 1.91391 7.83162C1.97656 7.87227 2.0528 7.88637 2.12586 7.87081C2.19891 7.85525 2.26278 7.81131 2.30344 7.74865C2.33374 7.70171 2.37541 7.66317 2.42457 7.63662C2.47374 7.61007 2.52881 7.59637 2.58469 7.59678H3.09375V8.44053C3.09375 8.51512 3.12338 8.58665 3.17613 8.6394C3.22887 8.69214 3.30041 8.72178 3.375 8.72178H4.78125C4.85584 8.72178 4.92738 8.69214 4.98012 8.6394C5.03287 8.58665 5.0625 8.51512 5.0625 8.44053V7.59396H5.57156C5.61551 7.59396 5.65904 7.60262 5.69964 7.61944C5.74025 7.63626 5.77714 7.66091 5.80822 7.69199C5.8393 7.72307 5.86395 7.75996 5.88077 7.80057C5.89759 7.84118 5.90625 7.8847 5.90625 7.92865V10.0746C5.90551 10.1629 5.86992 10.2473 5.80723 10.3094C5.74455 10.3716 5.65984 10.4065 5.57156 10.4065H2.58469C2.50414 10.4087 2.42558 10.3813 2.36389 10.3294C2.3022 10.2776 2.26168 10.2049 2.25 10.1252H2.8125C2.88709 10.1252 2.95863 10.0956 3.01137 10.0428C3.06412 9.99009 3.09375 9.91856 3.09375 9.84396C3.09375 9.76937 3.06412 9.69783 3.01137 9.64509C2.95863 9.59234 2.88709 9.56271 2.8125 9.56271H2.25V9.00021H2.53125C2.60584 9.00021 2.67738 8.97058 2.73012 8.91784C2.78287 8.86509 2.8125 8.79356 2.8125 8.71896C2.8125 8.64437 2.78287 8.57283 2.73012 8.52009C2.67738 8.46734 2.60584 8.43771 2.53125 8.43771H1.125C1.05041 8.43771 0.978871 8.46734 0.926126 8.52009C0.873382 8.57283 0.84375 8.64437 0.84375 8.71896C0.84375 8.79356 0.873382 8.86509 0.926126 8.91784C0.978871 8.97058 1.05041 9.00021 1.125 9.00021H1.6875V9.56271H0.5625C0.487908 9.56271 0.416371 9.59234 0.363626 9.64509C0.310882 9.69783 0.28125 9.76937 0.28125 9.84396C0.28125 9.91856 0.310882 9.99009 0.363626 10.0428C0.416371 10.0956 0.487908 10.1252 0.5625 10.1252H1.6875C1.70042 10.353 1.79993 10.5673 1.96568 10.7242C2.13143 10.881 2.35086 10.9686 2.57906 10.969H3.98531C3.85516 11.0966 3.74431 11.2425 3.65625 11.4021C3.28067 12.1386 3.08774 12.9547 3.09375 13.7815C3.09375 13.8561 3.12338 13.9276 3.17613 13.9803C3.22887 14.0331 3.30041 14.0627 3.375 14.0627H4.23844C4.31041 14.6032 4.57624 15.0992 4.98648 15.4585C5.39672 15.8177 5.92346 16.0157 6.46875 16.0157C7.01404 16.0157 7.54078 15.8177 7.95102 15.4585C8.36126 15.0992 8.62708 14.6032 8.69906 14.0627H12.9572C13.0113 14.4924 13.1883 14.8974 13.4669 15.2289C13.7456 15.5605 14.114 15.8046 14.5279 15.932C14.9418 16.0593 15.3837 16.0645 15.8006 15.9469C16.2174 15.8293 16.5914 15.5939 16.8777 15.2689C17.164 14.944 17.3505 14.5433 17.4147 14.115C17.4789 13.6867 17.4181 13.2489 17.2396 12.8543C17.0612 12.4597 16.7726 12.125 16.4086 11.8903C16.0446 11.6557 15.6206 11.5311 15.1875 11.5315ZM4.5 8.15646H3.65625V7.59396H4.5V8.15646ZM14.3438 7.07928V8.67115C14.1789 8.61317 14.0362 8.50547 13.9352 8.3629C13.8342 8.22032 13.78 8.04992 13.78 7.87521C13.78 7.7005 13.8342 7.5301 13.9352 7.38753C14.0362 7.24496 14.1789 7.13725 14.3438 7.07928ZM12.51 7.55459C12.6203 7.57109 12.7227 7.62131 12.8033 7.69836C12.8838 7.7754 12.9386 7.8755 12.96 7.9849L13.0331 8.15646C12.6415 8.35776 12.2047 8.45463 11.7647 8.43771C11.7259 8.27064 11.7462 8.0953 11.8221 7.9415C11.898 7.78769 12.0248 7.66489 12.1809 7.59396C12.287 7.55956 12.399 7.54712 12.51 7.5574V7.55459ZM11.1234 4.80959C11.0766 4.83317 11.0373 4.86937 11.01 4.9141C10.9827 4.95882 10.9684 5.0103 10.9688 5.06271C10.9667 5.13352 10.9498 5.20311 10.9193 5.26703C10.8888 5.33096 10.8453 5.38781 10.7916 5.43396C10.6312 5.54084 10.3331 5.51553 9.94781 5.36365C9.92725 5.36137 9.9065 5.36137 9.88594 5.36365L9.84375 5.32709V4.2499C9.84375 4.09251 9.90627 3.94157 10.0176 3.83028C10.1289 3.71899 10.2798 3.65646 10.4372 3.65646H10.9688C10.9776 4.02053 11.0919 4.37421 11.2978 4.67459C11.2469 4.72901 11.1881 4.77547 11.1234 4.8124V4.80959ZM7.875 3.3499C7.88906 2.91352 8.0687 2.49886 8.37743 2.19014C8.68615 1.88142 9.10081 1.70178 9.53719 1.68771H9.5625C9.96148 1.68745 10.3476 1.82857 10.6525 2.08601C10.9573 2.34345 11.161 2.70056 11.2275 3.09396H10.4372C10.1308 3.09471 9.83726 3.21673 9.62064 3.43335C9.40402 3.64997 9.28199 3.94355 9.28125 4.2499V5.04021C8.884 4.97311 8.52388 4.76609 8.26596 4.4566C8.00805 4.1471 7.86937 3.75555 7.875 3.35271V3.3499ZM8.71875 5.62521C9.63844 5.62521 9.97594 6.10615 10.3331 6.6124C10.5919 6.98365 10.8956 7.38865 11.4019 7.53209C11.2426 7.7894 11.1706 8.09122 11.1966 8.39271C10.8475 8.31645 10.5182 8.16795 10.23 7.95675C9.94181 7.74555 9.70101 7.47635 9.52312 7.16646C9.5078 7.12929 9.48469 7.09583 9.45534 7.06835C9.42599 7.04087 9.39109 7.02 9.35299 7.00715C9.31489 6.9943 9.27448 6.98976 9.23448 6.99385C9.19449 6.99794 9.15583 7.01056 9.12112 7.03086C9.08641 7.05116 9.05646 7.07866 9.03328 7.11152C9.0101 7.14437 8.99424 7.18181 8.98676 7.22132C8.97928 7.26082 8.98036 7.30147 8.98992 7.34053C8.99948 7.37958 9.0173 7.41613 9.04219 7.44771C9.14414 7.6188 9.26083 7.78067 9.39094 7.93146L9.36562 7.94834C9.10345 8.2499 8.91903 8.61102 8.82844 9.00021H6.46875V8.71896C6.48844 8.5474 6.80906 5.62521 8.71875 5.62521ZM6.46875 10.0718V9.56271H9C9.05625 9.56271 10.4062 9.57959 10.4062 10.969V12.3752H9.28125V11.8127C9.28836 11.6261 9.25685 11.4401 9.18869 11.2663C9.12054 11.0924 9.01721 10.9346 8.88518 10.8025C8.75315 10.6705 8.59527 10.5672 8.42144 10.499C8.24761 10.4309 8.06158 10.3994 7.875 10.4065H6.40406C6.44702 10.3001 6.46899 10.1865 6.46875 10.0718ZM6.46875 15.469C6.07025 15.4686 5.68476 15.3271 5.38053 15.0698C5.0763 14.8124 4.87298 14.4556 4.80656 14.0627H5.38312C5.44789 14.301 5.58928 14.5114 5.78548 14.6614C5.98168 14.8114 6.22178 14.8927 6.46875 14.8927C6.71572 14.8927 6.95582 14.8114 7.15202 14.6614C7.34822 14.5114 7.48961 14.301 7.55438 14.0627H8.13094C8.06452 14.4556 7.8612 14.8124 7.55697 15.0698C7.25274 15.3271 6.86725 15.4686 6.46875 15.469ZM5.985 14.0627H6.9525C6.90269 14.1467 6.83191 14.2162 6.74709 14.2645C6.66227 14.3128 6.56635 14.3382 6.46875 14.3382C6.37115 14.3382 6.27523 14.3128 6.19041 14.2645C6.10559 14.2162 6.03481 14.1467 5.985 14.0627ZM3.65625 13.5002C3.69213 12.8529 3.8667 12.2208 4.16812 11.6468C4.28007 11.4386 4.44713 11.2653 4.65102 11.1457C4.8549 11.0262 5.08775 10.965 5.32406 10.969H7.875C7.9874 10.9629 8.09983 10.9805 8.20496 11.0208C8.31008 11.061 8.40555 11.123 8.48515 11.2026C8.56475 11.2822 8.62669 11.3776 8.66694 11.4828C8.70719 11.5879 8.72484 11.7003 8.71875 11.8127V12.6565C8.71875 12.9607 8.81744 13.2568 9 13.5002H3.65625ZM10.125 13.5002C9.95092 13.4997 9.78126 13.4454 9.63926 13.3447C9.49727 13.244 9.3899 13.1018 9.33187 12.9377H10.6875C10.7609 12.933 10.8345 12.9436 10.9036 12.969C10.9727 12.9943 11.0357 13.0338 11.0886 13.0849C11.1416 13.136 11.1833 13.1976 11.2111 13.2657C11.2388 13.3338 11.2521 13.407 11.25 13.4805C11.1568 13.493 11.0628 13.4995 10.9688 13.5002H10.125ZM11.9278 13.1712C11.8872 13.2171 11.8409 13.2578 11.79 13.2921C11.7591 13.0795 11.6639 12.8814 11.517 12.7245C11.3702 12.5676 11.1789 12.4595 10.9688 12.4146V10.969C10.9941 10.5101 10.8473 10.0582 10.557 9.70187C10.2667 9.34553 9.85393 9.11036 9.39937 9.0424C9.47147 8.79014 9.595 8.55553 9.76219 8.35334C9.76946 8.34349 9.77604 8.33316 9.78187 8.3224C10.2184 8.67651 10.7437 8.90413 11.3006 8.98053L12.0938 12.4286C12.1383 12.6883 12.0787 12.9551 11.9278 13.1712ZM12.6562 12.3133L11.8828 9.00021C12.3587 9.0046 12.8289 8.89668 13.2553 8.68521L14.5828 11.779L13.3566 13.5002H12.375C12.4984 13.331 12.5869 13.1389 12.6352 12.9351C12.6835 12.7313 12.6906 12.5199 12.6562 12.3133ZM15.1875 13.5002H14.7037C14.7657 13.393 14.8612 13.3092 14.9756 13.2618C15.09 13.2144 15.2169 13.2061 15.3365 13.2381C15.4561 13.2702 15.5618 13.3408 15.6372 13.439C15.7125 13.5373 15.7534 13.6576 15.7534 13.7815C15.7534 13.9053 15.7125 14.0257 15.6372 14.1239C15.5618 14.2221 15.4561 14.2927 15.3365 14.3248C15.2169 14.3568 15.09 14.3485 14.9756 14.3011C14.8612 14.2538 14.7657 14.1699 14.7037 14.0627H15.1875C15.2621 14.0627 15.3336 14.0331 15.3864 13.9803C15.4391 13.9276 15.4688 13.8561 15.4688 13.7815C15.4688 13.7069 15.4391 13.6353 15.3864 13.5826C15.3336 13.5298 15.2621 13.5002 15.1875 13.5002ZM14.0456 13.5002L14.1441 13.3624C14.1271 13.4074 14.113 13.4534 14.1019 13.5002H14.0456ZM15.1875 15.469C14.789 15.4686 14.4035 15.3271 14.0993 15.0698C13.7951 14.8124 13.5917 14.4556 13.5253 14.0627H14.1019C14.1635 14.2999 14.3009 14.5106 14.4931 14.6626C14.6854 14.8146 14.9221 14.8996 15.1671 14.9048C15.4122 14.9099 15.6522 14.8349 15.8507 14.6911C16.0492 14.5473 16.1953 14.3426 16.2668 14.1082C16.3383 13.8738 16.3313 13.6224 16.2469 13.3923C16.1624 13.1622 16.0051 12.966 15.7989 12.8335C15.5927 12.701 15.3488 12.6395 15.1044 12.6583C14.8601 12.6771 14.6285 12.7752 14.445 12.9377L15.0441 12.094C15.0919 12.094 15.1397 12.094 15.1875 12.094C15.6351 12.094 16.0643 12.2718 16.3807 12.5882C16.6972 12.9047 16.875 13.3339 16.875 13.7815C16.875 14.229 16.6972 14.6582 16.3807 14.9747C16.0643 15.2912 15.6351 15.469 15.1875 15.469Z" fill="white"/>
</svg>
