<svg width="180" height="185" viewBox="0 0 180 185" fill="none" xmlns="http://www.w3.org/2000/svg">
<path d="M104.814 18.5088C98.7707 24.9772 100.002 35.452 107.544 40.1074C107.298 45.5015 108.082 49.2393 111.349 53.3128C111.484 53.4919 111.417 54.2305 111.864 54.6781C113.946 56.782 117.549 58.7069 120.571 58.774L121.13 67.4582C113.073 67.4135 106.313 71.1736 101.009 76.9929C100.472 77.5973 100.293 78.4254 99.9346 78.873C99.3303 79.634 97.9426 80.7755 97.2264 81.5813C97.204 81.4022 97.2711 81.2008 97.2264 81.0441C96.6445 78.3806 95.9506 70.4574 93.7348 69.0473C91.698 67.7716 79.4775 67.5477 76.9483 68.1073C75.4263 68.443 73.882 69.9202 73.7924 71.5094C73.6358 74.1504 76.3888 82.1408 77.105 85.3862C77.7093 88.0944 78.4703 90.7803 78.7389 93.5332C71.1514 94.5628 16.4946 91.9665 14.0325 94.0704C13.6297 94.4061 13.4506 94.5852 13.4954 95.1671C11.3915 107.097 9.53376 119.116 7.51938 131.045C6.26599 131.068 6.04217 130.352 5.61691 129.434C3.44586 124.89 1.2748 112.088 0.983837 106.873C-0.22479 85.9905 4.22923 64.5933 16.987 47.7844C17.5465 47.0458 17.7256 46.1506 18.9566 46.2177C17.7479 56.1553 25.0892 67.2568 34.8254 69.7636C38.2275 70.6365 45.7926 71.0169 48.3441 68.2416C50.8957 65.4662 47.8517 64.0562 47.8741 63.3176C47.8741 62.9147 50.4257 61.5718 49.1723 59.7588C48.9037 59.3783 42.2115 56.9835 40.5328 55.8867C36.4145 53.2233 30.6176 45.8149 29.1628 41.1594C28.6032 39.3912 28.7375 35.9444 28.2003 34.7805C31.8262 33.2585 34.9373 29.9236 38.3618 27.7973C55.5287 17.1659 73.3224 14.8382 93.1753 16.8302C97.0697 17.2106 100.919 18.4417 104.881 18.4641L104.814 18.5088ZM85.252 17.4121C80.0818 17.6135 74.7996 19.6727 73.2777 25.022C71.6438 25.1563 71.7109 22.9628 70.2113 21.8437C69.137 21.038 67.5703 20.5456 66.2273 20.6799C64.7949 22.8061 71.5543 31.1322 71.1066 31.5575C62.9596 28.1331 55.7526 35.7877 55.3273 43.7781C54.9244 50.8956 61.0123 65.3991 69.7189 64.1681C71.0395 63.989 72.2257 62.7356 73.121 62.6685C74.8668 62.5342 76.9707 64.6381 80.7532 63.228C91.4295 59.1993 95.3239 32.229 78.9179 31.0651C76.4335 30.886 74.9115 31.8709 72.7405 32.6542C73.591 27.6183 74.5982 29.4088 78.1569 28.0211C82.5214 26.3425 85.2744 22.1795 85.2296 17.4345L85.252 17.4121Z" fill="#BEDADB"/>
<path d="M134.18 54.3854C134.694 54.3854 135.008 54.8554 135.276 54.9226C132.3 58.9514 127.219 58.3918 122.989 59.2423L123.324 69.8738C124.287 74.9321 136.575 73.6563 137.447 67.4341L138.253 68.5085C138.678 68.2847 139.507 66.8522 139.619 66.3374C148.683 66.4717 157.658 68.4637 163.522 75.8721C171.692 86.1902 170.058 98.1198 166.634 109.96C165.761 112.981 162.739 118.957 162.627 121.42C162.471 125.068 163.813 131.156 164.06 135.117C164.418 140.69 164.507 146.308 164.686 151.881C165.156 153.336 169.588 152.754 171.132 152.777C174.02 152.821 176.929 152.732 179.839 152.777C179.996 154.075 179.839 154.702 178.474 154.948L136.127 154.903C135.187 158.036 134.404 158.82 131.113 159.223L98.279 160.364V169.071H133.62C134.381 173.726 131.897 174.935 127.644 174.51C132.926 187.581 111.91 189.192 116.229 175.047H87.9609C91.7882 187.536 73.3678 188.543 74.9122 176.121L0.783035 176.166L0.111572 173.928C2.66312 159.626 5.05799 145.301 7.47525 130.977C9.51201 119.025 11.3473 107.028 13.4512 95.0983L13.9884 94.0016C16.4504 91.8977 71.1072 94.494 78.6947 93.4644C78.4262 90.689 77.6652 88.0032 77.0609 85.3173H79.2319C79.2991 86.0336 79.1424 86.7722 79.2319 87.4884C79.3438 88.518 78.829 88.7418 80.3286 88.5851L81.9625 98.9256C81.291 100.761 82.7235 101.029 83.0592 101.634C83.1711 101.858 82.9249 102.641 83.3502 103.223C84.8946 105.439 93.9145 107.095 96.6675 107.073L99.9352 108.147L99.3981 105.976C99.8457 106.468 100.965 108.326 101.569 107.901L107.5 97.0903C107.097 95.725 99.3981 92.7929 97.7642 92.3901C97.6747 91.6962 97.8985 90.8457 97.7642 90.219C97.7194 90.0399 97.809 89.8385 97.7642 89.6818L98.8609 88.5851L100.517 90.4652C102.487 90.8905 102.8 92.8153 105.083 92.9496C106.918 93.0615 104.994 88.6299 107.254 88.5851C108.731 89.3237 107.791 92.6139 108.127 93.9568C117.416 96.8665 125.719 103.335 134.157 108.147C136.082 102.395 138.007 95.8369 140.603 90.3757C141.051 89.4132 142.595 85.0935 143.961 86.3917L135.791 110.833C134.874 111.012 134.09 110.788 133.24 110.43C127.197 107.901 119.43 100.918 113.006 98.0527C112.044 97.6274 111.193 97.0903 110.052 97.2246L101.099 113.966L101.233 114.683L113.364 123.255L140.2 125.784C141.901 126.925 138.41 135.475 138.544 137.512H148.594C153.294 137.512 161.06 119.159 162.56 115.041C167.439 101.611 171.401 83.2582 157.748 73.4325C156.562 72.582 152.734 70.4557 151.705 70.12C149.937 69.5381 139.865 67.4789 139.193 68.5532C138.925 68.9785 139.193 69.9409 138.813 70.59C138.701 70.769 135.881 73.0072 135.478 73.2535C130.263 76.3645 122.72 76.4764 121.086 69.6052C114.036 69.359 107.545 73.2535 102.733 78.0208C101.412 79.3414 102.33 79.6771 99.9576 80.9529C99.51 83.5044 97.4285 84.8697 98.8609 88.0256C97.6971 87.6451 97.9656 86.4588 97.5628 85.4964C97.4956 85.3173 96.8018 85.295 96.6899 84.9369C96.4213 83.7954 97.518 81.7138 95.5931 82.0496C95.4365 81.3333 95.2126 80.6171 95.056 79.8785C96.1751 79.6547 96.7346 79.968 97.227 80.9752C97.2718 81.1543 97.2046 81.3334 97.227 81.5124L97.4956 82.0496C98.9952 82.542 98.7938 81.2214 98.9952 81.1319C99.4652 80.9305 99.8905 80.9976 99.9352 80.9529C100.047 80.3038 99.8457 79.4756 99.9352 78.7818C100.293 78.3342 100.472 77.4837 101.01 76.9017C106.314 71.0824 113.073 67.3446 121.131 67.367L120.571 58.6828C117.55 58.638 113.946 56.6908 111.865 54.5869C111.417 54.1392 111.484 53.4006 111.35 53.2216C111.507 53.0873 111.753 52.7068 111.887 52.6844C113.611 52.4606 115.961 55.3031 118.109 55.9746C121.041 56.9146 125.361 57.0041 128.338 56.355C130.263 55.9298 132.568 54.2959 134.18 54.3183V54.3854ZM64.5717 121.263C64.236 119.965 63.2512 112.377 62.8931 112.064L56.7604 111.459L55.507 113.675C52.4407 113.138 46.3304 115.085 44.9875 111.75C42.4359 105.349 49.5086 105.461 53.9179 106.088C56.9171 106.513 55.8203 108.729 57.2976 109.221C59.0657 109.803 62.0873 108.684 63.9898 110.139C65.467 111.28 66.0713 117.547 66.7875 119.584L86.8418 121.263L85.1184 106.938C80.0824 104.253 80.4182 100.694 79.2319 95.7026H16.1595L28.1338 173.995L131.449 172.361C130.957 171.466 128.338 171.309 127.398 171.264C111.081 170.212 94.1607 171.712 77.889 171.891C76.367 171.891 74.8674 171.443 73.3902 171.175C71.1072 167.526 74.196 163.475 74.1736 160.23C74.1736 157.477 71.8906 150.024 71.1072 146.823C70.7268 145.279 69.1152 137.579 68.6676 137.02C67.929 136.057 65.8699 136.774 64.5717 136.214C63.0721 135.543 58.7748 129.611 56.4023 127.798C53.0226 125.18 47.4942 124.217 46.6213 120.188C46.8899 120.121 47.0914 119.651 47.1585 119.651L58.5733 126.724C59.5134 127.933 60.7444 128.917 61.8411 129.992C63.5869 131.715 64.4822 134.826 67.8171 134.334C68.2647 133.909 65.8475 124.799 65.4894 123.322C65.2655 122.404 64.6612 121.688 64.5493 121.285L64.5717 121.263ZM15.1075 111.482C15.0627 111.079 14.9508 104.857 13.4736 106.58L3.11076 170.996L3.40173 172.361L14.9956 163.296C15.1747 147.114 15.1075 130.909 15.1075 114.727C16.5847 113.832 15.1747 111.93 15.1075 111.459V111.482ZM98.9952 115.69C97.7418 113.989 100.92 110.519 99.3981 109.557L86.8642 107.14L89.0128 121.017C90.6467 122.718 105.822 122.136 109.157 122.897L98.9952 115.69ZM54.2536 108.214H46.6437C46.1513 112.937 51.1649 111.191 54.2536 111.482V108.214ZM17.2786 131.603C17.189 142.19 17.3233 152.799 17.2786 163.408L25.4256 171.309C23.6127 155.888 20.3673 140.556 18.9124 125.09C18.8677 124.643 18.9124 124.128 18.3753 123.993C18.3753 123.814 18.3753 123.635 18.3753 123.456L16.7414 115.846L17.2786 131.603ZM70.8387 134.312H79.2767L77.598 122.404L67.3247 122.091L70.861 134.312H70.8387ZM82.7906 134.871C86.327 135.475 91.2958 134.423 95.0336 134.871L94.4069 124.083L79.8138 122.919L81.4477 133.931C81.5596 134.334 82.4997 134.826 82.7906 134.893V134.871ZM110.253 125.068L96.6675 123.971L97.227 134.849C101.435 134.021 106.65 136.46 110.276 134.58V125.068H110.253ZM124.399 135.408L124.712 126.679C123.257 126.187 112.357 125.18 111.91 125.627L112.447 135.408H124.399ZM162.448 152.799L160.546 125.605C158.33 129.723 156.338 135.341 152.197 137.915C147.788 140.668 143.468 139.549 138.522 139.75C139.551 141.049 138.119 140.69 138.007 141.228C137.201 144.764 137.134 149.173 136.351 152.799H162.448ZM126.57 127.53V135.968H136.91L138.544 127.821L127.89 126.746C127.42 126.657 126.682 127.194 126.592 127.53H126.57ZM79.8138 136.505H71.1072C71.5773 139.706 72.204 143.488 73.5469 146.286H81.4253L79.7915 136.505H79.8138ZM95.5708 146.823C95.526 143.533 95.7498 139.347 94.2055 136.483H81.9625L83.5964 146.823H95.5484H95.5708ZM109.716 137.042H97.2046V144.921C97.2046 145.212 98.0552 146.129 97.7418 146.823H109.694C110.343 143.6 110.656 140.22 109.694 137.042H109.716ZM123.862 146.823L124.376 137.915C124.153 137.176 122.004 137.042 121.422 137.042H112.715L111.91 137.848V146.823H123.862ZM136.351 137.579H126.01V147.36H134.448C135.903 146.353 134.448 144.406 136.239 143.846L136.351 137.579ZM81.9849 148.457H73.8379L76.3446 158.82H83.0816L81.9849 148.457ZM95.5708 148.457H84.1559L85.2527 158.775C88.9009 159.133 92.4597 157.88 96.1303 158.238L95.5931 148.457H95.5708ZM110.253 148.994L97.7418 148.457V156.335C97.7418 156.492 98.3909 158.215 98.6147 158.26L110.231 157.678V148.972L110.253 148.994ZM123.862 148.994H111.91V157.701L123.324 157.164L123.862 148.994ZM134.717 148.994H125.473V157.141L133.128 156.358L134.717 148.972V148.994ZM96.1303 160.431L76.1208 161.618L74.375 169.116H96.1303V160.409V160.431ZM24.8884 174.017C22.5383 172.562 18.3529 166.586 15.8685 166.407C13.3841 166.228 7.02761 172.741 4.20748 173.749L24.8661 174.017H24.8884ZM78.3366 182.008C85.096 187.402 90.8034 173.435 80.6196 174.532C76.5461 174.98 75.9194 180.06 78.3366 182.008ZM119.878 174.666C116.61 175.673 116.878 182.343 121.109 183.015C128.293 184.179 128.159 172.137 119.878 174.666Z" fill="#191918"/>
<path d="M104.814 18.5074C105.284 18.015 106.694 17.6121 106.873 17.2988C107.164 16.784 107.097 14.5682 107.5 13.2924C109.134 8.27887 114.125 5.92876 119.184 6.57784C120.773 6.77928 122.832 8.12218 124.13 8.0998C125.428 8.07742 128.248 6.28688 130.151 6.01829C135.187 5.34683 140.335 6.30924 144.744 8.72649C153.831 -9.76103 180.779 4.09343 172.453 22.76C170.214 27.7736 165.201 30.7727 159.762 30.9966C160.545 37.3083 159.583 45.433 155.375 50.5361C151.167 55.6392 144.699 57.4297 138.522 55.9749C139.372 58.4817 138.969 61.0108 139.059 63.5847C139.104 64.5472 139.596 64.6143 139.596 64.6815C139.618 65.1515 139.685 65.9125 139.596 66.3153C139.484 66.8301 138.656 68.2626 138.231 68.4864L137.425 67.4121C137.761 65.0172 137.044 62.6895 136.888 60.3394L137.984 60.0708V59.265H136.888C136.798 57.8326 137 56.3777 136.843 54.9453C136.351 54.7662 135.634 55.0348 135.254 54.9229C135.008 54.8558 134.672 54.3857 134.157 54.3857C134.649 52.2147 136.753 51.5656 137.693 49.5065C138.566 47.5816 138.768 45.0748 139.059 42.9933C142.752 43.8438 146.691 41.3371 146.087 37.3083C145.214 31.4442 139.081 35.943 137.761 35.7863C136.955 35.6968 136.216 34.6672 135.343 34.421C132.411 33.6376 129.3 33.5034 126.301 32.5857C121.757 31.2204 118.199 28.7808 114.371 26.1397C109.85 29.1836 110.007 32.6752 109.671 37.5097H108.597C108.373 38.0917 109.134 38.5393 109.134 38.6065C109.246 40.2851 109 41.8966 109.291 43.62C109.828 46.9773 111.238 49.5289 111.865 52.7519C111.708 52.7519 111.484 53.1548 111.327 53.289C108.082 49.2155 107.299 45.4553 107.523 40.0836C99.9798 35.4506 98.7488 24.9534 104.792 18.485L104.814 18.5074ZM138.253 54.3857V54.9229C138.611 54.7439 138.611 54.5648 138.253 54.3857Z" fill="#030303"/>
<path d="M171.155 152.801C169.61 152.778 165.179 153.36 164.709 151.905C164.53 146.332 164.44 140.692 164.082 135.141C163.813 131.157 162.47 125.092 162.649 121.443C162.761 118.959 165.783 112.983 166.656 109.984C170.058 98.1438 171.692 86.1918 163.545 75.8961C157.681 68.4876 148.705 66.518 139.641 66.3613C139.73 65.9585 139.663 65.1975 139.641 64.7275L139.104 63.6307C139.014 61.0568 139.417 58.5277 138.566 56.0209C144.744 57.4533 151.347 55.5285 155.42 50.582C156.092 53.7827 158.889 56.558 160.523 59.3558C167.909 72.1359 170.662 85.207 173.885 99.2853C176.549 110.969 177.511 121.421 176.034 133.463C175.206 140.289 172.744 146.243 171.199 152.823L171.155 152.801Z" fill="#BEDADB"/>
<path d="M97.2044 81.0447C96.7119 80.0599 96.1524 79.7242 95.0333 79.948C94.3395 76.9041 94.1604 73.6363 92.3251 70.9728C87.1325 70.279 81.7608 69.518 76.6129 70.7714C76.792 75.8073 78.7616 80.2389 79.2764 85.4092H77.1053C76.3891 82.1638 73.6361 74.1734 73.7928 71.5324C73.8823 69.9432 75.4043 68.4661 76.9487 68.1303C79.4554 67.5708 91.6984 67.7946 93.7352 69.0704C95.951 70.4804 96.6448 78.4037 97.2267 81.0671L97.2044 81.0447Z" fill="#21201F"/>
<path d="M99.9348 81.0432C99.9348 81.0432 99.4648 81.0208 98.9947 81.2222C98.7933 81.3118 98.9947 82.6099 97.4952 82.1399L97.2266 81.6027C97.9652 80.7746 99.3305 79.6331 99.9348 78.8945C99.8453 79.5884 100.047 80.4165 99.9348 81.0656V81.0432Z" fill="#21201F"/>
<path d="M13.474 95.167C13.4517 94.5851 13.6307 94.4284 14.0112 94.0703L13.474 95.167Z" fill="#21201F"/>
<path d="M71.1072 146.823C71.913 150.023 74.1512 157.476 74.1735 160.229C74.1959 163.475 71.1296 167.526 73.3902 171.174C74.8674 171.443 76.367 171.89 77.889 171.89C94.1607 171.711 111.081 170.212 127.398 171.264C128.338 171.331 130.957 171.465 131.449 172.36L28.1338 173.994L16.1594 95.7021H79.2319C80.4181 100.693 80.0824 104.252 85.1183 106.938L86.8418 121.262L66.7875 119.584C66.0713 117.547 65.4669 111.28 63.9897 110.139C62.0873 108.684 59.0657 109.803 57.2975 109.221C55.8203 108.728 56.917 106.513 53.9178 106.087C49.5086 105.461 42.4135 105.326 44.9874 111.75C46.3303 115.085 52.4406 113.16 55.507 113.675L56.7604 111.459L62.893 112.063C63.2287 112.377 64.2359 119.964 64.5717 121.262C64.3478 122.314 63.2288 121.15 62.9154 120.837C48.1209 106.311 25.4256 122.538 31.5582 141.496C34.065 149.262 41.6525 155.104 49.6653 155.999C50.7172 156.111 55.9098 156.245 56.2903 155.91C56.5365 155.686 56.3351 154.992 56.4022 154.97C56.7156 154.768 58.4838 155.126 59.1105 154.97C59.1776 154.477 59.1776 154.276 58.8419 153.873C57.4318 152.082 51.2768 148.636 49.0609 146.8C47.6956 145.659 46.6885 144.092 45.5246 142.995C45.5246 136.728 32.7445 136.728 32.9683 131.312C33.1474 126.947 39.3472 121.643 43.264 120.322C44.965 119.74 46.3751 120.21 46.6213 120.143C47.5166 124.172 53.0226 125.157 56.4022 127.753C54.0969 128.962 52.9554 131.446 51.5006 133.192C51.2768 133.461 49.2624 132.7 51.0306 136.102C52.7987 139.504 57.3647 145.301 60.7444 147.315C61.1472 148.255 61.7292 148.613 61.7963 148.815C62.132 149.844 61.7068 152.866 63.2064 152.776C66.1832 152.62 68.69 148.188 71.0848 146.755L71.1072 146.823Z" fill="#FAFAF9"/>
<path d="M99.9351 81.041C102.308 79.7653 101.39 79.4295 102.711 78.109C107.523 73.3192 114.036 69.4472 121.064 69.6934C122.698 76.5646 130.24 76.4527 135.455 73.3416C135.858 73.0954 138.678 70.8572 138.79 70.6782C139.171 70.0291 138.902 69.0667 139.171 68.6414C139.865 67.5671 149.936 69.6262 151.682 70.2081C152.712 70.5439 156.539 72.6702 157.725 73.5207C171.378 83.3464 167.417 101.7 162.538 115.129C161.038 119.247 153.271 137.6 148.571 137.6H138.522C138.387 135.564 141.879 127.036 140.178 125.872L113.342 123.343L101.211 114.771L101.077 114.054L110.029 97.3127C111.149 97.1784 112.021 97.7156 112.984 98.1409C119.43 101.006 127.196 107.989 133.217 110.518C134.045 110.876 134.851 111.1 135.769 110.921L143.938 86.4799C142.573 85.1817 141.028 89.5014 140.581 90.4639C138.007 95.9251 136.082 102.483 134.135 108.235C125.674 103.423 117.371 96.9546 108.105 94.045C107.769 92.702 108.709 89.3895 107.232 88.6733C104.949 88.7404 106.896 93.1721 105.061 93.0378C102.778 92.8811 102.464 90.9786 100.495 90.5534L98.8384 88.6733V88.1361C97.406 84.9803 99.4651 83.615 99.9351 81.0634V81.041Z" fill="#47A9A8"/>
<path d="M109.716 37.5331C110.03 32.6762 109.895 29.207 114.417 26.1631C118.244 28.8042 121.803 31.2662 126.346 32.6091C129.345 33.5044 132.479 33.6387 135.389 34.4444C136.261 34.6906 137 35.7202 137.806 35.8097C139.149 35.944 145.259 31.4452 146.132 37.3317C146.736 41.3604 142.797 43.8672 139.104 43.0167C138.813 45.0982 138.611 47.605 137.739 49.5299C136.799 51.589 134.695 52.2381 134.202 54.4091C132.591 54.4091 130.285 56.043 128.361 56.4459C125.361 57.095 121.042 57.0054 118.132 56.0654C115.983 55.3939 113.633 52.5515 111.91 52.7753C111.305 49.5746 109.895 47.0007 109.336 43.6434C109.045 41.8976 109.291 40.3085 109.179 38.6298C109.716 38.4732 109.694 38.0031 109.716 37.5331ZM122.362 39.5699C123.996 41.2038 125.831 40.3085 125.227 37.5331C123.727 30.5275 120.012 37.2198 122.362 39.5699ZM113.857 34.8473C112.357 35.1159 110.544 40.0399 113.253 40.2861C116.52 40.5771 116.23 34.422 113.857 34.8473ZM121.131 47.8736H115.692C114.752 52.82 120.751 52.0814 121.131 47.8736Z" fill="#FAFAF9"/>
<path d="M56.4242 154.993C56.4242 154.993 56.5585 155.732 56.3122 155.933C55.9318 156.269 50.7391 156.135 49.6872 156.023C41.652 155.127 34.0869 149.286 31.5802 141.519C25.4699 122.562 48.1652 106.357 62.9373 120.861C63.2507 121.152 64.3698 122.338 64.5936 121.286C64.7055 121.689 65.3098 122.405 65.5336 123.323C65.8917 124.8 68.2866 133.909 67.8614 134.335C64.5264 134.827 63.6312 131.716 61.8854 129.992C61.3034 128.538 61.2587 126.456 60.7886 125.091C59.4233 121.084 56.178 118.555 51.8135 118.533C50.0229 118.533 48.6352 119.361 47.2028 119.652C47.1133 119.652 46.9342 120.122 46.6656 120.189C46.4194 120.256 45.0317 119.786 43.3083 120.368C39.3915 121.689 33.214 126.993 33.0126 131.358C32.7888 136.752 45.5465 136.774 45.5689 143.041C44.7408 142.28 43.4426 140.96 42.3011 140.87C40.7344 142.683 48.2324 148.972 49.6424 150.091C51.7687 151.793 54.3874 153.135 56.4242 154.993Z" fill="#88C7CA"/>
<path d="M15.1069 114.751C15.1069 130.933 15.1964 147.138 14.9949 163.32L3.40108 172.385L3.11011 171.02L13.473 106.604C14.9502 104.858 15.0397 111.103 15.1069 111.506V114.774V114.751Z" fill="#88C7CA"/>
<path d="M162.447 152.8H136.35C137.133 149.174 137.2 144.742 138.006 141.228C138.118 140.691 139.55 141.071 138.521 139.751C143.467 139.549 147.787 140.691 152.196 137.916C156.337 135.319 158.329 129.701 160.545 125.605L162.447 152.8Z" fill="#47A9A8"/>
<path d="M95.0336 79.9478C95.2126 80.6864 95.4141 81.4027 95.5707 82.1189C96.3094 85.3195 96.8689 86.8415 97.7418 89.7288C97.7866 89.8854 97.697 90.0869 97.7418 90.2659C95.3917 90.0197 87.4237 87.692 85.7451 88.8782C84.1783 91.676 86.2598 94.6975 87.1775 97.3386C87.4461 98.122 87.267 99.0173 87.4237 99.5097L81.9849 98.9725L80.351 88.632V87.5353H79.2543C79.1647 86.8191 79.3214 86.0805 79.2543 85.3643C78.7395 80.194 76.7699 75.7624 76.5908 70.7264C81.7387 69.473 87.1327 70.2341 92.303 70.9279C94.1383 73.5914 94.3174 76.8815 95.0112 79.9031L95.0336 79.9478ZM82.522 72.8751C76.2327 72.0246 80.5748 78.7168 82.2758 76.1653L82.522 72.8751Z" fill="#2D8284"/>
<path d="M71.1069 146.824C68.7121 148.257 66.1829 152.689 63.2285 152.845C61.7289 152.935 62.1541 149.913 61.8184 148.884C61.7513 148.682 61.1917 148.302 60.7665 147.384C60.5874 147.004 60.856 145.974 60.2741 145.459L51.5227 133.239C52.9775 131.493 54.0966 129.008 56.4244 127.8C58.7968 129.635 63.0942 135.566 64.5938 136.215C65.8919 136.797 67.9511 136.059 68.6897 137.021C69.1149 137.581 70.7488 145.28 71.1293 146.824H71.1069Z" fill="#88C7CA"/>
<path d="M135.277 54.9239C135.657 55.0358 136.374 54.7672 136.866 54.9463C137.023 56.3787 136.799 57.8336 136.911 59.266C136.933 59.6241 136.888 60.0046 136.911 60.3627C137.09 62.7128 137.784 65.0405 137.448 67.4354C136.575 73.6576 124.287 74.9334 123.325 69.8751L122.989 59.2436C127.219 58.3931 132.3 58.975 135.277 54.9239Z" fill="#F3F4F4"/>
<path d="M18.3527 123.458C18.3527 123.637 18.3527 123.816 18.3527 123.995C18.3975 124.465 18.3527 124.913 18.8899 125.092C20.3447 140.558 23.5901 155.889 25.4031 171.311L17.256 163.41C17.3008 152.823 17.1441 142.192 17.256 131.605C17.2784 128.897 17.256 126.166 17.256 123.436H18.3527V123.458Z" fill="#88C7CA"/>
<path d="M98.9946 115.69L109.156 122.897C105.821 122.136 90.6461 122.718 89.0122 121.016L86.8635 107.14L99.3974 109.557C100.919 110.519 97.7412 113.989 98.9946 115.69Z" fill="#47A9A8"/>
<path d="M96.1296 160.431V169.115H74.3743L76.1201 161.617L96.1296 160.431Z" fill="#F3F4F4"/>
<path d="M82.79 134.871C82.4991 134.826 81.559 134.334 81.4471 133.908L79.8132 122.896L94.4063 124.06L95.033 134.848C91.3176 134.401 86.3488 135.453 82.79 134.848V134.871Z" fill="#F3F4F4"/>
<path d="M97.7416 92.4591C99.3755 92.8844 107.075 95.794 107.478 97.1593L101.547 107.97C100.942 108.417 99.8231 106.537 99.3755 106.045C98.4802 105.083 97.7864 103.829 96.6225 103.068C94.8767 101.927 90.2884 101.546 91.497 98.9723C93.8695 99.778 97.5178 97.607 95.8615 95.145C95.1453 94.0706 88.9679 93.5558 87.4011 93.5335V91.3624C90.8703 91.161 94.3843 91.6086 97.7416 92.4367V92.4591Z" fill="#F3F4F4"/>
<path d="M110.252 125.066V134.579C106.626 136.459 101.411 134.019 97.2036 134.847L96.644 123.97L110.23 125.066H110.252Z" fill="#F3F4F4"/>
<path d="M95.5707 146.825H83.6187L81.9849 136.484H94.2278C95.7722 139.349 95.5484 143.512 95.5931 146.825H95.5707Z" fill="#F3F4F4"/>
<path d="M109.716 137.043C110.678 140.221 110.365 143.623 109.716 146.824H97.7637C98.0547 146.13 97.2266 145.212 97.2266 144.921V137.043H109.738H109.716Z" fill="#F3F4F4"/>
<path d="M124.398 135.408H112.446L111.909 125.627C112.357 125.157 123.257 126.186 124.712 126.679L124.398 135.408Z" fill="#F3F4F4"/>
<path d="M123.861 146.824H111.909V137.849L112.715 137.043H121.422C122.003 137.043 124.152 137.177 124.376 137.916L123.861 146.824Z" fill="#F3F4F4"/>
<path d="M110.253 148.996V157.703L98.6366 158.285C98.3904 158.218 97.7637 156.494 97.7637 156.36V148.481L110.275 149.019L110.253 148.996Z" fill="#F3F4F4"/>
<path d="M70.8386 134.313L67.3022 122.093L77.5756 122.429L79.2542 134.313H70.8386Z" fill="#F3F4F4"/>
<path d="M95.571 148.457L96.1082 158.238C92.4375 157.88 88.9011 159.133 85.2305 158.775L84.1338 148.457H95.5486H95.571Z" fill="#F3F4F4"/>
<path d="M97.741 90.2878C97.8753 90.9145 97.6515 91.7874 97.741 92.4589C94.3837 91.6084 90.8697 91.1831 87.4005 91.3846V93.5556C88.9672 93.578 95.1447 94.1151 95.8609 95.1671C97.5172 97.6067 93.8689 99.8002 91.4964 98.9944C90.2878 101.591 94.8761 101.971 96.6219 103.09C97.7634 103.829 98.4796 105.105 99.3749 106.067L99.912 108.238L96.6443 107.164C97.1814 107.164 97.741 107.164 98.2782 107.164C98.1886 106.627 97.5843 106.112 97.1591 105.843C96.3309 105.351 88.2286 101.926 87.4229 101.725C89.9073 100.561 87.5124 99.8673 87.4229 99.554C87.2662 99.0392 87.4453 98.1439 87.1767 97.3829C86.259 94.7418 84.1999 91.7203 85.7442 88.9225C87.4229 87.7363 95.3909 90.0864 97.741 90.3102V90.2878ZM94.4956 96.2638L88.5196 95.1671C88.3405 96.3533 88.9896 96.4876 89.9073 96.7562C90.4221 96.9129 96.1966 97.9201 94.4956 96.2415V96.2638Z" fill="#21201F"/>
<path d="M123.862 148.994L123.302 157.164L111.887 157.701V148.994H123.862Z" fill="#F3F4F4"/>
<path d="M126.569 127.532C126.681 127.174 127.397 126.659 127.867 126.749L138.521 127.823L136.887 135.97H126.546V127.532H126.569Z" fill="#F3F4F4"/>
<path d="M136.351 137.58L136.239 143.847C134.426 144.407 135.904 146.354 134.449 147.361H126.011V137.58H136.351Z" fill="#F3F4F4"/>
<path d="M24.8878 174.018L4.22925 173.749C7.04938 172.765 13.4282 166.251 15.8903 166.408C18.3523 166.565 22.5601 172.541 24.9102 174.018H24.8878Z" fill="#88C7CA"/>
<path d="M79.8139 136.507L81.4477 146.288H73.5693C72.2264 143.49 71.5997 139.685 71.1296 136.507H79.8362H79.8139Z" fill="#F3F4F4"/>
<path d="M81.9844 148.457L83.0811 158.798L76.3217 158.82L73.8149 148.457H81.9844Z" fill="#F3F4F4"/>
<path d="M134.717 148.994L133.128 156.38L125.473 157.164V148.994H134.717Z" fill="#F3F4F4"/>
<path d="M78.3361 182.007C75.9188 180.082 76.5455 174.979 80.619 174.531C90.8028 173.412 85.0954 187.378 78.3361 182.007Z" fill="#DD433A"/>
<path d="M119.877 174.667C128.136 172.138 128.292 184.202 121.108 183.015C116.9 182.322 116.631 175.652 119.877 174.667Z" fill="#DD433A"/>
<path d="M60.7661 125.069C59.4903 124.912 58.5279 125.293 58.595 126.703L47.1802 119.63C48.6126 119.339 50.0003 118.489 51.7909 118.511C56.1554 118.511 59.4008 121.063 60.7661 125.069Z" fill="#FAFAF9"/>
<path d="M85.2525 101.703C85.6106 101.703 86.0135 101.658 86.3492 101.703C86.685 101.747 87.1326 101.636 87.446 101.703C88.2517 101.904 96.354 105.351 97.1821 105.821C97.6298 106.09 98.2341 106.604 98.3012 107.142C97.7641 107.142 97.2045 107.142 96.6673 107.142C93.9367 107.186 84.8944 105.508 83.3501 103.292C82.9472 102.71 83.1934 101.904 83.0591 101.703H85.2301H85.2525Z" fill="#F3F4F4"/>
<path d="M54.2537 108.216V111.484C51.165 111.193 46.1514 112.938 46.6438 108.216H54.2537Z" fill="#DD433A"/>
<path d="M18.3526 123.456H17.2559C17.2559 126.164 17.2559 128.894 17.2559 131.603L16.7188 115.846L18.3526 123.456Z" fill="#348F91"/>
<path d="M87.4238 99.5323C87.5134 99.8456 89.9082 100.539 87.4238 101.703C87.1329 101.636 86.6852 101.748 86.3271 101.703L86.0585 100.607H85.2528V101.703H83.0817C82.746 101.099 81.3136 100.808 81.985 98.9951L87.4238 99.5323Z" fill="#030303"/>
<path d="M95.5708 82.1182C97.4957 81.7825 96.3989 83.864 96.6675 85.0055C96.757 85.386 97.4509 85.386 97.5404 85.565C97.9209 86.5275 97.6747 87.7137 98.8386 88.0942V88.6314L97.7419 89.7281C96.869 86.8408 96.3094 85.3188 95.5708 82.1182Z" fill="#21201F"/>
<path d="M60.7669 125.068C61.2369 126.433 61.2593 128.515 61.8636 129.97C60.7669 128.895 59.5359 127.911 58.5958 126.702C58.5287 125.292 59.4911 124.911 60.7669 125.068Z" fill="#47A9A8"/>
<path d="M15.1067 114.751V111.483C15.1738 111.953 16.5839 113.856 15.1067 114.751Z" fill="#21201F"/>
<path d="M79.2539 87.5557H80.3506V88.6524C78.851 88.8091 79.3882 88.6076 79.2539 87.5557Z" fill="#21201F"/>
<path d="M18.9119 125.066C18.3748 124.887 18.4195 124.44 18.3748 123.97C18.9119 124.104 18.8672 124.596 18.9119 125.066Z" fill="#21201F"/>
<path d="M136.91 59.289H137.985V60.0947L136.888 60.3633C136.865 60.0052 136.91 59.6247 136.888 59.2666L136.91 59.289Z" fill="#191918"/>
<path d="M109.716 37.5342C109.694 38.0042 109.716 38.4742 109.179 38.6309C109.179 38.5638 108.418 38.1161 108.642 37.5566H109.716V37.5342Z" fill="#191918"/>
<path d="M139.618 64.7247C139.618 64.7247 139.103 64.6127 139.081 63.6279L139.618 64.7247Z" fill="#191918"/>
<path d="M138.252 54.3857C138.611 54.5648 138.611 54.7439 138.252 54.9229V54.3857Z" fill="#191918"/>
<path d="M83.0591 20.1431C81.9848 24.1047 78.0232 26.0519 74.3525 27.1934C75.4269 23.3884 78.8289 19.7178 83.0591 20.1431Z" fill="#71BDBD"/>
<path d="M45.5467 143.019C46.7106 144.093 47.7178 145.682 49.0831 146.824C51.2989 148.659 57.4539 152.106 58.864 153.896C59.1774 154.299 59.1997 154.501 59.1326 154.993C58.4835 155.15 56.7153 154.792 56.4244 154.993C54.3876 153.135 51.7689 151.793 49.6426 150.091C48.2326 148.95 40.7122 142.683 42.3013 140.87C43.4428 140.96 44.741 142.28 45.5691 143.041L45.5467 143.019Z" fill="#191918"/>
<path d="M51.5227 133.238L60.2741 145.459C60.856 145.974 60.6098 147.003 60.7665 147.384C57.3868 145.369 52.8432 139.617 51.0527 136.17C49.2621 132.723 51.2989 133.507 51.5227 133.261V133.238Z" fill="#21201F"/>
<path d="M122.361 39.57C120.011 37.2199 123.727 30.5053 125.226 37.5332C125.831 40.3086 123.973 41.2039 122.361 39.57Z" fill="#21201F"/>
<path d="M113.857 34.8472C116.23 34.422 116.521 40.5771 113.253 40.2861C110.545 40.0399 112.335 35.1158 113.857 34.8472Z" fill="#21201F"/>
<path d="M121.13 47.8721C120.772 52.0799 114.773 52.8185 115.691 47.8721H121.13Z" fill="#21201F"/>
<path d="M82.5211 72.8741L82.2749 76.1642C80.5738 78.7158 76.2317 72.0236 82.5211 72.8741Z" fill="#191918"/>
<path d="M94.496 96.2638C96.197 97.9424 90.4225 96.9128 89.9077 96.7786C88.99 96.51 88.341 96.3533 88.52 95.1895L94.496 96.2861V96.2638Z" fill="#71BDBD"/>
<path d="M85.2524 101.701V100.627H86.0581L86.3267 101.724C85.991 101.679 85.5881 101.724 85.23 101.724L85.2524 101.701Z" fill="#21201F"/>
</svg>
