<svg width="23" height="22" viewBox="0 0 23 22" fill="none" xmlns="http://www.w3.org/2000/svg">
<path d="M21.6515 3.38441L19.5889 1.32191C19.3878 1.12073 19.0615 1.12048 18.8602 1.32166C18.8602 1.32178 18.8601 1.32191 18.8598 1.32191L12.6725 7.50954C12.5757 7.60615 12.5215 7.7372 12.5215 7.87393V9.93656C12.5215 10.2212 12.7523 10.4521 13.037 10.4521H15.0996C15.2363 10.4521 15.3674 10.3978 15.464 10.3011L21.6515 4.11358C21.8528 3.9124 21.8529 3.58609 21.6519 3.38479C21.6518 3.38479 21.6518 3.38454 21.6515 3.38441ZM14.8861 9.42093H13.5526V8.0876L19.2245 2.41572L20.5578 3.74906L14.8861 9.42093Z" fill="#008080"/>
<path d="M20.2557 7.35827C19.9711 7.35827 19.7402 7.58909 19.7402 7.87377V15.0925C19.7394 15.9464 19.0473 16.6385 18.1934 16.6395H13.0371C12.9255 16.6393 12.8169 16.6755 12.7277 16.7426L9.42774 19.2177V17.1552C9.42774 16.8703 9.19692 16.6395 8.91211 16.6395H3.75586C2.90195 16.6385 2.20987 15.9464 2.20911 15.0927V5.81127C2.20999 4.95749 2.90195 4.26541 3.75586 4.26452H13.0371C13.3219 4.26452 13.5527 4.0337 13.5527 3.7489C13.5527 3.46422 13.3219 3.2334 13.0371 3.2334H3.75586C2.33259 3.23479 1.17912 4.38826 1.17773 5.81127V15.0927C1.17912 16.5158 2.33259 17.6693 3.75586 17.6708H8.39649V20.2489C8.39649 20.5336 8.62731 20.7644 8.91211 20.7644C9.02374 20.7644 9.13221 20.7282 9.22151 20.6614L13.2095 17.6707H18.1934C19.6166 17.6693 20.77 16.5158 20.7715 15.0925V7.8739C20.7715 7.58909 20.5405 7.35827 20.2557 7.35827Z" fill="#008080"/>
<path d="M9.94324 6.32715H4.78724C4.5023 6.32715 4.27148 6.55797 4.27148 6.84277C4.27148 7.12745 4.5023 7.35827 4.78724 7.35827H9.94324C10.228 7.35827 10.459 7.12745 10.459 6.84277C10.459 6.55797 10.228 6.32715 9.94324 6.32715Z" fill="#008080"/>
<path d="M4.78724 10.4521H9.94324C10.228 10.4521 10.459 10.2212 10.459 9.93652C10.459 9.65172 10.228 9.4209 9.94324 9.4209H4.78724C4.5023 9.4209 4.27148 9.65172 4.27148 9.93652C4.27148 10.2212 4.5023 10.4521 4.78724 10.4521Z" fill="#008080"/>
<path d="M4.78724 13.5458H17.1621C17.4469 13.5458 17.6776 13.315 17.6776 13.0301C17.6776 12.7455 17.4468 12.5146 17.1621 12.5146H4.78724C4.5023 12.5146 4.27148 12.7455 4.27148 13.0301C4.27148 13.315 4.5023 13.5458 4.78724 13.5458Z" fill="#008080"/>
</svg>
