<svg width="25" height="25" viewBox="0 0 25 25" fill="none" xmlns="http://www.w3.org/2000/svg">
<path d="M21.7424 8.80742C21.7424 8.5916 21.9195 8.41992 22.1299 8.41992C22.3457 8.41992 22.523 8.5916 22.523 8.80742V20.5492C22.523 20.765 22.3459 20.9424 22.1299 20.9424H15.0764C14.8605 20.9424 14.6889 20.7652 14.6889 20.5492C14.6889 20.3332 14.8605 20.1617 15.0764 20.1617H21.7424V8.80742ZM7.31953 11.177C7.31953 11.3928 7.14219 11.5645 6.92637 11.5645C6.71055 11.5645 6.5332 11.393 6.5332 11.177V8.80742C6.5332 8.5916 6.71035 8.41992 6.92637 8.41992C7.14238 8.41992 7.31953 8.5916 7.31953 8.80742V11.177Z" fill="white"/>
<path d="M2.75157 20.3828C3.63751 19.4307 4.51232 19.3809 5.73028 19.6797L8.01134 20.2387C8.34357 20.3219 8.60372 20.5543 8.7588 20.8422C8.83087 20.9807 8.88067 21.1301 8.90275 21.285C8.90821 21.3348 8.91388 21.3903 8.91388 21.4455L12.7453 20.2553C13.1992 20.0948 13.609 20.2221 13.8858 20.4823C14.0076 20.5987 14.1016 20.7371 14.1627 20.892C14.2291 21.0471 14.2567 21.2133 14.2512 21.3791C14.2346 21.7666 14.0242 22.1541 13.5481 22.3756C11.7598 23.2284 9.89396 24.0198 8.07775 24.8336C7.9504 24.8948 7.81759 24.9334 7.68458 24.9555C7.55177 24.9776 7.41896 24.9832 7.28048 24.9666L1.93204 24.5071C1.71622 24.4905 1.55548 24.3022 1.57775 24.0864L1.59435 20.9366C1.59435 20.7317 1.76036 20.56 1.95978 20.5491C2.14806 20.5325 2.62423 20.5213 2.75157 20.3828ZM5.18224 22.3535C4.97169 22.3481 4.80021 22.1653 4.81134 21.9494C4.81681 21.7336 4.99942 21.5676 5.21564 21.5787L8.05587 21.695C8.09454 21.6563 8.11134 21.6176 8.12228 21.5678C8.13888 21.5178 8.13888 21.4571 8.12775 21.3961C8.12228 21.3295 8.10001 21.2633 8.06681 21.208C8.01153 21.1028 7.92853 21.0198 7.82872 20.9977L5.54767 20.4385C4.23536 20.1174 3.90333 20.4053 3.34396 20.8981L3.29962 20.9369C3.06153 21.175 2.6961 21.258 2.36935 21.2965L2.35821 23.7602L7.34122 24.1918C7.42423 24.1973 7.49083 24.1973 7.55704 24.1864C7.62345 24.1752 7.69552 24.1532 7.76193 24.12L13.21 21.6785C13.4037 21.5789 13.5367 21.4129 13.4424 21.1862C13.3594 20.9868 13.1822 20.9313 12.9828 20.9979L8.28771 22.4592H8.28224C8.24357 22.4703 8.19923 22.4758 8.16036 22.4758L5.18224 22.3535Z" fill="white"/>
<path d="M3.6708 18.5561C3.6708 18.7717 3.49365 18.9492 3.2833 18.9492C3.06748 18.9492 2.89014 18.7719 2.89014 18.5561V13.4186C2.89014 12.865 3.34424 12.4111 3.89795 12.4111H12.347C12.9005 12.4111 13.3546 12.865 13.3546 13.4186V19.1373C13.3546 19.3531 13.1774 19.5305 12.9614 19.5305C12.7454 19.5305 12.5739 19.3533 12.5739 19.1373V13.4186C12.5739 13.2969 12.4743 13.1971 12.347 13.1971H3.89775C3.77041 13.1971 3.6708 13.2969 3.6708 13.4186V18.5561Z" fill="white"/>
<path d="M6.92656 12.4111H9.31855C9.53437 12.4111 9.70605 12.5883 9.70605 12.8041V15.7492C9.70605 15.9816 9.57324 16.1922 9.35723 16.2861C9.14668 16.3801 8.89746 16.3414 8.72598 16.1865L8.13926 15.6496L7.5082 16.2031C7.4252 16.275 7.31992 16.3248 7.20918 16.3414C6.85469 16.3969 6.53906 16.1145 6.53906 15.7602V12.8043C6.53906 12.5883 6.71055 12.4111 6.92656 12.4111ZM8.9252 13.1971H7.31973V15.334L7.75156 14.9467C7.86777 14.8469 8.00625 14.8027 8.14473 14.8027C8.2832 14.8027 8.42715 14.8525 8.53223 14.9523L8.9252 15.3121V13.1971Z" fill="white"/>
<path d="M9.98272 19.3697C9.76689 19.3697 9.59521 19.1926 9.59521 18.9766C9.59521 18.7605 9.76689 18.5889 9.98272 18.5889H11.0622C11.278 18.5889 11.4554 18.7605 11.4554 18.9766C11.4554 19.1924 11.278 19.3697 11.0622 19.3697H9.98272Z" fill="white"/>
<path d="M16.8867 13.2197H19.0959C19.4172 13.2197 19.7104 13.3527 19.9209 13.5631V13.5686C20.1367 13.7789 20.2643 14.0723 20.2643 14.3936V20.5496C20.2643 20.7654 20.0926 20.9428 19.8768 20.9428H16.1061C15.8902 20.9428 15.7129 20.7656 15.7129 20.5496V14.3934C15.7129 14.0721 15.8459 13.7789 16.0563 13.5684V13.5629H16.0617C16.2721 13.3525 16.5654 13.2197 16.8867 13.2197ZM19.0957 14.0004H16.8867C16.776 14.0004 16.6818 14.0447 16.6098 14.1168C16.5379 14.1887 16.4936 14.2828 16.4936 14.3936V20.1619H19.4834V14.3934C19.4834 14.2826 19.4391 14.1885 19.3729 14.1166C19.3006 14.0445 19.2012 14.0004 19.0957 14.0004Z" fill="white"/>
<path d="M14.5281 6.39941C15.1928 6.39941 15.7906 6.6707 16.2281 7.10254C16.66 7.53984 16.9313 8.1377 16.9313 8.80215C16.9313 9.01797 16.7541 9.18965 16.5381 9.18965H12.5186C12.3025 9.18965 12.1309 9.01816 12.1309 8.80215C12.1309 8.13789 12.3967 7.54004 12.834 7.10254C13.2658 6.6707 13.8693 6.39941 14.5281 6.39941ZM15.6744 7.65605C15.3809 7.3627 14.9768 7.17988 14.5281 7.17988C14.0797 7.17988 13.6756 7.3627 13.3822 7.65605C13.1828 7.86094 13.0279 8.1209 12.9559 8.40879H16.1008C16.0287 8.12109 15.8793 7.86094 15.6744 7.65605Z" fill="white"/>
<path fill-rule="evenodd" clip-rule="evenodd" d="M18.5919 17.4709C18.8077 17.4709 18.9796 17.2938 18.9796 17.0836C18.9796 16.8678 18.8077 16.6904 18.5919 16.6904C18.3761 16.6904 18.1987 16.8676 18.1987 17.0836C18.1989 17.2938 18.3761 17.4709 18.5919 17.4709Z" fill="white"/>
<path d="M19.1959 3.47598C19.1959 3.6918 19.0242 3.86348 18.8082 3.86348C18.5924 3.86348 18.415 3.6918 18.415 3.47598V1.8043C18.415 1.58848 18.5922 1.41113 18.8082 1.41113H20.8348C21.0506 1.41113 21.2279 1.58828 21.2279 1.8043V5.03164C21.2279 5.24746 21.0508 5.42461 20.8348 5.42461C20.6188 5.42461 20.4473 5.24746 20.4473 5.03164V2.19727H19.1961L19.1959 3.47598Z" fill="white"/>
<path d="M14.5281 3.4543L6.31739 9.76523C6.05723 9.96465 5.74727 10.042 5.44825 10.0033C5.15489 9.96465 4.87227 9.80957 4.67305 9.55488L4.31876 9.10098C4.21348 8.97363 4.14161 8.82969 4.10294 8.67461C4.0586 8.51973 4.04747 8.35898 4.06973 8.19844C4.08634 8.03242 4.13614 7.87734 4.21934 7.73887C4.29688 7.60059 4.40216 7.47871 4.53497 7.3791C4.54044 7.37363 4.55157 7.36797 4.55704 7.3625L13.8141 0.249023C14.0299 0.0828125 14.2789 0 14.5281 0C14.7775 0 15.0268 0.0828125 15.2426 0.249023L24.5275 7.3793C24.6604 7.47891 24.7656 7.60059 24.843 7.73906C24.9205 7.87754 24.9703 8.03242 24.9926 8.19863C25.0092 8.35918 24.9981 8.51973 24.9594 8.6748C24.915 8.82969 24.843 8.97363 24.7436 9.10117L24.3893 9.55508C24.1899 9.80977 23.9076 9.96484 23.6086 10.0035C23.3098 10.0424 22.9994 9.96484 22.7447 9.76543L14.5281 3.4543ZM5.84122 9.15078L14.2844 2.6627C14.4229 2.55195 14.6221 2.54648 14.7662 2.65723L23.2152 9.15078C23.3039 9.21719 23.409 9.24492 23.5088 9.22832C23.6084 9.21719 23.7025 9.16191 23.7744 9.07324L24.1287 8.625C24.1674 8.5752 24.1951 8.52539 24.2061 8.46992C24.2227 8.42012 24.2227 8.35918 24.2172 8.29277C24.2061 8.22637 24.1895 8.1709 24.1674 8.12656C24.1397 8.07695 24.101 8.03809 24.051 7.99941L14.7719 0.863477C14.7 0.808008 14.6168 0.780273 14.5281 0.780273C14.4451 0.780273 14.3621 0.808008 14.29 0.863477L5.03301 7.97715C5.02188 7.98262 5.01641 7.99375 5.00528 7.99922C4.96094 8.03789 4.92227 8.07676 4.89454 8.12637C4.8668 8.1707 4.8502 8.22598 4.84473 8.29258C4.8336 8.35898 4.83927 8.41992 4.8502 8.46973C4.8668 8.5252 4.89454 8.575 4.93321 8.6248L5.28204 9.07305C5.35411 9.16172 5.44825 9.21699 5.55333 9.22813C5.65294 9.24473 5.75821 9.21719 5.84122 9.15078Z" fill="white"/>
<path d="M0.747461 19.7578H1.62793C1.83281 19.7578 2.02109 19.8408 2.15391 19.9791C2.29219 20.1121 2.37539 20.3002 2.37539 20.5049V24.2527C2.37539 24.4576 2.29238 24.6457 2.15391 24.7785C2.0209 24.9172 1.83262 25.0002 1.62773 25.0002H0.747461C0.542578 25.0002 0.354492 24.9172 0.221484 24.7787C0.0830078 24.6459 0 24.4578 0 24.2529V20.5051C0 20.3002 0.0830078 20.1121 0.221484 19.9793C0.354297 19.8408 0.542578 19.7578 0.747461 19.7578ZM1.59473 20.5383H0.780859V24.2195H1.59473V20.5383Z" fill="white"/>
</svg>
