<svg width="17" height="17" viewBox="0 0 17 17" fill="none" xmlns="http://www.w3.org/2000/svg">
<path d="M11.2919 8.73749L8.61048 9.43471C8.44476 9.47781 8.27089 9.47867 8.10475 9.43725L5.27604 8.73189C4.82744 8.62002 4.51263 8.21709 4.51263 7.75477V4.66435C4.51263 2.75493 6.06053 1.20703 7.96995 1.20703H8.5882C10.4976 1.20703 12.0455 2.75493 12.0455 4.66435V7.76284C12.0455 8.22142 11.7357 8.62209 11.2919 8.73749Z" fill="#FFDB56"/>
<path d="M8.58818 1.20703H7.96993C7.81463 1.20703 7.66179 1.21745 7.5119 1.23728C9.20478 1.46137 10.5112 2.91022 10.5112 4.66432V7.76282C10.5112 8.22139 10.2014 8.62206 9.75758 8.73746L7.57474 9.30503L8.10476 9.43719C8.27089 9.47861 8.44477 9.47775 8.61049 9.43466L11.2919 8.73743C11.7357 8.62204 12.0455 8.22136 12.0455 7.76279V4.66432C12.0455 2.7549 10.4976 1.20703 8.58818 1.20703Z" fill="#FFDB56"/>
<path d="M4.67269 6.82238H5.40634V5.03125H4.67269C4.45714 5.03125 4.28241 5.20598 4.28241 5.42153V6.43213C4.28241 6.64764 4.45714 6.82238 4.67269 6.82238Z" fill="#272F2F"/>
<path d="M12.0333 6.82238H11.2996V5.03125H12.0333C12.2488 5.03125 12.4235 5.20598 12.4235 5.42153V6.43213C12.4236 6.64764 12.2488 6.82238 12.0333 6.82238Z" fill="#272F2F"/>
<path d="M10.0095 9.9481C9.75291 9.89654 9.56831 9.67115 9.56831 9.40942V8.1709H8.35295H7.13759V9.40942C7.13759 9.67115 6.95298 9.89654 6.69641 9.9481L6.40027 10.0076V11.9965H8.35295H10.3056V10.0076L10.0095 9.9481Z" fill="#FED9A8"/>
<path d="M12.54 10.6157L10.1022 9.85563C10.0265 9.83203 9.94405 9.8512 9.8865 9.90574L8.35297 11.359L6.81943 9.90574C6.76189 9.85122 6.67939 9.83206 6.6037 9.85563L4.16597 10.6157C3.0852 10.9339 2.34314 11.926 2.34314 13.0526V14.6766C2.34314 14.8059 2.44795 14.9107 2.57721 14.9107H14.1287C14.258 14.9107 14.3628 14.8059 14.3628 14.6766V13.0526C14.3628 11.926 13.6207 10.9339 12.54 10.6157Z" fill="#28E0CE"/>
<path d="M12.54 10.6157L10.1022 9.85563C10.0266 9.83203 9.94405 9.8512 9.88651 9.90574L9.59985 10.1774L11.0057 10.6157C12.0864 10.9339 12.8285 11.926 12.8285 13.0526V14.9107H14.1287C14.258 14.9107 14.3628 14.8059 14.3628 14.6766V13.0526C14.3628 11.926 13.6207 10.9339 12.54 10.6157Z" fill="#1DCEBD"/>
<path d="M8.353 9.20083C6.67986 9.20083 5.32355 7.84448 5.32355 6.17137V5.31998C5.32355 3.64687 6.67989 2.29053 8.353 2.29053C10.0261 2.29053 11.3825 3.64687 11.3825 5.31998V6.17137C11.3825 7.84451 10.0261 9.20083 8.353 9.20083Z" fill="#FED9A8"/>
<path d="M9.84812 2.68457V6.17117C9.84812 7.57924 8.88745 8.76284 7.58582 9.10254C7.83083 9.16649 8.0879 9.20062 8.35297 9.20062C10.0261 9.20062 11.3824 7.84428 11.3824 6.17117V5.31981C11.3824 4.19045 10.7644 3.20555 9.84812 2.68457Z" fill="#F4C892"/>
<path d="M6.8194 9.9057L8.35294 11.359L7.40716 11.6812C7.17543 11.7601 6.91897 11.6915 6.75764 11.5074L5.58783 10.1724L6.60364 9.85565C6.67933 9.83202 6.76186 9.85119 6.8194 9.9057Z" fill="#22D6C5"/>
<path d="M9.8865 9.90571L8.35297 11.359L9.21015 11.651C9.49548 11.7482 9.81128 11.6637 10.0099 11.437L11.1181 10.1723L10.1023 9.85563C10.0266 9.83203 9.94404 9.8512 9.8865 9.90571Z" fill="#22D6C5"/>
<path d="M6.54337 13.7087H4.98409C4.89751 13.7087 4.82733 13.6386 4.82733 13.552V12.8613C4.82733 12.7748 4.89751 12.7046 4.98409 12.7046H6.54337C6.62995 12.7046 6.70013 12.7748 6.70013 12.8613V13.552C6.70013 13.6386 6.62995 13.7087 6.54337 13.7087Z" fill="#FFDB56"/>
<path d="M12.0455 5.30292C12.0455 5.30292 10.7384 5.19919 10.2912 3.99693C10.2912 3.99693 7.13163 6.52653 4.51263 5.30292V4.66435C4.51263 2.75493 6.06053 1.20703 7.96995 1.20703H8.5882C10.4976 1.20703 12.0455 2.75493 12.0455 4.66435L12.0455 5.30292Z" fill="#FFDB56"/>
<path d="M8.58818 1.20703H7.96993C7.81463 1.20703 7.66179 1.21745 7.5119 1.23728C9.12156 1.45037 10.3817 2.77076 10.5017 4.40799C11.0529 5.22398 12.0455 5.30289 12.0455 5.30289V4.66432C12.0455 2.7549 10.4976 1.20703 8.58818 1.20703Z" fill="#FFDB56"/>
<path d="M8.89305 8.82392C8.70172 8.82392 8.53253 8.68627 8.49911 8.49133C8.46175 8.2735 8.60805 8.06661 8.82589 8.02928L9.50067 7.91355C9.71855 7.87614 9.92538 8.0225 9.96274 8.24033C10.0001 8.45816 9.8538 8.66504 9.63597 8.70238L8.96119 8.8181C8.9383 8.82205 8.91553 8.82392 8.89305 8.82392Z" fill="#F16461"/>
<path d="M13.8863 11.407C13.5285 10.9287 13.0367 10.5866 12.4639 10.4176L11.0439 9.97482C11.0439 9.97484 11.0437 9.97479 11.0439 9.97482L10.0278 9.65802C9.93695 9.62962 9.84093 9.63312 9.75441 9.66483C9.6825 9.60078 9.63918 9.50797 9.63918 9.4092V9.34567L11.2078 8.9378C11.7428 8.79869 12.1164 8.31555 12.1164 7.76281V6.98777C12.3375 6.90017 12.4944 6.68432 12.4944 6.43238V5.42178C12.4944 5.16833 12.3389 4.95356 12.1164 4.86667V4.66431C12.1164 4.50838 12.1065 4.3514 12.0869 4.19765C12.0725 4.08427 11.9688 4.00428 11.8555 4.01843C11.7421 4.03285 11.6618 4.13647 11.6763 4.24988C11.6936 4.38637 11.7024 4.52578 11.7024 4.66431V5.03214V5.05649C11.5916 5.02985 11.4489 4.98631 11.2959 4.9165C11.2886 4.91319 11.2814 4.9098 11.2742 4.90643C10.9819 4.76914 10.6563 4.53504 10.4451 4.13829C10.442 4.13228 10.4388 4.12624 10.4357 4.12017C10.4278 4.10487 10.42 4.08937 10.4124 4.07357C10.4066 4.06133 10.401 4.04889 10.3954 4.03646C10.3902 4.02496 10.3849 4.0136 10.3799 4.00188C10.3692 3.97651 10.3588 3.95084 10.3491 3.92468C10.3259 3.86241 10.2743 3.81507 10.2103 3.79737C10.1942 3.79293 10.1779 3.79047 10.1617 3.78995C10.1586 3.78984 10.1555 3.79014 10.1525 3.7902C10.1474 3.79025 10.1424 3.79017 10.1374 3.79061C10.1017 3.79367 10.0673 3.80627 10.0373 3.82704C10.0335 3.82974 10.0295 3.83228 10.0257 3.83525C10.025 3.83583 10.0221 3.83815 10.0174 3.84176C10.0169 3.84217 10.0166 3.84245 10.016 3.84289C10.0142 3.84424 10.0119 3.84601 10.0098 3.84769C10.0082 3.8489 10.0067 3.85009 10.0049 3.85147C10.003 3.8529 10.0008 3.85461 9.99866 3.85624C9.99559 3.85858 9.99242 3.86101 9.98887 3.86371C9.98727 3.86492 9.9855 3.86627 9.98379 3.86757C9.97908 3.87113 9.97406 3.87493 9.96857 3.87907C9.96744 3.87992 9.96626 3.88081 9.9651 3.88169C9.5821 4.16898 7.45088 5.68064 5.40564 5.39214C5.40203 5.39162 5.39842 5.39107 5.3948 5.39054C5.36194 5.3858 5.32907 5.38051 5.29626 5.37483C5.28688 5.3732 5.27753 5.37152 5.26816 5.36981C5.23981 5.36465 5.21152 5.35911 5.18323 5.35324C5.17413 5.35133 5.16498 5.34951 5.15591 5.34753C5.12323 5.34047 5.09061 5.33289 5.05802 5.32481C5.04478 5.32152 5.03166 5.31794 5.01848 5.31449C4.9983 5.30923 4.97817 5.3038 4.95804 5.29814C4.94213 5.29368 4.92622 5.28913 4.91039 5.28441C4.88839 5.27785 4.86641 5.27096 4.84446 5.26392C4.82478 5.25761 4.80517 5.2511 4.78562 5.24443C4.76356 5.2369 4.74153 5.22921 4.71955 5.22116C4.70646 5.21636 4.69339 5.21151 4.68037 5.20654C4.65073 5.19527 4.62114 5.18366 4.59164 5.17141C4.58894 5.17028 4.58618 5.16926 4.58348 5.16813V5.06608V4.66428C4.58348 2.87205 6.04157 1.41396 7.8338 1.41396H8.45205C9.75179 1.41396 10.9241 2.18533 11.4385 3.37916C11.4837 3.48416 11.6055 3.53261 11.7105 3.48733C11.8155 3.44208 11.8639 3.32032 11.8187 3.21534C11.2387 1.86959 9.91726 1 8.45205 1H7.83383C5.81332 1 4.16954 2.64377 4.16954 4.66428V4.95138C4.0266 5.06305 3.93928 5.2358 3.93928 5.42176V6.43235C3.93928 6.62338 4.02955 6.79362 4.16954 6.90304V7.7547C4.16954 8.31318 4.54799 8.79756 5.08984 8.93267L6.79449 9.35775V9.4092C6.79449 9.508 6.75118 9.60084 6.67924 9.66489C6.59271 9.63321 6.49673 9.62973 6.40596 9.65802L5.39014 9.97473C5.39025 9.97471 5.39003 9.97476 5.39014 9.97473L3.96983 10.4176C3.18255 10.6499 2.54549 11.2159 2.22183 11.9707C2.19696 12.0287 2.17377 12.0884 2.15295 12.1481C2.11529 12.2561 2.17222 12.3741 2.28018 12.4117C2.38813 12.4493 2.50611 12.3925 2.54381 12.2845C2.56151 12.2338 2.5812 12.1831 2.60232 12.1338C2.87739 11.4922 3.41902 11.0113 4.08829 10.8142C4.08933 10.8139 4.09038 10.8136 4.09143 10.8133L5.3848 10.41L6.46584 11.6438C6.62312 11.8233 6.8457 11.9208 7.075 11.9208C7.16271 11.9208 7.25142 11.9065 7.3378 11.8771L8.21682 11.5777L9.00725 11.8469C9.10855 11.8814 9.21251 11.8982 9.31535 11.8982C9.58417 11.8981 9.84513 11.7838 10.0295 11.5734L11.0489 10.41L12.3422 10.8133C12.3433 10.8136 12.3443 10.8139 12.3454 10.8142C12.8324 10.9576 13.2507 11.2484 13.5548 11.6549C13.8589 12.0615 14.0197 12.5448 14.0197 13.0526V14.6766C14.0197 14.6915 14.0075 14.7037 13.9926 14.7037H12.8745V12.8114C12.8745 12.6971 12.7818 12.6045 12.6675 12.6045C12.5532 12.6045 12.4605 12.6971 12.4605 12.8114V14.7037H3.97314V12.8114C3.97314 12.6971 3.88046 12.6045 3.76614 12.6045C3.65182 12.6045 3.55915 12.6971 3.55915 12.8114V14.7037H2.44107C2.42612 14.7037 2.41399 14.6915 2.41399 14.6766V13.1859C2.41399 13.0716 2.32131 12.9789 2.20699 12.9789C2.09267 12.9789 2 13.0716 2 13.1859V14.6766C2 14.9198 2.19787 15.1176 2.44107 15.1176H13.9926C14.2358 15.1176 14.4336 14.9198 14.4336 14.6766V13.0526C14.4336 12.4548 14.2444 11.8857 13.8863 11.407ZM11.7024 7.76278C11.7024 8.12703 11.4562 8.44545 11.1037 8.5371L10.1096 8.79558C10.1224 8.78637 10.1346 8.77658 10.1472 8.7672C10.1524 8.76334 10.1575 8.7594 10.1626 8.75551C10.198 8.72882 10.2328 8.70144 10.267 8.67337C10.2715 8.6697 10.276 8.66604 10.2804 8.66234C10.3169 8.63204 10.3527 8.60102 10.3878 8.5692C10.3895 8.56765 10.3912 8.56616 10.3929 8.56462C10.449 8.51355 10.5033 8.46061 10.5556 8.40585C10.5595 8.40177 10.5634 8.39761 10.5672 8.39353C10.5931 8.36615 10.6186 8.33841 10.6435 8.31017L10.8772 8.27011C11.262 8.2041 11.5686 7.94182 11.7023 7.59618L11.7024 7.76278ZM11.4237 6.60772C11.433 6.53956 11.4401 6.47074 11.445 6.40128C11.4455 6.39425 11.4459 6.38722 11.4464 6.38021C11.4481 6.35308 11.4495 6.32589 11.4505 6.2986C11.4509 6.2898 11.4513 6.28103 11.4515 6.27223C11.4526 6.23859 11.4533 6.2049 11.4533 6.17101V5.41875C11.6947 5.49132 11.8706 5.50737 11.8925 5.50914C11.8924 5.50914 11.8926 5.50914 11.8925 5.50914C11.8926 5.50914 11.8931 5.50916 11.8932 5.50916C11.9507 5.51369 12.0074 5.494 12.0498 5.45484C12.0553 5.44971 12.0606 5.44428 12.0655 5.43866C12.0672 5.43667 12.0687 5.43452 12.0703 5.43248C12.0734 5.4287 12.0764 5.42493 12.0792 5.42096C12.0796 5.42043 12.08 5.41994 12.0804 5.41941C12.0804 5.42016 12.0804 5.42096 12.0804 5.42173V6.43233C12.0804 6.53041 12.0029 6.61051 11.9059 6.61514C11.9048 6.61517 11.9037 6.61503 11.9025 6.61508C11.8992 6.6152 11.896 6.61536 11.8924 6.61561H11.4227C11.4231 6.61302 11.4234 6.61037 11.4237 6.60772ZM11.0953 7.64959C11.1097 7.62158 11.1238 7.59331 11.1374 7.56483C11.1443 7.55041 11.151 7.5359 11.1577 7.5214C11.1705 7.4938 11.1829 7.46601 11.1949 7.43799C11.2011 7.42352 11.207 7.40893 11.213 7.39434C11.2234 7.36897 11.2335 7.34344 11.2432 7.31777C11.2477 7.30591 11.2524 7.29414 11.2568 7.28223C11.2688 7.24953 11.2801 7.21652 11.291 7.18335C11.2951 7.17097 11.2992 7.15862 11.3031 7.14618C11.3139 7.11204 11.3242 7.07766 11.3339 7.04305C11.3351 7.03856 11.3366 7.03418 11.3379 7.02968H11.3614V7.20488C11.3614 7.45247 11.2266 7.67126 11.0211 7.7863C11.0263 7.7772 11.0311 7.76783 11.0363 7.7587C11.0482 7.73761 11.0599 7.7164 11.0714 7.69503C11.0794 7.67989 11.0874 7.66481 11.0953 7.64959ZM4.46147 6.59934C4.46166 6.59942 4.4613 6.59926 4.46147 6.59934C4.39805 6.57047 4.35324 6.50647 4.35324 6.43238V5.5197C4.35931 5.52237 4.36545 5.52491 4.37152 5.52756C4.38103 5.53172 4.3906 5.5358 4.40017 5.53985C4.42074 5.54862 4.44139 5.5572 4.46216 5.56558C4.47123 5.56925 4.48024 5.57294 4.48934 5.57653C4.51725 5.58756 4.54529 5.59828 4.57353 5.60865C4.57468 5.60906 4.57581 5.60953 4.57697 5.60994C4.70814 5.6579 4.84284 5.6987 4.98035 5.73204V6.17104C4.98035 6.20493 4.98103 6.23862 4.98208 6.27226C4.98236 6.28106 4.98274 6.28983 4.98308 6.29862C4.98415 6.32592 4.98553 6.35311 4.98727 6.38024C4.98771 6.38727 4.98809 6.3943 4.98862 6.40131C4.99353 6.47074 5.00067 6.53956 5.0099 6.60775C5.01026 6.6104 5.01048 6.61304 5.01087 6.61566H4.53649C4.51077 6.61564 4.48551 6.61015 4.46147 6.59934ZM5.18999 8.53098C4.83291 8.44197 4.58351 8.12273 4.58351 7.7547V7.02963H5.09585C5.09706 7.03404 5.09855 7.03834 5.09977 7.04275C5.10969 7.07821 5.12023 7.11339 5.13134 7.14836C5.13523 7.16066 5.13925 7.1729 5.14331 7.18511C5.1545 7.219 5.16611 7.2527 5.17841 7.28606C5.18293 7.29833 5.1877 7.31049 5.19236 7.32271C5.20289 7.35028 5.21378 7.37772 5.22506 7.40493C5.23173 7.42109 5.23857 7.43716 5.24549 7.45321C5.25669 7.47902 5.26819 7.50466 5.28002 7.53011C5.28638 7.54385 5.29267 7.55761 5.29926 7.57125C5.31332 7.60045 5.32794 7.62932 5.34286 7.658C5.35071 7.67314 5.35866 7.68825 5.36676 7.70325C5.38154 7.73066 5.39668 7.75784 5.41223 7.78476C5.42136 7.80056 5.43073 7.81622 5.44011 7.83185C5.45174 7.85124 5.46363 7.87048 5.47565 7.88959C5.48993 7.91234 5.50452 7.93487 5.51938 7.95723C5.52939 7.97228 5.53951 7.98726 5.54977 8.00212C5.56772 8.0282 5.58608 8.05398 5.60478 8.07955C5.6141 8.09226 5.62344 8.10497 5.63293 8.11754C5.65474 8.14644 5.67713 8.1749 5.69988 8.20305C5.70746 8.21242 5.71493 8.22185 5.72263 8.23114C5.73801 8.24976 5.75359 8.26815 5.76936 8.2864C5.77311 8.29076 5.77697 8.29498 5.78075 8.29931C5.80995 8.33273 5.83981 8.36557 5.87039 8.39777C5.87552 8.40318 5.88071 8.4085 5.88589 8.41388C5.91581 8.44498 5.94636 8.4755 5.97752 8.50542C5.98245 8.51016 5.98742 8.5149 5.99238 8.51962C6.02483 8.55039 6.05795 8.58047 6.0917 8.60992C6.09567 8.61337 6.09958 8.61687 6.10356 8.62029C6.16107 8.66998 6.22033 8.71776 6.28141 8.76345C6.28237 8.7642 6.28339 8.76489 6.28436 8.76563C6.31055 8.78518 6.33663 8.80484 6.36344 8.82362L5.18999 8.53098ZM5.567 7.14337C5.56626 7.1413 5.56548 7.13926 5.56474 7.13719C5.55735 7.11701 5.55018 7.09671 5.54326 7.07634C5.54282 7.07501 5.54238 7.07369 5.54194 7.07237C5.52134 7.0114 5.50287 6.9495 5.4864 6.88674C5.48525 6.88233 5.484 6.87794 5.48287 6.87353C5.47901 6.85848 5.4754 6.84331 5.47176 6.82815C5.4692 6.81745 5.46663 6.80678 5.46421 6.79602C5.46115 6.78259 5.45825 6.76911 5.45538 6.7556C5.45304 6.74451 5.45075 6.73343 5.44855 6.72229C5.44623 6.71063 5.444 6.69896 5.44182 6.68725C5.43928 6.67346 5.43683 6.65964 5.43448 6.6458C5.43286 6.63618 5.43123 6.62653 5.42968 6.61688C5.42712 6.6008 5.42475 6.58467 5.42246 6.56854C5.42133 6.56065 5.4202 6.55277 5.41912 6.54486C5.41675 6.52699 5.41463 6.50909 5.41259 6.49117C5.41184 6.48458 5.41102 6.47799 5.41033 6.47137C5.40832 6.45237 5.40658 6.43335 5.40492 6.41432C5.40443 6.40848 5.40382 6.40266 5.40335 6.39681C5.40181 6.37732 5.40054 6.3578 5.39941 6.33827C5.39908 6.3327 5.39864 6.32716 5.39833 6.32156C5.39729 6.30168 5.39657 6.2818 5.39591 6.26192C5.39574 6.25663 5.39544 6.25139 5.3953 6.2461C5.39464 6.22106 5.39428 6.19599 5.39428 6.17093V5.80856C5.70211 5.84813 6.02461 5.85262 6.35858 5.82276C6.36948 5.82179 6.38045 5.82058 6.39137 5.81956C6.41845 5.81697 6.44558 5.81421 6.47279 5.81115C6.49687 5.8085 6.52099 5.80566 6.54517 5.80266C6.55198 5.8018 6.55882 5.80086 6.56566 5.79995C7.12758 5.72782 7.71873 5.561 8.32946 5.29891C9.12887 4.95584 9.75893 4.54075 10.0709 4.31779C10.318 4.79512 10.6925 5.08238 11.0381 5.25477C11.0386 5.27658 11.0392 5.2985 11.0392 5.31965V6.17101C11.0392 6.19608 11.0389 6.22111 11.0382 6.24618C11.0381 6.25147 11.0378 6.25671 11.0376 6.26201C11.037 6.28189 11.0362 6.30179 11.0352 6.32165C11.0349 6.32724 11.0344 6.33279 11.0341 6.33836C11.0329 6.35788 11.0317 6.3774 11.0302 6.3969C11.0297 6.40274 11.0291 6.40856 11.0286 6.4144C11.027 6.43343 11.0252 6.45246 11.0232 6.47145C11.0225 6.47807 11.0217 6.48463 11.0209 6.49125C11.0189 6.50917 11.0168 6.52707 11.0144 6.54494C11.0133 6.55285 11.0122 6.56074 11.011 6.56862C11.0088 6.58475 11.0064 6.60088 11.0038 6.61696C11.0023 6.62661 11.0007 6.63626 10.999 6.64588C10.9967 6.65973 10.9943 6.67354 10.9917 6.68733C10.9895 6.69905 10.9873 6.71071 10.985 6.72237C10.9828 6.73349 10.9805 6.7446 10.9781 6.75568C10.9753 6.76919 10.9724 6.78265 10.9693 6.79608C10.9669 6.80686 10.9643 6.81759 10.9617 6.82831C10.9581 6.84339 10.9545 6.8585 10.9507 6.8735C10.9495 6.87814 10.9482 6.88271 10.947 6.88735C10.9306 6.94969 10.9122 7.01121 10.8918 7.07179C10.8912 7.07339 10.8907 7.07498 10.8902 7.07658C10.8833 7.09677 10.8762 7.11687 10.8689 7.13683C10.8681 7.13912 10.8672 7.14144 10.8664 7.14373C10.7611 7.42955 10.6108 7.69371 10.4241 7.92775L9.95925 8.0075C9.91585 7.9312 9.85646 7.86436 9.78267 7.81216C9.65024 7.71847 9.48923 7.68193 9.32942 7.70948L8.65464 7.82521C8.32466 7.88179 8.10225 8.19626 8.15884 8.52624C8.19416 8.73227 8.32968 8.89807 8.51021 8.97828C8.4137 8.98829 8.31578 8.9935 8.21668 8.9935C7.80664 8.9935 7.41678 8.90551 7.06488 8.74757C7.05708 8.74407 7.0493 8.74048 7.04153 8.7369C6.36211 8.42444 5.82708 7.84986 5.567 7.14337ZM9.5899 8.41942C9.5601 8.46155 9.5157 8.48954 9.46483 8.49828L8.78994 8.614C8.77902 8.61588 8.76791 8.61684 8.75691 8.61684C8.6628 8.61684 8.58292 8.54932 8.56695 8.45626C8.54895 8.35126 8.6197 8.25122 8.7247 8.23319L9.39954 8.11746C9.41059 8.11558 9.42165 8.11462 9.43262 8.11462C9.47219 8.11462 9.51074 8.12681 9.54372 8.15011C9.58585 8.17989 9.61387 8.22433 9.62258 8.27518C9.63132 8.32605 9.61971 8.37726 9.5899 8.41942ZM7.20432 11.4852C7.05134 11.5373 6.88369 11.4925 6.77721 11.371L5.81709 10.2752L6.52918 10.0532C6.53326 10.0519 6.53773 10.053 6.54087 10.0559L7.82572 11.2736L7.20432 11.4852ZM8.21682 11.0738L7.00452 9.92494C7.1329 9.7871 7.20846 9.60329 7.20846 9.40917V9.24718C7.22191 9.25159 7.23556 9.25539 7.24907 9.25964C7.25588 9.26179 7.26275 9.26383 7.26956 9.26593C7.31053 9.2785 7.35173 9.29022 7.39314 9.30111C7.40059 9.30307 7.40801 9.30508 7.41548 9.30698C7.43856 9.31288 7.46166 9.31859 7.48485 9.32397C7.49087 9.32538 7.4969 9.32662 7.50294 9.32797C7.54281 9.33696 7.58282 9.3452 7.62303 9.35267C7.63698 9.35527 7.65096 9.35777 7.66496 9.3602C7.68443 9.36354 7.7039 9.36693 7.72345 9.36991C7.75287 9.37443 7.78246 9.37848 7.81213 9.3822C7.82768 9.38413 7.84326 9.38584 7.85883 9.38755C7.88393 9.39034 7.9091 9.39279 7.93436 9.395C7.94497 9.39591 7.95554 9.39701 7.96618 9.39784C8.00161 9.40057 8.03724 9.40253 8.07294 9.4041C8.08301 9.40454 8.0931 9.4049 8.10316 9.40526C8.14089 9.40655 8.17874 9.40746 8.2168 9.40746C8.25485 9.40746 8.29268 9.40655 8.33043 9.40526C8.34052 9.4049 8.35058 9.40454 8.36065 9.4041C8.39638 9.40253 8.43201 9.40054 8.46741 9.39784C8.47803 9.39704 8.48862 9.39591 8.49923 9.395C8.52449 9.39279 8.54966 9.39034 8.57475 9.38755C8.59033 9.38584 8.60591 9.38413 8.62146 9.3822C8.65113 9.37848 8.68072 9.37443 8.71014 9.36991C8.72969 9.36693 8.74916 9.36354 8.76863 9.3602C8.78263 9.35777 8.79661 9.35527 8.81056 9.35267C8.85077 9.3452 8.8908 9.33696 8.93065 9.32797C8.93666 9.32662 8.94273 9.32538 8.94874 9.32397C8.97193 9.31859 8.99506 9.31288 9.01811 9.30698C9.02558 9.30508 9.033 9.30307 9.04045 9.30111C9.08186 9.29022 9.12303 9.27847 9.16403 9.26593C9.17087 9.26383 9.17771 9.26179 9.18452 9.25964C9.19803 9.25539 9.21165 9.25162 9.22513 9.24718V9.40917C9.22513 9.60332 9.30069 9.78712 9.42907 9.92494L8.21682 11.0738ZM9.71812 11.3006C9.57413 11.4649 9.34745 11.5255 9.14073 11.4551L8.6079 11.2736L9.89275 10.0559C9.89586 10.053 9.90033 10.0519 9.90446 10.0532L10.6165 10.2753L9.71812 11.3006Z" fill="black"/>
<path d="M6.5434 13.9157C6.74397 13.9157 6.90715 13.7526 6.90715 13.552V12.8613C6.90715 12.6608 6.74397 12.4976 6.5434 12.4976H4.98411C4.78354 12.4976 4.62036 12.6607 4.62036 12.8613V13.552C4.62036 13.7525 4.78354 13.9157 4.98411 13.9157H6.5434ZM5.03432 12.9115H6.49316V13.5017H5.03432V12.9115Z" fill="black"/>
</svg>
