<svg width="350" height="350" viewBox="0 0 350 350" fill="none" xmlns="http://www.w3.org/2000/svg">
<path d="M126.93 209.565C126.93 209.565 120.178 204.853 117.079 205.709C113.979 206.565 109.995 210.922 109.995 210.922C109.995 210.922 117.865 208.657 120.239 209.128C122.614 209.601 126.93 209.565 126.93 209.565Z" fill="#E0E0E0"/>
<path d="M129.203 211.269C128.221 213.494 126.524 215.35 125.574 217.589C124.491 220.144 124.474 223.131 125.527 225.698C127.324 223.814 128.393 221.331 128.971 218.792C129.549 216.253 129.643 214.171 129.758 211.57L129.203 211.269Z" fill="#E0E0E0"/>
<path d="M128.168 210.685C128.478 209.776 120.831 210.172 118.395 213.121C115.959 216.07 113.522 219.276 115.574 226.712C115.574 226.712 120.189 218.651 120.189 218.771C120.189 218.892 127.555 212.481 128.168 210.685Z" fill="#E0E0E0"/>
<path d="M128.227 210.593C127.519 210.868 134.465 212.982 137.67 213.242C140.876 213.501 142.814 212.432 142.814 212.432C142.814 212.432 138.158 206.741 128.227 210.593Z" fill="#E0E0E0"/>
<path d="M163.32 239.859C163.32 239.859 166.664 238.5 167.605 239.441C168.545 240.381 172.412 245.502 176.07 245.816C176.07 245.816 172.726 238.709 169.695 237.56C167.702 236.804 163.32 239.859 163.32 239.859Z" fill="#E0E0E0"/>
<path d="M164.18 239.475C164.18 239.475 164.046 236.966 162.788 235.644C161.529 234.323 156.975 233.42 156.975 233.42C156.975 233.42 158.614 236.049 160.294 237.328C161.975 238.608 164.18 239.475 164.18 239.475Z" fill="#E0E0E0"/>
<path d="M164.175 239.331C164.175 239.331 161.847 239.295 160.2 242.207C158.554 245.119 157.659 248.776 157.796 248.533C157.933 248.291 162.189 246.428 163.309 244.072C164.428 241.715 164.175 239.331 164.175 239.331Z" fill="#E0E0E0"/>
<path d="M164.706 239.331C164.706 239.331 165.124 244.875 166.065 245.816C167.005 246.757 168.364 250.206 168.364 250.206C168.364 250.206 170.454 245.19 169.305 242.786C168.155 240.382 164.706 239.331 164.706 239.331Z" fill="#E0E0E0"/>
<path d="M144.392 250.038C144.124 250.441 138.758 254.599 137.953 256.61C137.148 258.622 137.819 261.707 137.953 262.647C138.088 263.585 142.782 261.439 143.587 257.818C144.392 254.196 144.392 250.038 144.392 250.038Z" fill="#E0E0E0"/>
<path d="M145.436 246.922C145.431 247.593 145.517 254.166 147.244 256.459C148.971 258.752 152.172 261.19 152.172 261.19C152.172 261.19 153.306 252.882 150.91 250.316C148.516 247.75 145.436 246.922 145.436 246.922Z" fill="#E0E0E0"/>
<path d="M144.648 248.051C144.257 247.958 139.403 247.5 137.096 250.263C134.788 253.025 133.495 256.165 133.495 256.165C133.495 256.165 140.834 252.524 142.179 250.913C143.526 249.301 144.648 248.051 144.648 248.051Z" fill="#E0E0E0"/>
<path d="M147.986 245.045C147.986 245.045 149.96 243.58 152.142 244.938C154.324 246.296 157.948 251.57 157.948 251.57C157.948 251.57 153.513 251.281 151.175 249.06C148.837 246.84 147.986 245.045 147.986 245.045Z" fill="#E0E0E0"/>
<path d="M144.831 245.858C144.831 245.858 142.015 243.465 139.868 242.932C137.722 242.4 131.418 243.972 131.418 243.972C131.418 243.972 134.368 246.229 138.728 245.858C143.088 245.486 144.831 245.858 144.831 245.858Z" fill="#E0E0E0"/>
<path d="M135.491 270.217C135.491 270.217 133.48 274.107 135.491 276.253C137.503 278.4 138.589 282.692 138.589 282.692C138.589 282.692 142.064 279.339 140.321 275.583C138.576 271.827 135.491 270.217 135.491 270.217Z" fill="#E0E0E0"/>
<path d="M132.263 270.301C131.727 270.569 128.239 275.264 127.97 278.617C127.702 281.97 127.434 287.738 127.97 287.336C128.507 286.933 132.397 283.311 133.47 279.824C134.543 276.337 132.263 270.301 132.263 270.301Z" fill="#E0E0E0"/>
<path d="M130.951 269.934C130.414 270.068 125.318 269.129 122.501 272.751C119.684 276.373 117.538 281.604 117.538 281.604C117.538 281.604 124.915 277.832 126.659 275.76C128.402 273.69 130.951 269.934 130.951 269.934Z" fill="#E0E0E0"/>
<path d="M159.739 263.495C159.739 263.495 158.206 268.056 159.739 272.079C161.272 276.104 163.015 278.786 163.015 278.786C163.015 278.786 165.285 270.738 163.815 268.592C162.344 266.446 159.739 263.495 159.739 263.495Z" fill="#E0E0E0"/>
<path d="M160.578 263.011C161.121 263.514 167.41 272.545 171.686 273.351C175.962 274.156 172.355 273.01 172.355 273.01C172.355 273.01 171.008 266.923 169.092 264.403C167.175 261.884 160.578 263.011 160.578 263.011Z" fill="#E0E0E0"/>
<path d="M159.62 262.853C159.62 262.853 164.263 259.633 166.077 258.811C167.934 257.971 173.893 259.072 173.893 259.072C173.893 259.072 166.604 262.866 164.851 262.463C163.099 262.061 159.62 263.613 159.62 263.613" fill="#E0E0E0"/>
<path d="M175.759 218.938C175.759 218.938 171.735 223.201 172.269 226.531C172.801 229.861 173.989 233.058 173.989 233.058L175.759 227.197V218.938Z" fill="#E0E0E0"/>
<path d="M176.303 218.086C176.303 218.086 175.37 224.613 177.235 227.277C179.1 229.942 181.631 235.003 181.897 234.604C182.164 234.204 186.026 230.741 183.229 225.812C180.432 220.884 176.303 218.086 176.303 218.086Z" fill="#E0E0E0"/>
<path d="M174.952 219.242C174.952 219.242 168.528 217.377 167.604 220.441C166.68 223.505 165.88 226.169 165.88 226.169C165.88 226.169 168.025 223.875 170.416 222.424C172.808 220.974 174.952 219.242 174.952 219.242Z" fill="#E0E0E0"/>
<path d="M146.135 220.969C146.135 220.969 146.327 220.795 146.658 220.512C148.175 219.219 152.61 215.656 154.846 216.203C157.571 216.868 161.326 218.557 161.326 218.557C161.326 218.557 151.617 223.604 146.135 220.969Z" fill="#E0E0E0"/>
<path d="M147.435 221.014C147.454 220.529 144.515 219.749 141.935 222.413C139.355 225.077 138.956 226.713 138.956 226.713C138.956 226.713 147.255 225.609 147.435 221.014Z" fill="#E0E0E0"/>
<path d="M146.978 221.551C146.978 221.551 144.026 224.948 146.291 228.278C148.555 231.608 150.517 234.805 150.517 234.805C150.517 234.805 151.679 231.807 150.517 228.178C149.355 224.548 146.978 221.551 146.978 221.551Z" fill="#E0E0E0"/>
<path d="M158.018 230.005C157.885 229.195 158.959 222.543 150.159 223.2H149.353C149.353 223.2 153.561 229.994 154.524 232.125C155.487 234.257 156.213 234.923 157.249 235.855C158.285 236.787 158.151 230.816 158.018 230.005Z" fill="#E0E0E0"/>
<path d="M159.721 263.22C159.846 261.149 159.07 259.038 157.634 257.54C157.499 257.399 157.305 257.252 157.126 257.332C157.007 257.386 156.951 257.521 156.913 257.645C156.539 258.851 156.813 260.187 157.403 261.303C157.995 262.419 158.879 263.348 159.785 264.227" fill="#E0E0E0"/>
<path d="M134.923 269.355C133.353 266.473 130.802 264.139 127.793 262.831C127.603 262.748 127.397 262.668 127.195 262.709C126.883 262.772 126.694 263.104 126.654 263.42C126.574 264.066 126.941 264.679 127.335 265.197C129.24 267.712 132.142 269.448 135.259 269.937" fill="#E0E0E0"/>
<path d="M170.181 259.533C170.181 259.562 169.728 259.561 168.92 259.661C168.115 259.763 166.952 259.989 165.598 260.516C164.247 261.042 162.709 261.862 161.171 263.012C159.625 264.154 158.079 265.606 156.489 267.166C153.292 270.274 150.475 273.162 148.522 275.333C147.543 276.416 146.768 277.309 146.235 277.927C145.986 278.213 145.782 278.448 145.617 278.637C145.473 278.797 145.394 278.878 145.385 278.871C145.377 278.864 145.439 278.77 145.567 278.596C145.695 278.423 145.885 278.168 146.14 277.848C146.644 277.204 147.394 276.287 148.353 275.183C150.266 272.969 153.066 270.047 156.265 266.937C157.857 265.376 159.421 263.917 160.996 262.774C162.564 261.622 164.137 260.81 165.518 260.304C166.902 259.797 168.089 259.602 168.906 259.537C169.315 259.504 169.635 259.498 169.85 259.506C170.067 259.513 170.181 259.522 170.181 259.533Z" fill="#E0E0E0"/>
<path d="M145.215 276.941C145.164 276.975 144.64 276.067 143.497 274.85C142.367 273.636 140.535 272.155 138.167 271.225C135.799 270.295 133.449 270.134 131.795 270.255C130.129 270.369 129.127 270.679 129.113 270.619C129.107 270.6 129.352 270.506 129.807 270.381C130.262 270.255 130.934 270.116 131.776 270.03C133.451 269.849 135.859 269.975 138.284 270.928C140.708 271.879 142.559 273.426 143.664 274.697C144.222 275.334 144.62 275.893 144.868 276.295C145.117 276.696 145.232 276.931 145.215 276.941Z" fill="#E0E0E0"/>
<path d="M146.944 220.922C146.95 220.923 146.948 220.988 146.938 221.114C146.926 221.257 146.91 221.442 146.891 221.674C146.84 222.187 146.769 222.906 146.679 223.823C146.49 225.688 146.218 228.387 145.919 231.726C145.324 238.401 144.628 247.646 144.641 257.872C144.674 268.102 145.39 277.345 145.91 284.027C146.181 287.352 146.401 290.05 146.555 291.941C146.626 292.859 146.682 293.58 146.721 294.094C146.735 294.326 146.747 294.511 146.756 294.655C146.762 294.782 146.763 294.846 146.757 294.847C146.752 294.847 146.74 294.783 146.724 294.658C146.706 294.515 146.684 294.331 146.657 294.1C146.603 293.587 146.528 292.868 146.431 291.952C146.243 290.087 145.98 287.386 145.685 284.046C145.107 277.367 144.355 268.119 144.322 257.873C144.308 247.63 145.042 238.378 145.694 231.705C146.022 228.368 146.329 225.671 146.555 223.809C146.671 222.896 146.762 222.178 146.827 221.667C146.86 221.436 146.886 221.253 146.906 221.111C146.926 220.985 146.938 220.921 146.944 220.922Z" fill="#E0E0E0"/>
<path d="M167.004 238.927C167.005 238.949 166.671 238.998 166.068 239.069C165.464 239.134 164.592 239.251 163.521 239.422C161.378 239.762 158.442 240.403 155.316 241.494C152.192 242.592 149.496 243.923 147.61 244.994C146.666 245.529 145.911 245.981 145.399 246.307C144.883 246.628 144.592 246.798 144.579 246.78C144.567 246.762 144.835 246.558 145.331 246.203C145.823 245.844 146.563 245.361 147.497 244.799C149.363 243.672 152.064 242.298 155.211 241.193C158.359 240.094 161.327 239.483 163.488 239.199C164.569 239.056 165.449 238.972 166.058 238.945C166.666 238.912 167.002 238.904 167.004 238.927Z" fill="#E0E0E0"/>
<path d="M145.286 235.954C145.275 235.955 145.246 235.832 145.202 235.596C145.155 235.325 145.095 234.983 145.022 234.563C144.952 234.114 144.866 233.564 144.699 232.94C144.537 232.315 144.414 231.589 144.143 230.822C144.021 230.434 143.893 230.029 143.76 229.607C143.63 229.184 143.435 228.764 143.267 228.318C142.943 227.42 142.477 226.512 142.014 225.546C141.012 223.65 139.739 221.657 138.185 219.729C135.047 215.883 131.482 213.077 128.811 211.239C128.155 210.758 127.517 210.389 126.979 210.031C126.441 209.673 125.96 209.393 125.568 209.161C125.203 208.939 124.906 208.759 124.671 208.617C124.468 208.49 124.363 208.417 124.369 208.408C124.375 208.399 124.489 208.451 124.702 208.561C124.945 208.69 125.252 208.853 125.63 209.054C126.032 209.269 126.524 209.535 127.072 209.88C127.621 210.225 128.269 210.582 128.937 211.053C131.652 212.851 135.267 215.648 138.433 219.529C140.001 221.473 141.28 223.491 142.276 225.412C142.736 226.391 143.197 227.312 143.513 228.223C143.678 228.674 143.869 229.1 143.993 229.529C144.121 229.956 144.243 230.366 144.36 230.759C144.619 231.536 144.728 232.272 144.874 232.903C145.025 233.536 145.094 234.091 145.145 234.545C145.194 234.971 145.235 235.316 145.266 235.589C145.29 235.827 145.298 235.953 145.286 235.954Z" fill="#E0E0E0"/>
<path d="M176.763 218.632C176.767 218.642 176.651 218.694 176.427 218.782C176.169 218.879 175.843 219.002 175.442 219.153C174.582 219.463 173.347 219.934 171.832 220.541C168.801 221.753 164.676 223.593 160.31 225.991C155.946 228.397 152.184 230.897 149.538 232.81C148.214 233.764 147.155 234.556 146.433 235.116C146.091 235.374 145.813 235.584 145.593 235.75C145.398 235.892 145.293 235.962 145.286 235.954C145.279 235.946 145.371 235.858 145.552 235.7C145.762 235.522 146.028 235.296 146.356 235.019C147.055 234.428 148.095 233.608 149.404 232.628C152.022 230.664 155.777 228.125 160.155 225.712C164.535 223.306 168.689 221.492 171.748 220.331C173.278 219.75 174.527 219.309 175.4 219.036C175.81 218.908 176.143 218.803 176.406 218.722C176.637 218.652 176.76 218.621 176.763 218.632Z" fill="#E0E0E0"/>
<path d="M158.185 324.855H132.919L130.277 293.987H161.146L158.185 324.855Z" fill="#E0E0E0"/>
<path d="M163.197 293.987H128.323V298.734H163.197V293.987Z" fill="#E0E0E0"/>
<path d="M162.971 298.745C162.971 298.833 155.172 298.905 145.555 298.905C135.934 298.905 128.137 298.833 128.137 298.745C128.137 298.657 135.934 298.585 145.555 298.585C155.172 298.585 162.971 298.657 162.971 298.745Z" fill="#EBEBEB"/>
<path d="M269.235 325.328L290.696 325.496L290.907 298.406L269.446 298.239L269.235 325.328Z" fill="#EBEBEB"/>
<path d="M282.526 299.207L282.144 325.436L278.753 325.411L279.48 299.184L282.526 299.207Z" fill="#FAFAFA"/>
<path d="M257.137 299.009L269.45 299.105L290.91 299.273L269.426 302.1L269.244 325.336L256.938 325.24L257.137 299.009Z" fill="#E0E0E0"/>
<path d="M263.84 299.062L263.35 325.29L259.697 325.261L260.294 299.034L263.84 299.062Z" fill="#FAFAFA"/>
<path d="M273.583 291.079C273.588 291.244 273.229 291.415 272.569 291.576C271.909 291.735 270.947 291.893 269.725 291.956C269.114 291.985 268.437 291.988 267.702 291.933C267.336 291.905 266.955 291.867 266.562 291.804C266.162 291.739 265.79 291.68 265.306 291.537C265.067 291.461 264.811 291.368 264.534 291.204C264.263 291.044 263.955 290.805 263.72 290.439C263.477 290.076 263.371 289.618 263.367 289.259C263.359 288.892 263.417 288.595 263.47 288.347C263.675 287.483 263.881 286.595 264.294 285.63C264.503 285.153 264.76 284.682 265.079 284.246C265.245 284.027 265.408 283.828 265.609 283.619C265.814 283.412 266.048 283.214 266.324 283.041C266.601 282.87 266.927 282.724 267.296 282.651C267.662 282.578 268.065 282.592 268.407 282.679C269.098 282.862 269.534 283.214 269.876 283.492C271.18 284.594 272.101 285.834 272.695 286.954C273.29 288.079 273.556 289.078 273.645 289.773C273.728 290.474 273.644 290.874 273.489 290.909C273.141 290.993 272.637 289.611 271.27 287.873C270.584 287.01 269.672 286.065 268.515 285.233C268.245 285.036 268.002 284.919 267.891 284.911C267.835 284.906 267.816 284.913 267.774 284.924C267.732 284.938 267.669 284.967 267.587 285.022C267.506 285.08 267.41 285.162 267.315 285.265C267.219 285.37 267.108 285.512 267.011 285.644C266.818 285.922 266.646 286.237 266.493 286.585C266.191 287.278 265.97 288.106 265.756 288.888C265.712 289.053 265.693 289.174 265.689 289.225L265.686 289.25L265.685 289.254C265.671 289.255 265.636 289.264 265.619 289.269C265.544 289.289 265.523 289.308 265.574 289.278C265.583 289.271 265.632 289.238 265.653 289.219C265.653 289.219 265.652 289.224 265.658 289.229C265.667 289.241 265.684 289.262 265.719 289.286C265.782 289.335 265.894 289.392 266.024 289.446C266.281 289.548 266.655 289.651 266.98 289.735C267.312 289.824 267.642 289.894 267.963 289.961C268.607 290.09 269.223 290.183 269.792 290.26C270.931 290.411 271.883 290.514 272.544 290.642C273.206 290.769 273.578 290.913 273.583 291.079Z" fill="#E0E0E0"/>
<path d="M273.14 291.275C273.08 290.935 274.686 290.431 277.191 289.696C278.438 289.318 279.902 288.859 281.415 288.182C281.788 288.019 282.128 287.84 282.329 287.672C282.428 287.592 282.473 287.519 282.46 287.526C282.444 287.531 282.434 287.623 282.43 287.576C282.422 287.535 282.373 287.398 282.276 287.2C282.174 286.989 282.072 286.776 281.968 286.561C281.763 286.143 281.55 285.751 281.316 285.394C281.08 285.04 280.829 284.732 280.552 284.481C280.416 284.351 280.265 284.241 280.12 284.136C279.986 284.045 279.852 283.973 279.728 283.924C279.474 283.828 279.294 283.816 279.096 283.865C278.89 283.914 278.623 284.072 278.337 284.305C277.106 285.337 276.111 286.475 275.404 287.492C273.966 289.538 273.587 291.137 273.229 291.085C273.072 291.064 272.954 290.626 273.01 289.838C273.066 289.054 273.321 287.921 273.937 286.643C274.55 285.361 275.506 283.967 276.88 282.644C277.251 282.302 277.726 281.914 278.4 281.682C279.077 281.441 279.883 281.479 280.524 281.712C280.85 281.825 281.145 281.977 281.418 282.15C281.673 282.319 281.918 282.498 282.145 282.703C282.606 283.106 282.992 283.58 283.317 284.068C283.639 284.558 283.896 285.051 284.117 285.52C284.223 285.752 284.328 285.982 284.432 286.21C284.537 286.452 284.68 286.762 284.749 287.194C284.829 287.617 284.754 288.203 284.509 288.618C284.275 289.04 283.978 289.299 283.713 289.495C283.177 289.878 282.685 290.064 282.246 290.227C280.503 290.865 278.889 291.174 277.545 291.353C274.851 291.685 273.194 291.587 273.14 291.275Z" fill="#EBEBEB"/>
<path d="M253.22 298.972L284.766 299.218L284.836 290.251L253.29 290.005L253.22 298.972Z" fill="#E0E0E0"/>
<path d="M264.819 299.062L293.333 299.285L293.403 290.318L264.889 290.096L264.819 299.062Z" fill="#EBEBEB"/>
<path d="M284.666 290.258L284.465 299.265L281.139 299.197L281.371 290.232L284.666 290.258Z" fill="#FAFAFA"/>
<path d="M261.038 290.118L260.716 299.044L257.06 299.015L257.256 290.043L261.038 290.118Z" fill="#FAFAFA"/>
<path d="M292.988 325.401L305.149 325.496L305.269 310.145L293.108 310.05L292.988 325.401Z" fill="#EBEBEB"/>
<path d="M300.524 310.603L300.308 325.466L298.387 325.45L298.798 310.589L300.524 310.603Z" fill="#FAFAFA"/>
<path d="M286.137 310.491L293.114 310.545L305.275 310.64L293.101 312.241L292.999 325.408L286.025 325.354L286.137 310.491Z" fill="#E0E0E0"/>
<path d="M289.936 310.52L289.659 325.382L287.589 325.366L287.927 310.504L289.936 310.52Z" fill="#FAFAFA"/>
<path d="M295.457 305.997C295.459 306.221 294.659 306.498 293.266 306.613C292.554 306.654 291.742 306.665 290.716 306.404C290.445 306.311 290.057 306.19 289.731 305.72C289.575 305.488 289.507 305.193 289.504 304.968C289.499 304.737 289.535 304.557 289.565 304.41C289.68 303.915 289.796 303.407 290.039 302.841C290.16 302.562 290.313 302.284 290.502 302.025C290.691 301.777 290.909 301.519 291.255 301.302C291.579 301.084 292.118 300.953 292.561 301.079C292.993 301.195 293.253 301.411 293.452 301.574C294.202 302.217 294.724 302.941 295.055 303.594C295.712 304.923 295.615 305.867 295.404 305.9C295.162 305.956 294.834 305.191 294.046 304.244C293.651 303.773 293.135 303.258 292.49 302.806C292.342 302.699 292.218 302.65 292.196 302.658L292.192 302.66L292.195 302.627L292.199 302.669C292.199 302.672 292.181 302.681 292.149 302.704C292.085 302.746 291.976 302.865 291.87 303.015C291.77 303.162 291.679 303.329 291.595 303.518C291.432 303.892 291.306 304.356 291.184 304.793L291.149 304.944C291.174 304.944 291.065 304.948 291.04 304.954C290.998 304.959 290.97 304.965 290.946 304.971C290.903 304.982 290.892 304.993 290.921 304.976C290.944 304.961 290.982 304.932 291.04 304.871L291.075 304.832V304.835C291.077 304.838 291.079 304.842 291.086 304.846C291.106 304.866 291.161 304.896 291.226 304.925C291.899 305.171 292.693 305.314 293.315 305.413C294.598 305.605 295.454 305.753 295.457 305.997Z" fill="#E0E0E0"/>
<path d="M295.206 306.108C295.161 305.849 296.065 305.502 297.466 305.044C298.162 304.809 298.977 304.534 299.811 304.146C300.015 304.054 300.193 303.953 300.273 303.88C300.312 303.846 300.312 303.825 300.279 303.871C300.244 303.917 300.229 304.038 300.235 304.05C300.155 303.883 300.073 303.714 299.991 303.542C299.876 303.31 299.76 303.099 299.636 302.91C299.511 302.723 299.383 302.567 299.244 302.439C299.101 302.306 298.95 302.203 298.859 302.168C298.754 302.128 298.716 302.124 298.652 302.132C298.584 302.142 298.453 302.207 298.3 302.328C297.617 302.882 297.049 303.502 296.639 304.051C295.803 305.155 295.525 306.035 295.256 306C295.023 305.992 294.828 304.919 295.508 303.397C295.846 302.643 296.383 301.827 297.177 301.048C297.396 300.843 297.685 300.599 298.115 300.449C298.548 300.293 299.069 300.317 299.471 300.463C299.676 300.534 299.86 300.628 300.029 300.735C300.184 300.837 300.333 300.945 300.471 301.069C300.751 301.314 300.984 301.599 301.177 301.89C301.368 302.18 301.519 302.471 301.645 302.742L301.825 303.138C301.885 303.279 301.975 303.473 302.021 303.757C302.074 304.035 302.023 304.437 301.857 304.715C301.699 304.998 301.505 305.163 301.339 305.286C301 305.525 300.707 305.631 300.451 305.724C299.44 306.081 298.51 306.241 297.738 306.321C296.192 306.468 295.248 306.351 295.206 306.108Z" fill="#E0E0E0"/>
<path d="M283.914 310.466L301.789 310.605L301.829 305.524L283.953 305.385L283.914 310.466Z" fill="#E0E0E0"/>
<path d="M290.485 310.518L306.643 310.644L306.683 305.563L290.525 305.437L290.485 310.518Z" fill="#EBEBEB"/>
<path d="M301.737 305.531L301.623 310.636L299.739 310.597L299.87 305.517L301.737 305.531Z" fill="#FAFAFA"/>
<path d="M288.348 305.452L288.166 310.51L286.094 310.494L286.205 305.41L288.348 305.452Z" fill="#FAFAFA"/>
<path d="M122.415 29.7583H29.7515V183.142H122.415V29.7583Z" fill="#E0E0E0"/>
<path d="M119.333 29.7583H26.6693V183.142H119.333V29.7583Z" fill="#EBEBEB"/>
<path d="M115.387 32.8691H30.6152V180.033H115.387V32.8691Z" fill="#FAFAFA"/>
<path d="M98.8816 51.9917H46.754V160.91H98.8816V51.9917Z" fill="#EBEBEB"/>
<path d="M46.7537 122.367C46.6333 112.192 55.7816 102.26 65.8567 100.839C70.6608 100.161 75.7659 101.115 80.255 99.2744C88.2679 95.9886 90.8173 85.3423 98.8813 82.1846L99.2495 160.909H46.7537V122.367Z" fill="#E0E0E0"/>
<path d="M328.466 325.503C328.466 325.604 259.438 325.685 174.308 325.685C89.1478 325.685 20.1348 325.604 20.1348 325.503C20.1348 325.402 89.1478 325.321 174.308 325.321C259.437 325.321 328.466 325.402 328.466 325.503Z" fill="#263238"/>
<path d="M300.019 275.16L155.627 275.084C151.163 275.082 147.545 271.46 147.547 266.996L147.661 52.7466C147.663 48.282 151.285 44.6644 155.749 44.6665L300.14 44.7428C304.606 44.7449 308.223 48.3667 308.22 52.8313L308.107 267.08C308.105 271.546 304.484 275.163 300.019 275.16Z" fill="#263238"/>
<path d="M302.802 60.6299H152.368V253.056H302.802V60.6299Z" fill="white"/>
<path d="M233.99 263.547C233.988 266.949 231.228 269.706 227.826 269.704C224.423 269.702 221.667 266.942 221.669 263.54C221.671 260.138 224.43 257.381 227.833 257.383C231.235 257.385 233.992 260.145 233.99 263.547Z" fill="#455A64"/>
<path d="M251.268 53.8988L204.611 53.8743C204.142 53.8743 203.761 53.4928 203.761 53.0231L203.762 52.1796C203.762 51.7099 204.143 51.3291 204.613 51.3291L251.27 51.3536C251.74 51.3536 252.12 51.7351 252.12 52.2048L252.12 53.0483C252.12 53.518 251.738 53.8988 251.268 53.8988Z" fill="#455A64"/>
<path d="M296.4 226.433C295.402 226.433 294.593 225.623 294.594 224.625L294.666 88.0113C294.666 87.0131 295.476 86.2039 296.474 86.2046C297.473 86.2053 298.282 87.0152 298.281 88.0134L298.209 224.627C298.209 225.625 297.399 226.434 296.4 226.433Z" fill="#E0E0E0"/>
<path d="M259.098 76.3739C259.098 76.4747 245.141 76.5489 227.929 76.5398C210.711 76.5307 196.757 76.4418 196.757 76.341C196.757 76.2402 210.711 76.166 227.929 76.1751C245.142 76.1842 259.099 76.2731 259.098 76.3739Z" fill="#263238"/>
<path d="M166.986 79.8396C166.99 79.8354 167.059 79.8305 167.187 79.8249C167.35 79.8193 167.533 79.8123 167.746 79.8046C168.282 79.7906 168.967 79.7738 169.802 79.7521L169.737 79.8179C169.73 79.3601 169.721 78.8617 169.712 78.3255C169.715 78.0469 169.688 77.7886 169.716 77.4638C169.772 77.1397 170.06 76.8541 170.416 76.8205C170.75 76.8142 171.038 76.7988 171.402 76.8156C171.779 76.8611 172.098 77.2237 172.087 77.622C172.095 78.3185 172.103 79.0458 172.112 79.799L172.003 79.6926C172.838 79.6842 173.706 79.6758 174.6 79.6667L174.488 79.7808C174.479 78.735 174.47 77.6535 174.461 76.5454C174.459 76.2689 174.457 75.9945 174.455 75.7215C174.453 75.4716 174.305 75.3085 174.094 75.1167C173.711 74.738 173.332 74.3642 172.959 73.9967C172.588 73.6299 172.223 73.2687 171.865 72.9152C171.687 72.7388 171.51 72.5638 171.335 72.3902C171.151 72.2131 171.011 72.0346 170.804 71.9919C170.603 71.9373 170.381 71.98 170.219 72.1032C170.064 72.2334 169.894 72.4231 169.737 72.5764C169.417 72.8984 169.105 73.212 168.804 73.5151C168.218 74.1227 167.604 74.6806 167.163 75.2021C166.977 75.4884 167.046 75.8412 167.032 76.1653C167.03 76.4859 167.029 76.7911 167.028 77.0788C167.023 77.636 167.019 78.1267 167.016 78.5523C167.01 78.9233 167.006 79.2341 167.002 79.4959C166.996 79.7157 166.991 79.834 166.986 79.8396C166.98 79.8452 166.974 79.7388 166.966 79.5288C166.958 79.2719 166.949 78.966 166.938 78.602C166.928 78.1729 166.916 77.678 166.902 77.1152C166.897 76.8205 166.89 76.509 166.884 76.1807C166.881 76.0141 166.879 75.844 166.876 75.669C166.874 75.4828 166.922 75.291 167.02 75.1209C167.503 74.528 168.074 74.01 168.666 73.3821C168.965 73.0755 169.273 72.7598 169.59 72.435C169.758 72.2712 169.892 72.1102 170.093 71.9373C170.304 71.7756 170.593 71.7175 170.857 71.7875C171.137 71.8498 171.319 72.0794 171.486 72.2369C171.662 72.4091 171.839 72.5834 172.019 72.7591C172.378 73.1112 172.744 73.471 173.117 73.8364C173.49 74.2025 173.869 74.5756 174.254 74.9536C174.439 75.1132 174.695 75.3897 174.684 75.7152C174.686 75.9896 174.688 76.2661 174.691 76.544C174.698 77.6521 174.706 78.7336 174.713 79.7794L174.714 79.8928L174.6 79.8935C173.706 79.8984 172.838 79.9033 172.003 79.9082L171.895 79.9089L171.895 79.8018C171.891 79.0479 171.888 78.3213 171.886 77.6241C171.897 77.3161 171.657 77.0445 171.371 77.0046C171.076 76.9885 170.72 76.9983 170.432 77.0004C170.158 77.0228 169.928 77.2426 169.881 77.496C169.856 77.7529 169.875 78.0602 169.868 78.3241C169.868 78.861 169.867 79.3594 169.866 79.8172V79.8837L169.801 79.883C168.951 79.8746 168.252 79.8683 167.706 79.8627C167.499 79.8585 167.32 79.8543 167.161 79.8508C167.042 79.8473 166.981 79.8438 166.986 79.8396Z" fill="#263238"/>
<path d="M286.04 72.8872C286.02 72.8641 285.991 72.8508 285.961 72.8501L279.842 72.8172H278.046L277.518 72.8235L277.471 72.4728L277.378 71.7847C277.371 71.7336 277.328 71.6958 277.276 71.6958H277.25L275.577 71.7042C275.443 71.7077 275.355 71.7098 275.355 71.8148C275.355 71.9184 275.442 71.9219 275.576 71.9275L277.133 71.9604L277.999 78.6678C278.006 78.7196 278.05 78.7574 278.102 78.7574L283.099 78.7819L284.976 78.7742C285.135 78.7707 285.216 78.7693 285.216 78.6636C285.216 78.5593 285.137 78.5565 284.977 78.5509L278.274 78.4599L278.114 77.2713L285.16 77.3679H285.161C285.211 77.3679 285.253 77.3322 285.263 77.2839L285.783 74.4797L286.061 72.9719C286.067 72.9418 286.058 72.911 286.04 72.8872ZM277.546 73.0412L285.725 73.1476L285.001 77.0711L279.98 77.0473L278.487 77.0487L278.085 77.0543L277.546 73.0412Z" fill="#263238"/>
<path d="M279.968 80.3206C279.953 80.2366 279.894 80.0224 279.686 79.8523C279.524 79.7165 279.221 79.5989 278.895 79.713C278.564 79.818 278.325 80.1505 278.326 80.5012C278.319 80.9002 278.601 81.2047 278.88 81.2985C278.977 81.3342 279.072 81.3496 279.163 81.3496C279.376 81.3496 279.56 81.2663 279.674 81.1739C279.888 81.0059 279.95 80.7931 279.966 80.7091C279.976 80.6573 279.988 80.5775 279.977 80.5152C279.988 80.4522 279.978 80.3724 279.968 80.3206ZM278.98 81.0241C278.801 80.9597 278.621 80.7602 278.625 80.5033C278.625 80.2478 278.808 80.0518 278.991 79.9895C279.056 79.9657 279.119 79.9559 279.18 79.9559C279.318 79.9559 279.44 80.0077 279.517 80.0672C279.657 80.1708 279.712 80.3052 279.733 80.3766C279.747 80.4284 279.754 80.469 279.758 80.4949C279.759 80.4998 279.761 80.5061 279.762 80.5131C279.761 80.5201 279.759 80.5264 279.758 80.5313C279.754 80.5572 279.747 80.5978 279.73 80.6496C279.709 80.7203 279.651 80.854 279.509 80.9576C279.398 81.0388 279.194 81.1067 278.98 81.0241Z" fill="#263238"/>
<path d="M284.455 80.3561C284.439 80.2721 284.38 80.0586 284.172 79.8878C284.01 79.7527 283.706 79.6351 283.381 79.7478C283.051 79.8535 282.812 80.1853 282.812 80.536C282.805 80.9343 283.087 81.2395 283.366 81.334C283.463 81.369 283.559 81.3844 283.649 81.3844C283.862 81.3844 284.047 81.3011 284.161 81.2087C284.374 81.0414 284.436 80.8279 284.453 80.7439C284.462 80.6921 284.474 80.6116 284.463 80.5493C284.474 80.4828 284.462 80.3981 284.455 80.3561ZM283.466 81.0589C283.291 80.9959 283.107 80.7929 283.111 80.5388C283.111 80.2854 283.298 80.0859 283.477 80.025C283.542 80.0012 283.606 79.9907 283.667 79.9907C283.805 79.9907 283.927 80.0432 284.003 80.1027C284.143 80.2063 284.198 80.3407 284.219 80.4121C284.233 80.4639 284.24 80.5045 284.245 80.5304C284.245 80.5346 284.247 80.5416 284.248 80.5486C284.247 80.5556 284.245 80.5619 284.245 80.5668C284.24 80.5927 284.233 80.6326 284.217 80.6844C284.195 80.7558 284.138 80.8895 283.995 80.9924C283.884 81.0743 283.68 81.1415 283.466 81.0589Z" fill="#263238"/>
<path d="M190.767 232.433C190.767 233.424 190.048 234.023 188.863 234.022L187.613 234.022L187.612 235.492H187.119L187.121 230.834L188.865 230.835C190.049 230.835 190.767 231.434 190.767 232.433ZM190.275 232.432C190.276 231.687 189.783 231.261 188.852 231.26L187.614 231.259L187.613 233.588L188.85 233.589C189.782 233.59 190.275 233.164 190.275 232.432Z" fill="#263238"/>
<path d="M194.954 231.996L194.952 235.496H194.499L194.5 234.857C194.253 235.282 193.801 235.528 193.242 235.528C192.35 235.528 191.765 235.029 191.766 234.023L191.767 231.994H192.24L192.238 233.977C192.237 234.722 192.624 235.102 193.289 235.102C194.021 235.102 194.48 234.63 194.481 233.831L194.482 231.995L194.954 231.996Z" fill="#263238"/>
<path d="M198.043 231.97V232.429C198.003 232.429 197.963 232.422 197.93 232.422C197.198 232.422 196.752 232.887 196.751 233.713L196.75 235.496H196.278L196.28 231.996H196.733L196.732 232.681C196.951 232.216 197.397 231.97 198.043 231.97Z" fill="#263238"/>
<path d="M198.508 233.748C198.509 232.703 199.268 231.971 200.313 231.972C200.905 231.972 201.403 232.205 201.683 232.664L201.33 232.904C201.09 232.551 200.718 232.384 200.312 232.384C199.547 232.383 198.988 232.929 198.987 233.748C198.986 234.573 199.545 235.112 200.311 235.112C200.717 235.112 201.089 234.953 201.328 234.6L201.681 234.84C201.401 235.292 200.902 235.532 200.311 235.531C199.265 235.531 198.507 234.792 198.508 233.748Z" fill="#263238"/>
<path d="M205.775 233.472L205.775 235.501H205.302L205.304 233.518C205.304 232.78 204.919 232.4 204.253 232.4C203.501 232.399 203.029 232.864 203.028 233.663L203.027 235.5H202.555L202.557 230.562H203.03L203.029 232.612C203.289 232.206 203.748 231.974 204.34 231.974C205.191 231.975 205.776 232.467 205.775 233.472Z" fill="#263238"/>
<path d="M209.702 233.335L209.701 235.504H209.249V234.959C209.036 235.318 208.623 235.537 208.044 235.537C207.252 235.536 206.767 235.123 206.767 234.518C206.767 233.979 207.114 233.526 208.118 233.527L209.229 233.528V233.314C209.229 232.716 208.89 232.389 208.238 232.389C207.786 232.389 207.36 232.548 207.073 232.801L206.86 232.448C207.213 232.149 207.733 231.977 208.285 231.977C209.191 231.977 209.703 232.429 209.702 233.335ZM209.23 234.452V233.88L208.132 233.879C207.453 233.878 207.234 234.144 207.234 234.504C207.234 234.91 207.559 235.164 208.118 235.164C208.65 235.164 209.043 234.911 209.23 234.452Z" fill="#263238"/>
<path d="M210.501 235.104L210.714 234.732C210.993 234.952 211.466 235.125 211.958 235.125C212.624 235.126 212.897 234.9 212.897 234.554C212.898 233.641 210.628 234.36 210.629 232.975C210.629 232.403 211.121 231.977 212.013 231.978C212.465 231.978 212.958 232.104 213.251 232.304L213.044 232.684C212.738 232.47 212.372 232.384 212.013 232.384C211.381 232.384 211.101 232.63 211.101 232.962C211.1 233.907 213.37 233.197 213.369 234.542C213.369 235.146 212.836 235.539 211.925 235.539C211.346 235.538 210.787 235.351 210.501 235.104Z" fill="#263238"/>
<path d="M217.29 233.904L214.362 233.902C214.415 234.634 214.973 235.12 215.739 235.12C216.164 235.12 216.544 234.968 216.81 234.662L217.076 234.969C216.763 235.341 216.278 235.541 215.725 235.54C214.634 235.539 213.889 234.793 213.89 233.756C213.891 232.718 214.616 231.98 215.601 231.98C216.586 231.981 217.297 232.706 217.297 233.757C217.297 233.796 217.29 233.85 217.29 233.904ZM214.362 233.549L216.845 233.551C216.785 232.865 216.286 232.386 215.601 232.386C214.922 232.385 214.423 232.863 214.362 233.549Z" fill="#263238"/>
<path d="M225.144 232.012L223.818 235.511H223.372L222.269 232.642L221.163 235.509H220.717L219.401 232.009H219.853L220.949 234.984L222.076 232.01H222.482L223.597 234.985L224.71 232.012H225.144Z" fill="#263238"/>
<path d="M228.392 233.344L228.39 235.514H227.937V234.968C227.725 235.327 227.312 235.547 226.733 235.547C225.941 235.546 225.455 235.133 225.456 234.527C225.457 233.988 225.803 233.536 226.808 233.537L227.919 233.538V233.324C227.919 232.726 227.58 232.399 226.929 232.399C226.477 232.399 226.05 232.558 225.764 232.811L225.552 232.458C225.905 232.159 226.424 231.986 226.976 231.986C227.881 231.986 228.392 232.439 228.392 233.344ZM227.919 234.462V233.89L226.822 233.889C226.143 233.888 225.924 234.154 225.923 234.514C225.923 234.92 226.248 235.173 226.807 235.173C227.34 235.173 227.733 234.921 227.919 234.462Z" fill="#263238"/>
<path d="M229.19 235.115L229.404 234.742C229.683 234.962 230.156 235.135 230.648 235.136C231.313 235.136 231.586 234.91 231.586 234.564C231.587 233.652 229.317 234.37 229.318 232.985C229.319 232.413 229.811 231.987 230.702 231.988C231.155 231.988 231.647 232.114 231.939 232.315L231.734 232.694C231.428 232.481 231.061 232.394 230.702 232.394C230.07 232.394 229.79 232.64 229.79 232.973C229.79 233.918 232.06 233.207 232.059 234.552C232.059 235.157 231.526 235.549 230.614 235.549C230.035 235.547 229.477 235.36 229.19 235.115Z" fill="#263238"/>
<path d="M234.189 235.117L234.403 234.744C234.681 234.964 235.154 235.137 235.646 235.138C236.311 235.138 236.584 234.912 236.584 234.566C236.585 233.654 234.316 234.372 234.316 232.987C234.316 232.415 234.809 231.99 235.701 231.99C236.154 231.99 236.645 232.116 236.938 232.317L236.732 232.696C236.426 232.483 236.059 232.396 235.701 232.396C235.069 232.396 234.789 232.642 234.789 232.975C234.788 233.92 237.058 233.209 237.058 234.554C237.058 235.159 236.525 235.551 235.613 235.551C235.034 235.55 234.475 235.363 234.189 235.117Z" fill="#263238"/>
<path d="M241.085 232.02L241.083 235.52H240.631V234.882C240.385 235.306 239.932 235.553 239.373 235.553C238.482 235.552 237.896 235.053 237.897 234.048L237.898 232.019H238.37L238.369 234.002C238.369 234.746 238.755 235.127 239.42 235.127C240.152 235.127 240.612 234.655 240.612 233.856L240.613 232.02H241.085Z" fill="#263238"/>
<path d="M242.057 233.77C242.058 232.726 242.817 231.993 243.861 231.994C244.453 231.995 244.952 232.227 245.232 232.686L244.879 232.926C244.639 232.573 244.267 232.406 243.861 232.406C243.095 232.405 242.537 232.951 242.536 233.769C242.535 234.595 243.094 235.134 243.86 235.134C244.266 235.134 244.638 234.975 244.877 234.622L245.23 234.861C244.95 235.314 244.451 235.554 243.859 235.553C242.815 235.554 242.056 234.815 242.057 233.77Z" fill="#263238"/>
<path d="M245.744 233.772C245.745 232.728 246.504 231.995 247.548 231.996C248.14 231.997 248.639 232.229 248.918 232.688L248.565 232.928C248.326 232.576 247.953 232.408 247.547 232.408C246.781 232.408 246.223 232.954 246.222 233.772C246.221 234.597 246.78 235.136 247.546 235.136C247.952 235.136 248.324 234.977 248.564 234.625L248.917 234.864C248.637 235.316 248.138 235.556 247.547 235.556C246.502 235.556 245.743 234.816 245.744 233.772Z" fill="#263238"/>
<path d="M252.832 233.923L249.903 233.921C249.957 234.653 250.515 235.139 251.28 235.139C251.706 235.139 252.086 234.987 252.352 234.681L252.619 234.988C252.306 235.36 251.819 235.56 251.267 235.559C250.176 235.559 249.431 234.812 249.432 233.775C249.432 232.737 250.158 231.998 251.143 231.999C252.127 232 252.839 232.725 252.839 233.776C252.839 233.816 252.832 233.869 252.832 233.923ZM249.904 233.568L252.386 233.569C252.327 232.883 251.828 232.404 251.143 232.404C250.463 232.404 249.964 232.882 249.904 233.568Z" fill="#263238"/>
<path d="M253.317 235.127L253.531 234.755C253.809 234.975 254.283 235.148 254.775 235.148C255.44 235.148 255.713 234.922 255.713 234.577C255.713 233.664 253.444 234.383 253.445 232.998C253.445 232.426 253.938 232 254.829 232C255.282 232 255.774 232.127 256.066 232.327L255.861 232.707C255.555 232.493 255.188 232.407 254.829 232.407C254.197 232.407 253.917 232.653 253.917 232.985C253.917 233.93 256.187 233.22 256.186 234.565C256.186 235.169 255.653 235.562 254.741 235.562C254.162 235.56 253.604 235.373 253.317 235.127Z" fill="#263238"/>
<path d="M256.572 235.129L256.786 234.756C257.064 234.976 257.538 235.149 258.03 235.149C258.695 235.15 258.968 234.923 258.968 234.577C258.968 233.665 256.699 234.383 256.7 232.998C256.7 232.427 257.193 232.001 258.084 232.001C258.537 232.001 259.029 232.128 259.321 232.328L259.115 232.707C258.81 232.494 258.443 232.408 258.084 232.408C257.452 232.408 257.172 232.653 257.172 232.986C257.172 233.931 259.442 233.22 259.441 234.565C259.441 235.17 258.908 235.563 257.996 235.563C257.417 235.562 256.859 235.375 256.572 235.129Z" fill="#263238"/>
<path d="M260.854 231.618V232.031L261.932 232.031V232.43L260.867 232.43L260.865 235.531H260.393L260.394 232.43H259.768V232.031L260.394 232.031V231.599C260.394 230.974 260.767 230.561 261.452 230.561C261.712 230.561 261.978 230.635 262.151 230.781L261.991 231.134C261.858 231.02 261.672 230.96 261.472 230.96C261.067 230.958 260.854 231.185 260.854 231.618Z" fill="#263238"/>
<path d="M265.725 232.032L265.723 235.532H265.27L265.271 234.894C265.024 235.319 264.571 235.565 264.013 235.565C263.122 235.565 262.536 235.066 262.536 234.061L262.537 232.032H263.01L263.009 234.015C263.009 234.76 263.395 235.14 264.06 235.14C264.792 235.14 265.251 234.668 265.252 233.869L265.252 232.032H265.725Z" fill="#263238"/>
<path d="M267.051 230.596H267.524L267.521 235.534H267.048L267.051 230.596Z" fill="#263238"/>
<path d="M198.242 219.322H195.731V218.131H202.161V219.322H199.65V225.708H198.243V219.322H198.242Z" fill="#004B24"/>
<path d="M208.783 222.396V225.707H207.43V222.569C207.43 221.54 206.921 221.043 206.055 221.043C205.092 221.043 204.442 221.626 204.442 222.785V225.707H203.089V217.676H204.442V220.599C204.886 220.122 205.568 219.862 206.368 219.862C207.754 219.863 208.783 220.653 208.783 222.396Z" fill="#004B24"/>
<path d="M215.34 222.319V225.707H214.064V225.004C213.739 225.502 213.111 225.783 212.245 225.783C210.925 225.783 210.091 225.058 210.091 224.051C210.091 223.088 210.741 222.331 212.494 222.331H213.988V222.244C213.988 221.453 213.511 220.989 212.548 220.989C211.898 220.989 211.228 221.205 210.795 221.562L210.264 220.576C210.881 220.1 211.779 219.862 212.71 219.862C214.377 219.863 215.34 220.653 215.34 222.319ZM213.988 223.9V223.229H212.591C211.672 223.229 211.422 223.575 211.422 223.997C211.422 224.484 211.834 224.798 212.526 224.798C213.186 224.799 213.76 224.495 213.988 223.9Z" fill="#004B24"/>
<path d="M222.764 222.396V225.707H221.411V222.569C221.411 221.54 220.902 221.043 220.036 221.043C219.073 221.043 218.423 221.626 218.423 222.785V225.707H217.07V219.927H218.358V220.674C218.802 220.144 219.505 219.862 220.35 219.862C221.736 219.863 222.764 220.653 222.764 222.396Z" fill="#004B24"/>
<path d="M226.843 223.229L225.836 224.181V225.707H224.483V217.676H225.836V222.525L228.64 219.927H230.263L227.849 222.352L230.49 225.707H228.845L226.843 223.229Z" fill="#004B24"/>
<path d="M239.764 219.928L237.058 226.174C236.528 227.483 235.792 227.884 234.829 227.884C234.255 227.884 233.649 227.688 233.281 227.353L233.822 226.357C234.083 226.606 234.45 226.757 234.818 226.757C235.294 226.757 235.576 226.531 235.836 225.957L235.933 225.729L233.411 219.928H234.818L236.636 224.203L238.465 219.928H239.764Z" fill="#004B24"/>
<path d="M239.968 222.818C239.968 221.086 241.267 219.863 243.041 219.863C244.838 219.863 246.126 221.086 246.126 222.818C246.126 224.55 244.838 225.783 243.041 225.783C241.267 225.783 239.968 224.55 239.968 222.818ZM244.763 222.818C244.763 221.714 244.027 221.011 243.041 221.011C242.068 221.011 241.331 221.714 241.331 222.818C241.331 223.922 242.068 224.625 243.041 224.625C244.027 224.625 244.763 223.922 244.763 222.818Z" fill="#004B24"/>
<path d="M253.02 219.928V225.708H251.732V224.972C251.299 225.502 250.617 225.784 249.87 225.784C248.387 225.784 247.381 224.972 247.381 223.229V219.928H248.734V223.045C248.734 224.096 249.232 224.593 250.087 224.593C251.028 224.593 251.668 224.009 251.668 222.851V219.928H253.02Z" fill="#004B24"/>
<path d="M254.545 224.94C254.545 224.474 254.913 224.106 255.422 224.106C255.919 224.106 256.276 224.474 256.276 224.94C256.276 225.404 255.919 225.783 255.422 225.783C254.913 225.783 254.545 225.405 254.545 224.94ZM254.62 218.131H256.222L255.952 223.197H254.881L254.62 218.131Z" fill="#004B24"/>
<path d="M245.26 104.72L243.216 133.674C242.882 138.401 238.95 142.066 234.211 142.066C228.993 142.066 224.86 137.655 225.203 132.448C225.384 129.692 225.548 127.435 225.548 127.435C225.548 127.435 218.538 126.345 218.452 119.337C218.402 115.289 219.1 106.103 219.698 99.0663C220.103 94.3091 224.085 90.6572 228.86 90.6572H233.094C240.386 91.0835 245.888 97.443 245.26 104.72Z" fill="#FFBE9D"/>
<path d="M225.548 127.435C225.548 127.435 229.966 127.694 234.673 124.737C234.673 124.737 232.417 129.836 225.423 129.205L225.548 127.435Z" fill="#EB996E"/>
<path d="M221.014 105.76C221.138 105.89 221.896 105.329 222.974 105.332C224.05 105.319 224.84 105.874 224.957 105.741C225.014 105.683 224.888 105.447 224.544 105.197C224.205 104.948 223.627 104.705 222.956 104.708C222.286 104.711 221.721 104.958 221.397 105.211C221.065 105.465 220.953 105.702 221.014 105.76Z" fill="#263238"/>
<path d="M230.614 108.748C230.595 109.276 231.027 109.728 231.579 109.758C232.129 109.787 232.592 109.384 232.611 108.855C232.63 108.327 232.197 107.875 231.647 107.845C231.095 107.815 230.632 108.219 230.614 108.748Z" fill="#263238"/>
<path d="M220.999 108.748C220.98 109.276 221.413 109.728 221.964 109.758C222.515 109.787 222.977 109.384 222.996 108.855C223.015 108.327 222.582 107.875 222.032 107.845C221.48 107.815 221.017 108.219 220.999 108.748Z" fill="#263238"/>
<path d="M231.415 105.905C231.539 106.035 232.298 105.475 233.375 105.477C234.451 105.465 235.241 106.019 235.358 105.887C235.415 105.829 235.29 105.593 234.944 105.342C234.606 105.092 234.028 104.85 233.357 104.853C232.686 104.857 232.122 105.104 231.797 105.356C231.467 105.61 231.354 105.846 231.415 105.905Z" fill="#263238"/>
<path d="M227.585 114.283C227.59 114.221 226.92 114.106 225.835 113.967C225.56 113.939 225.3 113.884 225.254 113.696C225.189 113.498 225.304 113.201 225.437 112.882C225.696 112.216 225.966 111.519 226.25 110.787C227.38 107.806 228.197 105.354 228.077 105.31C227.956 105.266 226.943 107.646 225.814 110.628C225.542 111.363 225.282 112.063 225.035 112.735C224.931 113.047 224.752 113.402 224.892 113.814C224.966 114.02 225.168 114.169 225.344 114.216C225.52 114.27 225.675 114.273 225.811 114.282C226.904 114.339 227.58 114.344 227.585 114.283Z" fill="#263238"/>
<path d="M230.754 115.027C230.579 115.017 230.577 116.187 229.576 117.016C228.577 117.848 227.331 117.718 227.322 117.881C227.306 117.954 227.6 118.107 228.126 118.122C228.642 118.14 229.395 117.974 230.007 117.467C230.618 116.958 230.88 116.279 230.92 115.8C230.964 115.31 230.834 115.02 230.754 115.027Z" fill="#263238"/>
<path d="M231.483 102C231.589 102.292 232.665 102.154 233.928 102.306C235.195 102.433 236.213 102.803 236.381 102.54C236.456 102.415 236.279 102.139 235.866 101.856C235.458 101.573 234.806 101.303 234.048 101.219C233.289 101.137 232.594 101.257 232.135 101.444C231.67 101.631 231.437 101.861 231.483 102Z" fill="#263238"/>
<path d="M220.848 102.508C221.037 102.752 221.779 102.499 222.671 102.487C223.563 102.444 224.319 102.652 224.493 102.395C224.569 102.272 224.45 102.027 224.12 101.795C223.794 101.564 223.25 101.376 222.637 101.394C222.024 101.413 221.492 101.635 221.182 101.885C220.867 102.137 220.764 102.388 220.848 102.508Z" fill="#263238"/>
<path d="M242.897 109.98C243.017 109.928 247.712 108.556 247.559 113.347C247.406 118.139 242.628 116.997 242.623 116.859C242.62 116.721 242.897 109.98 242.897 109.98Z" fill="#FFBE9D"/>
<path d="M244.145 115.091C244.167 115.076 244.227 115.153 244.366 115.221C244.502 115.288 244.737 115.34 244.989 115.254C245.502 115.085 245.953 114.294 246.004 113.432C246.031 112.997 245.953 112.578 245.809 112.229C245.674 111.874 245.455 111.622 245.202 111.569C244.95 111.501 244.765 111.648 244.702 111.781C244.633 111.914 244.66 112.01 244.635 112.017C244.621 112.029 244.535 111.934 244.58 111.737C244.603 111.643 244.663 111.532 244.778 111.443C244.896 111.354 245.067 111.311 245.244 111.336C245.612 111.373 245.934 111.724 246.092 112.107C246.27 112.492 246.368 112.962 246.338 113.452C246.277 114.416 245.754 115.304 245.055 115.482C244.715 115.559 244.437 115.448 244.295 115.33C244.15 115.207 244.128 115.099 244.145 115.091Z" fill="#EB996E"/>
<path d="M245.563 109.818C244.832 109.641 243.568 110.316 243.256 111C242.945 111.685 242.876 112.46 242.565 113.144C242.255 113.829 241.552 114.448 240.821 114.275C240.316 114.155 239.956 113.683 239.823 113.181C239.69 112.68 239.744 112.15 239.809 111.636C240.091 109.398 240.562 107.179 240.651 104.926C240.742 102.672 240.421 100.331 239.238 98.4106C238.054 96.4905 235.88 95.0786 233.633 95.2599C232.144 95.3796 230.778 96.1566 229.298 96.3638C227.544 96.6095 225.69 95.9907 224.435 94.7405C224.274 94.5802 223.526 94.0874 223.526 94.0874C223.526 93.9712 223.636 92.9709 224.03 92.6055C226.965 89.8909 232.254 89.1335 236.13 90.1093C240.007 91.0851 243.641 93.8221 245.309 97.4551C246.977 101.089 246.482 106.141 245.563 109.818Z" fill="#263238"/>
<path d="M218.932 97.8026C219.56 99.2579 221.161 100.105 222.739 100.265C224.316 100.426 225.891 100.017 227.416 99.5841C228.941 99.1515 233.032 98.4732 234.617 98.5215C234.854 98.5285 235.139 98.5243 235.265 98.3234C235.432 98.0574 235.165 97.7354 234.918 97.5422C232.829 95.9056 227.779 94.9025 225.128 94.7912C222.477 94.6792 219.694 95.8195 218.258 98.0504" fill="#263238"/>
<path d="M219.621 97.9852C219.621 97.9852 221.665 95.8978 224.841 95.6269C230.901 95.1096 240.84 96.973 246.059 107.411C246.059 107.411 247.15 103.996 247.15 101.862C247.15 100.437 246.297 91.9491 237.564 89.2793C237.564 89.2793 224.406 84.2582 219.621 97.9852Z" fill="#004B24"/>
<g opacity="0.4">
<path d="M219.621 97.9852C219.621 97.9852 221.713 95.496 225.467 95.3301C230.891 95.0907 241.14 97.5743 246.058 107.411C246.058 107.411 247.149 103.996 247.149 101.862C247.149 100.437 246.296 91.9491 237.563 89.2793C237.563 89.2793 224.406 84.2582 219.621 97.9852Z" fill="black"/>
</g>
<path d="M245.241 105.923C242.623 101.521 238.707 98.4954 234.48 95.855C230.254 93.2146 223.266 90.6036 218.449 89.3247C217.003 88.9411 215.496 88.6051 214.021 88.8599C212.547 89.1147 211.105 90.0961 210.738 91.5465C210.281 93.3623 213.503 96.1644 215.018 97.2662C216.532 98.368 219.621 99.9843 219.621 99.9843C219.621 99.9843 219.578 96.6033 224.969 95.9222C232.321 94.994 245.465 106.111 245.241 105.923Z" fill="#004B24"/>
<path d="M235.454 92.7715C235.396 92.8772 233.396 91.5122 230.548 90.8367C227.706 90.1304 225.303 90.4258 225.3 90.3054C225.294 90.2634 225.884 90.1332 226.857 90.0926C227.828 90.0506 229.184 90.1325 230.634 90.4825C232.082 90.836 233.325 91.3855 234.168 91.8685C235.014 92.3508 235.479 92.7372 235.454 92.7715Z" fill="white"/>
<path d="M271.635 206.976C271.635 207.077 253.714 207.158 231.612 207.158C209.502 207.158 191.585 207.076 191.585 206.976C191.585 206.875 209.502 206.794 231.612 206.794C253.714 206.793 271.635 206.875 271.635 206.976Z" fill="#263238"/>
<path d="M197.369 149.699L187.065 154.36L171.073 141.325L166.201 149.04C166.201 149.04 175.307 159.575 178.68 163.153C182.054 166.732 184.303 168.642 186.962 168.3C189.62 167.959 204.806 160.802 204.806 160.802C204.806 160.802 201.231 150.151 197.369 149.699Z" fill="#FFBE9D"/>
<path d="M153.559 134.751C153.559 134.751 155.568 136.26 156.881 136.165C158.193 136.071 163.17 136.045 163.542 136.071C163.913 136.097 168.766 138.737 168.766 138.737L172.32 142.157L166.741 149.915C166.741 149.915 165.82 148.855 165.192 148.936C164.564 149.017 156.899 148.357 155.745 147.965C154.591 147.574 153.115 147.347 152.729 146.635C152.343 145.924 152.254 145.421 153.313 144.5C153.313 144.5 151.897 143.406 152.925 142.047C152.925 142.047 151.327 140.878 151.9 139.798C151.9 139.798 150.994 139.424 150.847 138.854C150.7 138.284 150.91 137.055 150.91 137.055L153.199 136.345C153.199 136.343 152.508 135.549 153.559 134.751Z" fill="#FFBE9D"/>
<path d="M152.662 136.51C152.661 136.482 152.769 136.462 152.959 136.408C153.15 136.365 153.417 136.245 153.812 136.234C154.214 136.249 154.646 136.39 155.055 136.719C155.461 137.035 155.748 137.679 155.531 138.291C155.434 138.597 155.176 138.85 154.909 138.96C154.643 139.08 154.391 139.12 154.163 139.173C153.743 139.26 153.335 139.345 152.933 139.429C152.23 139.564 151.789 139.623 151.778 139.574C151.766 139.525 152.185 139.377 152.873 139.178C153.269 139.07 153.672 138.96 154.085 138.847C154.545 138.731 155.051 138.625 155.187 138.171C155.341 137.726 155.156 137.247 154.834 136.972C154.521 136.69 154.109 136.528 153.802 136.492C153.479 136.468 153.186 136.545 152.982 136.549C152.776 136.561 152.662 136.533 152.662 136.51Z" fill="#EB996E"/>
<path d="M155.53 138.52C155.527 138.495 155.716 138.44 156.066 138.37C156.416 138.303 156.927 138.209 157.575 138.2C158.215 138.196 159.031 138.28 159.788 138.772C160.154 139.018 160.51 139.397 160.622 139.914C160.735 140.403 160.568 141.044 160.05 141.335C159.55 141.61 159.042 141.581 158.599 141.632C158.147 141.667 157.709 141.702 157.287 141.735C156.479 141.791 155.734 141.842 155.062 141.889C153.795 141.966 153.009 141.988 153.005 141.938C153 141.887 153.778 141.775 155.04 141.632C155.709 141.562 156.454 141.484 157.258 141.4C157.68 141.36 158.117 141.318 158.569 141.275C159.023 141.226 159.507 141.226 159.866 141.02C160.223 140.823 160.352 140.373 160.273 139.985C160.196 139.596 159.916 139.269 159.598 139.048C158.943 138.6 158.185 138.484 157.571 138.458C156.324 138.437 155.537 138.59 155.53 138.52Z" fill="#EB996E"/>
<path d="M160.262 141.325C160.271 141.308 160.408 141.345 160.556 141.541C160.696 141.732 160.819 142.101 160.687 142.532C160.554 142.964 160.136 143.352 159.607 143.541C159.073 143.742 158.463 143.742 157.868 143.772C155.46 143.884 153.546 144.358 153.521 144.252C153.489 144.164 155.393 143.524 157.85 143.408C158.463 143.379 159.03 143.382 159.495 143.224C159.961 143.075 160.313 142.771 160.445 142.444C160.579 142.114 160.52 141.796 160.434 141.614C160.345 141.427 160.244 141.349 160.262 141.325Z" fill="#EB996E"/>
<path d="M168.204 142.672C168.219 142.713 167.847 142.905 167.194 143.063C166.543 143.223 165.602 143.316 164.578 143.181C163.556 143.043 162.672 142.704 162.086 142.379C161.497 142.054 161.189 141.772 161.214 141.737C161.27 141.636 162.651 142.571 164.627 142.82C166.599 143.099 168.177 142.56 168.204 142.672Z" fill="#EB996E"/>
<path d="M160.226 139.099C160.273 139.005 160.77 139.18 161.384 139.105C162 139.045 162.446 138.764 162.512 138.845C162.587 138.908 162.163 139.388 161.424 139.467C160.686 139.552 160.166 139.176 160.226 139.099Z" fill="#EB996E"/>
<path d="M159.676 146.744C159.583 146.735 159.802 145.681 160.738 144.818C161.664 143.944 162.73 143.798 162.733 143.893C162.764 143.997 161.83 144.283 160.986 145.085C160.129 145.87 159.778 146.784 159.676 146.744Z" fill="#EB996E"/>
<path d="M143.07 166.879H173.475L179.116 211.346H137.133L143.07 166.879Z" fill="#004B24"/>
<path d="M173.475 166.879H176.992L187.366 211.346H179.116L173.475 166.879Z" fill="#004B24"/>
<path opacity="0.3" d="M173.475 166.879H176.992L187.366 211.346H179.116L173.475 166.879Z" fill="black"/>
<path d="M156.494 143.759C156.495 143.738 156.582 143.708 156.74 143.746C156.895 143.782 157.114 143.911 157.27 144.16C157.431 144.398 157.512 144.796 157.368 145.166C157.234 145.538 156.93 145.863 156.543 146.065C155.995 146.345 155.435 146.361 154.999 146.368L155.133 146.279C154.734 147.044 154.258 147.381 154.223 147.338C154.168 147.288 154.542 146.882 154.851 146.149L154.886 146.068L154.986 146.059C155.411 146.021 155.923 145.976 156.374 145.743C156.692 145.577 156.94 145.319 157.055 145.045C157.177 144.769 157.144 144.496 157.045 144.286C156.841 143.851 156.48 143.812 156.494 143.759Z" fill="#EB996E"/>
<path d="M150.795 168.82C150.77 168.816 150.795 168.496 150.861 167.918C150.926 167.339 151.044 166.506 151.213 165.482C151.544 163.429 152.1 160.613 152.756 157.514C153.412 154.415 154.008 151.611 154.403 149.575C154.589 148.612 154.745 147.805 154.869 147.163C154.978 146.593 155.05 146.279 155.075 146.283C155.1 146.286 155.075 146.607 155.009 147.184C154.944 147.762 154.826 148.595 154.657 149.62C154.326 151.673 153.77 154.49 153.113 157.589C152.457 160.688 151.862 163.491 151.467 165.527C151.281 166.49 151.125 167.298 151.001 167.939C150.892 168.509 150.82 168.823 150.795 168.82Z" fill="#004B24"/>
<path d="M166.846 169.266C166.821 169.272 166.703 168.908 166.51 168.244C166.307 167.514 166.042 166.565 165.724 165.422C165.075 163.035 164.204 159.73 163.263 156.075C162.322 152.419 161.49 149.105 160.906 146.701C160.633 145.547 160.406 144.588 160.231 143.851C160.08 143.176 160.008 142.799 160.033 142.794C160.057 142.787 160.175 143.152 160.369 143.816C160.572 144.546 160.837 145.496 161.155 146.639C161.804 149.026 162.675 152.33 163.616 155.985C164.556 159.639 165.388 162.953 165.973 165.357C166.246 166.511 166.473 167.471 166.647 168.208C166.798 168.883 166.87 169.26 166.846 169.266Z" fill="#004B24"/>
<path d="M187.365 211.346C187.334 211.385 186.777 210.991 185.902 210.323C185.028 209.654 183.835 208.712 182.533 207.653C182.307 207.469 182.085 207.288 181.874 207.115L182.139 207.074C181.32 208.307 180.584 209.387 180.042 210.153C179.5 210.919 179.154 211.37 179.115 211.345C179.077 211.32 179.353 210.823 179.842 210.022C180.33 209.221 181.03 208.115 181.837 206.876L181.945 206.708L182.101 206.834C182.314 207.007 182.536 207.186 182.762 207.369C184.065 208.428 185.231 209.402 186.064 210.122C186.898 210.843 187.398 211.307 187.365 211.346Z" fill="#263238"/>
<path d="M175.322 166.879C175.421 166.863 176.994 175.826 178.835 186.897C180.676 197.972 182.088 206.96 181.988 206.977C181.889 206.993 180.317 198.032 178.476 186.958C176.635 175.886 175.223 166.896 175.322 166.879Z" fill="#263238"/>
<path d="M175.249 179.501C175.249 179.501 175.027 179.756 174.54 180.175C174.055 180.593 173.3 181.177 172.221 181.752C171.146 182.326 169.742 182.902 168.024 183.194C166.318 183.472 164.275 183.535 162.168 182.853C161.126 182.505 160.072 181.941 159.228 181.063C158.389 180.197 157.734 179.026 157.627 177.699C157.512 176.38 158.054 174.961 159.143 174.043C159.681 173.581 160.381 173.278 161.114 173.221C161.848 173.157 162.594 173.336 163.259 173.667C163.922 174.005 164.515 174.494 164.98 175.098C165.444 175.706 165.766 176.416 165.96 177.162C166.354 178.661 166.261 180.263 165.944 181.806C165.308 184.904 163.653 187.912 161.17 190.175C159.925 191.3 158.523 192.231 157.004 192.851C155.491 193.474 153.857 193.792 152.262 193.66C150.67 193.528 149.142 192.944 147.934 191.984C146.719 191.041 145.855 189.666 145.62 188.201C145.372 186.748 145.645 185.231 146.436 184.06C147.202 182.893 148.53 182.069 149.9 182.189C150.58 182.247 151.205 182.611 151.614 183.112C152.032 183.612 152.27 184.213 152.391 184.809C152.637 186.017 152.393 187.206 151.991 188.227C151.14 190.287 149.584 191.7 148.092 192.572C146.576 193.441 145.11 193.84 143.919 194.081C142.721 194.315 141.776 194.392 141.137 194.435C140.817 194.454 140.573 194.465 140.409 194.467C140.245 194.471 140.16 194.469 140.16 194.463C140.16 194.457 140.244 194.445 140.407 194.43C140.589 194.413 140.828 194.391 141.131 194.362C141.766 194.296 142.705 194.196 143.89 193.942C145.067 193.682 146.511 193.266 147.989 192.397C149.442 191.528 150.947 190.128 151.752 188.133C152.132 187.145 152.356 185.999 152.116 184.867C151.999 184.306 151.771 183.749 151.391 183.302C151.019 182.853 150.472 182.541 149.871 182.491C148.652 182.387 147.412 183.143 146.704 184.239C145.969 185.335 145.713 186.771 145.951 188.145C146.178 189.526 146.991 190.813 148.151 191.712C149.302 192.623 150.769 193.182 152.291 193.305C155.377 193.547 158.521 192.098 160.925 189.907C163.35 187.697 164.97 184.757 165.595 181.734C165.908 180.227 165.997 178.676 165.625 177.251C165.443 176.543 165.137 175.87 164.71 175.307C164.279 174.743 163.724 174.283 163.108 173.967C162.491 173.658 161.806 173.493 161.141 173.549C160.477 173.599 159.846 173.868 159.349 174.289C158.344 175.128 157.827 176.452 157.93 177.676C158.024 178.916 158.635 180.036 159.433 180.868C160.233 181.712 161.243 182.263 162.253 182.61C164.296 183.29 166.312 183.25 167.993 182.994C169.689 182.725 171.083 182.177 172.157 181.628C173.235 181.078 173.998 180.517 174.496 180.119C174.751 179.927 174.928 179.758 175.055 179.655C175.178 179.549 175.244 179.496 175.249 179.501Z" fill="white"/>
<path d="M218.282 136.081H212.801C211.034 136.699 196.802 148.809 196.802 148.809L204.846 161.449L215.276 155.35L218.282 136.081Z" fill="#455A64"/>
<path d="M212.801 136.081L224.911 131.484C224.911 131.484 226.68 135.197 232.071 134.401C237.462 133.605 243.828 129.805 243.828 129.805C243.828 129.805 253.109 135.109 255.849 137.318C258.589 139.528 253.639 185.846 253.639 185.846L252.401 199.723C252.401 199.723 253.373 200.43 253.373 202.817C253.373 205.204 253.462 206.795 253.462 206.795H205.488C205.488 206.795 204.315 201.226 205.199 199.016C206.084 196.806 207.542 194.596 207.542 194.596L208.293 173.205L208.558 154.113L212.801 136.081Z" fill="#455A64"/>
<path d="M255.849 137.318C255.849 137.318 259.719 138.411 260.867 144.152C262.015 149.894 261.806 171.816 261.806 171.816L240.189 167.135C240.189 167.135 243.121 157.932 243.121 157.306C243.121 156.68 249.071 141.856 249.28 141.543C249.488 141.229 255.849 137.318 255.849 137.318Z" fill="#455A64"/>
<path d="M208.192 145.097C208.293 145.096 208.431 148.928 208.501 153.655C208.571 158.385 208.545 162.218 208.445 162.22C208.344 162.221 208.207 158.39 208.137 153.66C208.067 148.933 208.092 145.099 208.192 145.097Z" fill="#263238"/>
<path d="M245.826 147.152C245.851 147.157 245.82 147.428 245.745 147.914C245.67 148.399 245.544 149.099 245.375 149.961C245.036 151.685 244.509 154.056 243.827 156.65C243.144 159.244 242.437 161.567 241.883 163.234C241.606 164.068 241.372 164.739 241.198 165.199C241.025 165.659 240.918 165.91 240.894 165.902C240.87 165.894 240.932 165.628 241.063 165.155C241.22 164.607 241.412 163.941 241.637 163.158C242.127 161.474 242.793 159.144 243.474 156.556C244.154 153.969 244.72 151.614 245.122 149.906C245.311 149.114 245.473 148.44 245.605 147.885C245.725 147.409 245.802 147.147 245.826 147.152Z" fill="#263238"/>
<path d="M243.795 146.688C243.896 146.694 243.873 148.669 243.745 151.1C243.617 153.532 243.431 155.498 243.331 155.493C243.23 155.488 243.253 153.513 243.381 151.081C243.509 148.649 243.695 146.682 243.795 146.688Z" fill="#263238"/>
<path d="M213.633 185.399L237.551 182.524L241.323 167.38L254.705 170.278C254.705 170.278 249.412 191.3 243.958 193.332C238.503 195.364 211.518 191.93 211.518 191.93L213.633 185.399Z" fill="#FFBE9D"/>
<path d="M212.657 185.228C212.657 185.228 209.784 184.044 208.674 183.879C207.563 183.715 206.256 183.958 205.927 184.492L199.471 188.233C199.471 188.233 194.702 187.781 194.249 188.85C194.249 188.85 191.206 187.987 190.713 188.604C190.713 188.604 189.192 189.097 189.438 189.796C189.685 190.495 195.195 192.427 195.195 192.427L202.761 193.208C202.761 193.208 205.639 191.646 206.831 191.523C208.023 191.4 210.399 191.84 210.258 191.794C210.16 191.762 214.668 192.3 214.668 192.3C214.668 192.3 215.589 191.317 215.959 188.603C216.329 185.889 215.959 185.314 215.959 185.314L212.657 185.228Z" fill="#FFBE9D"/>
<path d="M209.464 188.679C209.466 188.697 209.259 188.709 208.994 188.496C208.722 188.305 208.494 187.856 208.077 187.57C207.864 187.436 207.577 187.38 207.25 187.32C206.932 187.263 206.522 187.164 206.217 186.866C205.914 186.582 205.714 186.176 205.662 185.733C205.605 185.298 205.724 184.784 206.065 184.432C206.742 183.748 207.71 183.604 208.469 183.769C209.241 183.936 209.835 184.332 210.274 184.694C210.715 185.062 211.021 185.406 211.228 185.645C211.433 185.886 211.535 186.028 211.518 186.045C211.472 186.093 210.991 185.573 210.116 184.898C209.674 184.574 209.1 184.231 208.404 184.1C207.73 183.963 206.877 184.126 206.332 184.68C205.804 185.232 205.981 186.18 206.45 186.625C206.91 187.103 207.7 186.973 208.219 187.356C208.71 187.749 208.863 188.19 209.089 188.392C209.296 188.611 209.473 188.648 209.464 188.679Z" fill="#EB996E"/>
<path d="M205.472 187.43C205.468 187.489 205.108 187.469 204.598 187.7C204.076 187.898 203.455 188.428 202.531 188.676C201.576 188.875 200.782 188.568 200.228 188.497C199.669 188.391 199.317 188.416 199.308 188.361C199.296 188.317 199.662 188.197 200.258 188.241C200.845 188.258 201.647 188.498 202.448 188.321C203.246 188.115 203.923 187.614 204.509 187.457C205.095 187.271 205.486 187.39 205.472 187.43Z" fill="#EB996E"/>
<path d="M205.631 190.439C205.641 190.459 205.491 190.568 205.195 190.724C204.898 190.881 204.448 191.07 203.869 191.231C202.713 191.568 201.032 191.683 199.221 191.499C198.321 191.386 197.469 191.249 196.692 191.133C195.921 190.999 195.21 190.957 194.628 190.673C194.347 190.533 194.115 190.317 194.011 190.077C193.904 189.843 193.885 189.614 193.92 189.438C193.997 189.07 194.23 188.987 194.227 189.005C194.254 189.028 194.081 189.147 194.06 189.456C194.039 189.756 194.211 190.232 194.739 190.44C195.243 190.66 195.97 190.689 196.739 190.801C197.527 190.906 198.371 191.018 199.256 191.136C201.04 191.317 202.668 191.244 203.807 190.979C204.952 190.731 205.603 190.381 205.631 190.439Z" fill="#EB996E"/>
<path d="M241.522 188.642C241.414 188.674 241.02 187.187 239.969 185.652C238.934 184.106 237.7 183.189 237.77 183.1C237.808 183.019 239.191 183.837 240.271 185.448C241.365 187.05 241.611 188.637 241.522 188.642Z" fill="#EB996E"/>
<path d="M63.147 271.305L62.2321 318.035L73.549 319.248L81.3246 271.669L75.2157 263.985L63.147 271.305Z" fill="#FFBE9D"/>
<path d="M74.9371 316.94L74.9308 317.703C74.9308 317.703 87.8066 323.047 87.9165 325.503L62.2321 325.075V316.518C66.0212 318.35 70.5061 318.633 74.9371 316.94Z" fill="#004B24"/>
<path d="M62.2321 325.076L62.3504 323.021L86.9239 324.183C86.9239 324.183 88.0593 324.7 87.9165 325.504L62.2321 325.076Z" fill="#263238"/>
<path d="M58.4681 128.533C58.284 126.38 56.9918 124.203 54.9324 123.549L52.5629 124.908C50.0667 126.058 48.7451 129.264 49.7062 131.838C46.6108 133.6 45.5468 138.156 47.5425 141.106C46.0053 141.818 45.3473 143.697 45.3739 145.39C45.4005 147.084 45.9444 148.729 46.0956 150.416C46.2125 151.718 46.0956 153.043 46.335 154.329C46.5744 155.615 47.2723 156.924 48.4861 157.413C49.7615 157.927 51.2847 157.363 52.2115 156.347C53.1376 155.332 53.5632 153.955 53.7844 152.598C54.4228 148.687 53.5926 144.602 54.5775 140.764C55.1144 138.672 56.1665 136.755 57.0464 134.782C57.9277 132.811 58.6522 130.685 58.4681 128.533Z" fill="#263238"/>
<path d="M57.332 128.255C54.6482 128.237 52.0302 126.668 50.7485 124.31C49.4675 121.951 49.5753 118.901 51.0201 116.64C51.2385 116.298 51.5038 115.959 51.8811 115.809C52.6777 115.493 53.5044 116.14 54.1183 116.738C55.5946 118.176 57.0709 119.615 58.5472 121.053" fill="#263238"/>
<path d="M57.4545 122.722C54.1281 121.15 51.5143 117.421 50.5441 113.871C49.5739 110.322 50.6911 103.132 51.6494 99.5799C52.8156 95.2567 54.6125 100.82 56.0832 101.276C56.9589 101.548 57.5728 102.374 57.836 103.253C58.0992 104.131 58.0698 105.067 58.0376 105.984C57.8437 111.563 57.6491 117.143 57.4545 122.722Z" fill="#263238"/>
<path d="M65.9588 87.4559C71.5217 84.4669 75.9835 86.233 78.1535 87.9298C80.3235 89.6266 81.6325 92.2117 82.4284 94.8493C83.2243 97.4869 83.5729 100.236 84.2197 102.915C84.7629 105.165 84.7573 105.309 85.0758 107.602C85.395 109.895 85.2893 113.987 84.1161 115.982C82.9884 117.901 81.7739 119.61 79.9126 120.831C79.2427 121.269 78.451 121.729 77.6873 121.486C77.1329 121.31 76.7577 120.807 76.4238 120.331C70.3919 111.719 65.6375 102.213 62.3636 92.2201" fill="#263238"/>
<path d="M59.7666 93.8812L69.4001 89.999L71.9229 90.2804C77.5964 90.2734 81.5388 96.5118 81.5976 101.107C81.6634 106.211 81.5416 112.446 80.7485 116.213C79.1532 123.787 73.2529 124.465 73.2529 124.465C73.2529 124.453 73.3222 126.533 73.3824 129.074C73.4909 133.639 69.769 137.373 65.2029 137.281C60.8503 137.192 57.3643 133.647 57.3482 129.294L57.2271 96.4852C57.2698 95.0887 58.3729 93.9582 59.7666 93.8812Z" fill="#FFBE9D"/>
<path d="M79.1399 106.16C79.1322 106.678 78.687 107.099 78.1459 107.101C77.6062 107.103 77.1729 106.686 77.1806 106.168C77.1883 105.65 77.6335 105.228 78.1732 105.227C78.715 105.224 79.1476 105.643 79.1399 106.16Z" fill="#263238"/>
<path d="M79.5858 103.712C79.4577 103.834 78.7437 103.248 77.6895 103.198C76.6374 103.133 75.8373 103.636 75.7295 103.501C75.6763 103.441 75.8114 103.217 76.16 102.988C76.5037 102.761 77.0812 102.552 77.7371 102.587C78.393 102.624 78.9334 102.893 79.2379 103.156C79.5501 103.422 79.6481 103.658 79.5858 103.712Z" fill="#263238"/>
<path d="M73.1507 111.959C73.1486 111.899 73.8094 111.819 74.8776 111.736C75.1478 111.721 75.4054 111.68 75.46 111.499C75.5328 111.308 75.4355 111.013 75.3207 110.693C75.1002 110.029 74.8699 109.333 74.6277 108.604C73.6694 105.632 72.9897 103.193 73.1094 103.156C73.2298 103.118 74.1041 105.497 75.0631 108.469C75.2927 109.202 75.5132 109.9 75.7218 110.568C75.8086 110.879 75.9661 111.234 75.8086 111.631C75.726 111.829 75.5216 111.965 75.3466 112.002C75.1716 112.046 75.0204 112.042 74.8867 112.043C73.815 112.048 73.1521 112.019 73.1507 111.959Z" fill="#263238"/>
<path d="M73.2536 124.464C73.2536 124.464 68.1009 124.537 63.1659 121.224C63.1659 121.224 65.6243 126.652 73.3019 126.321L73.2536 124.464Z" fill="#EB996E"/>
<path d="M72.4773 114.239C72.0783 113.62 71.4637 113.339 70.7798 113.342C70.3052 113.344 69.8271 113.541 69.5415 113.935C69.2566 114.328 69.2006 114.927 69.4666 115.363C69.7662 115.856 70.3843 116.032 70.9058 115.928C71.4273 115.824 71.8739 115.496 72.2981 115.167C72.415 115.076 72.5354 114.981 72.6075 114.846C72.6803 114.712 72.5697 114.368 72.4773 114.239Z" fill="#EB996E"/>
<path d="M70.0133 112.533C70.1848 112.531 70.1302 113.675 71.0682 114.536C72.0041 115.399 73.2298 115.332 73.2312 115.492C73.2438 115.565 72.9484 115.701 72.4332 115.689C71.9278 115.681 71.1984 115.482 70.6244 114.955C70.0518 114.427 69.8285 113.751 69.8131 113.279C69.7942 112.799 69.9356 112.522 70.0133 112.533Z" fill="#263238"/>
<path d="M79.4339 100.767C79.2365 100.997 78.5232 100.712 77.651 100.656C76.7809 100.57 76.0312 100.736 75.8737 100.478C75.8051 100.353 75.9339 100.119 76.2678 99.908C76.5975 99.698 77.1386 99.5405 77.7378 99.5888C78.3363 99.6378 78.8452 99.8807 79.1364 100.141C79.4325 100.403 79.5214 100.654 79.4339 100.767Z" fill="#263238"/>
<path d="M67.4975 106.099C67.473 106.617 67.8902 107.065 68.4306 107.1C68.9696 107.136 69.4274 106.747 69.4526 106.23C69.4771 105.712 69.0599 105.264 68.5209 105.228C67.9805 105.192 67.5227 105.582 67.4975 106.099Z" fill="#263238"/>
<path d="M65.5249 103.589C65.6446 103.718 66.3943 103.178 67.4492 103.194C68.5034 103.195 69.2706 103.748 69.3861 103.62C69.4428 103.563 69.3217 103.33 68.9885 103.081C68.6595 102.833 68.0967 102.588 67.4394 102.582C66.7821 102.577 66.2263 102.812 65.9057 103.056C65.5788 103.301 65.4661 103.531 65.5249 103.589Z" fill="#263238"/>
<path d="M65.9849 100.245C66.1676 100.486 66.897 100.247 67.7713 100.247C68.6449 100.215 69.3833 100.428 69.5562 100.18C69.6325 100.058 69.5192 99.8176 69.1986 99.5866C68.8829 99.3563 68.3523 99.1652 67.7517 99.1757C67.1511 99.1869 66.6282 99.3976 66.3209 99.6391C66.0094 99.8813 65.9044 100.126 65.9849 100.245Z" fill="#263238"/>
<path d="M68.2885 89.1848C65.849 88.202 62.118 88.5338 60.0236 90.1249C57.9292 91.716 56.6209 94.2038 56.1435 96.7903C55.6661 99.3768 56.3066 103.209 56.9891 105.749C60.9378 100.663 65.002 94.7953 68.8128 89.6048L68.2885 89.1848Z" fill="#263238"/>
<path d="M70.156 86.8741C83.5379 84.9883 82.3017 105.227 82.3017 105.227C80.9647 97.7696 70.5851 89.9673 70.5851 89.9673L68.4746 89.6111L70.156 86.8741Z" fill="#263238"/>
<path d="M58.058 109.383C58.0853 108.815 57.4951 107.441 56.9379 107.325C55.4504 107.017 52.7415 107.001 52.5259 110.808C52.2305 116.012 57.5162 115.235 57.5337 115.085C57.547 114.97 57.9642 111.347 58.058 109.383Z" fill="#FFBE9D"/>
<path d="M56.7476 113.025C56.7259 113.007 56.6531 113.083 56.4963 113.144C56.343 113.204 56.0833 113.237 55.818 113.12C55.2797 112.887 54.8667 111.988 54.8947 111.049C54.908 110.574 55.0326 110.129 55.2223 109.765C55.4029 109.393 55.664 109.141 55.944 109.108C56.2226 109.06 56.4095 109.237 56.4648 109.387C56.5264 109.537 56.4872 109.639 56.5145 109.649C56.5278 109.663 56.6307 109.568 56.6013 109.351C56.5859 109.246 56.532 109.12 56.4151 109.013C56.2961 108.905 56.1155 108.842 55.9216 108.852C55.5184 108.857 55.1369 109.206 54.929 109.605C54.6994 110.005 54.5475 110.505 54.5328 111.037C54.5062 112.088 54.9878 113.1 55.7277 113.36C56.0882 113.476 56.4004 113.383 56.5649 113.269C56.7308 113.15 56.7651 113.035 56.7476 113.025Z" fill="#EB996E"/>
<path d="M51.9385 96.9353C53.2685 93.3674 55.9593 90.4204 59.0974 88.2637C60.7802 87.1066 62.6541 86.1371 64.6813 85.8949C66.7092 85.652 68.9149 86.2365 70.2631 87.7702L70.6397 88.1545C68.3374 93.2554 66.7169 97.5716 63.7545 102.32C62.666 104.065 62.197 110.006 61.9345 112.045C61.0385 119.01 57.227 121.99 57.227 121.99C48.9824 121.996 50.6085 100.503 51.9385 96.9353Z" fill="#263238"/>
<path d="M55.9705 121.172C55.9572 121.212 55.5491 121.132 54.9457 120.845C54.3437 120.56 53.5618 120.038 52.8702 119.281C52.1807 118.522 51.7334 117.695 51.5059 117.069C51.2756 116.442 51.2336 116.029 51.2756 116.019C51.3834 115.979 51.7964 117.586 53.139 119.036C54.4578 120.507 56.0202 121.068 55.9705 121.172Z" fill="#455A64"/>
<path d="M54.9814 127.947C54.9821 128.04 53.8768 127.954 52.8261 127.156C51.767 126.368 51.3764 125.331 51.466 125.306C51.5612 125.252 52.0645 126.139 53.0452 126.864C54.014 127.604 55.0066 127.84 54.9814 127.947Z" fill="#455A64"/>
<path d="M51.5088 134.339C51.4269 134.397 50.9502 133.872 50.4441 133.165C49.938 132.458 49.5936 131.838 49.6755 131.779C49.7574 131.721 50.2341 132.246 50.7402 132.953C51.2463 133.66 51.5907 134.28 51.5088 134.339Z" fill="#455A64"/>
<path d="M48.8263 142.217C48.7507 142.284 48.3825 141.988 48.0045 141.556C47.6265 141.124 47.3808 140.721 47.4571 140.654C47.5327 140.588 47.9009 140.884 48.2789 141.316C48.6569 141.747 48.9019 142.151 48.8263 142.217Z" fill="#455A64"/>
<path d="M50.4147 108.718C50.4042 108.695 50.7556 108.49 51.3996 108.141C51.7237 107.971 52.1171 107.757 52.5581 107.481C53.0012 107.209 53.5199 106.924 54.0554 106.549C55.1551 105.842 56.4046 104.91 57.7234 103.797C59.0254 102.664 60.3862 101.336 61.6854 99.8258C62.9706 98.3019 64.0633 96.7458 64.9747 95.28C65.8637 93.8002 66.5847 92.4184 67.1069 91.22C67.3925 90.6313 67.5913 90.0734 67.7887 89.5932C67.991 89.1137 68.1394 88.6916 68.2556 88.3444C68.4978 87.6535 68.6434 87.2734 68.6679 87.2804C68.6924 87.2874 68.5923 87.6808 68.3907 88.3885C68.2941 88.7441 68.1653 89.1753 67.9798 89.6646C67.7992 90.1553 67.6158 90.723 67.3435 91.3229C66.8479 92.5437 66.1444 93.9507 65.2624 95.4543C64.358 96.9439 63.2611 98.5231 61.9626 100.062C60.6501 101.589 59.2662 102.923 57.9404 104.053C56.5964 105.163 55.3203 106.082 54.194 106.766C53.6452 107.131 53.1132 107.403 52.6582 107.659C52.2046 107.92 51.8 108.116 51.464 108.268C50.7976 108.579 50.4252 108.741 50.4147 108.718Z" fill="#455A64"/>
<path d="M63.2891 102.481C63.3073 102.499 63.1708 102.674 62.9069 102.976C62.6458 103.282 62.2412 103.7 61.7197 104.194C60.6788 105.184 59.122 106.439 57.2299 107.56C55.335 108.676 53.4842 109.434 52.1143 109.868C51.4297 110.086 50.8683 110.238 50.4749 110.319C50.0822 110.404 49.8631 110.44 49.8568 110.415C49.8421 110.358 50.6947 110.118 52.0303 109.624C53.3659 109.132 55.174 108.347 57.0444 107.246C58.9113 106.14 60.4709 104.935 61.5468 104.003C62.6248 103.072 63.2464 102.44 63.2891 102.481Z" fill="#455A64"/>
<path d="M82.714 109.128C82.6846 109.119 82.784 108.717 82.9275 107.987C83.0731 107.258 83.2292 106.19 83.2726 104.864C83.3762 102.233 82.8379 98.4646 80.7841 94.9625C78.724 91.4618 75.693 89.1574 73.3445 87.9674C72.165 87.3598 71.1563 86.9762 70.4479 86.7487C69.7402 86.5191 69.3412 86.4106 69.3482 86.3805C69.351 86.3679 69.4539 86.3819 69.6478 86.4197C69.8396 86.4624 70.1294 86.5065 70.4892 86.6129C71.2151 86.8005 72.2497 87.1505 73.4607 87.7371C75.8715 88.8837 78.9935 91.2 81.0984 94.7777C83.1977 98.3568 83.7024 102.211 83.5302 104.874C83.4532 106.218 83.2558 107.292 83.0661 108.018C82.9842 108.384 82.882 108.659 82.826 108.848C82.7637 109.035 82.7259 109.131 82.714 109.128Z" fill="#455A64"/>
<path d="M144.747 156.448C144.392 156.815 144.304 157.617 144.513 158.073C144.722 158.53 145.131 158.861 145.553 159.133C146.255 158.413 146.839 157.577 147.274 156.67" fill="#EB996E"/>
<path d="M141.706 155.563C141.272 155.831 140.986 156.586 141.076 157.079C141.166 157.573 141.48 157.995 141.821 158.364C142.68 157.84 143.452 157.175 144.099 156.404" fill="#EB996E"/>
<path d="M72.6726 132.479C72.6726 132.479 95.6977 150.599 99.8459 151.191C103.994 151.784 123.419 149.432 131.387 149.182L132.516 155.868C132.516 155.868 110.512 163.339 102.512 163.635C94.5119 163.931 89.9171 161.772 89.9171 161.772L74.9567 146.45L72.6726 132.479Z" fill="#FFBE9D"/>
<path d="M130.881 149.251C130.881 149.251 141.161 147.786 142.759 148.585C144.357 149.385 148.949 153.263 148.949 153.263C148.949 153.263 150.477 157.569 149.514 157.772C148.552 157.974 147.553 156.376 147.553 156.376L146.254 153.979L140.512 152.582L130.982 153.424L130.881 149.251Z" fill="#FFBE9D"/>
<path d="M132.517 155.868C132.666 156.049 136.336 157.823 138.205 157.771C140.073 157.72 142.211 156.264 143.82 156.486C145.429 156.709 148.765 156.966 149.17 156.39C149.575 155.813 149.69 155.142 149.142 154.623C148.593 154.104 145.898 153.593 143.952 153.072C142.006 152.55 141.069 151.744 141.069 151.744L129.751 152.991L129.108 156.523L132.517 155.868Z" fill="#FFBE9D"/>
<path d="M137.413 151.629C137.413 151.604 137.623 151.589 138.006 151.584C138.387 151.597 138.943 151.636 139.611 151.778C140.962 152.026 142.718 152.729 144.661 153.38C145.639 153.702 146.578 153.919 147.463 154.041C147.906 154.109 148.377 154.218 148.714 154.526C149.055 154.835 149.17 155.277 149.132 155.643C149.101 156.018 148.898 156.33 148.663 156.502C148.429 156.68 148.181 156.746 147.982 156.762C147.575 156.785 147.384 156.635 147.395 156.624C147.405 156.591 147.608 156.685 147.964 156.621C148.298 156.57 148.85 156.261 148.875 155.624C148.892 155.323 148.78 154.974 148.515 154.753C148.248 154.523 147.848 154.429 147.414 154.373C146.523 154.27 145.535 154.053 144.549 153.727C142.577 153.067 140.864 152.336 139.555 152.029C138.254 151.687 137.411 151.697 137.413 151.629Z" fill="#EB996E"/>
<path d="M144.821 153.759C144.784 153.848 143.975 153.568 143.158 152.921C142.338 152.278 141.877 151.558 141.954 151.5C142.036 151.434 142.601 152.022 143.384 152.634C144.161 153.253 144.866 153.665 144.821 153.759Z" fill="#EB996E"/>
<path d="M52.838 269.772L31.9724 279.064L34.4798 290.204C34.4798 290.204 60.7207 282.384 69.3265 280.645C77.9092 278.911 91.8189 276.693 95.748 268.37L52.838 269.772Z" fill="#FFBE9D"/>
<path d="M36.4821 290.407L35.7541 290.604C35.7541 290.604 34.0783 304.282 31.769 305.037L25.3668 280.466L33.5155 278.198C32.7749 282.291 33.6954 286.636 36.4821 290.407Z" fill="#004B24"/>
<path d="M25.3658 280.466L27.3531 280.034L32.7613 303.742C32.7613 303.742 32.5702 304.96 31.7673 305.037L25.3658 280.466Z" fill="#263238"/>
<path d="M95.6431 268.689C95.6431 268.689 95.5976 268.902 95.4212 269.274C95.2511 269.649 94.9284 270.171 94.4209 270.767C93.408 271.965 91.6293 273.387 89.2731 274.872C88.0768 275.604 86.6796 276.237 85.1417 276.807C83.6052 277.401 81.8797 277.762 80.1094 278.214C76.5513 279.112 72.6474 280.136 68.5517 281.218C60.3708 283.378 52.9669 285.333 47.5692 286.757C44.9022 287.436 42.7336 287.989 41.1957 288.381C40.4649 288.555 39.8846 288.694 39.4562 288.796C39.0572 288.887 38.8465 288.929 38.8437 288.917C38.8402 288.905 39.0453 288.839 39.438 288.725C39.8622 288.607 40.4362 288.446 41.16 288.243C42.6909 287.825 44.8497 287.234 47.5034 286.508C52.8619 285.051 60.2644 283.031 68.4593 280.865C72.5557 279.783 76.4631 278.769 80.0289 277.888C81.8153 277.44 83.5198 277.097 85.0395 276.522C86.5655 275.97 87.9578 275.354 89.1401 274.651C91.4977 273.204 93.2855 271.824 94.3152 270.672C95.3624 269.527 95.6004 268.664 95.6431 268.689Z" fill="#EB996E"/>
<path d="M62.4974 179.199L62.9685 183.309C62.9685 183.309 55.7438 196.967 55.7438 204.296C55.7438 211.625 52.4097 269.963 52.4097 269.963C52.4097 269.963 91.6055 272.193 95.7488 268.369C99.8914 264.545 99.8914 264.545 99.8914 264.545L113.913 260.721L92.0388 180.901V176.625L62.4974 179.199Z" fill="#263238"/>
<path d="M89.3137 198.971C89.32 198.97 89.3326 199.025 89.3522 199.132C89.3732 199.262 89.3984 199.418 89.4299 199.61C89.4943 200.062 89.5818 200.676 89.6924 201.452C89.9206 203.084 90.244 205.391 90.6409 208.227C91.4585 213.946 92.6758 221.832 94.2452 230.503C95.8202 239.177 97.4484 246.99 98.6909 252.631C99.3146 255.426 99.8221 257.699 100.181 259.308C100.35 260.073 100.484 260.679 100.582 261.124C100.62 261.315 100.651 261.471 100.677 261.599C100.696 261.707 100.703 261.762 100.697 261.763C100.691 261.765 100.672 261.712 100.64 261.607C100.605 261.481 100.562 261.328 100.51 261.141C100.395 260.699 100.24 260.099 100.043 259.34C99.6422 257.775 99.092 255.502 98.4396 252.687C97.1327 247.058 95.4625 239.248 93.8868 230.568C92.316 221.89 91.1379 213.991 90.3854 208.262C90.0081 205.397 89.7253 203.075 89.5517 201.469C89.4698 200.689 89.4047 200.072 89.3571 199.618C89.3403 199.424 89.327 199.266 89.3158 199.136C89.3081 199.028 89.3074 198.972 89.3137 198.971Z" fill="#455A64"/>
<path d="M61.1625 206.278C61.1744 206.275 61.2304 206.434 61.3256 206.74C61.4271 207.083 61.5594 207.528 61.7239 208.083C62.0774 209.29 62.5681 210.968 63.1701 213.022C64.4063 217.188 66.1969 222.918 68.3844 229.176C70.5768 235.434 72.751 241.031 74.3827 245.058C75.194 247.04 75.8562 248.657 76.3322 249.821C76.5492 250.357 76.7242 250.788 76.8579 251.119C76.9741 251.417 77.0301 251.576 77.0182 251.582C77.007 251.587 76.9286 251.437 76.79 251.148C76.6402 250.825 76.4449 250.403 76.2013 249.878C75.6945 248.773 74.9896 247.16 74.1433 245.157C72.4493 241.152 70.2345 235.563 68.0393 229.296C65.849 223.031 64.0948 217.282 62.9216 213.094C62.3336 211 61.8793 209.3 61.586 208.119C61.4488 207.557 61.3382 207.106 61.2535 206.759C61.1821 206.446 61.1499 206.281 61.1625 206.278Z" fill="#455A64"/>
<path d="M93.3729 182.832C93.3743 182.857 92.9557 182.907 92.1969 182.976C91.4381 183.046 90.3391 183.126 88.979 183.208C86.2602 183.373 82.4977 183.52 78.3404 183.538C74.1817 183.554 70.4185 183.438 67.6976 183.295C66.3375 183.224 65.2371 183.153 64.4783 183.088C63.7188 183.026 63.3002 182.979 63.3016 182.954C63.303 182.929 63.7244 182.927 64.486 182.946C65.3085 182.969 66.3949 182.999 67.7081 183.037C70.4283 183.113 74.1866 183.188 78.339 183.172C82.49 183.154 86.2476 183.048 88.9671 182.95C90.2803 182.902 91.366 182.863 92.1885 182.834C92.9494 182.809 93.3715 182.808 93.3729 182.832Z" fill="#455A64"/>
<path d="M73.3011 129.544C73.1121 129.099 87.2052 140.337 88.9762 145.811C90.7472 151.285 91.0475 167.076 91.0475 167.076L92.038 177.213L63.9015 179.199L63.1469 177.213L61.0679 171.564L58.1699 163.031C58.1699 163.031 51.235 152.26 49.8574 147.62C48.1473 141.859 50.9816 135.958 50.9816 135.958L57.3474 128.775L73.3011 129.544Z" fill="#004B24"/>
<path d="M57.3488 129.293C57.3488 129.293 55.7892 126.396 56.751 125.135C57.5161 124.133 71.0625 125.389 73.8275 125.975C75.4508 126.319 73.7974 129.939 73.7974 129.939L57.3488 129.293Z" fill="#004B24"/>
<g opacity="0.3">
<path d="M65.4639 142.94C66.6448 145.995 64.9774 155.481 64.7198 157.739C64.4622 159.997 63.821 162.192 63.1651 164.368C62.8599 165.38 62.5694 166.545 63.142 167.433C64.0646 168.863 66.4446 168.458 67.5961 169.712C65.4534 170.714 62.9838 171 60.6689 170.515C60.2636 170.43 59.8352 170.305 59.5727 169.985C59.3697 169.738 59.2976 169.412 59.2346 169.098C58.5682 165.777 58.2728 162.333 58.9098 159.007C59.5468 155.68 62.722 147.693 65.3939 145.612" fill="black"/>
</g>
<path d="M65.9574 147.13C66.0463 147.155 65.6193 148.7 64.605 150.379C63.5991 152.064 62.4364 153.167 62.3727 153.1C62.2915 153.027 63.3107 151.838 64.2928 150.191C65.284 148.551 65.8552 147.093 65.9574 147.13Z" fill="#263238"/>
<path d="M73.8282 129.594C73.8324 129.618 73.6035 129.681 73.1842 129.772C72.7656 129.866 72.1538 129.971 71.3936 130.073C69.8739 130.28 67.7487 130.424 65.4065 130.309C63.0636 130.189 60.9636 129.831 59.4726 129.473C58.7264 129.296 58.1279 129.13 57.7212 128.994C57.3131 128.861 57.0919 128.776 57.0989 128.752C57.115 128.696 58.0306 128.932 59.5265 129.222C61.0217 129.513 63.1049 129.826 65.4254 129.945C67.7445 130.059 69.8487 129.957 71.3656 129.818C72.8825 129.679 73.8177 129.536 73.8282 129.594Z" fill="#263238"/>
<path d="M83.7403 156.8C83.678 156.78 83.9244 156.025 84.1141 154.772C84.3073 153.522 84.3815 151.758 84.0483 149.855C83.7074 147.954 83.0305 146.323 82.4194 145.215C81.8104 144.103 81.3204 143.48 81.3715 143.44C81.3911 143.424 81.5283 143.567 81.7614 143.842C81.9994 144.113 82.3046 144.537 82.6427 145.087C83.3231 146.182 84.0581 147.842 84.4074 149.792C84.7497 151.743 84.63 153.555 84.3682 154.816C84.2394 155.448 84.0987 155.952 83.9685 156.288C83.8432 156.626 83.7641 156.808 83.7403 156.8Z" fill="#263238"/>
<g opacity="0.3">
<path d="M65.0922 130.072C62.876 129.878 60.2671 129.612 58.1062 129.081C61.3255 130.804 65.2518 131.698 68.875 131.239C70.2295 131.068 71.6547 130.686 72.5521 129.657C70.4794 130.468 67.3084 130.266 65.0922 130.072Z" fill="black"/>
</g>
<g opacity="0.3">
<path d="M80.9752 160.02C83.5015 157.387 84.7461 153.576 84.2603 149.959C84.6432 151.372 84.7209 152.151 84.7804 153.614C84.8399 155.076 84.6621 156.477 83.7983 157.659C82.9352 158.841 82.4354 159.557 80.9752 160.02Z" fill="black"/>
</g>
<path d="M61.3627 136.784C58.3464 134.274 53.7635 134.616 51.366 137.723C51.2645 137.854 51.1679 137.989 51.0769 138.125C49.6167 140.316 45.5861 174.443 47.1919 178.531C48.7984 182.62 51.1343 182.328 51.1343 182.328C51.1343 182.328 61.6896 182.209 69.2825 180.457C76.8754 178.705 85.3426 175.828 85.3426 175.828L83.9391 167.562C83.9391 167.562 65.3471 170.024 60.2364 169.441L62.1873 152.827C62.1873 152.827 66.6295 147.412 65.3555 142.448C64.7507 140.09 63.0168 138.16 61.3627 136.784Z" fill="#FFBE9D"/>
<path d="M89.7994 162.482L93.9728 159.677L96.9772 157.144C96.9772 157.144 97.3475 158.399 96.4123 159.813C95.4778 161.227 93.9119 163.341 93.9119 163.341L89.7994 162.482Z" fill="#FFBE9D"/>
<path d="M96.0288 160.791C95.9938 160.763 96.2633 160.471 96.5559 159.866C96.838 159.276 97.0998 158.281 96.8275 157.188L97.0774 157.263C96.1891 158.022 95.1748 158.889 94.0905 159.816L94.0835 159.822L94.0744 159.827C94.0037 159.875 93.9274 159.926 93.8511 159.978C92.9222 160.596 92.0367 161.185 91.2177 161.731C90.4092 162.271 89.6749 162.748 89.0218 163.089C87.7366 163.807 86.9302 164.228 86.9043 164.185C86.8791 164.142 87.6386 163.642 88.886 162.87C89.5202 162.501 90.2391 162.004 91.0357 161.449C91.8484 160.898 92.7262 160.301 93.6481 159.676C93.7244 159.624 93.8007 159.573 93.8707 159.526L93.8553 159.538C94.9522 158.626 95.9784 157.772 96.8765 157.025L97.0739 156.861L97.1264 157.1C97.3973 158.329 97.0585 159.347 96.7176 159.949C96.5454 160.254 96.3725 160.47 96.2444 160.603C96.1149 160.737 96.0414 160.803 96.0288 160.791Z" fill="#EB996E"/>
<path d="M88.2924 169.529C88.4345 169.246 99.4105 157.013 102.115 154.001C102.467 153.608 103.039 153.501 103.511 153.739C104.201 154.086 104.371 154.993 103.855 155.567L89.7988 171.197L88.2924 169.529Z" fill="#263238"/>
<path d="M99.9775 164.183C100.428 163.573 99.7542 162.378 99.1333 162.051C98.5124 161.723 96.0288 163.094 96.0288 163.094L95.1286 163.175C95.1286 163.175 90.3084 162.199 90.1474 162.278C90.0823 162.31 88.2154 163.086 86.6649 164.376C86.1602 164.796 85.7542 165.317 85.3951 165.866C85.0269 166.429 84.1246 167.358 82.0253 167.859L84.0707 176.167C84.0707 176.167 88.5528 175.112 88.8916 175.108C89.2311 175.105 92.9838 174.802 93.4829 174.72C93.9827 174.637 96.1009 173.976 97.7074 172.782C99.3139 171.587 98.5642 170.571 98.5642 170.571C100.227 169.443 98.931 168.32 98.931 168.32L99.3958 167.526C100.084 166.257 98.6923 165.558 98.6923 165.558C98.6923 165.558 99.5274 164.794 99.9775 164.183Z" fill="#FFBE9D"/>
<path d="M96.6433 166.762C96.6146 166.671 97.1403 166.432 97.736 166.062C98.3345 165.698 98.7839 165.335 98.8532 165.402C98.9197 165.462 98.5515 165.957 97.9124 166.349C97.2754 166.743 96.6671 166.848 96.6433 166.762Z" fill="#EB996E"/>
<path d="M98.0517 169.02C97.9929 168.948 98.1637 168.71 98.4339 168.489C98.7041 168.267 98.9701 168.145 99.0296 168.217C99.0884 168.288 98.9176 168.526 98.6474 168.748C98.3772 168.97 98.1105 169.092 98.0517 169.02Z" fill="#EB996E"/>
<path d="M97.5561 170.861C97.547 170.766 97.8263 170.665 98.1532 170.539C98.4815 170.416 98.7566 170.306 98.8126 170.383C98.8679 170.455 98.6488 170.712 98.2722 170.854C97.897 170.997 97.5624 170.952 97.5561 170.861Z" fill="#EB996E"/>
<path d="M96.0288 163.093C96.0372 163.198 94.8948 163.345 93.4899 163.452C92.0822 163.548 90.9601 163.674 90.9377 163.59C90.909 163.479 92.0451 163.185 93.4612 163.089C94.8752 162.982 96.0211 162.998 96.0288 163.093Z" fill="#EB996E"/>
<path d="M60.4821 169.288C60.5577 169.354 59.7226 170.427 58.6173 171.684C57.512 172.941 56.5544 173.906 56.4788 173.839C56.4032 173.773 57.2376 172.7 58.3436 171.443C59.4496 170.187 60.4065 169.222 60.4821 169.288Z" fill="#EB996E"/>
<path d="M65.1952 146.723C65.1602 146.715 65.2456 146.35 65.3093 145.683C65.3744 145.02 65.422 144.041 65.1749 142.877C64.9292 141.715 64.3391 140.402 63.3927 139.142C62.4757 137.87 61.1219 136.72 59.4671 135.992C57.8137 135.269 56.014 135.118 54.5405 135.67C53.039 136.13 51.919 137.088 51.3366 138.118C50.7346 139.139 50.4938 140.095 50.3349 140.742C50.1809 141.395 50.1221 141.765 50.0906 141.76C50.078 141.758 50.0801 141.665 50.0955 141.487C50.113 141.31 50.1326 141.046 50.1963 140.713C50.3146 140.05 50.5169 139.068 51.1147 137.987C51.4143 137.452 51.8357 136.904 52.402 136.443C52.9655 135.978 53.6655 135.61 54.4355 135.352C55.9692 134.754 57.904 134.903 59.6127 135.657C61.3312 136.412 62.7333 137.621 63.6636 138.943C64.6191 140.244 65.2085 141.62 65.4276 142.826C65.6502 144.035 65.5592 145.035 65.4507 145.701C65.3968 146.037 65.3366 146.294 65.2855 146.464C65.2379 146.637 65.2071 146.726 65.1952 146.723Z" fill="#263238"/>
<path d="M117.118 113.64H88.4163C87.2382 113.64 86.2827 114.596 86.2827 115.774V143.589C86.2827 144.767 87.2382 145.723 88.4163 145.723H98.9842L103.112 151.572L106.695 145.723H117.119C118.298 145.723 119.253 144.767 119.253 143.589V115.774C119.253 114.595 118.297 113.64 117.118 113.64Z" fill="#FAFAFA"/>
<path d="M117.118 113.64C117.118 113.64 117.424 113.579 117.962 113.781C118.225 113.889 118.536 114.08 118.809 114.404C119.074 114.727 119.3 115.194 119.308 115.753C119.32 117.932 119.337 121.085 119.358 125.05C119.37 129.032 119.383 133.828 119.398 139.269C119.4 140.629 119.403 142.031 119.405 143.47C119.45 144.225 119.073 145.033 118.415 145.477C118.088 145.699 117.701 145.844 117.3 145.874C116.902 145.893 116.544 145.88 116.161 145.884C113.138 145.888 109.974 145.891 106.693 145.895L106.84 145.813C105.708 147.665 104.498 149.645 103.263 151.665L103.122 151.896L102.966 151.675C101.653 149.816 100.256 147.839 98.8351 145.827L98.9828 145.903C96.6161 145.904 94.1108 145.904 91.5726 145.904C90.4176 145.896 89.3088 145.923 88.1356 145.886C87.5238 145.815 86.9526 145.484 86.583 145.001C86.198 144.529 86.0629 143.864 86.1 143.31C86.1007 141.078 86.1021 138.879 86.1028 136.718C86.1063 132.397 86.1098 128.229 86.1133 124.258C86.1161 122.273 86.1182 120.336 86.121 118.455C86.1245 117.512 86.1273 116.584 86.1301 115.669C86.1609 114.679 86.898 113.797 87.822 113.568C88.2938 113.439 88.7397 113.507 89.1674 113.49C89.6014 113.491 90.0312 113.492 90.4568 113.493C91.3087 113.495 92.1445 113.497 92.9642 113.499C94.6029 113.503 96.1758 113.506 97.678 113.511C103.671 113.535 108.527 113.555 111.902 113.569C113.568 113.583 114.869 113.595 115.769 113.603C116.199 113.611 116.533 113.617 116.775 113.621C117.003 113.627 117.118 113.64 117.118 113.64C117.118 113.64 117.002 113.653 116.775 113.659C116.534 113.663 116.199 113.669 115.77 113.677C114.869 113.685 113.569 113.697 111.903 113.712C108.528 113.726 103.672 113.745 97.6787 113.77C96.1772 113.773 94.6036 113.777 92.9649 113.781C92.1452 113.784 91.3094 113.785 90.4575 113.787C90.0312 113.788 89.6014 113.789 89.1681 113.79C88.7327 113.806 88.2875 113.748 87.9011 113.863C87.1003 114.063 86.4654 114.832 86.4423 115.685C86.4423 116.595 86.4423 117.52 86.4423 118.458C86.4451 120.338 86.4472 122.275 86.45 124.26C86.4535 128.231 86.457 132.399 86.4605 136.721C86.4612 138.881 86.4626 141.08 86.4633 143.312C86.4332 143.868 86.5459 144.364 86.8714 144.781C87.1843 145.19 87.6652 145.468 88.1797 145.527C89.2661 145.558 90.4379 145.535 91.5733 145.542C94.1115 145.543 96.6161 145.543 98.9835 145.543H99.0773L99.1312 145.62C100.55 147.634 101.945 149.612 103.256 151.472L102.96 151.482C104.198 149.463 105.412 147.485 106.546 145.635L106.597 145.552H106.693C109.974 145.556 113.137 145.56 116.161 145.564C116.533 145.561 116.927 145.573 117.275 145.557C117.62 145.533 117.953 145.41 118.236 145.219C118.805 144.829 119.134 144.158 119.097 143.471C119.1 142.033 119.103 140.631 119.105 139.27C119.12 133.83 119.134 129.034 119.144 125.052C119.165 121.087 119.181 117.935 119.193 115.756C119.195 115.225 118.989 114.776 118.741 114.459C118.486 114.143 118.191 113.949 117.938 113.836C117.423 113.621 117.114 113.663 117.118 113.64Z" fill="#263238"/>
<path d="M107.575 133.93C107.575 133.934 107.507 133.938 107.379 133.942C107.239 133.945 107.051 133.949 106.815 133.955C106.312 133.961 105.603 133.968 104.728 133.978C102.946 133.986 100.488 133.997 97.7207 134.01H97.6633L97.6556 133.953C97.6031 133.583 97.5478 133.19 97.4911 132.792C97.0214 129.394 96.6021 126.361 96.3277 124.379L96.369 124.415C95.5794 124.408 94.9494 124.402 94.5028 124.398C94.2949 124.394 94.1304 124.39 94.0065 124.387C93.8938 124.384 93.835 124.38 93.835 124.376C93.835 124.372 93.8938 124.369 94.0065 124.364C94.1304 124.362 94.2949 124.357 94.5028 124.352C94.9487 124.347 95.5794 124.34 96.369 124.331L96.4054 124.33L96.4103 124.366C96.6959 126.347 97.132 129.377 97.6213 132.773C97.6773 133.17 97.7326 133.563 97.7851 133.933L97.72 133.877C100.486 133.881 102.945 133.885 104.727 133.888C105.603 133.895 106.311 133.901 106.814 133.905C107.051 133.91 107.238 133.914 107.378 133.917C107.507 133.921 107.575 133.926 107.575 133.93Z" fill="#263238"/>
<path d="M97.6458 134.135C97.5905 134.128 97.5457 134.084 97.538 134.028L96.2227 124.541L94.0044 124.516C93.8056 124.51 93.7146 124.507 93.709 124.383C93.7111 124.249 93.8084 124.245 94.003 124.239L94.5007 124.227L96.404 124.205C96.4684 124.204 96.5223 124.25 96.5314 124.313L97.888 133.752L107.381 133.791C107.61 133.797 107.697 133.8 107.701 133.926C107.701 133.928 107.701 133.931 107.701 133.933C107.698 134.059 107.612 134.062 107.383 134.07L106.817 134.082L104.728 134.105L97.6633 134.137C97.6577 134.137 97.6514 134.136 97.6458 134.135Z" fill="#263238"/>
<path d="M97.4322 131.903C97.4322 131.901 97.4491 131.899 97.4813 131.897C97.5205 131.896 97.568 131.894 97.6268 131.892C97.764 131.889 97.9517 131.885 98.1904 131.88C98.6923 131.876 99.4063 131.868 100.299 131.859C102.11 131.85 104.641 131.838 107.571 131.825L107.509 131.878C107.722 130.653 107.953 129.33 108.193 127.959C108.317 127.254 108.438 126.562 108.554 125.902L108.618 125.979C105.216 125.975 102.212 125.972 100.047 125.969C98.9772 125.962 98.1155 125.956 97.51 125.953C97.2202 125.949 96.9912 125.945 96.826 125.942C96.7539 125.94 96.6959 125.938 96.649 125.937C96.6091 125.935 96.5887 125.933 96.5887 125.93C96.5887 125.928 96.6091 125.926 96.649 125.924C96.6959 125.923 96.7539 125.921 96.826 125.918C96.9912 125.915 97.2195 125.911 97.51 125.905C98.1155 125.9 98.9772 125.892 100.047 125.882C102.212 125.874 105.216 125.862 108.618 125.848L108.697 125.847L108.683 125.924C108.568 126.584 108.447 127.277 108.324 127.981C108.083 129.351 107.85 130.675 107.634 131.899L107.625 131.951H107.572C104.642 131.946 102.11 131.941 100.3 131.938C99.4076 131.932 98.6929 131.926 98.191 131.922C97.9523 131.918 97.7648 131.915 97.6276 131.913C97.5688 131.911 97.5211 131.908 97.4819 131.907C97.449 131.906 97.4322 131.905 97.4322 131.903Z" fill="#263238"/>
<path d="M97.4365 132.032C97.3812 132.024 97.3042 131.998 97.3049 131.902C97.3063 131.78 97.4323 131.773 97.4743 131.77L98.1883 131.753L100.298 131.732L107.411 131.699L108.389 126.106L96.6455 126.064C96.5881 126.061 96.4593 126.055 96.4621 125.928C96.4642 125.808 96.5846 125.801 96.642 125.798L97.5072 125.779L101.835 125.748L108.695 125.721C108.733 125.721 108.769 125.737 108.793 125.765C108.817 125.794 108.827 125.832 108.821 125.869L107.749 131.974C107.738 132.035 107.685 132.079 107.624 132.079L97.4757 132.035C97.4673 132.035 97.4533 132.034 97.4365 132.032Z" fill="#263238"/>
<path d="M100.188 136.615C100.176 136.615 100.176 136.527 100.132 136.38C100.089 136.236 99.9873 136.027 99.7696 135.869C99.5589 135.71 99.2159 135.623 98.8869 135.748C98.56 135.863 98.2793 136.211 98.2835 136.617C98.28 137.023 98.5621 137.371 98.889 137.484C99.2187 137.608 99.5617 137.52 99.7717 137.361C99.9894 137.201 100.09 136.993 100.133 136.848C100.176 136.702 100.176 136.614 100.188 136.615C100.194 136.614 100.212 136.703 100.183 136.862C100.153 137.017 100.059 137.25 99.8284 137.436C99.6051 137.621 99.2243 137.733 98.8477 137.6C98.4746 137.478 98.147 137.082 98.1512 136.617C98.1463 136.153 98.4725 135.756 98.8449 135.634C99.2208 135.499 99.6023 135.61 99.8263 135.795C100.058 135.98 100.152 136.213 100.182 136.368C100.212 136.526 100.194 136.615 100.188 136.615Z" fill="#263238"/>
<path d="M99.0289 137.775C98.9561 137.764 98.8805 137.746 98.8049 137.719C98.415 137.592 98.0195 137.172 98.0237 136.617C98.0181 136.064 98.4122 135.642 98.8049 135.514C99.2571 135.352 99.682 135.511 99.9067 135.698C100.201 135.931 100.284 136.228 100.306 136.345C100.318 136.405 100.336 136.525 100.319 136.615C100.336 136.706 100.318 136.826 100.307 136.886C100.285 137.002 100.202 137.299 99.9074 137.535C99.7219 137.689 99.3964 137.826 99.0289 137.775ZM99.3278 135.824C99.2053 135.806 99.0702 135.815 98.9316 135.867C98.6684 135.959 98.4066 136.246 98.4101 136.616C98.4073 136.988 98.6698 137.274 98.9309 137.365C99.2396 137.481 99.5357 137.381 99.6946 137.261C99.899 137.111 99.9802 136.916 100.01 136.813C100.032 136.739 100.042 136.682 100.048 136.645C100.05 136.637 100.051 136.627 100.054 136.615C100.051 136.604 100.05 136.594 100.048 136.587C100.042 136.55 100.032 136.491 100.01 136.417C99.9788 136.315 99.8976 136.12 99.6946 135.973C99.6057 135.905 99.4769 135.845 99.3278 135.824Z" fill="#263238"/>
<path d="M106.529 136.606C106.518 136.607 106.517 136.519 106.473 136.372C106.431 136.227 106.329 136.019 106.111 135.861C105.9 135.702 105.557 135.615 105.228 135.739C104.901 135.854 104.621 136.203 104.625 136.608C104.622 137.014 104.903 137.361 105.23 137.475C105.56 137.599 105.903 137.512 106.113 137.352C106.331 137.193 106.431 136.984 106.474 136.84C106.517 136.694 106.518 136.605 106.529 136.606C106.535 136.605 106.553 136.694 106.524 136.853C106.494 137.009 106.401 137.242 106.17 137.427C105.946 137.613 105.565 137.725 105.189 137.591C104.816 137.469 104.489 137.074 104.492 136.609C104.488 136.144 104.814 135.748 105.186 135.625C105.562 135.491 105.944 135.602 106.168 135.786C106.399 135.971 106.494 136.204 106.523 136.36C106.553 136.518 106.535 136.607 106.529 136.606Z" fill="#263238"/>
<path d="M105.371 137.766C105.298 137.755 105.223 137.737 105.146 137.71C104.756 137.583 104.361 137.163 104.366 136.608C104.359 136.055 104.754 135.634 105.146 135.505C105.599 135.342 106.023 135.502 106.248 135.688C106.542 135.922 106.625 136.219 106.648 136.336C106.659 136.395 106.677 136.516 106.66 136.606C106.677 136.696 106.66 136.817 106.648 136.876C106.626 136.993 106.543 137.289 106.249 137.526C106.063 137.68 105.738 137.818 105.371 137.766ZM105.669 135.815C105.547 135.797 105.411 135.806 105.272 135.858C105.009 135.951 104.747 136.237 104.752 136.607C104.749 136.98 105.011 137.265 105.272 137.356C105.582 137.473 105.876 137.372 106.035 137.252C106.24 137.102 106.321 136.908 106.351 136.805C106.373 136.731 106.382 136.673 106.389 136.636C106.39 136.628 106.392 136.618 106.394 136.607C106.392 136.595 106.39 136.586 106.389 136.578C106.382 136.541 106.373 136.483 106.35 136.408C106.32 136.306 106.238 136.112 106.035 135.964C105.947 135.896 105.818 135.836 105.669 135.815Z" fill="#263238"/>
<path d="M112.229 126.928C112.229 128.753 110.749 130.233 108.924 130.233C107.099 130.233 105.62 128.754 105.62 126.928C105.62 125.103 107.099 123.624 108.924 123.624C110.75 123.624 112.229 125.103 112.229 126.928Z" fill="#004B24"/>
<path d="M107.035 126.999L107.53 126.505L108.483 127.352L110.355 125.551L110.814 126.045L108.413 128.306L107.035 126.999Z" fill="white"/>
</svg>
