<svg width="350" height="350" viewBox="0 0 350 350" fill="none" xmlns="http://www.w3.org/2000/svg">
<path d="M183.697 81.7726C183.677 81.7201 184.544 81.5745 185.935 80.7548C187.271 79.9386 189.206 78.2047 189.902 75.1982C190.07 74.4569 190.128 73.6533 190.098 72.8126C190.037 71.9698 189.839 71.1179 189.582 70.2086C189.097 68.3949 188.571 66.4265 188.006 64.3132C186.879 60.0775 185.597 55.2594 184.181 49.9373C182.769 44.6068 181.222 38.7716 179.563 32.5087C179.149 30.9421 178.728 29.3489 178.3 27.7305C177.932 26.117 177.185 24.6155 176.002 23.422C174.832 22.2383 173.289 21.3724 171.605 21.0497C169.896 20.657 168.195 20.9937 166.431 21.5166C152.333 25.2259 136.84 29.302 120.576 33.5804C118.617 34.0998 116.88 35.3283 115.752 36.9803C114.606 38.6211 114.103 40.6693 114.317 42.6251C114.41 43.5932 114.724 44.5676 114.973 45.5581C115.231 46.5416 115.487 47.5209 115.743 48.496C116.254 50.4469 116.761 52.3817 117.263 54.3004C119.27 61.9731 121.206 69.3749 123.051 76.4267C123.971 79.9519 124.869 83.3903 125.741 86.7314C126.127 88.4233 126.691 89.9675 127.795 91.1953C128.836 92.4343 130.239 93.3317 131.734 93.7909C134.798 94.8731 137.842 93.408 140.752 92.7773C143.663 92.0206 146.458 91.2947 149.125 90.6017C159.777 87.8521 168.406 85.6254 174.404 84.077C177.37 83.3273 179.682 82.7414 181.286 82.3361C182.053 82.1499 182.648 82.005 183.08 81.9C183.485 81.8041 183.697 81.7726 183.697 81.7726C183.697 81.7726 183.497 81.8489 183.097 81.9658C182.669 82.0862 182.079 82.2528 181.32 82.467C179.724 82.901 177.422 83.5275 174.471 84.3304C168.485 85.9278 159.875 88.2259 149.246 91.0623C146.582 91.7686 143.791 92.5092 140.884 93.2799C139.428 93.6635 137.943 94.0548 136.431 94.4531C134.868 94.8353 133.167 94.8318 131.569 94.3236C129.974 93.8399 128.475 92.8886 127.358 91.5698C126.184 90.2944 125.546 88.5374 125.168 86.8805C124.287 83.5422 123.381 80.1059 122.451 76.5828C120.595 69.5345 118.646 62.1362 116.626 54.467C116.121 52.549 115.612 50.6149 115.1 48.6647C114.843 47.6896 114.586 46.7103 114.328 45.7275C114.083 44.7496 113.761 43.7682 113.651 42.6944C113.419 40.5818 113.963 38.3698 115.198 36.5988C116.413 34.8166 118.293 33.4866 120.406 32.9273C136.674 28.6671 152.173 24.6078 166.274 20.9146C167.978 20.4071 169.934 20.0172 171.726 20.4533C173.531 20.8054 175.178 21.7357 176.426 23.0062C177.684 24.2718 178.492 25.9329 178.858 27.5842C179.281 29.204 179.696 30.7993 180.105 32.3673C181.735 38.6372 183.255 44.4801 184.643 49.8162C186.023 55.1481 187.272 59.9739 188.371 64.2173C188.917 66.3355 189.426 68.3088 189.894 70.1267C190.138 71.0248 190.34 71.9285 190.39 72.7965C190.412 73.6659 190.342 74.4947 190.159 75.2563C189.4 78.344 187.384 80.08 186.005 80.871C185.295 81.2756 184.708 81.4975 184.309 81.6144C183.906 81.7306 183.697 81.7726 183.697 81.7726Z" fill="#E0E0E0"/>
<path d="M165.256 63.8553C165.258 63.8651 165.112 63.9134 164.831 63.9974C164.524 64.0856 164.113 64.2038 163.596 64.3523C162.49 64.6567 160.932 65.0858 159.006 65.6164C155.083 66.6692 149.668 68.1224 143.574 69.7583L143.448 69.792L143.397 69.6715C143.066 68.8847 142.716 68.0518 142.36 67.2076C139.349 59.9871 136.662 53.5435 134.905 49.3323L135.018 49.3877C133.273 49.8308 131.88 50.185 130.894 50.4356C130.432 50.5469 130.068 50.6351 129.793 50.7016C129.543 50.759 129.411 50.7849 129.409 50.7758C129.407 50.7674 129.533 50.724 129.779 50.6505C130.051 50.5721 130.411 50.4677 130.867 50.3361C131.848 50.0652 133.234 49.6824 134.969 49.2036L135.049 49.1812L135.082 49.2589C136.862 53.4603 139.586 59.8884 142.638 67.0914C142.992 67.9356 143.343 68.7692 143.674 69.5553L143.497 69.4685C149.6 67.8704 155.025 66.4501 158.955 65.4212C160.89 64.9283 162.455 64.5293 163.568 64.2458C164.091 64.1184 164.507 64.0177 164.817 63.9421C165.103 63.8763 165.253 63.8462 165.256 63.8553Z" fill="#E0E0E0"/>
<path d="M141.714 65.2812C141.713 65.277 141.749 65.263 141.82 65.2399C141.905 65.214 142.01 65.1818 142.137 65.1426C142.438 65.0565 142.85 64.9396 143.373 64.7905C144.476 64.4874 146.047 64.0562 148.011 63.5172C151.997 62.4462 157.572 60.9489 164.025 59.2157L163.918 59.3676C163.678 56.5438 163.418 53.4904 163.149 50.3299C163.012 48.7038 162.878 47.1064 162.75 45.5839L162.937 45.7155C155.431 47.6846 148.806 49.4227 144.032 50.6757C141.668 51.2826 139.764 51.7719 138.427 52.1149C137.784 52.2738 137.279 52.3991 136.913 52.4894C136.753 52.5258 136.623 52.5559 136.519 52.5797C136.43 52.5986 136.384 52.6063 136.382 52.6014C136.381 52.5972 136.425 52.5804 136.511 52.5531C136.613 52.5223 136.741 52.4838 136.898 52.4362C137.261 52.3333 137.762 52.1919 138.399 52.0113C139.73 51.6473 141.627 51.1286 143.981 50.4846C148.748 49.2078 155.364 47.4354 162.86 45.4271L163.032 45.3809L163.047 45.5587C163.176 47.0812 163.311 48.6786 163.449 50.3047C163.714 53.4652 163.969 56.5193 164.206 59.3438L164.216 59.4649L164.098 59.4957C157.634 61.1869 152.049 62.6485 148.056 63.6929C146.084 64.1976 144.505 64.6008 143.397 64.8843C142.869 65.0138 142.453 65.116 142.149 65.1909C142.019 65.2203 141.912 65.2441 141.825 65.2637C141.753 65.2798 141.716 65.2854 141.714 65.2812Z" fill="#E0E0E0"/>
<path d="M150.529 74.0695C150.502 74.0779 150.45 73.8833 150.269 73.5858C150.091 73.2939 149.745 72.8921 149.173 72.6695C148.616 72.4406 147.809 72.449 147.156 72.9159C146.502 73.359 146.087 74.2907 146.331 75.1825C146.56 76.0792 147.383 76.6826 148.17 76.7435C148.97 76.8254 149.674 76.4327 150.045 75.9581C150.432 75.4807 150.533 74.9613 150.543 74.619C150.553 74.2697 150.502 74.0751 150.529 74.0695C150.541 74.0646 150.632 74.2501 150.66 74.6169C150.686 74.976 150.616 75.5451 150.213 76.0883C149.829 76.6273 149.053 77.0956 148.145 77.0193C147.252 76.9675 146.3 76.2857 146.039 75.2588C145.758 74.2375 146.247 73.1735 146.997 72.687C147.747 72.1711 148.653 72.1942 149.253 72.4714C149.871 72.7437 150.215 73.2036 150.371 73.5284C150.53 73.8609 150.542 74.0674 150.529 74.0695Z" fill="#E0E0E0"/>
<path d="M164.507 70.3639C164.48 70.3716 164.428 70.1777 164.247 69.8802C164.069 69.5876 163.724 69.1865 163.151 68.9639C162.594 68.735 161.788 68.7434 161.134 69.2103C160.481 69.6534 160.065 70.5851 160.31 71.4769C160.539 72.3736 161.362 72.9763 162.149 73.0379C162.949 73.1198 163.653 72.7271 164.024 72.2525C164.411 71.7751 164.512 71.2557 164.522 70.9134C164.531 70.5641 164.48 70.3702 164.507 70.3639C164.52 70.359 164.611 70.5445 164.639 70.9113C164.665 71.2704 164.594 71.8395 164.191 72.3827C163.807 72.9217 163.031 73.39 162.124 73.3137C161.23 73.2626 160.278 72.5801 160.017 71.5532C159.736 70.5319 160.225 69.4679 160.975 68.9814C161.725 68.4655 162.632 68.4886 163.232 68.7658C163.85 69.0388 164.194 69.498 164.35 69.8228C164.508 70.1553 164.521 70.3618 164.507 70.3639Z" fill="#E0E0E0"/>
<path d="M291.675 332.956C275.962 325.226 269.913 307.322 267.931 290.696C267.6 287.922 266.849 285.058 267.789 282.433C268.731 279.809 271.54 277.682 274.191 278.465C276.39 279.115 277.65 281.363 279.1 283.158C281.029 285.548 283.637 287.369 286.526 288.347C288.424 288.988 290.684 289.212 292.273 287.987C294.452 286.307 294.227 282.974 293.787 280.231C292.968 275.118 292.149 270.005 291.33 264.894C290.891 262.151 290.452 259.348 290.905 256.611C291.358 253.874 292.872 251.163 295.372 250.029C297.873 248.896 301.333 249.905 302.299 252.508C302.7 253.591 302.651 254.787 302.903 255.915C303.154 257.043 303.879 258.223 305.01 258.373C306.156 258.527 307.135 257.579 307.832 256.649C310.24 253.441 311.614 249.574 312.864 245.745C314.115 241.917 315.3 238.012 317.407 234.594C319.514 231.174 322.702 228.231 326.6 227.403C330.499 226.576 335.061 228.359 336.648 232.066C338.24 235.784 336.586 240.058 334.611 243.57C331.68 248.78 327.999 253.554 323.721 257.696C322.95 258.444 322.114 259.252 321.939 260.32C321.624 262.242 323.639 263.793 325.539 264.117C327.69 264.484 329.878 263.93 332.058 263.853C334.238 263.776 336.702 264.363 337.823 266.262C339.379 268.896 337.485 272.198 335.472 274.48C331.44 279.05 326.629 282.91 321.313 285.84C319.407 286.89 317.381 287.865 315.97 289.534C314.56 291.205 313.956 293.823 315.237 295.606C316.52 297.391 319.141 297.621 321.197 296.903C323.251 296.185 324.969 294.745 326.868 293.674C330.422 291.669 335.335 291.18 338.253 294.07C340.171 295.969 340.771 298.933 340.36 301.611C339.95 304.29 338.659 306.741 337.241 309.037C332.285 317.063 325.422 323.966 317.134 328.347C308.848 332.731 300.864 334.799 291.675 332.956Z" fill="#F5F5F5"/>
<path d="M294.349 321.931C295.5 313.21 297.554 303.756 300.042 293.94C300.673 291.489 301.296 289.067 301.911 286.68C302.53 284.299 303.143 281.937 303.886 279.664C305.353 275.11 307.109 270.845 308.904 266.848C310.696 262.848 312.544 259.118 314.297 255.643C316.058 252.171 317.76 248.965 319.436 246.109C322.771 240.383 326.002 236.091 328.34 233.236C329.506 231.803 330.447 230.722 331.095 229.998C331.407 229.653 331.652 229.382 331.836 229.179C332.006 228.997 332.095 228.906 332.102 228.912C332.109 228.917 332.032 229.02 331.876 229.214C331.701 229.426 331.468 229.708 331.173 230.066C330.551 230.812 329.636 231.913 328.494 233.363C326.207 236.253 323.033 240.563 319.747 246.296C318.095 249.155 316.416 252.363 314.675 255.839C312.939 259.32 311.109 263.051 309.331 267.046C307.554 271.039 305.814 275.292 304.362 279.823C303.626 282.085 303.021 284.426 302.402 286.814C301.789 289.2 301.167 291.621 300.537 294.071C298.051 303.878 295.989 313.307 294.816 321.999" fill="#E0E0E0"/>
<path d="M304.028 279.622C303.995 279.632 303.837 279.23 303.579 278.492C303.318 277.755 302.976 276.677 302.572 275.34C301.764 272.666 300.773 268.935 299.696 264.817C298.619 260.697 297.578 256.991 296.731 254.337C296.311 253.008 295.96 251.937 295.708 251.199C295.46 250.459 295.339 250.044 295.371 250.031C295.404 250.018 295.588 250.409 295.894 251.128C296.203 251.846 296.608 252.903 297.072 254.221C298.01 256.855 299.111 260.561 300.189 264.685C301.241 268.751 302.193 272.43 302.92 275.24C303.256 276.508 303.54 277.576 303.769 278.433C303.967 279.188 304.061 279.61 304.028 279.622Z" fill="#E0E0E0"/>
<path d="M338.314 267.594C338.32 267.629 337.827 267.764 336.932 267.979C336.038 268.199 334.743 268.51 333.157 268.947C329.978 269.793 325.627 271.116 320.89 272.785C316.154 274.464 311.934 276.165 308.917 277.484C307.403 278.133 306.192 278.691 305.353 279.071C304.515 279.456 304.044 279.653 304.027 279.622C304.011 279.589 304.452 279.331 305.265 278.89C306.079 278.454 307.27 277.844 308.769 277.149C311.756 275.741 315.97 273.98 320.72 272.296C325.471 270.622 329.855 269.349 333.068 268.592C334.671 268.2 335.982 267.941 336.891 267.782C337.802 267.628 338.307 267.558 338.314 267.594Z" fill="#E0E0E0"/>
<path d="M294.684 321.215C294.669 321.225 294.564 321.089 294.376 320.822C294.16 320.501 293.896 320.111 293.576 319.637C292.886 318.606 291.926 317.087 290.765 315.195C288.439 311.413 285.392 306.087 282.109 300.165C278.823 294.241 275.83 288.895 273.587 285.069C272.491 283.211 271.588 281.682 270.917 280.546C270.629 280.052 270.392 279.645 270.197 279.31C270.038 279.025 269.961 278.871 269.975 278.86C269.991 278.852 270.096 278.987 270.284 279.254C270.5 279.574 270.764 279.964 271.084 280.437C271.774 281.469 272.734 282.987 273.895 284.88C276.221 288.662 279.268 293.987 282.552 299.911C285.837 305.834 288.83 311.18 291.073 315.005C292.17 316.863 293.072 318.393 293.743 319.527C294.031 320.022 294.268 320.429 294.462 320.763C294.622 321.051 294.699 321.206 294.684 321.215Z" fill="#E0E0E0"/>
<path d="M339.268 298.881C339.275 298.897 339.125 298.987 338.832 299.144C338.484 299.323 338.057 299.543 337.54 299.811C336.345 300.412 334.73 301.224 332.767 302.211C328.737 304.239 323.203 307.104 317.093 310.277C310.981 313.453 305.416 316.269 301.342 318.214C299.306 319.187 297.651 319.957 296.496 320.467C295.962 320.699 295.521 320.89 295.163 321.046C294.856 321.173 294.69 321.231 294.683 321.215C294.676 321.199 294.827 321.109 295.119 320.951C295.467 320.772 295.894 320.552 296.412 320.286C297.607 319.684 299.221 318.873 301.184 317.885C305.213 315.858 310.748 312.992 316.86 309.818C322.97 306.643 328.535 303.827 332.608 301.883C334.644 300.909 336.3 300.139 337.455 299.629C337.99 299.398 338.429 299.206 338.788 299.05C339.096 298.923 339.261 298.865 339.268 298.881Z" fill="#E0E0E0"/>
<path d="M22.7319 79.58C22.7319 79.58 14.922 81.4784 21.1163 98.3771C27.3099 115.276 31.9817 123.837 31.9817 123.837C31.9817 123.837 32.975 127.706 29.7949 127.903C26.6155 128.101 19.899 126.18 18.0524 129.818C16.1372 133.591 18.5536 137.662 23.9716 141.632C29.3896 145.603 40.941 154.737 41.9819 155.566C43.0046 156.381 43.9041 158.235 41.7593 158.716C39.6145 159.198 24.0157 158.941 24.337 166.351C24.6583 173.76 41.5696 182.34 43.4001 183.314C45.2306 184.287 45.5918 185.157 45.3076 186.192C45.0234 187.227 39.7881 186.646 35.3487 186.756C30.9086 186.864 25.7797 187.769 26.3236 192.028C26.8668 196.288 36.2951 206.239 61.4377 211.812L73.2572 213.632L80.9278 204.389C96.1388 183.607 96.654 169.909 94.2509 166.35C91.8484 162.791 87.3979 165.497 83.991 168.346C80.5841 171.194 77.0337 175.085 76.1377 174.495C75.241 173.905 74.9379 173.014 75.6708 171.074C76.4037 169.135 83.4457 151.527 78.797 145.749C74.1483 139.97 62.5983 150.459 60.6691 151.512C58.7399 152.566 58.1932 150.579 58.4235 149.292C58.658 147.982 61.3075 133.495 62.7579 126.937C64.2083 120.379 63.3368 115.725 59.4076 114.154C55.6193 112.64 51.8414 118.515 49.3221 120.466C46.8028 122.416 44.9954 118.854 44.9954 118.854C44.9954 118.854 42.8555 109.339 36.3553 92.5552C29.8558 75.772 22.5751 79.629 22.5751 79.629" fill="#EBEBEB"/>
<path d="M73.535 216.498C68.81 204.154 60.7803 182.071 53.788 163.149C46.7985 144.233 40.4537 127.112 35.7917 114.745C33.4586 108.574 31.5679 103.575 30.2554 100.104C29.6072 98.3863 29.1018 97.0472 28.7532 96.1218C28.5894 95.6759 28.462 95.3308 28.371 95.083C28.287 94.8485 28.2527 94.7246 28.2527 94.7246C28.2527 94.7246 28.3108 94.8387 28.406 95.0697C28.5054 95.3147 28.644 95.6556 28.8225 96.0952C29.1865 97.015 29.7136 98.3457 30.3905 100.052C31.7485 103.49 33.677 108.479 36.0374 114.652C40.7624 126.997 47.1464 144.105 54.1359 163.021C61.1282 181.944 69.118 204.038 73.78 216.406" fill="#E0E0E0"/>
<path d="M27.3399 132.884C27.3518 132.861 27.6353 132.98 28.1393 133.214C28.6447 133.446 29.365 133.804 30.2505 134.254C32.0201 135.158 34.433 136.468 37.0692 137.962C39.6634 139.445 42.0091 140.786 43.8039 141.811C44.6152 142.269 45.3005 142.654 45.8507 142.964C46.3351 143.235 46.5983 143.395 46.5871 143.418C46.5759 143.441 46.291 143.324 45.7849 143.093C45.2802 142.859 44.5599 142.502 43.6779 142.042C41.9167 141.121 39.522 139.779 36.8865 138.285C34.2832 136.822 31.9284 135.498 30.1273 134.485C29.3125 134.032 28.6258 133.649 28.0735 133.342C27.5905 133.069 27.3287 132.907 27.3399 132.884Z" fill="#E0E0E0"/>
<path d="M47.4907 142.759C47.399 142.712 49.8819 137.619 53.0347 131.384C56.1889 125.147 58.8195 120.13 58.9105 120.177C59.0022 120.223 56.52 125.315 53.3658 131.552C50.213 137.787 47.5817 142.805 47.4907 142.759Z" fill="#E0E0E0"/>
<path d="M56.9157 172.297C56.8975 172.278 57.1019 172.039 57.4862 171.623C57.9251 171.153 58.4739 170.566 59.1249 169.869C60.506 168.387 62.4051 166.332 64.4162 163.988C66.4343 161.648 68.1864 159.467 69.4422 157.877C70.0344 157.13 70.5328 156.5 70.9318 155.996C71.286 155.553 71.4918 155.315 71.5128 155.331C71.5338 155.346 71.3672 155.612 71.048 156.082C70.7288 156.551 70.2549 157.221 69.6508 158.037C68.4461 159.67 66.7213 161.883 64.6976 164.231C62.6802 166.581 60.7454 168.614 59.3132 170.051C58.5943 170.767 58.0056 171.34 57.5877 171.724C57.1726 172.11 56.9339 172.315 56.9157 172.297Z" fill="#E0E0E0"/>
<path d="M36.7242 167.376C36.7298 167.351 37.0175 167.392 37.5334 167.488C38.1249 167.608 38.8515 167.755 39.7083 167.928C41.5409 168.315 44.0672 168.875 46.8525 169.517C49.6385 170.158 52.1557 170.758 53.9736 171.211C54.8199 171.43 55.5374 171.615 56.1219 171.766C56.6273 171.906 56.9038 171.995 56.8982 172.019C56.8926 172.044 56.6049 172.003 56.089 171.907C55.4975 171.787 54.7709 171.64 53.9141 171.467C52.0815 171.08 49.5545 170.52 46.7685 169.878C43.9832 169.237 41.4667 168.637 39.6488 168.184C38.8025 167.965 38.0843 167.78 37.5005 167.629C36.9951 167.49 36.7186 167.401 36.7242 167.376Z" fill="#E0E0E0"/>
<path d="M41.732 194.51C41.7376 194.485 42.1051 194.541 42.7659 194.664C43.4925 194.808 44.4298 194.994 45.5554 195.217C47.9074 195.7 51.1505 196.393 54.7282 197.181C58.3066 197.968 61.5413 198.702 63.8786 199.251C64.9937 199.521 65.9226 199.746 66.6429 199.92C67.2939 200.086 67.6509 200.189 67.6453 200.215C67.6397 200.24 67.2722 200.184 66.6114 200.061C65.8848 199.917 64.9475 199.731 63.8219 199.508C61.4699 199.025 58.2261 198.332 54.6477 197.544C51.0707 196.757 47.836 196.024 45.4987 195.474C44.3836 195.205 43.4547 194.98 42.7351 194.806C42.0841 194.639 41.7271 194.536 41.732 194.51Z" fill="#E0E0E0"/>
<path d="M67.0635 199.903C67.0446 199.885 67.2952 199.576 67.7649 199.031C68.2801 198.438 68.9521 197.664 69.762 196.733C71.4462 194.791 73.7625 192.1 76.2349 189.057C78.7129 186.017 80.8829 183.206 82.4397 181.161C83.188 180.179 83.8096 179.364 84.2856 178.74C84.7238 178.17 84.9758 177.861 84.9968 177.876C85.0178 177.891 84.805 178.228 84.4025 178.824C84 179.421 83.4043 180.275 82.6504 181.318C81.1461 183.405 79.0048 186.247 76.5226 189.292C74.046 192.339 71.6947 195.008 69.958 196.908C69.0872 197.855 68.3753 198.614 67.8713 199.129C67.3694 199.644 67.0824 199.92 67.0635 199.903Z" fill="#E0E0E0"/>
<path d="M325.597 334.238C325.597 334.339 258.167 334.42 175.007 334.42C91.8177 334.42 24.4021 334.338 24.4021 334.238C24.4021 334.138 91.8177 334.056 175.007 334.056C258.168 334.056 325.597 334.137 325.597 334.238Z" fill="#263238"/>
<path d="M293.016 45.9073L272.707 45.8954C269.984 45.894 267.775 48.2012 267.775 51.0474L267.774 54.7315C267.774 57.5784 265.565 59.8856 262.842 59.8842L223.256 59.8611C220.533 59.8597 218.325 57.5497 218.326 54.7028L218.326 51.0194C218.326 48.1725 216.119 45.8625 213.396 45.8611L206.253 45.8562L188.478 45.8457C179.651 45.8408 172.491 52.9948 172.49 61.8225L172.439 318.141C172.437 326.966 179.586 334.12 188.41 334.125L292.948 334.186C301.775 334.192 308.934 327.038 308.936 318.21L308.987 61.8897C308.988 53.0669 301.84 45.9129 293.016 45.9073Z" fill="white"/>
<path d="M293.016 45.9074C293.016 45.9074 293.2 45.9088 293.564 45.9235C293.925 45.9578 294.475 45.9151 295.184 46.0488C296.6 46.2154 298.755 46.6753 301.178 48.1194C302.402 48.8096 303.647 49.8029 304.825 51.0734C305.998 52.3467 307.088 53.9378 307.868 55.8446C308.659 57.7451 309.086 59.9641 309.065 62.3322C309.067 64.6919 309.07 67.2042 309.074 69.8656C309.086 91.1596 309.105 121.965 309.128 160.028C309.134 198.096 309.142 243.422 309.15 293.75C309.15 300.041 309.15 306.411 309.15 312.854C309.15 314.465 309.15 316.08 309.15 317.7C309.132 319.323 309.027 320.994 308.538 322.575C308.077 324.156 307.422 325.697 306.496 327.079C305.574 328.458 304.452 329.706 303.168 330.772C300.569 332.858 297.314 334.188 293.939 334.354C290.588 334.452 287.261 334.379 283.895 334.4C277.175 334.397 270.39 334.394 263.544 334.391C249.852 334.384 235.917 334.377 221.776 334.37C214.705 334.366 207.583 334.362 200.413 334.358C196.829 334.356 193.232 334.354 189.624 334.352C186.003 334.536 182.245 333.58 179.217 331.477C176.174 329.389 173.929 326.232 172.882 322.727C172.318 320.981 172.214 319.116 172.215 317.321C172.215 315.522 172.215 313.727 172.216 311.933C172.218 304.761 172.22 297.637 172.221 290.564C172.225 276.419 172.229 262.481 172.233 248.786C172.243 221.395 172.252 194.975 172.262 169.806C172.274 144.638 172.285 120.721 172.297 98.3388C172.304 87.1472 172.31 76.3399 172.316 65.9505C172.317 64.652 172.318 63.3598 172.319 62.0739C172.328 61.4299 172.374 60.7789 172.409 60.1356C172.522 59.5 172.571 58.8525 172.736 58.2309C173.321 55.7284 174.479 53.3869 176.098 51.4591C177.729 49.5425 179.774 48.0228 182.024 47.0295C184.274 46.0145 186.744 45.6568 189.129 45.6862C193.887 45.6918 198.532 45.6967 203.059 45.7023C205.322 45.7051 207.556 45.7079 209.76 45.7107C210.862 45.7121 211.957 45.7135 213.044 45.7149C214.142 45.6603 215.287 45.962 216.189 46.5941C217.093 47.2262 217.787 48.1362 218.144 49.1617C218.555 50.1879 218.457 51.296 218.469 52.318C218.468 52.8381 218.468 53.3568 218.467 53.8734C218.469 54.3921 218.45 54.9059 218.517 55.3966C218.644 56.3857 219.061 57.3328 219.71 58.0713C220.345 58.821 221.215 59.3565 222.151 59.5875C222.624 59.7051 223.094 59.7387 223.591 59.7296C224.084 59.7303 224.575 59.731 225.063 59.7317C227.018 59.7345 228.941 59.7373 230.831 59.7394C238.391 59.7506 245.427 59.7611 251.903 59.7702C255.142 59.7758 258.24 59.7807 261.194 59.7856C261.927 59.773 262.674 59.8192 263.37 59.7583C264.072 59.6785 264.743 59.4363 265.326 59.0709C266.499 58.3408 267.296 57.1291 267.566 55.8509C267.712 55.2118 267.687 54.5594 267.691 53.9105C267.692 53.2637 267.693 52.6267 267.695 51.9988C267.703 51.3751 267.664 50.7479 267.779 50.1354C267.884 49.5264 268.09 48.9461 268.381 48.4232C268.957 47.3711 269.893 46.5766 270.933 46.1685C271.982 45.7128 273.099 45.8507 274.107 45.8297C278.202 45.8409 281.669 45.85 284.472 45.8577C287.271 45.8689 289.406 45.878 290.846 45.8836C292.281 45.8913 293.016 45.9074 293.016 45.9074C293.016 45.9074 292.281 45.9221 290.844 45.9291C289.404 45.9333 287.269 45.9396 284.47 45.948C281.667 45.9522 278.2 45.9578 274.104 45.9634C273.085 45.9872 271.994 45.857 270.984 46.3022C269.977 46.7019 269.071 47.4747 268.515 48.4981C268.234 49.0063 268.035 49.5698 267.935 50.1613C267.826 50.75 267.864 51.3688 267.858 51.9981C267.859 52.626 267.86 53.263 267.86 53.9098C267.858 54.551 267.886 55.223 267.737 55.8873C267.461 57.2089 266.64 58.4661 265.424 59.2277C264.819 59.6092 264.121 59.8633 263.39 59.9473C262.65 60.0124 261.935 59.9662 261.192 59.9809C258.238 59.9823 255.14 59.9837 251.902 59.9851C245.425 59.9872 238.39 59.9893 230.83 59.9914C228.94 59.9921 227.017 59.9921 225.062 59.9928C224.573 59.9928 224.083 59.9928 223.59 59.9928C223.102 60.0033 222.578 59.9697 222.085 59.8451C221.095 59.6015 220.174 59.0366 219.503 58.2477C218.819 57.47 218.378 56.4732 218.242 55.4316C218.171 54.9059 218.191 54.3851 218.188 53.8727C218.188 53.3561 218.187 52.8374 218.187 52.3173C218.174 51.2743 218.266 50.2229 217.875 49.2562C217.536 48.2853 216.876 47.425 216.023 46.83C215.161 46.235 214.116 45.9543 213.041 46.0061C211.954 46.0061 210.86 46.0061 209.757 46.0061C207.553 46.0061 205.319 46.0061 203.056 46.0061C198.529 46.0061 193.884 46.0061 189.126 46.0061C186.763 45.9809 184.36 46.333 182.153 47.3298C179.95 48.3056 177.948 49.7959 176.352 51.6747C174.768 53.564 173.638 55.8579 173.067 58.3072C172.906 58.9155 172.859 59.549 172.749 60.1713C172.716 60.8041 172.671 61.4334 172.663 62.0746C172.663 63.3605 172.663 64.652 172.663 65.9505C172.665 76.3399 172.668 87.1479 172.67 98.3388C172.672 120.722 172.674 144.638 172.677 169.806C172.676 194.975 172.675 221.395 172.675 248.786C172.673 262.481 172.672 276.419 172.67 290.564C172.669 297.637 172.668 304.762 172.666 311.933C172.666 313.726 172.665 315.522 172.665 317.321C172.667 319.113 172.766 320.893 173.314 322.6C174.333 326.005 176.515 329.076 179.473 331.106C182.433 333.149 186.034 334.079 189.624 333.899C193.231 333.901 196.828 333.904 200.413 333.906C207.582 333.91 214.705 333.915 221.775 333.919C235.917 333.928 249.851 333.938 263.543 333.947C270.389 333.952 277.175 333.957 283.895 333.962C287.248 333.942 290.613 334.016 293.912 333.92C297.196 333.759 300.363 332.465 302.894 330.436C304.144 329.398 305.238 328.184 306.136 326.841C307.039 325.498 307.675 323.996 308.124 322.458C308.602 320.914 308.703 319.306 308.722 317.698C308.723 316.078 308.724 314.462 308.724 312.852C308.727 306.409 308.73 300.039 308.732 293.748C308.76 243.419 308.785 198.094 308.807 160.026C308.845 121.962 308.876 91.1575 308.897 69.8635C308.901 67.2028 308.905 64.6898 308.909 62.3301C308.937 59.976 308.521 57.7815 307.743 55.8929C306.976 54.0001 305.901 52.4167 304.741 51.1476C303.577 49.8806 302.345 48.8873 301.131 48.195C298.73 46.7467 296.588 46.2735 295.177 46.0922C294.472 45.9508 293.924 45.9865 293.563 45.9445C293.201 45.9249 293.016 45.9074 293.016 45.9074Z" fill="#004B24"/>
<path d="M198.37 71.7893C198.371 71.8579 195.73 71.9356 192.472 71.9629C189.213 71.9895 186.572 71.9559 186.572 71.8873C186.571 71.8187 189.211 71.741 192.47 71.7137C195.728 71.6871 198.37 71.7207 198.37 71.7893Z" fill="#004B24"/>
<path d="M198.395 74.8086C198.396 74.8772 195.755 74.9549 192.497 74.9815C189.238 75.0088 186.597 74.9745 186.596 74.9059C186.595 74.8373 189.236 74.7596 192.495 74.733C195.753 74.7057 198.394 74.74 198.395 74.8086Z" fill="#004B24"/>
<path d="M198.42 77.8267C198.421 77.8953 195.78 77.973 192.522 77.9996C189.264 78.0269 186.622 77.9926 186.622 77.924C186.621 77.8554 189.262 77.7777 192.52 77.7504C195.778 77.7245 198.42 77.7581 198.42 77.8267Z" fill="#004B24"/>
<path d="M237.119 269.431H184.586V321.964H237.119V269.431Z" fill="#F5F5F5"/>
<path d="M230.916 299.484C226.641 293.516 217.561 289.427 210.183 290.526C204.2 291.416 198.913 294.195 196.015 300.132C195.197 301.808 196.246 303.797 198.098 304.018C208.047 305.205 218.141 305.173 228.082 303.916C229.617 303.722 231.441 303.297 231.547 301.399C231.584 300.711 231.317 300.045 230.916 299.484Z" fill="#004B24"/>
<g opacity="0.5">
<path d="M230.916 299.484C226.641 293.516 217.561 289.427 210.183 290.526C204.2 291.416 198.913 294.195 196.015 300.132" fill="white"/>
</g>
<path d="M207.297 299.189C207.262 299.217 206.956 298.915 206.545 298.353C206.144 297.792 205.646 296.931 205.413 295.875C205.183 294.822 205.193 293.86 205.192 293.173C205.201 292.484 205.233 292.059 205.283 292.057C205.334 292.055 205.393 292.479 205.449 293.163C205.516 293.845 205.549 294.795 205.768 295.794C205.99 296.794 206.424 297.625 206.762 298.213C207.108 298.797 207.341 299.155 207.297 299.189Z" fill="#F5F5F5"/>
<path d="M213.636 298.895C213.526 298.884 213.684 297.198 213.461 295.141C213.251 293.081 212.747 291.466 212.852 291.431C212.935 291.395 213.608 292.993 213.823 295.103C214.051 297.21 213.725 298.914 213.636 298.895Z" fill="#F5F5F5"/>
<path d="M220.184 297.93C220.082 297.886 220.574 296.755 220.694 295.271C220.831 293.788 220.542 292.59 220.649 292.563C220.733 292.526 221.199 293.739 221.057 295.302C220.928 296.866 220.26 297.981 220.184 297.93Z" fill="#F5F5F5"/>
<g opacity="0.3">
<path d="M212.47 290.809C212.491 290.842 212.507 290.88 212.527 290.913C212.527 290.912 212.529 290.91 212.53 290.908L212.47 290.809Z" fill="black"/>
</g>
<path d="M237.732 99.6001H184.586V179.266H237.732V99.6001Z" fill="#F5F5F5"/>
<path d="M237.732 185.277H184.586V264.943H237.732V185.277Z" fill="#F5F5F5"/>
<path d="M295.934 170.232H242.788V244.614H295.934V170.232Z" fill="#F5F5F5"/>
<path d="M295.503 249.847H242.357V321.963H295.503V249.847Z" fill="#F5F5F5"/>
<path d="M295.934 99.6001H242.788V165.404H295.934V99.6001Z" fill="#F5F5F5"/>
<path d="M219.503 123.426C219.503 123.443 219.509 123.454 219.509 123.459V145.507C219.509 146.473 218.732 147.473 217.298 148.229C215.87 148.983 213.781 149.501 211.175 149.506H211.142C205.925 149.496 202.808 147.446 202.808 145.507V123.459C202.808 123.454 202.814 123.443 202.814 123.426C202.814 123.415 202.808 123.399 202.808 123.382C202.819 121.226 204.403 118.977 205.997 116.754C207.07 115.271 207.325 113.132 207.375 111.876C207.38 111.726 207.386 111.592 207.386 111.47H207.242C206.552 111.47 205.997 110.992 205.997 110.403V109.47C205.997 108.875 206.552 108.397 207.242 108.397H215.076C215.592 108.397 216.037 108.665 216.226 109.048C216.287 109.181 216.32 109.32 216.32 109.47V110.403C216.32 110.992 215.764 111.47 215.076 111.47H214.931C214.931 111.593 214.937 111.726 214.943 111.876C214.992 113.131 215.248 115.27 216.32 116.754C217.915 118.977 219.498 121.226 219.509 123.382C219.509 123.399 219.503 123.415 219.503 123.426Z" fill="#FAFAFA"/>
<path d="M219.503 123.427C219.503 123.427 219.5 123.35 219.484 123.201C219.477 123.051 219.446 122.831 219.395 122.544C219.282 121.972 219.011 121.144 218.473 120.164C217.941 119.18 217.153 118.053 216.208 116.754C215.263 115.401 214.857 113.515 214.812 111.469L214.81 111.339L214.932 111.35C215.489 111.401 216.103 111.078 216.186 110.513C216.202 110.234 216.189 109.891 216.191 109.576C216.213 109.264 216.102 109 215.871 108.807C215.644 108.616 215.342 108.521 215.025 108.531C214.686 108.532 214.344 108.533 213.998 108.534C213.305 108.536 212.596 108.538 211.872 108.54C210.426 108.543 208.919 108.547 207.36 108.55C206.987 108.532 206.641 108.641 206.396 108.892C206.281 109.016 206.195 109.168 206.17 109.333C206.145 109.481 206.162 109.715 206.158 109.907C206.16 110.099 206.153 110.33 206.165 110.494C206.187 110.661 206.263 110.82 206.382 110.948C206.627 111.212 206.987 111.329 207.387 111.304L207.553 111.294L207.551 111.469C207.539 112.358 207.453 113.257 207.257 114.157C207.058 115.053 206.747 115.958 206.201 116.758C205.135 118.286 203.958 119.83 203.31 121.651C203.156 122.104 203.043 122.574 203.004 123.051C202.98 123.518 202.991 124.037 202.989 124.533C202.989 125.537 202.989 126.551 202.99 127.575C202.991 129.622 202.991 131.704 202.992 133.816C202.99 137.529 202.989 141.154 202.988 144.656C202.996 145.09 202.959 145.547 203.044 145.915C203.129 146.303 203.36 146.653 203.628 146.959C204.177 147.57 204.903 148.013 205.658 148.341C207.183 148.985 208.822 149.251 210.409 149.318C212.001 149.388 213.567 149.258 215.029 148.9C216.471 148.531 217.887 147.936 218.794 146.887C219.016 146.626 219.184 146.329 219.284 146.018C219.386 145.711 219.361 145.379 219.365 145.025C219.367 144.335 219.369 143.658 219.371 142.994C219.375 141.667 219.379 140.392 219.383 139.175C219.407 134.324 219.427 130.392 219.441 127.651C219.456 126.306 219.467 125.254 219.475 124.518C219.481 123.803 219.503 123.427 219.503 123.427C219.528 123.426 219.531 123.803 219.546 124.519C219.554 125.255 219.565 126.307 219.58 127.652C219.594 130.393 219.614 134.325 219.638 139.176C219.642 140.393 219.646 141.667 219.65 142.994C219.652 143.659 219.654 144.336 219.656 145.026C219.653 145.358 219.684 145.736 219.567 146.105C219.454 146.464 219.265 146.795 219.025 147.08C218.043 148.221 216.584 148.824 215.105 149.212C213.606 149.584 212.015 149.72 210.394 149.654C208.776 149.589 207.103 149.325 205.517 148.66C204.732 148.319 203.966 147.862 203.361 147.192C203.066 146.857 202.802 146.464 202.697 146C202.592 145.519 202.641 145.094 202.629 144.656C202.628 141.155 202.626 137.53 202.625 133.817C202.626 131.706 202.626 129.622 202.627 127.576C202.628 126.552 202.628 125.539 202.628 124.534C202.632 124.026 202.619 123.546 202.647 123.023C202.69 122.51 202.811 122.012 202.973 121.537C203.655 119.637 204.856 118.082 205.918 116.564C206.926 115.046 207.176 113.177 207.222 111.469L207.386 111.633C206.961 111.661 206.454 111.52 206.142 111.168C205.983 110.996 205.875 110.772 205.845 110.535C205.829 110.293 205.841 110.119 205.838 109.908C205.845 109.698 205.822 109.527 205.857 109.28C205.894 109.048 206.015 108.839 206.17 108.675C206.483 108.347 206.957 108.218 207.36 108.242C208.919 108.245 210.425 108.249 211.872 108.252C212.596 108.254 213.304 108.256 213.998 108.258C214.344 108.258 214.686 108.26 215.025 108.26C215.384 108.251 215.764 108.365 216.042 108.606C216.331 108.833 216.485 109.241 216.449 109.575C216.443 109.905 216.458 110.199 216.434 110.547C216.32 111.293 215.527 111.648 214.931 111.587L215.05 111.468C215.077 113.475 215.463 115.335 216.36 116.645C217.288 117.953 218.067 119.099 218.586 120.102C219.112 121.101 219.367 121.948 219.461 122.531C219.502 122.823 219.521 123.047 219.517 123.198C219.523 123.35 219.513 123.427 219.503 123.427Z" fill="#263238"/>
<path d="M214.488 111.417C214.488 111.518 212.926 111.599 211 111.599C209.074 111.599 207.513 111.517 207.513 111.417C207.513 111.317 209.074 111.235 211 111.235C212.926 111.234 214.488 111.316 214.488 111.417Z" fill="#263238"/>
<path d="M218.806 126.372C218.1 125.915 217.173 126.116 216.416 126.473C215.66 126.83 214.946 127.334 214.124 127.466C213.156 127.621 212.183 127.236 211.322 126.749C210.462 126.263 209.651 125.663 208.724 125.333C206.949 124.7 204.85 125.194 203.512 126.561V145.493C203.512 145.493 204.553 148.723 211.874 148.215C219.196 147.708 218.618 144.478 218.618 144.478L218.806 126.372Z" fill="#004B24"/>
<path d="M275.388 276.672C275.388 276.689 275.394 276.699 275.394 276.705V298.608C275.394 299.568 274.621 300.561 273.198 301.312C271.779 302.062 269.704 302.576 267.115 302.581H267.082C261.898 302.571 258.802 300.534 258.802 298.607V276.704C258.802 276.699 258.808 276.688 258.808 276.671C258.808 276.661 258.802 276.644 258.802 276.627C258.813 274.485 260.387 272.25 261.971 270.042C263.036 268.568 263.29 266.442 263.339 265.196C263.345 265.047 263.351 264.914 263.351 264.792H263.207C262.523 264.792 261.971 264.318 261.971 263.732V262.805C261.971 262.214 262.523 261.74 263.207 261.74H270.99C271.503 261.74 271.945 262.005 272.132 262.386C272.193 262.518 272.226 262.656 272.226 262.805V263.732C272.226 264.317 271.674 264.792 270.99 264.792H270.846C270.846 264.914 270.852 265.047 270.857 265.196C270.907 266.443 271.162 268.568 272.227 270.042C273.811 272.25 275.384 274.485 275.395 276.627C275.395 276.645 275.388 276.662 275.388 276.672Z" fill="#FAFAFA"/>
<path d="M275.388 276.672C275.388 276.672 275.386 276.596 275.369 276.448C275.362 276.3 275.332 276.081 275.281 275.795C275.168 275.227 274.899 274.405 274.364 273.43C273.835 272.452 273.052 271.334 272.114 270.042C271.174 268.698 270.772 266.824 270.727 264.792L270.724 264.662L270.846 264.673C271.4 264.724 272.009 264.403 272.091 263.842C272.107 263.566 272.094 263.224 272.097 262.911C272.119 262.602 272.008 262.34 271.779 262.149C271.554 261.96 271.254 261.865 270.939 261.875C270.602 261.877 270.262 261.878 269.918 261.878C269.229 261.88 268.526 261.882 267.807 261.884C266.369 261.887 264.873 261.891 263.323 261.894C262.954 261.876 262.609 261.985 262.367 262.233C262.252 262.357 262.167 262.508 262.142 262.671C262.117 262.818 262.134 263.05 262.13 263.24C262.132 263.432 262.125 263.661 262.137 263.824C262.159 263.989 262.234 264.147 262.353 264.274C262.597 264.536 262.954 264.651 263.35 264.627L263.516 264.617L263.514 264.792C263.503 265.675 263.418 266.569 263.223 267.463C263.025 268.352 262.716 269.252 262.174 270.047C261.115 271.565 259.946 273.099 259.302 274.907C259.148 275.358 259.036 275.824 258.998 276.298C258.973 276.763 258.985 277.278 258.982 277.771C258.983 278.769 258.983 279.776 258.984 280.792C258.985 282.826 258.985 284.895 258.985 286.993C258.984 290.682 258.982 294.283 258.982 297.762C258.99 298.193 258.952 298.648 259.038 299.013C259.122 299.398 259.352 299.746 259.617 300.049C260.162 300.656 260.884 301.096 261.633 301.422C263.149 302.062 264.776 302.326 266.353 302.392C267.935 302.461 269.49 302.333 270.943 301.978C272.376 301.612 273.781 301.02 274.682 299.978C274.903 299.719 275.069 299.424 275.169 299.115C275.269 298.81 275.245 298.48 275.249 298.128C275.251 297.442 275.253 296.769 275.255 296.11C275.259 294.791 275.263 293.525 275.267 292.316C275.291 287.497 275.311 283.59 275.325 280.866C275.339 279.531 275.351 278.486 275.359 277.754C275.367 277.046 275.388 276.672 275.388 276.672C275.413 276.671 275.416 277.045 275.431 277.757C275.439 278.489 275.451 279.534 275.465 280.87C275.479 283.594 275.499 287.5 275.523 292.319C275.527 293.528 275.531 294.794 275.535 296.113C275.537 296.773 275.539 297.446 275.541 298.131C275.538 298.462 275.569 298.837 275.453 299.204C275.341 299.56 275.152 299.89 274.914 300.173C273.939 301.307 272.489 301.906 271.02 302.291C269.531 302.661 267.949 302.796 266.339 302.73C264.732 302.667 263.068 302.405 261.493 301.744C260.714 301.405 259.952 300.951 259.351 300.285C259.059 299.952 258.796 299.561 258.691 299.099C258.587 298.622 258.636 298.2 258.623 297.764C258.622 294.286 258.621 290.685 258.62 286.996C258.621 284.898 258.621 282.829 258.621 280.795C258.622 279.779 258.622 278.771 258.623 277.774C258.626 277.269 258.614 276.793 258.642 276.273C258.684 275.762 258.805 275.268 258.966 274.796C259.643 272.909 260.835 271.364 261.891 269.855C262.892 268.348 263.141 266.491 263.187 264.795L263.351 264.959C262.928 264.987 262.424 264.847 262.115 264.496C261.957 264.325 261.849 264.102 261.819 263.866C261.803 263.626 261.815 263.453 261.812 263.244C261.819 263.035 261.796 262.866 261.831 262.62C261.869 262.389 261.988 262.181 262.142 262.018C262.452 261.691 262.925 261.564 263.325 261.588C264.874 261.591 266.37 261.595 267.808 261.598C268.526 261.6 269.23 261.602 269.919 261.604C270.264 261.605 270.604 261.606 270.941 261.607C271.298 261.597 271.675 261.711 271.951 261.95C272.238 262.176 272.391 262.581 272.356 262.914C272.35 263.242 272.365 263.533 272.342 263.879C272.229 264.621 271.44 264.974 270.847 264.913L270.966 264.794C270.994 266.788 271.377 268.636 272.268 269.937C273.19 271.236 273.964 272.375 274.48 273.371C275.002 274.363 275.255 275.206 275.348 275.784C275.389 276.074 275.408 276.297 275.404 276.447C275.408 276.596 275.398 276.672 275.388 276.672Z" fill="#263238"/>
<path d="M270.406 264.741C270.406 264.841 268.855 264.923 266.941 264.923C265.027 264.923 263.476 264.841 263.476 264.741C263.476 264.64 265.027 264.559 266.941 264.559C268.855 264.558 270.406 264.64 270.406 264.741Z" fill="#263238"/>
<path d="M274.695 279.599C273.995 279.144 273.073 279.344 272.321 279.699C271.569 280.054 270.859 280.554 270.044 280.685C269.082 280.84 268.115 280.457 267.261 279.973C266.406 279.49 265.6 278.895 264.679 278.566C262.916 277.938 260.83 278.429 259.5 279.787V298.596C259.5 298.596 260.534 301.804 267.808 301.3C275.082 300.796 274.509 297.587 274.509 297.587L274.695 279.599Z" fill="#004B24"/>
<g opacity="0.5">
<path d="M274.695 279.599C273.995 279.144 273.073 279.344 272.321 279.699C271.569 280.054 270.859 280.554 270.044 280.685C269.082 280.84 268.115 280.457 267.261 279.973C266.406 279.49 265.6 278.895 264.679 278.566C262.916 277.938 260.83 278.429 259.5 279.787V298.596C259.5 298.596 260.534 301.804 267.808 301.3C275.082 300.796 274.509 297.587 274.509 297.587L274.695 279.599Z" fill="white"/>
</g>
<path d="M286.786 197.075C286.376 196.859 285.833 196.945 285.314 197.249C285.206 197.313 285.097 197.4 284.989 197.486C281.873 199.91 277.502 201.424 272.698 201.424C264.095 201.424 256.973 196.602 255.696 190.302V189.111C255.696 188.638 255.313 188.254 254.841 188.254C254.367 188.254 253.983 188.638 253.983 189.111V192.447C253.983 192.527 254.009 192.601 254.029 192.674C253.456 193.984 253.115 195.374 253.115 196.837C253.115 204.108 260.819 210.015 270.34 210.015C278.324 210.015 285.053 205.861 287.001 200.212C287.024 200.191 287.044 200.148 287.044 200.126C287.283 199.628 287.413 199.11 287.413 198.676C287.456 197.941 287.24 197.335 286.786 197.075Z" fill="#004B24"/>
<g opacity="0.3">
<path d="M255.055 193.553C255.055 193.553 263.162 212.211 285.133 199.135C285.133 199.135 279.467 205.015 272.082 206.444C265.413 207.735 255.508 203.969 255.055 193.553Z" fill="black"/>
</g>
<path d="M287.386 198.016C287.25 198.339 286.724 198.426 286.214 198.211C285.703 197.994 285.401 197.556 285.536 197.233C285.674 196.909 286.199 196.823 286.709 197.04C287.219 197.255 287.523 197.693 287.386 198.016Z" fill="#263238"/>
<path d="M295.579 77.6957C295.579 77.6992 295.52 77.7034 295.406 77.7076C295.283 77.7111 295.117 77.7153 294.909 77.7209C294.465 77.7279 293.84 77.7377 293.068 77.7496C291.497 77.7636 289.327 77.7832 286.887 77.8049L286.837 77.8056L286.83 77.7552C286.782 77.4283 286.732 77.0825 286.681 76.7318C286.253 73.7358 285.871 71.0618 285.622 69.3146L285.659 69.3461C284.962 69.3426 284.406 69.3405 284.012 69.3384C283.829 69.3356 283.683 69.3328 283.574 69.3314C283.475 69.3286 283.423 69.3258 283.423 69.3216C283.423 69.3181 283.475 69.3146 283.574 69.3104C283.683 69.3076 283.828 69.3034 284.012 69.2978C284.406 69.2915 284.962 69.2824 285.659 69.2712L285.691 69.2705L285.696 69.3027C285.955 71.0485 286.352 73.7204 286.797 76.7143C286.848 77.065 286.898 77.4108 286.945 77.7377L286.888 77.688C289.329 77.681 291.497 77.6747 293.07 77.6705C293.842 77.6733 294.467 77.6761 294.911 77.6775C295.12 77.681 295.285 77.6831 295.409 77.6845C295.52 77.6887 295.579 77.6922 295.579 77.6957Z" fill="#263238"/>
<path d="M286.624 75.9478C286.624 75.9464 286.639 75.9443 286.667 75.9429C286.702 75.9415 286.744 75.9394 286.795 75.9373C286.916 75.9345 287.082 75.9303 287.292 75.9254C287.735 75.9191 288.365 75.91 289.153 75.8981C290.75 75.8834 292.983 75.8631 295.568 75.8393L295.513 75.8855C295.697 74.8047 295.895 73.6357 296.101 72.4261C296.208 71.8038 296.312 71.1927 296.412 70.6096L296.469 70.6768C293.467 70.6866 290.818 70.6957 288.908 70.702C287.964 70.6999 287.203 70.6985 286.669 70.6978C286.413 70.695 286.212 70.6929 286.066 70.6915C286.002 70.6894 285.951 70.688 285.91 70.6873C285.875 70.6859 285.857 70.6838 285.857 70.6824C285.857 70.6803 285.875 70.6789 285.91 70.6768C285.951 70.6754 286.002 70.6733 286.066 70.6705C286.212 70.667 286.413 70.6628 286.669 70.6572C287.203 70.6502 287.964 70.6397 288.908 70.6264C290.817 70.6103 293.467 70.5879 296.469 70.5627L296.537 70.562L296.525 70.6299C296.426 71.213 296.322 71.8241 296.216 72.4464C296.009 73.656 295.809 74.8243 295.623 75.9051L295.615 75.9513H295.568C292.983 75.9583 290.75 75.9639 289.154 75.9681C288.366 75.966 287.735 75.9639 287.293 75.9625C287.082 75.9597 286.917 75.9576 286.796 75.9562C286.744 75.9548 286.702 75.9534 286.668 75.952C286.639 75.9506 286.624 75.9492 286.624 75.9478Z" fill="#263238"/>
<path d="M289.073 80.0931C289.063 80.0938 289.061 80.0161 289.023 79.8866C288.984 79.7599 288.894 79.5758 288.701 79.4372C288.515 79.2979 288.211 79.2223 287.922 79.3343C287.634 79.4365 287.388 79.7452 287.393 80.1029C287.392 80.4606 287.642 80.7665 287.931 80.8659C288.222 80.9737 288.524 80.8953 288.709 80.7532C288.9 80.6118 288.988 80.427 289.026 80.2996C289.063 80.1708 289.063 80.0931 289.073 80.0931C289.078 80.0924 289.095 80.1708 289.069 80.3108C289.044 80.448 288.962 80.6545 288.759 80.8183C288.563 80.9828 288.227 81.0829 287.894 80.9667C287.565 80.861 287.274 80.5131 287.276 80.1029C287.27 79.6934 287.556 79.342 287.885 79.2328C288.216 79.1124 288.552 79.2083 288.75 79.3707C288.956 79.5324 289.04 79.7382 289.067 79.8747C289.093 80.0154 289.078 80.0938 289.073 80.0931Z" fill="#263238"/>
<path d="M294.668 80.0602C294.657 80.0609 294.656 79.9832 294.617 79.8537C294.579 79.727 294.488 79.5436 294.295 79.4043C294.109 79.2643 293.806 79.1894 293.516 79.3014C293.228 79.4043 292.982 79.7123 292.988 80.07C292.986 80.4277 293.236 80.7336 293.525 80.833C293.816 80.9408 294.119 80.8624 294.304 80.721C294.495 80.5796 294.583 80.3948 294.62 80.2674C294.657 80.1379 294.657 80.0602 294.668 80.0602C294.673 80.0595 294.689 80.1379 294.664 80.2779C294.639 80.4151 294.557 80.6216 294.354 80.7854C294.158 80.9499 293.822 81.05 293.49 80.9338C293.16 80.8281 292.87 80.4802 292.871 80.07C292.865 79.6605 293.151 79.3091 293.48 79.1999C293.811 79.0795 294.148 79.1761 294.346 79.3378C294.551 79.4995 294.635 79.7053 294.662 79.8418C294.688 79.9825 294.673 80.0609 294.668 80.0602Z" fill="#263238"/>
<path d="M298.469 69.7283C298.476 71.0982 297.373 72.2155 296.003 72.2232C294.633 72.2309 293.516 71.1269 293.507 69.757C293.499 68.3871 294.603 67.2699 295.973 67.2622C297.344 67.2545 298.461 68.3584 298.469 69.7283Z" fill="#008080"/>
<path d="M296.294 68.7873L296.28 70.6703L295.844 70.6668L295.855 69.1338L295.479 69.131L295.482 68.7817L296.294 68.7873Z" fill="white"/>
<path d="M276.859 322.003H204.505C199.138 322.003 194.788 317.653 194.788 312.286V307.629C194.788 302.262 199.138 297.911 204.505 297.911H276.859C282.226 297.911 286.576 302.262 286.576 307.629V312.286C286.576 317.652 282.226 322.003 276.859 322.003Z" fill="#004B24"/>
<g opacity="0.3">
<path d="M276.859 322.003H204.505C199.138 322.003 194.788 317.653 194.788 312.286V307.629C194.788 302.262 199.138 297.911 204.505 297.911H276.859C282.226 297.911 286.576 302.262 286.576 307.629V312.286C286.576 317.652 282.226 322.003 276.859 322.003Z" fill="black"/>
</g>
<path d="M273.296 322.003H200.941C195.574 322.003 191.224 317.653 191.224 312.286V307.629C191.224 302.262 195.574 297.911 200.941 297.911H273.295C278.662 297.911 283.013 302.262 283.013 307.629V312.286C283.013 317.652 278.663 322.003 273.296 322.003Z" fill="#004B24"/>
<path d="M234.361 308.634C234.361 309.871 233.465 310.62 231.984 310.62H230.577V312.345H229.763V306.648H231.984C233.466 306.649 234.361 307.397 234.361 308.634ZM233.547 308.634C233.547 307.82 233.002 307.356 231.96 307.356H230.577V309.911H231.96C233.002 309.912 233.547 309.448 233.547 308.634Z" fill="white"/>
<path d="M238.901 310.921H235.874L235.247 312.345H234.409L236.989 306.648H237.794L240.383 312.345H239.528L238.901 310.921ZM238.617 310.27L237.388 307.478L236.16 310.27H238.617Z" fill="white"/>
<path d="M243.067 310.376V312.345H242.262V310.359L239.999 306.648H240.87L242.694 309.651L244.525 306.648H245.33L243.067 310.376Z" fill="white"/>
<path d="M212.927 212.388C213.34 209.712 212.643 206.882 211.035 204.703C209.427 202.524 206.928 201.024 204.249 200.63C203.999 200.592 203.721 200.571 203.512 200.715C203.215 200.92 203.204 201.348 203.237 201.707C203.481 204.303 204.566 206.813 206.291 208.769C208.015 210.725 210.37 212.117 212.915 212.684" fill="#455A64"/>
<path d="M198.498 231.39C201.097 236.744 204.829 240.351 209.453 240.525C210.378 240.558 211.077 239.95 211.96 239.898C212.411 239.929 212.937 240.248 213.44 240.455C213.709 240.558 213.975 240.639 214.211 240.629C218.989 240.372 223.061 237.011 225.805 231.39C229.625 223.517 228.445 215.061 223.173 212.491C222.422 212.121 221.713 211.844 221.015 211.648C220.162 211.422 219.32 211.309 218.394 211.34C216.77 211.372 214.911 211.813 212.402 212.696C212.321 212.728 212.228 212.759 212.145 212.789C207.861 210.898 204.438 210.887 201.12 212.491C195.847 215.061 194.675 223.517 198.498 231.39Z" fill="#004B24"/>
<path d="M198.591 223.416C198.558 223.429 198.288 222.849 198.152 221.833C198.013 220.823 198.084 219.372 198.626 217.896C199.174 216.422 200.064 215.273 200.826 214.597C201.59 213.913 202.173 213.648 202.188 213.679C202.224 213.734 201.698 214.073 201.006 214.782C200.311 215.484 199.494 216.607 198.967 218.022C198.448 219.439 198.339 220.823 198.409 221.808C198.475 222.798 198.654 223.398 198.591 223.416Z" fill="#FAFAFA"/>
<path d="M199.559 227.158C199.461 227.181 199.292 226.809 199.181 226.328C199.069 225.847 199.059 225.438 199.158 225.416C199.256 225.394 199.425 225.765 199.536 226.246C199.647 226.728 199.657 227.136 199.559 227.158Z" fill="#FAFAFA"/>
<path d="M223.822 199.51C223.85 199.576 222.835 199.955 221.348 200.844C220.602 201.282 219.761 201.879 218.879 202.604C218.011 203.345 217.111 204.224 216.271 205.239C215.442 206.264 214.758 207.32 214.202 208.318C213.666 209.326 213.247 210.269 212.965 211.087C212.388 212.719 212.218 213.789 212.148 213.776C212.122 213.771 212.153 213.503 212.229 213.02C212.263 212.777 212.315 212.481 212.406 212.145C212.493 211.809 212.573 211.418 212.721 211.005C212.976 210.165 213.376 209.195 213.906 208.16C214.455 207.136 215.144 206.053 215.989 205.009C216.845 203.974 217.769 203.085 218.665 202.345C219.574 201.622 220.445 201.037 221.219 200.621C221.595 200.394 221.962 200.238 222.275 200.086C222.586 199.931 222.865 199.822 223.096 199.74C223.556 199.569 223.813 199.487 223.822 199.51Z" fill="#263238"/>
<path d="M288.653 126.248C284.378 120.28 275.297 116.192 267.919 117.289C261.937 118.18 256.65 120.959 253.752 126.895C252.934 128.572 253.982 130.561 255.835 130.781C265.784 131.969 275.878 131.936 285.818 130.68C287.354 130.486 289.178 130.061 289.283 128.162C289.322 127.474 289.055 126.809 288.653 126.248Z" fill="#004B24"/>
<path d="M265.034 125.953C264.999 125.98 264.693 125.678 264.283 125.116C263.882 124.555 263.383 123.694 263.15 122.638C262.92 121.585 262.931 120.623 262.929 119.936C262.938 119.248 262.97 118.822 263.021 118.82C263.071 118.818 263.13 119.242 263.187 119.926C263.253 120.608 263.287 121.558 263.506 122.558C263.727 123.557 264.161 124.388 264.5 124.976C264.846 125.561 265.079 125.919 265.034 125.953Z" fill="#263238"/>
<path d="M271.373 125.659C271.263 125.648 271.421 123.962 271.199 121.904C270.99 119.845 270.485 118.229 270.59 118.195C270.673 118.159 271.346 119.757 271.561 121.866C271.788 123.973 271.462 125.677 271.373 125.659Z" fill="#263238"/>
<path d="M277.921 124.694C277.819 124.65 278.312 123.519 278.431 122.035C278.568 120.551 278.279 119.354 278.386 119.327C278.47 119.29 278.937 120.503 278.795 122.066C278.665 123.629 277.997 124.745 277.921 124.694Z" fill="#263238"/>
<g opacity="0.3">
<path d="M270.208 117.572C270.229 117.605 270.244 117.643 270.264 117.676C270.265 117.674 270.266 117.673 270.267 117.672L270.208 117.572Z" fill="black"/>
</g>
<g opacity="0.3">
<path d="M270.264 117.677C269.019 119.812 269.175 122.926 271.313 125.177C271.919 122.73 271.562 119.844 270.264 117.677Z" fill="black"/>
</g>
<g opacity="0.3">
<path d="M264.174 124.899C263.495 123.676 263.087 122.303 262.986 120.907C262.942 120.289 262.945 119.648 262.713 119.076C261.988 119.983 261.613 121.166 261.7 122.325C261.791 123.542 262.385 124.715 263.313 125.508C263.458 125.631 263.616 125.749 263.802 125.788C263.987 125.827 264.206 125.767 264.302 125.604C264.428 125.387 264.296 125.118 264.174 124.899Z" fill="black"/>
</g>
<g opacity="0.3">
<path d="M278.492 119.88C278.453 119.643 278.412 119.398 278.285 119.194C278.158 118.989 277.922 118.833 277.685 118.872C277.355 118.928 277.196 119.299 277.096 119.619C276.657 121.033 276.259 122.538 276.611 123.975C276.692 124.309 276.905 124.697 277.247 124.673C277.509 124.655 277.681 124.399 277.8 124.166C278.532 122.733 278.662 121.481 278.492 119.88Z" fill="black"/>
</g>
<path d="M197.034 164.702V165.358H196.553V164.707C195.978 164.672 195.421 164.485 195.116 164.221L195.38 163.629C195.667 163.863 196.107 164.033 196.553 164.075V162.901C195.902 162.743 195.204 162.532 195.204 161.717C195.204 161.119 195.638 160.597 196.553 160.51V159.847H197.034V160.498C197.468 160.521 197.907 160.65 198.224 160.855L197.984 161.448C197.673 161.266 197.345 161.166 197.034 161.13V162.315C197.685 162.473 198.394 162.678 198.394 163.494C198.395 164.092 197.955 164.608 197.034 164.702ZM196.554 162.192V161.148C196.137 161.212 195.961 161.424 195.961 161.681C195.961 161.963 196.213 162.092 196.554 162.192ZM197.643 163.546C197.643 163.259 197.386 163.124 197.034 163.025V164.062C197.462 163.998 197.643 163.799 197.643 163.546Z" fill="#263238"/>
<path d="M201.898 160.55V164.655H201.136V161.189H200.268V160.55H201.898Z" fill="#263238"/>
<path d="M203.653 164.209C203.653 164.339 203.624 164.444 203.519 164.714L203.219 165.541H202.744L202.978 164.643C202.814 164.572 202.702 164.421 202.702 164.209C202.702 163.916 202.908 163.723 203.178 163.723C203.453 163.723 203.653 163.922 203.653 164.209Z" fill="#263238"/>
<path d="M207.132 163.394C207.132 164.116 206.61 164.714 205.508 164.714C204.927 164.714 204.341 164.538 203.966 164.239L204.288 163.646C204.587 163.893 205.033 164.051 205.496 164.051C206.041 164.051 206.364 163.811 206.364 163.424C206.364 163.031 206.112 162.785 205.262 162.785H204.271L204.482 160.55H206.892V161.189H205.126L205.038 162.139H205.431C206.645 162.139 207.132 162.667 207.132 163.394Z" fill="#263238"/>
<path d="M207.573 162.602C207.573 161.254 208.312 160.491 209.285 160.491C210.265 160.491 211.004 161.254 211.004 162.602C211.004 163.951 210.265 164.714 209.285 164.714C208.312 164.714 207.573 163.951 207.573 162.602ZM210.236 162.602C210.236 161.612 209.849 161.154 209.286 161.154C208.729 161.154 208.342 161.611 208.342 162.602C208.342 163.594 208.729 164.051 209.286 164.051C209.849 164.051 210.236 163.594 210.236 162.602Z" fill="#263238"/>
<path d="M227.972 169.885C227.972 169.986 220.443 170.067 211.159 170.067C201.872 170.067 194.344 169.985 194.344 169.885C194.344 169.784 201.872 169.703 211.159 169.703C220.444 169.703 227.972 169.785 227.972 169.885Z" fill="#263238"/>
<path d="M210.012 172.623C210.012 172.724 206.517 172.805 202.206 172.805C197.894 172.805 194.4 172.723 194.4 172.623C194.4 172.522 197.894 172.441 202.206 172.441C206.517 172.44 210.012 172.522 210.012 172.623Z" fill="#263238"/>
<path d="M255.952 147.919V148.576H255.472V147.925C254.897 147.89 254.34 147.703 254.035 147.439L254.299 146.847C254.587 147.081 255.026 147.251 255.472 147.293V146.119C254.821 145.961 254.123 145.75 254.123 144.935C254.123 144.337 254.557 143.815 255.472 143.727V143.064H255.952V143.715C256.386 143.739 256.826 143.868 257.143 144.073L256.902 144.665C256.591 144.483 256.263 144.383 255.951 144.348V145.532C256.602 145.69 257.312 145.895 257.312 146.711C257.312 147.309 256.873 147.826 255.952 147.919ZM255.472 145.41V144.366C255.055 144.43 254.879 144.642 254.879 144.899C254.879 145.181 255.131 145.31 255.472 145.41ZM256.562 146.764C256.562 146.477 256.304 146.342 255.952 146.243V147.28C256.38 147.216 256.562 147.016 256.562 146.764Z" fill="#263238"/>
<path d="M262.371 147.228V147.872H259.345V147.362L260.976 145.814C261.374 145.434 261.445 145.193 261.445 144.964C261.445 144.589 261.187 144.372 260.682 144.372C260.284 144.372 259.949 144.506 259.72 144.799L259.187 144.388C259.503 143.961 260.073 143.708 260.747 143.708C261.638 143.708 262.213 144.16 262.213 144.886C262.213 145.285 262.102 145.648 261.533 146.183L260.437 147.226H262.371V147.228Z" fill="#263238"/>
<path d="M263.81 147.427C263.81 147.556 263.78 147.661 263.675 147.932L263.376 148.758H262.9L263.135 147.861C262.971 147.79 262.859 147.638 262.859 147.427C262.859 147.134 263.065 146.94 263.334 146.94C263.61 146.94 263.81 147.139 263.81 147.427Z" fill="#263238"/>
<path d="M267.335 147.228V147.872H264.309V147.362L265.939 145.814C266.337 145.434 266.408 145.193 266.408 144.964C266.408 144.589 266.151 144.372 265.646 144.372C265.248 144.372 264.913 144.506 264.684 144.799L264.151 144.388C264.467 143.961 265.036 143.708 265.71 143.708C266.601 143.708 267.177 144.16 267.177 144.886C267.177 145.285 267.065 145.648 266.496 146.183L265.4 147.226H267.335V147.228Z" fill="#263238"/>
<path d="M270.761 146.611C270.761 147.333 270.239 147.931 269.137 147.931C268.556 147.931 267.97 147.755 267.595 147.456L267.917 146.863C268.217 147.11 268.662 147.268 269.125 147.268C269.671 147.268 269.993 147.028 269.993 146.641C269.993 146.248 269.741 146.002 268.891 146.002H267.9L268.111 143.768H270.521V144.407H268.757L268.668 145.357H269.061C270.275 145.357 270.761 145.885 270.761 146.611Z" fill="#263238"/>
<path d="M286.889 153.104C286.889 153.205 279.361 153.286 270.077 153.286C260.789 153.286 253.262 153.204 253.262 153.104C253.262 153.003 260.789 152.922 270.077 152.922C279.361 152.922 286.889 153.003 286.889 153.104Z" fill="#263238"/>
<path d="M268.929 155.841C268.929 155.942 265.434 156.023 261.124 156.023C256.812 156.023 253.317 155.941 253.317 155.841C253.317 155.741 256.812 155.659 261.124 155.659C265.434 155.659 268.929 155.74 268.929 155.841Z" fill="#263238"/>
<path d="M195.692 249.894V250.55H195.212V249.899C194.637 249.864 194.08 249.677 193.775 249.413L194.039 248.821C194.326 249.055 194.766 249.225 195.212 249.267V248.093C194.561 247.935 193.863 247.724 193.863 246.909C193.863 246.311 194.297 245.789 195.212 245.701V245.039H195.692V245.69C196.126 245.713 196.566 245.842 196.883 246.047L196.642 246.64C196.331 246.458 196.003 246.359 195.692 246.324V247.507C196.343 247.666 197.052 247.871 197.052 248.687C197.053 249.284 196.613 249.799 195.692 249.894ZM195.212 247.384V246.34C194.795 246.405 194.619 246.616 194.619 246.874C194.619 247.155 194.871 247.283 195.212 247.384ZM196.302 248.738C196.302 248.45 196.044 248.315 195.692 248.216V249.254C196.12 249.19 196.302 248.991 196.302 248.738Z" fill="#263238"/>
<path d="M199.137 247.794C199.137 246.445 199.877 245.683 200.85 245.683C201.829 245.683 202.568 246.445 202.568 247.794C202.568 249.143 201.829 249.905 200.85 249.905C199.877 249.905 199.137 249.143 199.137 247.794ZM201.8 247.794C201.8 246.803 201.413 246.346 200.85 246.346C200.293 246.346 199.906 246.803 199.906 247.794C199.906 248.784 200.293 249.241 200.85 249.241C201.413 249.242 201.8 248.785 201.8 247.794Z" fill="#263238"/>
<path d="M203.955 249.4C203.955 249.53 203.925 249.635 203.82 249.905L203.521 250.732H203.045L203.28 249.835C203.116 249.764 203.005 249.612 203.005 249.401C203.005 249.108 203.211 248.915 203.48 248.915C203.755 248.914 203.955 249.113 203.955 249.4Z" fill="#263238"/>
<path d="M207.433 248.586C207.433 249.307 206.911 249.905 205.809 249.905C205.228 249.905 204.642 249.729 204.267 249.43L204.589 248.838C204.888 249.084 205.334 249.241 205.797 249.241C206.342 249.241 206.665 249.001 206.665 248.614C206.665 248.222 206.413 247.975 205.563 247.975H204.572L204.783 245.741H207.193V246.38H205.427L205.339 247.33H205.733C206.946 247.33 207.433 247.858 207.433 248.586Z" fill="#263238"/>
<path d="M207.875 247.794C207.875 246.445 208.614 245.683 209.587 245.683C210.566 245.683 211.305 246.445 211.305 247.794C211.305 249.143 210.566 249.905 209.587 249.905C208.613 249.905 207.875 249.143 207.875 247.794ZM210.537 247.794C210.537 246.803 210.15 246.346 209.587 246.346C209.03 246.346 208.643 246.803 208.643 247.794C208.643 248.784 209.03 249.241 209.587 249.241C210.15 249.242 210.537 248.785 210.537 247.794Z" fill="#263238"/>
<path d="M226.63 255.077C226.63 255.178 219.101 255.259 209.817 255.259C200.53 255.259 193.002 255.177 193.002 255.077C193.002 254.977 200.53 254.895 209.817 254.895C219.101 254.895 226.63 254.977 226.63 255.077Z" fill="#263238"/>
<path d="M208.67 257.814C208.67 257.915 205.175 257.996 200.864 257.996C196.552 257.996 193.058 257.914 193.058 257.814C193.058 257.714 196.552 257.632 200.864 257.632C205.175 257.632 208.67 257.714 208.67 257.814Z" fill="#263238"/>
<path d="M253.226 227.682V228.338H252.746V227.687C252.171 227.652 251.614 227.465 251.309 227.201L251.573 226.609C251.861 226.843 252.3 227.013 252.746 227.055V225.881C252.095 225.723 251.397 225.513 251.397 224.697C251.397 224.099 251.831 223.577 252.746 223.489V222.827H253.226V223.478C253.66 223.501 254.1 223.63 254.417 223.835L254.176 224.428C253.865 224.246 253.537 224.147 253.226 224.112V225.296C253.877 225.454 254.586 225.66 254.586 226.475C254.586 227.072 254.147 227.587 253.226 227.682ZM252.745 225.172V224.128C252.329 224.193 252.153 224.404 252.153 224.662C252.153 224.943 252.405 225.072 252.745 225.172ZM253.836 226.527C253.836 226.239 253.578 226.104 253.226 226.005V227.043C253.654 226.978 253.836 226.779 253.836 226.527Z" fill="#263238"/>
<path d="M258.091 223.529V227.634H257.328V224.168H256.461V223.529H258.091Z" fill="#263238"/>
<path d="M259.846 227.189C259.846 227.318 259.816 227.423 259.711 227.694L259.412 228.52H258.936L259.171 227.624C259.007 227.553 258.895 227.401 258.895 227.19C258.895 226.896 259.101 226.703 259.37 226.703C259.645 226.702 259.846 226.902 259.846 227.189Z" fill="#263238"/>
<path d="M260.268 225.582C260.268 224.233 261.007 223.471 261.98 223.471C262.96 223.471 263.699 224.233 263.699 225.582C263.699 226.931 262.96 227.694 261.98 227.694C261.007 227.694 260.268 226.931 260.268 225.582ZM262.931 225.582C262.931 224.591 262.544 224.134 261.981 224.134C261.424 224.134 261.037 224.591 261.037 225.582C261.037 226.573 261.424 227.03 261.981 227.03C262.544 227.03 262.931 226.573 262.931 225.582Z" fill="#263238"/>
<path d="M264.217 225.582C264.217 224.233 264.956 223.471 265.929 223.471C266.909 223.471 267.648 224.233 267.648 225.582C267.648 226.931 266.909 227.694 265.929 227.694C264.956 227.694 264.217 226.931 264.217 225.582ZM266.88 225.582C266.88 224.591 266.493 224.134 265.93 224.134C265.373 224.134 264.986 224.591 264.986 225.582C264.986 226.573 265.373 227.03 265.93 227.03C266.493 227.03 266.88 226.573 266.88 225.582Z" fill="#263238"/>
<path d="M284.163 232.866C284.163 232.966 276.635 233.048 267.351 233.048C258.063 233.048 250.536 232.966 250.536 232.866C250.536 232.766 258.063 232.684 267.351 232.684C276.636 232.684 284.163 232.765 284.163 232.866Z" fill="#263238"/>
<path d="M266.204 235.602C266.204 235.703 262.709 235.784 258.398 235.784C254.086 235.784 250.592 235.703 250.592 235.602C250.592 235.502 254.086 235.42 258.398 235.42C262.709 235.42 266.204 235.502 266.204 235.602Z" fill="#263238"/>
<path d="M258.834 75.9681C258.834 76.0689 250.72 76.1501 240.715 76.1501C230.705 76.1501 222.593 76.0682 222.593 75.9681C222.593 75.8673 230.705 75.7861 240.715 75.7861C250.72 75.7854 258.834 75.8673 258.834 75.9681Z" fill="#008080"/>
<path d="M22.8178 293.335C22.8178 293.335 19.2072 293.335 18.2713 297.213C17.3354 301.091 17.2017 302.429 17.2017 302.429C17.2017 302.429 13.0927 306.121 17.2017 307.109C21.3107 308.098 22.8185 302.563 22.8185 302.563L23.4513 293.335C22.8178 293.335 22.8178 293.335 22.8178 293.335Z" fill="#FFBE9D"/>
<path d="M63.9646 222.595C63.9646 222.595 76.8047 179.483 78.1116 177.623C80.2704 174.553 101.051 165.314 101.051 165.314L106.624 153.942L141.173 148.42L149.729 159.439L173.787 177.064L172.108 238.049L171.216 280.632L175.769 333.786L66.4986 333.62L71.442 322.425L76.6318 225.746L63.9646 222.595Z" fill="#004B24"/>
<path d="M78.771 216.782C78.7584 216.782 78.7437 216.662 78.7276 216.434C78.7129 216.163 78.6954 215.833 78.6744 215.435C78.6345 214.567 78.5981 213.31 78.5694 211.758C78.5113 208.652 78.5092 204.36 78.6443 199.621C78.7815 194.882 79.0293 190.595 79.2652 187.498C79.3828 185.95 79.4913 184.697 79.5809 183.833C79.625 183.436 79.6614 183.108 79.6915 182.838C79.7209 182.611 79.7419 182.492 79.7545 182.494C79.7671 182.494 79.7699 182.615 79.7643 182.844C79.7531 183.115 79.7391 183.445 79.7223 183.843C79.6719 184.766 79.6047 186.006 79.5228 187.514C79.3534 190.614 79.1462 194.896 79.009 199.631C78.8746 204.364 78.8361 208.651 78.8277 211.755C78.8228 213.265 78.8193 214.507 78.8165 215.431C78.8102 215.83 78.8053 216.161 78.8011 216.432C78.7934 216.661 78.7836 216.782 78.771 216.782Z" fill="#263238"/>
<g opacity="0.3">
<path d="M103.52 204.385C103.497 203.878 103.651 203.422 103.923 203.038C104.741 201.883 106.627 201.368 108.001 202.025C109.834 202.9 110.743 205 111.111 206.997C111.513 209.182 111.455 211.433 111.866 213.617C112.278 215.801 113.279 218.03 115.193 219.16C117.566 220.561 120.68 219.926 123.173 221.1C126.885 222.848 127.744 227.671 127.93 231.771C128.283 239.531 127.947 247.304 127.611 255.064C126.897 271.589 126.181 288.114 125.466 304.639L123.517 329.509L113.461 333.782L100.163 246.407L103.52 204.385Z" fill="black"/>
</g>
<path d="M106.385 197.318C106.39 197.327 106.305 197.384 106.124 197.458C105.942 197.525 105.65 197.588 105.275 197.542C104.55 197.461 103.443 196.854 102.992 195.545C102.774 194.908 102.721 194.162 102.789 193.39C102.854 192.615 103.029 191.811 103.191 190.97C103.529 189.279 103.897 187.431 104.284 185.492C105.069 181.607 105.8 178.094 106.347 175.555C106.618 174.335 106.842 173.324 107.012 172.552C107.178 171.845 107.281 171.456 107.306 171.461C107.33 171.466 107.274 171.864 107.152 172.58C107.01 173.358 106.823 174.376 106.599 175.606C106.117 178.159 105.426 181.68 104.642 185.565C104.245 187.502 103.867 189.348 103.521 191.036C103.158 192.705 102.836 194.248 103.237 195.465C103.615 196.674 104.628 197.287 105.297 197.401C106.001 197.525 106.375 197.27 106.385 197.318Z" fill="#263238"/>
<path d="M109.939 181.1C109.94 181.135 109.653 181.133 109.177 181.282C108.708 181.428 108.038 181.776 107.491 182.471C106.946 183.144 106.567 184.244 106.971 185.34C107.335 186.41 108.391 187.43 109.711 187.547C111.032 187.641 112.237 186.8 112.766 185.802C113.338 184.784 113.139 183.638 112.707 182.887C112.277 182.114 111.671 181.665 111.23 181.446C110.783 181.224 110.5 181.179 110.507 181.145C110.509 181.133 110.58 181.136 110.715 181.154C110.85 181.17 111.049 181.217 111.289 181.317C111.769 181.506 112.439 181.945 112.931 182.758C113.171 183.162 113.366 183.657 113.417 184.219C113.465 184.777 113.365 185.4 113.064 185.959C112.493 187.071 111.186 188.012 109.683 187.911C108.183 187.772 107.042 186.637 106.654 185.449C106.445 184.849 106.445 184.219 106.58 183.675C106.72 183.129 106.991 182.67 107.292 182.31C107.906 181.585 108.638 181.257 109.141 181.147C109.394 181.087 109.597 181.072 109.733 181.077C109.869 181.079 109.939 181.086 109.939 181.1Z" fill="#263238"/>
<path d="M121.694 225.665L58.5795 214.246L29.1221 220.707L95.0481 232.577L121.694 225.665Z" fill="#004B24"/>
<g opacity="0.6">
<path d="M121.694 225.665L58.5795 214.246L29.1221 220.707L95.0481 232.577L121.694 225.665Z" fill="black"/>
</g>
<path d="M81.3391 253.187C82.1952 241.555 85.3851 212.011 87.7791 200.595C88.4952 197.179 89.3198 193.684 91.3071 190.814C93.2944 187.945 96.7237 185.809 100.173 186.341C103.253 186.815 105.725 189.314 106.976 192.168C108.227 195.022 108.694 198.208 108.564 201.322C107.97 215.432 106.751 231.241 106.762 244.324" fill="#455A64"/>
<path d="M102.713 225.485C102.726 225.541 101.816 225.775 100.372 226.227C98.9273 226.676 96.9554 227.371 94.854 228.322C92.754 229.276 90.9312 230.302 89.6411 231.092C88.3503 231.882 87.5747 232.412 87.5411 232.365C87.5264 232.345 87.7035 232.19 88.0381 231.926C88.3706 231.66 88.8704 231.299 89.5018 230.875C90.7639 230.023 92.5839 228.952 94.7028 227.988C96.8224 227.029 98.8279 226.367 100.299 225.977C101.035 225.782 101.636 225.644 102.055 225.569C102.474 225.492 102.707 225.461 102.713 225.485Z" fill="#263238"/>
<path d="M103.763 212.056C103.775 212.116 102.814 212.326 101.302 212.793C99.7911 213.258 97.738 214.023 95.6023 215.143C93.468 216.268 91.6739 217.525 90.4335 218.506C89.1917 219.486 88.4735 220.159 88.4315 220.116C88.414 220.097 88.5764 219.913 88.8865 219.591C89.1931 219.268 89.6648 218.826 90.2704 218.307C91.4785 217.266 93.2727 215.959 95.4328 214.82C97.5944 213.687 99.6889 212.95 101.231 212.545C102.002 212.341 102.633 212.203 103.073 212.133C103.513 212.061 103.758 212.032 103.763 212.056Z" fill="#263238"/>
<path d="M102.343 201.25C102.345 201.312 101.595 201.347 100.413 201.564C99.2312 201.778 97.6226 202.227 95.9818 203.04C94.3438 203.86 93.0159 204.873 92.1332 205.687C91.247 206.499 90.7682 207.078 90.7192 207.038C90.6996 207.023 90.8018 206.865 91.0048 206.59C91.2036 206.313 91.527 205.938 91.954 205.501C92.8052 204.626 94.1415 203.552 95.8187 202.714C97.498 201.881 99.1598 201.461 100.371 201.309C100.978 201.231 101.472 201.199 101.813 201.207C102.155 201.212 102.343 201.225 102.343 201.25Z" fill="#263238"/>
<path d="M94.507 234.909C94.507 234.94 94.5182 234.959 94.5182 234.969V275.356C94.5182 277.127 93.0937 278.957 90.4673 280.342C87.8514 281.724 84.0252 282.673 79.2512 282.683H79.1903C69.6332 282.664 63.9233 278.907 63.9233 275.356V234.969C63.9233 234.959 63.9338 234.939 63.9338 234.909C63.9338 234.889 63.9233 234.859 63.9233 234.828C63.9443 230.879 66.8451 226.757 69.7655 222.686C71.7297 219.968 72.1973 216.05 72.289 213.75C72.2995 213.475 72.31 213.231 72.31 213.007H72.0461C70.7833 213.007 69.7662 212.131 69.7662 211.052V209.342C69.7662 208.253 70.7833 207.378 72.0461 207.378H86.3961C87.3425 207.378 88.1573 207.867 88.5024 208.569C88.6144 208.813 88.676 209.067 88.676 209.342V211.052C88.676 212.131 87.6582 213.007 86.3961 213.007H86.1322C86.1322 213.231 86.1427 213.475 86.1518 213.75C86.2435 216.05 86.7125 219.968 88.676 222.686C91.5971 226.757 94.4979 230.878 94.5182 234.828C94.5182 234.859 94.507 234.889 94.507 234.909Z" fill="#FAFAFA"/>
<path d="M94.5069 234.909C94.5069 234.909 94.5104 234.77 94.4845 234.496C94.4761 234.222 94.4257 233.816 94.3361 233.288C94.1366 232.236 93.6473 230.711 92.6666 228.908C91.6971 227.098 90.2579 225.026 88.5345 222.641C87.6693 221.428 87.0701 219.928 86.662 218.297C86.256 216.661 86.0446 214.883 86.0138 213.007L86.0117 212.883L86.1328 212.888C86.6732 212.908 87.1996 212.823 87.6574 212.538C88.1082 212.264 88.4617 211.802 88.5345 211.27C88.5674 210.731 88.5415 210.121 88.5478 209.539C88.5933 208.959 88.3721 208.414 87.9248 208.048C87.488 207.678 86.9021 207.495 86.3043 207.514C85.6841 207.514 85.0562 207.516 84.4213 207.517C83.1515 207.519 81.8537 207.52 80.5286 207.522C77.8784 207.526 75.119 207.529 72.2623 207.533C71.5679 207.497 70.8791 207.706 70.4031 208.196C70.1749 208.441 70.0034 208.742 69.9516 209.072C69.9026 209.385 69.9362 209.787 69.9264 210.146C69.932 210.507 69.9152 210.906 69.939 211.238C69.9831 211.573 70.1357 211.892 70.3709 212.146C70.8476 212.666 71.5679 212.888 72.3106 212.842L72.4772 212.832L72.4751 213.006C72.4527 214.624 72.2959 216.264 71.9375 217.9C71.5735 219.528 71.0072 221.171 70.0216 222.613C69.0353 224.017 68.0168 225.413 67.0851 226.896C66.1569 228.374 65.277 229.926 64.703 231.61C64.4167 232.45 64.2074 233.322 64.1339 234.211C64.0877 235.091 64.1087 236.025 64.1038 236.939C64.1045 238.778 64.1045 240.636 64.1052 242.51C64.1059 246.258 64.1059 250.074 64.1066 253.942C64.1052 260.744 64.1038 267.385 64.1031 273.798C64.1199 274.595 64.0457 275.42 64.2109 276.14C64.374 276.884 64.8129 277.543 65.3141 278.114C66.3424 279.258 67.6906 280.076 69.085 280.682C70.4871 281.289 71.9571 281.69 73.4264 281.977C74.8957 282.275 76.3783 282.41 77.8413 282.478C80.7687 282.604 83.6485 282.365 86.3421 281.704C87.6847 281.363 88.9839 280.92 90.1795 280.313C91.3709 279.71 92.4783 278.951 93.3029 277.967C93.7166 277.479 94.0337 276.921 94.222 276.331C94.4145 275.742 94.3669 275.115 94.3739 274.475C94.376 273.211 94.3774 271.97 94.3795 270.754C94.3837 268.321 94.3872 265.987 94.3914 263.758C94.4159 254.852 94.4355 247.643 94.4495 242.647C94.4642 237.664 94.5069 234.909 94.5069 234.909C94.5237 234.908 94.5328 235.08 94.5363 235.416C94.5405 235.764 94.5468 236.261 94.5545 236.909C94.5622 238.233 94.5741 240.164 94.5888 242.648C94.6028 247.644 94.6224 254.853 94.6469 263.759C94.6504 265.988 94.6546 268.322 94.6588 270.755C94.6609 271.971 94.6623 273.212 94.6644 274.476C94.6637 274.793 94.663 275.111 94.6623 275.431C94.6609 275.765 94.593 276.095 94.5055 276.417C94.3039 277.055 93.9665 277.647 93.5346 278.159C92.6729 279.192 91.5347 279.971 90.3188 280.591C89.0987 281.214 87.7792 281.666 86.4184 282.015C83.6884 282.69 80.7827 282.936 77.8259 282.814C76.3482 282.748 74.8495 282.614 73.3599 282.314C71.8703 282.025 70.3779 281.62 68.945 281.002C67.5205 280.382 66.1324 279.551 65.0481 278.348C64.5203 277.747 64.0485 277.044 63.8651 276.225C63.681 275.392 63.7657 274.6 63.7454 273.799C63.744 267.385 63.7433 260.745 63.7419 253.943C63.7426 250.074 63.7426 246.259 63.7433 242.51C63.744 240.636 63.744 238.779 63.7447 236.94C63.7503 236.014 63.7279 235.119 63.7776 234.184C63.8546 233.258 64.073 232.357 64.367 231.496C64.9578 229.77 65.8524 228.201 66.7897 226.711C67.7291 225.219 68.7581 223.812 69.7388 222.42C70.6908 221.033 71.2494 219.428 71.6092 217.829C71.9641 216.223 72.1223 214.597 72.1475 213.007L72.3113 213.171C71.5427 213.221 70.6754 212.974 70.1322 212.365C69.8571 212.067 69.6723 211.684 69.6205 211.278C69.5925 210.868 69.6135 210.525 69.6072 210.147C69.6191 209.769 69.5799 209.431 69.6394 209.019C69.7031 208.622 69.9096 208.263 70.1763 207.979C70.7209 207.41 71.5378 207.183 72.2623 207.224C75.1197 207.227 77.8784 207.231 80.5286 207.234C81.8537 207.237 83.1515 207.239 84.4213 207.24C85.0562 207.241 85.6834 207.242 86.3043 207.243C86.9448 207.225 87.6077 207.427 88.0963 207.846C88.601 208.248 88.8649 208.935 88.8061 209.539C88.7963 210.137 88.8229 210.696 88.7837 211.304C88.6969 211.923 88.2874 212.445 87.7855 212.746C87.2857 213.061 86.6739 213.15 86.1328 213.125L86.2518 213.006C86.3092 216.699 87.0246 220.117 88.6878 222.534C90.3944 224.926 91.8252 227.018 92.7814 228.846C93.7495 230.668 94.2234 232.213 94.4026 233.275C94.4824 233.809 94.5216 234.217 94.5195 234.493C94.5335 234.77 94.5202 234.909 94.5069 234.909Z" fill="#263238"/>
<path d="M85.3193 212.908C85.3193 213.009 82.4591 213.09 78.9311 213.09C75.4024 213.09 72.5422 213.008 72.5422 212.908C72.5422 212.808 75.4024 212.726 78.9311 212.726C82.4584 212.726 85.3193 212.808 85.3193 212.908Z" fill="#263238"/>
<path d="M93.2294 240.305C91.9379 239.467 90.2383 239.835 88.8516 240.489C87.4649 241.144 86.1573 242.066 84.6523 242.308C82.8792 242.593 81.0963 241.887 79.5199 240.995C77.9442 240.103 76.4574 239.007 74.7606 238.401C71.5105 237.242 67.6647 238.148 65.2126 240.65V275.33C65.2126 275.33 67.1187 281.248 80.5307 280.318C93.9427 279.388 92.8864 273.471 92.8864 273.471L93.2294 240.305Z" fill="#004B24"/>
<path d="M57.6976 216.7C58.0917 214.146 57.4267 211.444 55.8916 209.364C54.3565 207.285 51.9716 205.852 49.4138 205.476C49.1744 205.441 48.9098 205.42 48.7103 205.557C48.4275 205.753 48.4156 206.161 48.4478 206.503C48.6809 208.981 49.7169 211.377 51.3626 213.244C53.0083 215.111 55.256 216.44 57.685 216.981" fill="#455A64"/>
<path d="M43.9243 234.837C46.4051 239.948 49.9674 243.39 54.3809 243.556C55.2636 243.587 55.9307 243.007 56.7735 242.958C57.2047 242.987 57.7059 243.292 58.1854 243.489C58.4416 243.587 58.6957 243.665 58.9218 243.656C63.483 243.411 67.3687 240.202 69.9874 234.837C73.6344 227.322 72.5081 219.25 67.4751 216.798C66.7583 216.444 66.0821 216.18 65.4157 215.993C64.6009 215.778 63.7973 215.669 62.9132 215.699C61.3634 215.729 59.5889 216.151 57.1949 216.994C57.1172 217.024 57.0283 217.054 56.9499 217.083C52.8605 215.277 49.5936 215.267 46.4261 216.798C41.3931 219.251 40.2745 227.323 43.9243 234.837Z" fill="#004B24"/>
<path d="M44.0125 227.226C43.9796 227.24 43.7192 226.686 43.589 225.716C43.4539 224.752 43.5211 223.364 44.0391 221.955C44.5627 220.547 45.4146 219.448 46.144 218.804C46.8741 218.152 47.432 217.901 47.4481 217.932C47.4838 217.987 46.9833 218.312 46.3232 218.989C45.6617 219.661 44.884 220.732 44.3814 222.081C43.8858 223.433 43.7808 224.752 43.8466 225.692C43.9061 226.635 44.0748 227.208 44.0125 227.226Z" fill="#FAFAFA"/>
<path d="M44.9366 230.798C44.8386 230.821 44.6734 230.467 44.567 230.008C44.4613 229.549 44.455 229.158 44.553 229.136C44.651 229.113 44.8162 229.467 44.9226 229.926C45.0283 230.385 45.0353 230.776 44.9366 230.798Z" fill="#FAFAFA"/>
<path d="M68.096 204.408C68.1226 204.473 67.1545 204.836 65.7377 205.686C65.0265 206.105 64.2236 206.675 63.3829 207.366C62.5548 208.074 61.6973 208.913 60.8951 209.882C60.1041 210.859 59.451 211.867 58.9211 212.818C58.4094 213.779 58.009 214.679 57.7395 215.459C57.1872 217.016 57.0227 218.037 56.9534 218.023C56.9289 218.019 56.9562 217.763 57.0276 217.301C57.0598 217.069 57.1088 216.787 57.1949 216.466C57.2775 216.144 57.3538 215.771 57.4945 215.377C57.7374 214.574 58.1189 213.648 58.6243 212.659C59.1479 211.681 59.8059 210.647 60.6123 209.65C61.4299 208.662 62.3133 207.813 63.1687 207.107C64.0374 206.416 64.8697 205.859 65.6082 205.462C65.9673 205.245 66.3173 205.097 66.6162 204.952C66.9137 204.804 67.1804 204.7 67.4016 204.622C67.8419 204.461 68.0876 204.384 68.096 204.408Z" fill="#263238"/>
<path d="M29.1221 220.707L21.189 320.757L95.1117 338.627C95.1117 338.627 120.895 329.885 121.246 329.288C121.598 328.69 121.694 225.664 121.694 225.664L95.0488 232.577L29.1221 220.707Z" fill="#004B24"/>
<g opacity="0.4">
<path d="M29.1221 220.707L21.189 320.757L95.1117 338.627C95.1117 338.627 120.895 329.885 121.246 329.288C121.598 328.69 121.694 225.664 121.694 225.664L95.0488 232.577L29.1221 220.707Z" fill="black"/>
</g>
<path d="M145.061 104.171L140.939 162.56C140.266 172.093 132.336 179.482 122.78 179.482C112.258 179.482 103.923 170.586 104.614 160.087C104.98 154.529 105.31 149.978 105.31 149.978C105.31 149.978 91.175 147.78 91 133.648C90.8992 125.485 92.3069 106.962 93.5137 92.7707C94.3299 83.1772 102.36 75.8125 111.989 75.8125H120.527C135.232 76.6714 146.327 89.4961 145.061 104.171Z" fill="#FFBE9D"/>
<path d="M105.311 149.977C105.311 149.977 114.22 150.5 123.712 144.538C123.712 144.538 119.161 154.819 105.058 153.546L105.311 149.977Z" fill="#EB996E"/>
<path d="M96.1674 107.348C96.418 107.612 97.946 106.48 100.119 106.486C102.288 106.461 103.882 107.578 104.117 107.312C104.233 107.194 103.979 106.719 103.284 106.214C102.601 105.71 101.436 105.221 100.083 105.227C98.7301 105.234 97.5919 105.732 96.9381 106.242C96.2703 106.754 96.0442 107.231 96.1674 107.348Z" fill="#263238"/>
<path d="M119.675 109.842C119.638 110.908 120.509 111.818 121.621 111.878C122.732 111.937 123.664 111.124 123.702 110.058C123.74 108.992 122.868 108.08 121.757 108.02C120.646 107.961 119.713 108.776 119.675 109.842Z" fill="#263238"/>
<path d="M98.1266 109.842C98.0895 110.908 98.9603 111.818 100.073 111.878C101.183 111.937 102.115 111.124 102.153 110.058C102.191 108.992 101.319 108.08 100.208 108.02C99.0968 107.961 98.1637 108.776 98.1266 109.842Z" fill="#263238"/>
<path d="M117.299 107.348C117.55 107.612 119.081 106.48 121.251 106.486C123.421 106.461 125.014 107.577 125.25 107.311C125.365 107.194 125.113 106.718 124.417 106.214C123.733 105.71 122.569 105.221 121.216 105.227C119.862 105.234 118.725 105.732 118.07 106.242C117.404 106.755 117.177 107.231 117.299 107.348Z" fill="#263238"/>
<path d="M109.417 123.454C109.427 123.331 108.077 123.098 105.89 122.818C105.335 122.761 104.81 122.651 104.716 122.272C104.586 121.872 104.818 121.274 105.087 120.628C105.608 119.287 106.154 117.88 106.727 116.405C109.005 110.392 110.653 105.449 110.41 105.359C110.167 105.269 108.123 110.07 105.846 116.083C105.298 117.565 104.774 118.979 104.275 120.331C104.066 120.961 103.705 121.676 103.988 122.507C104.137 122.922 104.544 123.223 104.9 123.319C105.255 123.427 105.568 123.433 105.841 123.449C108.043 123.568 109.409 123.578 109.417 123.454Z" fill="#263238"/>
<path d="M115.809 124.957C115.455 124.936 115.451 127.295 113.434 128.968C111.42 130.646 108.907 130.382 108.888 130.711C108.855 130.859 109.448 131.169 110.508 131.198C111.548 131.233 113.068 130.9 114.303 129.875C115.534 128.849 116.063 127.48 116.144 126.513C116.233 125.528 115.97 124.943 115.809 124.957Z" fill="#263238"/>
<path d="M116.738 100.289C116.953 100.88 119.121 100.6 121.669 100.907C124.224 101.162 126.279 101.909 126.617 101.379C126.767 101.126 126.41 100.57 125.579 99.9984C124.755 99.4279 123.442 98.8854 121.912 98.7146C120.382 98.548 118.982 98.7909 118.054 99.1682C117.118 99.5448 116.647 100.009 116.738 100.289Z" fill="#263238"/>
<path d="M96.4703 101.13C96.8525 101.624 98.3484 101.111 100.148 101.088C101.946 101.001 103.47 101.419 103.821 100.904C103.975 100.653 103.735 100.159 103.069 99.6919C102.413 99.2264 101.316 98.8463 100.08 98.8834C98.844 98.9226 97.7723 99.3699 97.1465 99.8746C96.5102 100.382 96.3016 100.89 96.4703 101.13Z" fill="#263238"/>
<path d="M140.297 114.779C140.538 114.674 150.007 111.907 149.698 121.569C149.39 131.231 139.753 128.928 139.745 128.651C139.737 128.373 140.297 114.779 140.297 114.779Z" fill="#FFBE9D"/>
<path d="M142.814 125.084C142.858 125.055 142.979 125.207 143.259 125.347C143.532 125.482 144.007 125.585 144.517 125.412C145.55 125.07 146.46 123.477 146.563 121.737C146.617 120.859 146.459 120.015 146.169 119.313C145.897 118.596 145.455 118.088 144.944 117.98C144.437 117.845 144.063 118.142 143.936 118.409C143.798 118.675 143.854 118.87 143.802 118.885C143.774 118.908 143.6 118.717 143.69 118.32C143.736 118.13 143.856 117.905 144.089 117.727C144.327 117.546 144.671 117.46 145.028 117.511C145.772 117.586 146.421 118.293 146.738 119.066C147.097 119.842 147.295 120.79 147.236 121.777C147.112 123.722 146.057 125.513 144.647 125.872C143.962 126.027 143.401 125.804 143.116 125.567C142.824 125.318 142.78 125.1 142.814 125.084Z" fill="#EB996E"/>
<path d="M145.672 114.451C144.199 114.095 141.649 115.455 141.021 116.835C140.392 118.215 140.253 119.778 139.628 121.159C139.001 122.539 137.585 123.788 136.109 123.439C135.092 123.198 134.364 122.244 134.096 121.234C133.827 120.223 133.936 119.155 134.067 118.117C134.636 113.604 135.585 109.13 135.766 104.586C135.948 100.041 135.301 95.3196 132.915 91.4479C130.528 87.5762 126.145 84.7293 121.612 85.0947C118.609 85.3369 115.855 86.9028 112.872 87.3207C109.334 87.8156 105.594 86.5675 103.065 84.0468C102.74 83.7241 101.232 82.7294 101.232 82.7294C101.232 82.4949 101.453 80.4775 102.248 79.7418C108.167 74.2685 118.832 72.7404 126.65 74.7081C134.468 76.6758 141.796 82.1953 145.159 89.5215C148.523 96.8477 147.526 107.038 145.672 114.451Z" fill="#263238"/>
<path d="M91.9687 90.2194C93.2357 93.1545 96.4655 94.8625 99.6456 95.1859C102.826 95.5093 106.002 94.684 109.077 93.8118C112.153 92.9396 120.403 91.5711 123.599 91.6691C124.077 91.6838 124.652 91.6747 124.906 91.2694C125.242 90.7332 124.704 90.0843 124.205 89.6937C119.993 86.3939 109.81 84.3702 104.464 84.1455C99.1178 83.9201 93.5031 86.2182 90.6086 90.7185" fill="#263238"/>
<path d="M93.3582 90.589C93.3582 90.589 130.435 78.6603 146.474 110.739C146.474 110.739 148.872 102.711 148.872 98.408C148.872 95.5338 147.152 78.4174 129.54 73.0337C129.54 73.0337 103.007 62.9068 93.3582 90.589Z" fill="#004B24"/>
<g opacity="0.4">
<path d="M93.3582 90.589C93.3582 90.589 97.5778 85.5693 105.148 85.2354C116.085 84.7524 136.556 90.9019 146.474 110.739C146.474 110.739 148.872 102.711 148.872 98.408C148.872 95.5338 147.152 78.4174 129.54 73.0337C129.54 73.0337 103.007 62.9068 93.3582 90.589Z" fill="black"/>
</g>
<path d="M144.925 106.983C139.427 98.5716 131.847 91.6164 123.324 86.2922C114.801 80.968 100.707 75.7019 90.995 73.1238C88.0788 72.3496 85.0394 71.6734 82.0665 72.1872C79.0936 72.701 76.1837 74.6806 75.4459 77.6059C74.5226 81.2676 81.0207 86.918 84.0741 89.1398C87.1282 91.3616 93.3575 94.6208 93.3575 94.6208C93.3575 94.6208 93.2742 87.8294 104.144 86.4287C118.93 84.524 144.925 106.983 144.925 106.983Z" fill="#004B24"/>
<path d="M114.517 79.2779C114.517 79.2779 109.175 76.3225 103.809 75.6337C104.911 74.8266 105.5 74.4388 106.719 73.8872C109.464 74.4332 112.245 75.1297 115.064 76.6928L114.517 79.2779Z" fill="#FAFAFA"/>
<path d="M161.097 175.586C161.097 175.586 150.963 187.17 152.082 203.292C152.237 205.527 152.347 208.644 152.622 210.871C154.331 224.699 156.975 237.535 156.975 237.535H157.939L193.282 228.809C193.282 228.809 187.957 198.126 186.734 194.054C182.818 181.015 169.385 173.84 169.385 173.84L161.097 175.586Z" fill="#004B24"/>
<path d="M121.246 329.288C121.246 329.288 121.235 329.111 121.231 328.766C121.229 328.411 121.225 327.9 121.22 327.232C121.219 325.872 121.217 323.882 121.214 321.314C121.223 316.155 121.237 308.684 121.253 299.389C121.318 280.78 121.409 254.878 121.512 225.664L121.738 225.84C117.44 226.955 112.899 228.134 108.294 229.329C103.772 230.502 99.3118 231.658 95.0936 232.752L95.2287 232.574C95.4086 247.22 95.3596 261.037 95.291 273.523C95.2161 286.006 95.1496 297.161 95.0936 306.488C95.0558 315.813 95.0579 323.306 95.081 328.469C95.0922 331.044 95.1006 333.04 95.1062 334.403C95.1062 335.073 95.1062 335.585 95.1062 335.941C95.1041 336.287 95.0943 336.464 95.0943 336.464C95.0943 336.464 95.081 336.287 95.0712 335.941C95.0635 335.586 95.0523 335.073 95.0376 334.403C95.0173 333.04 94.9872 331.045 94.9487 328.47C94.8843 323.307 94.8451 315.813 94.85 306.487C94.8836 297.16 94.9228 286.005 94.9676 273.522C95.0159 261.036 95.0509 247.221 94.8661 232.579L94.864 232.437L95.0012 232.401C99.2194 231.307 103.679 230.15 108.2 228.976C112.806 227.781 117.348 226.603 121.646 225.489L121.874 225.43L121.872 225.665C121.722 254.879 121.589 280.781 121.494 299.39C121.43 308.684 121.379 316.155 121.344 321.314C121.319 323.882 121.3 325.872 121.287 327.231C121.276 327.899 121.269 328.41 121.264 328.765C121.258 329.111 121.246 329.288 121.246 329.288Z" fill="#263238"/>
<path d="M104.88 154.753C104.88 154.753 103.466 168.201 108.005 170.294C113.109 172.647 118.194 170.347 121.323 168.35C129.659 163.029 142.053 148.253 142.053 148.253L150.428 159.162C150.428 159.162 129.276 184.582 125.026 184.417C122.255 184.31 117.923 181.593 115.244 179.715C113.77 178.682 112.458 177.444 111.345 176.028L107.687 171.375C103.119 173.63 99.4231 176.515 96.866 180.224C96.866 180.224 95.6445 170.809 97.8362 166.533C100.027 162.256 104.397 154.896 104.397 154.896L104.88 154.753Z" fill="#004B24"/>
<path d="M97.5611 166.902C97.5667 166.905 97.5387 166.984 97.4778 167.133C97.4085 167.301 97.3182 167.518 97.2048 167.793C97.0158 168.391 96.7358 169.276 96.579 170.461C96.229 172.817 96.138 176.301 96.586 180.543L96.3368 180.494C97.3728 178.658 98.9352 176.892 100.869 175.328C102.796 173.749 105.046 172.302 107.572 171.077L107.687 171.021L107.774 171.122C109.248 172.838 110.808 174.626 112.458 176.434C114.103 178.243 115.871 180.064 117.979 181.53C118.967 182.217 120.021 182.79 121.121 183.191C121.672 183.386 122.235 183.548 122.798 183.645C123.364 183.733 123.934 183.754 124.496 183.708C126.77 183.499 128.705 182.196 130.293 180.823L130.28 180.835C136.142 174.585 141.174 169.219 144.76 165.396C146.541 163.515 147.963 162.015 148.958 160.966C149.438 160.468 149.815 160.077 150.088 159.795C150.208 159.674 150.305 159.576 150.384 159.498C150.452 159.432 150.489 159.401 150.492 159.404C150.496 159.408 150.467 159.446 150.406 159.518C150.333 159.602 150.242 159.706 150.131 159.835C149.868 160.126 149.505 160.53 149.042 161.044C148.065 162.11 146.668 163.633 144.917 165.542C141.355 169.388 136.356 174.785 130.534 181.07L130.528 181.077L130.521 181.083C129.705 181.788 128.824 182.472 127.823 183.012C126.833 183.561 125.712 183.958 124.528 184.066C123.936 184.116 123.335 184.094 122.74 184.003C122.145 183.901 121.568 183.735 120.998 183.533C119.862 183.119 118.78 182.531 117.772 181.829C115.625 180.336 113.84 178.492 112.194 176.677C110.542 174.859 108.986 173.068 107.514 171.344L107.716 171.389C105.226 172.586 102.977 174.019 101.067 175.568C99.1459 177.106 97.5996 178.835 96.5713 180.622L96.3627 180.985L96.3228 180.573C95.9049 176.299 96.0372 172.806 96.4341 170.437C96.6147 169.247 96.9206 168.358 97.1348 167.765C97.2629 167.475 97.3742 167.261 97.4449 167.115C97.5156 166.972 97.5555 166.9 97.5611 166.902Z" fill="#263238"/>
<g opacity="0.3">
<path d="M98.0776 178.237C97.7563 178.769 98.0363 180.009 98.5949 180.282C99.1535 180.555 99.8472 180.356 100.335 179.97C100.823 179.584 101.156 179.043 101.512 178.532C102.35 177.329 103.359 176.246 104.501 175.326C105.628 174.418 107.178 173.648 108.473 174.297C109.333 174.728 109.8 175.659 110.223 176.523C111.976 180.116 114.087 183.775 117.521 185.82C120.973 187.876 125.375 187.966 129.163 186.626C132.951 185.286 136.169 182.643 138.766 179.577C141.363 176.512 143.396 173.018 145.407 169.539C146.99 166.802 148.597 163.984 149.089 160.861C148.65 161.107 147.633 162.677 147.194 162.923C147.194 162.923 130.881 180.894 129.344 181.817C127.808 182.739 123.583 188.953 111.605 175.531L107.644 171.234C107.644 171.234 100.101 174.885 98.0776 178.237Z" fill="black"/>
</g>
<path d="M190.317 229.487L162.287 236.254L165.52 262.67L111.902 302.938C109.756 303.238 107.563 303.583 106.343 303.888C103.41 304.622 98.2317 311.977 96.7652 312.711L86.3163 320.776C86.3163 320.776 85.4 324.443 90.1656 323.709C94.9319 322.976 100.248 319.31 100.798 319.31C101.348 319.31 103.018 320.427 102.229 322.793C101.527 324.898 98.6545 332.115 98.6545 332.115L95.1104 338.626C95.1104 338.626 110.451 339.128 114.743 333.436C117.656 329.572 126.625 318.616 126.625 318.616C126.625 318.616 189.738 287.565 193.527 281.065C198.673 272.238 190.317 229.487 190.317 229.487Z" fill="#FFBE9D"/>
<path d="M177.408 274.051C177.33 274.047 177.563 272.929 177.282 271.165C177.021 269.424 176.096 267.002 174.08 265.171C172.057 263.348 169.553 262.669 167.796 262.582C166.013 262.478 164.925 262.821 164.912 262.744C164.906 262.725 165.169 262.626 165.665 262.515C166.16 262.401 166.895 262.305 167.808 262.324C169.611 262.346 172.22 263.004 174.325 264.9C176.421 266.806 177.336 269.336 177.538 271.128C177.648 272.033 177.625 272.775 177.562 273.279C177.501 273.783 177.428 274.055 177.408 274.051Z" fill="#EB996E"/>
<path d="M107.717 328.78C107.764 328.793 107.633 329.469 107.349 330.547C107.059 331.619 106.617 333.114 105.8 334.63C104.986 336.152 103.839 337.3 102.847 337.856C102.353 338.136 101.916 338.294 101.606 338.358C101.298 338.427 101.122 338.431 101.119 338.41C101.1 338.343 101.798 338.236 102.712 337.636C103.626 337.048 104.691 335.929 105.48 334.456C106.275 332.981 106.751 331.522 107.102 330.473C107.448 329.419 107.667 328.765 107.717 328.78Z" fill="#EB996E"/>
<path d="M115.152 326.338C115.196 326.354 115.009 327.012 114.611 328.043C114.213 329.073 113.59 330.47 112.777 331.949C111.962 333.427 111.115 334.701 110.457 335.588C109.799 336.476 109.344 336.986 109.306 336.958C109.264 336.925 109.646 336.361 110.246 335.442C110.846 334.523 111.651 333.239 112.459 331.774C113.264 330.309 113.919 328.942 114.374 327.944C114.829 326.944 115.102 326.319 115.152 326.338Z" fill="#EB996E"/>
<path d="M114.948 280.632C114.973 280.63 115.017 280.947 115.074 281.522C115.134 282.098 115.185 282.933 115.214 283.967C115.273 286.034 115.179 288.902 114.728 292.03C114.272 295.159 113.548 297.936 112.904 299.901C112.583 300.884 112.297 301.671 112.075 302.205C111.858 302.741 111.726 303.032 111.703 303.023C111.679 303.014 111.766 302.706 111.942 302.158C112.122 301.61 112.37 300.814 112.658 299.826C113.236 297.851 113.915 295.085 114.368 291.979C114.815 288.872 114.949 286.028 114.956 283.97C114.961 282.941 114.95 282.107 114.932 281.531C114.919 280.954 114.923 280.634 114.948 280.632Z" fill="#263238"/>
<path d="M99.7744 289.04C99.8248 289.024 100.145 289.872 100.661 291.243C101.176 292.614 101.897 294.504 102.742 296.57C103.589 298.637 104.399 300.49 104.994 301.829C105.587 303.168 105.954 303.997 105.906 304.021C105.864 304.043 105.414 303.253 104.76 301.939C104.105 300.625 103.253 298.782 102.404 296.709C101.556 294.636 100.871 292.725 100.417 291.329C99.9627 289.932 99.7289 289.054 99.7744 289.04Z" fill="#263238"/>
<path d="M95.7144 307.158C95.7172 307.171 95.5653 307.215 95.2727 307.289C94.9423 307.367 94.5167 307.468 93.9889 307.594C93.4317 307.727 92.7471 307.879 91.9442 308.014C91.1427 308.156 90.2334 308.343 89.2156 308.469C88.2013 308.616 87.0883 308.77 85.8864 308.871C84.688 309.009 83.4007 309.069 82.0469 309.149C79.3372 309.253 76.3517 309.237 73.229 309.01C70.107 308.761 67.153 308.324 64.4902 307.809C63.1644 307.524 61.9009 307.27 60.7368 306.952C59.5643 306.669 58.4877 306.348 57.507 306.049C56.52 305.771 55.6499 305.447 54.8792 305.186C54.1064 304.93 53.4526 304.677 52.922 304.46C52.4201 304.256 52.0141 304.092 51.6998 303.964C51.4219 303.847 51.2784 303.779 51.2833 303.768C51.2882 303.756 51.4408 303.8 51.7264 303.895C52.047 304.006 52.4593 304.149 52.971 304.326C53.5079 304.522 54.1673 304.755 54.9443 304.993C55.7192 305.235 56.5921 305.54 57.5798 305.802C58.5619 306.084 59.6378 306.389 60.8089 306.658C61.9709 306.962 63.2316 307.205 64.5532 307.479C67.2076 307.973 70.1483 308.397 73.2556 308.645C76.3629 308.871 79.3337 308.898 82.0315 308.812C83.3797 308.742 84.6621 308.694 85.857 308.569C87.0554 308.481 88.1649 308.343 89.1785 308.212C90.1949 308.104 91.1035 307.935 91.9064 307.813C92.71 307.696 93.3974 307.566 93.9581 307.454C94.4908 307.356 94.9206 307.277 95.2538 307.216C95.5541 307.167 95.7116 307.146 95.7144 307.158Z" fill="#263238"/>
<path d="M93.046 294.988C92.9977 295.076 91.5095 294.359 89.7217 293.386C87.9332 292.412 86.5234 291.552 86.571 291.464C86.6193 291.376 88.1075 292.092 89.896 293.065C91.6838 294.038 93.0943 294.899 93.046 294.988Z" fill="#263238"/>
<path d="M193.281 228.808C193.282 228.813 193.224 228.833 193.108 228.866C192.977 228.901 192.806 228.947 192.592 229.005C192.117 229.126 191.446 229.298 190.585 229.517C188.811 229.956 186.257 230.587 183.056 231.379C176.599 232.947 167.534 235.15 157.015 237.705L156.831 237.749L156.802 237.562C156.063 232.751 155.058 227.562 154.087 222.162C153.448 218.558 152.895 215.023 152.518 211.588C152.146 208.152 151.967 204.82 151.923 201.646C151.882 198.473 152.001 195.442 152.447 192.644C152.887 189.848 153.667 187.295 154.743 185.133C155.84 182.982 157.207 181.241 158.604 179.932C160.007 178.625 161.419 177.732 162.646 177.177C163.875 176.616 164.905 176.392 165.596 176.25C165.946 176.198 166.215 176.17 166.395 176.149C166.575 176.13 166.667 176.123 166.668 176.129C166.668 176.136 166.577 176.155 166.399 176.187C166.204 176.22 165.943 176.265 165.609 176.322C164.927 176.487 163.912 176.732 162.704 177.307C161.5 177.876 160.116 178.776 158.743 180.081C157.376 181.388 156.04 183.119 154.972 185.249C153.926 187.389 153.167 189.918 152.744 192.692C152.315 195.467 152.207 198.479 152.258 201.642C152.311 204.807 152.496 208.125 152.872 211.55C153.252 214.974 153.807 218.5 154.445 222.1C155.415 227.493 156.416 232.691 157.146 237.51L156.933 237.367C167.464 234.863 176.541 232.705 183.004 231.167C186.215 230.418 188.777 229.82 190.557 229.404C191.423 229.209 192.099 229.056 192.578 228.948C192.795 228.902 192.967 228.866 193.1 228.837C193.219 228.813 193.28 228.803 193.281 228.808Z" fill="#263238"/>
</svg>
