<svg width="350" height="350" viewBox="0 0 350 350" fill="none" xmlns="http://www.w3.org/2000/svg">
<path d="M278.257 324.58C259.948 317.332 251.554 297.811 247.833 279.356C247.211 276.275 246.112 273.134 246.929 270.107C247.747 267.082 250.704 264.444 253.746 265.083C256.269 265.613 257.884 268.018 259.671 269.9C262.049 272.405 265.136 274.212 268.463 275.046C270.648 275.594 273.202 275.64 274.872 274.126C277.163 272.046 276.61 268.33 275.87 265.295C274.49 259.638 273.112 253.982 271.732 248.326C270.992 245.292 270.248 242.19 270.508 239.082C270.769 235.973 272.222 232.798 274.921 231.302C277.621 229.806 281.592 230.625 282.908 233.455C283.457 234.632 283.509 235.978 283.893 237.219C284.276 238.461 285.195 239.717 286.477 239.784C287.775 239.853 288.786 238.703 289.484 237.598C291.894 233.785 293.084 229.326 294.141 224.923C295.198 220.519 296.175 216.036 298.227 212.014C300.28 207.992 303.588 204.405 307.882 203.126C312.178 201.847 317.452 203.433 319.566 207.446C321.686 211.469 320.217 216.409 318.319 220.523C315.504 226.626 311.809 232.31 307.387 237.339C306.591 238.246 305.726 239.228 305.627 240.44C305.448 242.623 307.845 244.18 310.003 244.371C312.448 244.588 314.85 243.77 317.286 243.487C319.722 243.204 322.538 243.641 323.966 245.668C325.947 248.479 324.122 252.352 322.071 255.091C317.966 260.576 312.92 265.336 307.226 269.1C305.184 270.449 303.001 271.724 301.571 273.722C300.141 275.722 299.701 278.711 301.297 280.593C302.896 282.478 305.854 282.5 308.093 281.509C310.331 280.52 312.126 278.751 314.159 277.379C317.961 274.812 323.424 273.82 326.955 276.795C329.276 278.751 330.215 282.019 329.997 285.058C329.779 288.098 328.553 290.962 327.171 293.663C322.339 303.106 315.269 311.462 306.376 317.12C297.484 322.778 288.721 325.817 278.257 324.58Z" fill="#F5F5F5"/>
<path d="M280.26 311.982C280.763 302.104 282.213 291.321 284.116 280.096C284.602 277.292 285.083 274.52 285.556 271.79C286.035 269.065 286.509 266.362 287.137 263.747C288.37 258.511 289.955 253.572 291.605 248.93C293.254 244.285 294.988 239.938 296.639 235.885C298.3 231.834 299.918 228.087 301.54 224.736C304.761 218.016 307.996 212.915 310.358 209.504C311.536 207.793 312.493 206.497 313.154 205.626C313.473 205.211 313.723 204.886 313.911 204.641C314.085 204.422 314.177 204.312 314.185 204.318C314.193 204.324 314.116 204.446 313.959 204.677C313.782 204.931 313.547 205.267 313.247 205.696C312.618 206.589 311.69 207.906 310.542 209.633C308.24 213.079 305.071 218.196 301.906 224.918C300.312 228.271 298.719 232.019 297.081 236.072C295.45 240.129 293.735 244.476 292.103 249.114C290.47 253.749 288.904 258.675 287.686 263.883C287.066 266.484 286.597 269.163 286.119 271.895C285.647 274.624 285.168 277.394 284.682 280.197C282.781 291.414 281.32 302.168 280.789 312.015" fill="#E0E0E0"/>
<path d="M287.291 263.687C287.255 263.702 287.042 263.265 286.687 262.461C286.328 261.659 285.848 260.482 285.275 259.018C284.128 256.094 282.681 252.001 281.102 247.484C279.524 242.963 278.022 238.903 276.834 236.004C276.243 234.553 275.754 233.384 275.404 232.58C275.06 231.774 274.886 231.319 274.921 231.3C274.957 231.283 275.199 231.704 275.606 232.483C276.018 233.26 276.566 234.408 277.206 235.843C278.495 238.711 280.063 242.766 281.643 247.291C283.189 251.754 284.587 255.791 285.655 258.875C286.147 260.266 286.562 261.437 286.895 262.378C287.185 263.206 287.329 263.672 287.291 263.687Z" fill="#E0E0E0"/>
<path d="M324.637 247.115C324.647 247.153 324.106 247.35 323.123 247.671C322.141 247.998 320.718 248.463 318.979 249.096C315.492 250.33 310.734 252.206 305.576 254.504C300.42 256.813 295.842 259.101 292.58 260.851C290.941 261.714 289.635 262.449 288.728 262.951C287.824 263.457 287.314 263.721 287.292 263.687C287.271 263.652 287.743 263.323 288.613 262.756C289.487 262.193 290.766 261.402 292.384 260.489C295.605 258.641 300.17 256.287 305.341 253.971C310.514 251.667 315.314 249.845 318.846 248.706C320.608 248.122 322.054 247.714 323.059 247.453C324.065 247.199 324.625 247.075 324.637 247.115Z" fill="#E0E0E0"/>
<path d="M280.57 311.149C280.554 311.161 280.423 311.019 280.189 310.736C279.917 310.397 279.586 309.982 279.185 309.481C278.319 308.387 277.105 306.771 275.633 304.756C272.686 300.727 268.79 295.032 264.576 288.691C260.359 282.347 256.522 276.625 253.663 272.54C252.267 270.556 251.117 268.924 250.263 267.711C249.895 267.184 249.593 266.749 249.344 266.391C249.14 266.086 249.04 265.92 249.055 265.907C249.071 265.896 249.201 266.038 249.437 266.321C249.708 266.66 250.039 267.073 250.44 267.575C251.306 268.669 252.519 270.284 253.991 272.3C256.938 276.329 260.835 282.024 265.05 288.368C269.265 294.71 273.103 300.432 275.962 304.517C277.359 306.501 278.508 308.134 279.362 309.345C279.729 309.872 280.031 310.309 280.28 310.665C280.486 310.971 280.586 311.137 280.57 311.149Z" fill="#E0E0E0"/>
<path d="M328.528 282.095C328.537 282.112 328.377 282.227 328.063 282.43C327.69 282.662 327.231 282.947 326.675 283.293C325.389 284.075 323.654 285.13 321.542 286.413C317.208 289.05 311.265 292.759 304.702 296.868C298.138 300.978 292.154 304.637 287.764 307.184C285.57 308.458 283.784 309.471 282.535 310.146C281.957 310.454 281.48 310.707 281.093 310.915C280.76 311.085 280.58 311.165 280.57 311.148C280.561 311.13 280.722 311.015 281.035 310.812C281.408 310.581 281.867 310.297 282.423 309.95C283.709 309.168 285.444 308.113 287.556 306.829C291.889 304.193 297.835 300.483 304.398 296.373C310.96 292.264 316.944 288.606 321.334 286.058C323.528 284.784 325.314 283.771 326.563 283.096C327.141 282.788 327.617 282.534 328.005 282.327C328.338 282.158 328.518 282.078 328.528 282.095Z" fill="#E0E0E0"/>
<path d="M42.7794 111.398L33.4255 159.55L104.865 173.428L114.219 125.275L42.7794 111.398Z" fill="#EBEBEB"/>
<path d="M114.324 125.897C114.335 125.917 114.063 126.092 113.534 126.409C112.947 126.751 112.174 127.202 111.207 127.765C109.108 128.954 106.178 130.614 102.58 132.651C95.2056 136.755 85.1109 142.372 73.9305 148.594L73.6946 148.725L73.5189 148.519C73.3852 148.361 73.2396 148.191 73.0947 148.021C64.7318 138.137 57.1634 129.193 51.6299 122.653C48.9426 119.428 46.7516 116.799 45.1829 114.917C44.4654 114.033 43.8907 113.327 43.456 112.792C43.0668 112.301 42.8708 112.036 42.8883 112.022C42.9058 112.007 43.1354 112.243 43.5575 112.706C44.0167 113.221 44.6222 113.9 45.3789 114.75C46.9861 116.599 49.2317 119.182 51.9855 122.35C57.5568 128.857 65.177 137.757 73.5973 147.592C73.7429 147.763 73.8878 147.934 74.0215 148.091L73.6106 148.016C84.8288 141.861 94.9564 136.305 102.355 132.245C105.995 130.283 108.961 128.685 111.083 127.541C112.075 127.023 112.868 126.608 113.47 126.293C114.019 126.014 114.313 125.877 114.324 125.897Z" fill="#E0E0E0"/>
<path d="M33.5356 160.173C33.4208 160.03 40.075 154.474 48.3959 147.762C56.7196 141.049 63.5579 135.723 63.672 135.865C63.7861 136.007 57.134 141.562 48.8103 148.276C40.4894 154.988 33.6497 160.314 33.5356 160.173Z" fill="#E0E0E0"/>
<path d="M87.5343 139.875C87.6967 139.793 91.7322 147.376 96.5468 156.81C101.363 166.248 105.134 173.964 104.972 174.048C104.81 174.13 100.775 166.549 95.9588 157.111C91.1442 147.675 87.3719 139.958 87.5343 139.875Z" fill="#E0E0E0"/>
<path d="M143.006 101.742L97.844 106.472L94.127 75.0961L139.288 70.3662L143.006 101.742Z" fill="#F5F5F5"/>
<path d="M139.477 70.728C139.488 70.7385 139.359 70.8967 139.106 71.19C138.823 71.5099 138.449 71.9306 137.983 72.457C136.964 73.5784 135.541 75.1443 133.794 77.0672C130.199 80.9634 125.278 86.296 119.827 92.2026L119.713 92.3272L119.568 92.2327C119.458 92.1606 119.339 92.0829 119.22 92.0045C112.341 87.4741 106.116 83.3749 101.564 80.3775C99.3447 78.8914 97.5345 77.6804 96.2395 76.8131C95.6424 76.4029 95.1643 76.0746 94.8024 75.8261C94.4762 75.5965 94.3089 75.4698 94.3159 75.4579C94.3236 75.4453 94.5056 75.5482 94.8458 75.7547C95.2182 75.9864 95.7089 76.2923 96.3235 76.6745C97.636 77.5138 99.4686 78.687 101.718 80.1255C106.285 83.0956 112.533 87.1584 119.436 91.6482C119.555 91.7266 119.675 91.8043 119.785 91.8764L119.526 91.9065C125.012 86.0342 129.964 80.7324 133.582 76.8593C135.369 74.9756 136.825 73.4412 137.867 72.3429C138.357 71.8396 138.749 71.4364 139.046 71.1312C139.319 70.8568 139.467 70.7182 139.477 70.728Z" fill="#E0E0E0"/>
<path d="M98.0336 106.834C97.9377 106.768 100.824 102.111 104.48 96.4344C108.137 90.756 111.177 86.2074 111.273 86.2732C111.368 86.339 108.482 90.9947 104.826 96.6738C101.17 102.351 98.1288 106.901 98.0336 106.834Z" fill="#E0E0E0"/>
<path d="M126.238 84.3089C126.319 84.2277 130.181 88.1456 134.862 93.0589C139.545 97.9736 143.275 102.022 143.195 102.104C143.114 102.185 139.253 98.2683 134.57 93.3536C129.888 88.4403 126.158 84.3908 126.238 84.3089Z" fill="#E0E0E0"/>
<path d="M80.4293 63.7154L55.4722 46.4338L67.2602 28.9072L92.2173 46.1888L80.4293 63.7154Z" fill="#F5F5F5"/>
<path d="M92.1555 46.455C92.1562 46.4648 92.0225 46.4893 91.7663 46.5278C91.4835 46.5663 91.1104 46.6174 90.6449 46.6811C89.6397 46.8057 88.2355 46.9793 86.5121 47.1928C82.9918 47.6016 78.173 48.1602 72.8355 48.7797L72.7228 48.793L72.6906 48.6824C72.6661 48.5984 72.6395 48.5067 72.6136 48.415C71.1002 43.1209 69.731 38.3294 68.7293 34.8266C68.2512 33.106 67.8613 31.7032 67.5827 30.6987C67.4588 30.2304 67.3594 29.8559 67.2845 29.5724C67.2194 29.3141 67.1893 29.1769 67.1984 29.1734C67.2075 29.1706 67.2551 29.3015 67.3377 29.5549C67.4252 29.8349 67.5414 30.2038 67.6856 30.6651C67.9852 31.6626 68.4038 33.0563 68.9169 34.765C69.9382 38.2615 71.3354 43.0432 72.8789 48.3282C72.9055 48.4199 72.9321 48.5109 72.9559 48.5956L72.8117 48.4983C78.152 47.9117 82.9736 47.3818 86.4953 46.9954C88.2222 46.819 89.6285 46.6755 90.6358 46.5726C91.1034 46.5306 91.4779 46.497 91.7614 46.4718C92.019 46.4508 92.1548 46.4452 92.1555 46.455Z" fill="#E0E0E0"/>
<path d="M55.4098 46.7C55.3902 46.6251 58.8832 45.5219 63.2099 44.2367C67.538 42.9508 71.0617 41.9701 71.0813 42.045C71.1009 42.1199 67.6094 43.2231 63.2806 44.5083C58.9539 45.7942 55.4294 46.7749 55.4098 46.7Z" fill="#E0E0E0"/>
<path d="M79.5254 47.5708C79.6017 47.5645 79.8523 51.2339 80.0847 55.765C80.3171 60.2975 80.4438 63.976 80.3675 63.9816C80.2912 63.9872 80.0406 60.3192 79.8082 55.7867C79.5758 51.2556 79.4491 47.5771 79.5254 47.5708Z" fill="#E0E0E0"/>
<path d="M281.025 86.7083C281.025 69.5765 265.542 56.0602 247.805 59.3894C236.649 61.4831 227.759 70.5943 225.804 81.7761C224.583 88.7649 226.026 95.34 229.213 100.766H229.198L229.277 100.871C230.344 102.67 231.681 103.956 233.031 105.844L249.187 127.246C251.198 129.909 255.197 129.909 257.208 127.246L273.095 106.198C273.095 106.198 276.06 102.661 277.136 100.843L277.194 100.767H277.182C279.61 96.6371 281.025 91.8435 281.025 86.7083ZM253.199 98.8239C246.436 98.8239 240.953 93.3408 240.953 86.5781C240.953 79.8147 246.436 74.3323 253.199 74.3323C259.962 74.3323 265.445 79.8147 265.445 86.5781C265.445 93.3408 259.962 98.8239 253.199 98.8239Z" fill="#F5F5F5"/>
<path d="M302.303 134.463C302.303 125.224 293.954 117.936 284.389 119.731C278.373 120.86 273.579 125.773 272.525 131.803C271.867 135.571 272.644 139.117 274.364 142.043H274.355L274.398 142.1C274.973 143.069 275.694 143.763 276.422 144.781L285.134 156.322C286.219 157.759 288.375 157.758 289.46 156.322L298.027 144.972C298.027 144.972 299.626 143.065 300.206 142.084L300.237 142.043H300.231C301.54 139.817 302.303 137.232 302.303 134.463ZM287.297 140.996C283.65 140.996 280.694 138.039 280.694 134.392C280.694 130.745 283.65 127.788 287.297 127.788C290.944 127.788 293.901 130.745 293.901 134.392C293.901 138.04 290.944 140.996 287.297 140.996Z" fill="#EBEBEB"/>
<path d="M329.958 324.642C329.958 324.743 260.576 324.824 175.008 324.824C89.4097 324.824 20.0417 324.743 20.0417 324.642C20.0417 324.541 89.4097 324.46 175.008 324.46C260.576 324.459 329.958 324.541 329.958 324.642Z" fill="#263238"/>
<path d="M132.545 83.2562L137.15 148.499C137.902 159.151 146.763 167.408 157.441 167.408C169.198 167.408 178.511 157.467 177.739 145.736C177.331 139.526 176.962 134.441 176.962 134.441C176.962 134.441 192.756 131.985 192.951 116.193C193.064 107.072 191.491 86.3747 190.142 70.5176C189.23 59.7978 180.256 51.5693 169.498 51.5693H159.959C143.53 52.529 131.132 66.8594 132.545 83.2562Z" fill="#FFBE9D"/>
<path d="M176.988 134.213C176.988 134.213 167.007 135.025 156.4 128.361C156.4 128.361 161.267 139.727 177.025 138.304L176.988 134.213Z" fill="#FFBE9D"/>
<path d="M185.231 89.5929C185.273 90.7836 184.3 91.8014 183.056 91.8686C181.816 91.9351 180.774 91.0265 180.732 89.8351C180.69 88.6444 181.663 87.6252 182.904 87.5587C184.147 87.4908 185.189 88.4022 185.231 89.5929Z" fill="#263238"/>
<path d="M187.421 86.3534C187.141 86.6474 185.433 85.3832 183.006 85.3895C180.582 85.3608 178.801 86.6096 178.538 86.3121C178.408 86.1805 178.693 85.6499 179.469 85.085C180.232 84.5229 181.535 83.9762 183.046 83.9825C184.558 83.9909 185.83 84.5474 186.561 85.1165C187.305 85.6898 187.558 86.2218 187.421 86.3534Z" fill="#263238"/>
<path d="M161.552 89.5931C161.594 90.7838 160.621 91.8016 159.378 91.8681C158.138 91.9346 157.096 91.026 157.054 89.8346C157.012 88.6439 157.985 87.6247 159.226 87.5582C160.468 87.491 161.51 88.4024 161.552 89.5931Z" fill="#263238"/>
<path d="M163.566 86.8063C163.286 87.1003 161.576 85.8361 159.151 85.8431C156.727 85.8144 154.946 87.0625 154.682 86.7657C154.553 86.6341 154.835 86.1035 155.614 85.5393C156.377 84.9765 157.679 84.4305 159.19 84.4361C160.702 84.4445 161.973 85.001 162.705 85.5708C163.449 86.1427 163.703 86.6747 163.566 86.8063Z" fill="#263238"/>
<path d="M172.374 104.804C172.362 104.666 173.871 104.406 176.315 104.093C176.936 104.029 177.522 103.906 177.626 103.482C177.772 103.034 177.512 102.367 177.212 101.646C176.629 100.146 176.02 98.5741 175.38 96.927C172.834 90.2084 170.993 84.684 171.263 84.5839C171.535 84.4838 173.819 89.8479 176.363 96.5665C176.976 98.2234 177.561 99.8026 178.119 101.314C178.352 102.018 178.756 102.817 178.44 103.746C178.273 104.208 177.818 104.545 177.421 104.652C177.024 104.773 176.675 104.78 176.369 104.798C173.909 104.931 172.383 104.942 172.374 104.804Z" fill="#263238"/>
<path d="M165.232 106.483C165.626 106.46 165.631 109.094 167.886 110.963C170.137 112.839 172.945 112.543 172.965 112.911C173.002 113.077 172.339 113.422 171.155 113.455C169.992 113.495 168.295 113.121 166.915 111.978C165.54 110.832 164.948 109.302 164.859 108.221C164.758 107.12 165.051 106.467 165.232 106.483Z" fill="#263238"/>
<path d="M164.193 77.2962C163.953 77.9563 161.531 77.6434 158.684 77.9871C155.829 78.2727 153.533 79.1064 153.155 78.5149C152.986 78.2314 153.387 77.6112 154.316 76.9721C155.236 76.3344 156.704 75.7282 158.413 75.5378C160.122 75.3516 161.687 75.6225 162.724 76.0446C163.769 76.4646 164.296 76.9833 164.193 77.2962Z" fill="#263238"/>
<path d="M186.528 79.3305C186.101 79.8814 184.43 79.3094 182.419 79.2828C180.41 79.1855 178.707 79.6532 178.315 79.0771C178.144 78.7971 178.411 78.2454 179.155 77.7232C179.888 77.2031 181.114 76.7783 182.496 76.8203C183.877 76.8644 185.074 77.3635 185.774 77.9284C186.484 78.494 186.717 79.0617 186.528 79.3305Z" fill="#263238"/>
<path d="M137.869 95.1095C137.6 94.9926 127.019 91.9 127.364 102.696C127.709 113.493 138.476 110.92 138.485 110.609C138.494 110.299 137.869 95.1095 137.869 95.1095Z" fill="#FFBE9D"/>
<path d="M135.057 106.624C135.008 106.591 134.873 106.762 134.559 106.918C134.254 107.07 133.724 107.184 133.154 106.991C132 106.609 130.982 104.829 130.867 102.885C130.808 101.903 130.984 100.961 131.308 100.175C131.611 99.3744 132.105 98.8067 132.676 98.6863C133.243 98.5358 133.661 98.8669 133.802 99.1665C133.956 99.464 133.895 99.6817 133.953 99.6985C133.984 99.7244 134.179 99.5102 134.078 99.0671C134.026 98.8543 133.892 98.6037 133.632 98.4042C133.366 98.2019 132.982 98.1067 132.583 98.162C131.753 98.246 131.028 99.0363 130.672 99.8987C130.271 100.767 130.05 101.827 130.116 102.928C130.255 105.101 131.434 107.102 133.009 107.503C133.774 107.676 134.4 107.427 134.719 107.163C135.046 106.886 135.095 106.643 135.057 106.624Z" fill="#FFBE9D"/>
<path d="M131.863 94.7433C133.51 94.345 136.358 95.8647 137.059 97.4068C137.762 98.9489 137.916 100.695 138.616 102.238C139.316 103.781 140.898 105.176 142.547 104.786C143.684 104.517 144.498 103.451 144.797 102.322C145.097 101.193 144.976 99.9996 144.829 98.8404C144.193 93.7983 143.133 88.7982 142.93 83.7204C142.727 78.6426 143.45 73.3667 146.117 69.0407C148.783 64.7147 153.681 61.5332 158.746 61.9413C162.102 62.2115 165.179 63.9615 168.512 64.4284C172.465 64.9821 176.644 63.587 179.471 60.7702C179.834 60.4097 181.519 59.2981 181.519 59.2981C181.519 59.0363 181.272 56.7816 180.383 55.9598C173.77 49.8439 161.853 48.1366 153.117 50.3353C144.382 52.534 136.193 58.7017 132.435 66.8875C128.677 75.0733 129.792 86.4595 131.863 94.7433Z" fill="#263238"/>
<path d="M190.318 68.0811C190.318 68.0811 148.888 54.7517 130.967 90.5952C130.967 90.5952 128.288 81.6254 128.288 76.8171C128.288 73.6055 130.21 54.4801 149.889 48.4643C149.889 48.4643 179.536 37.1488 190.318 68.0811Z" fill="#004B24"/>
<path d="M154.72 68.9748C156.184 71.3401 158.797 72.9557 161.568 73.2077C164.338 73.4597 167.2 72.3418 169.066 70.2796C169.885 72.3208 172.08 73.7236 174.276 73.6088C176.472 73.494 178.509 71.8693 179.108 69.7532C180.312 70.9208 181.565 72.1199 183.139 72.696C184.713 73.2728 186.708 73.0544 187.742 71.7349C188.795 70.3902 188.489 68.3427 187.456 66.9826C186.423 65.6225 184.832 64.8133 183.257 64.1553C178.336 62.1001 172.909 61.0697 167.624 61.7851C162.339 62.5005 157.219 65.0632 153.917 69.2499" fill="#263238"/>
<g opacity="0.4">
<path d="M190.318 68.0811C190.318 68.0811 185.603 62.4727 177.144 62.0989C164.923 61.5592 142.049 68.4304 130.967 90.5952C130.967 90.5952 128.288 81.6254 128.288 76.8171C128.288 73.6055 130.21 54.4801 149.889 48.4643C149.889 48.4643 179.536 37.1488 190.318 68.0811Z" fill="black"/>
</g>
<path d="M132.697 86.3996C138.841 77.0007 147.31 69.23 156.834 63.2807C166.357 57.3314 182.104 51.4472 192.957 48.5667C196.216 47.7022 199.612 46.9462 202.934 47.5202C206.256 48.0942 209.507 50.3062 210.332 53.5745C211.364 57.666 204.103 63.9793 200.691 66.4622C197.279 68.9444 190.318 72.5865 190.318 72.5865C190.318 72.5865 190.411 64.9978 178.266 63.4326C161.744 61.3039 132.697 86.3996 132.697 86.3996Z" fill="#004B24"/>
<path d="M166.675 55.441C166.675 55.441 172.645 52.1384 178.639 51.3691C177.408 50.4675 176.751 50.0342 175.388 49.4175C172.321 50.0272 169.213 50.8056 166.064 52.5528L166.675 55.441Z" fill="#E0E0E0"/>
<path d="M200.298 148.022L187.158 145.127L181.812 143.79L177.358 136.886C177.358 136.886 175.235 149.226 167.285 155.87C165.12 157.678 162.217 158.327 159.456 157.748C157.654 157.37 155.541 156.903 153.973 156.486C153.64 156.397 153.272 156.278 152.881 156.138C147.097 154.062 142.37 149.819 139.352 144.466C137.583 141.328 136.093 138.108 136.602 136.887L130.365 149.804L93.6174 166.73L72.7532 217.677L113.189 229.638L114.447 271.617L106.831 324.563L221.234 324.642L217.178 206.837" fill="#004B24"/>
<path d="M170.723 193.625C170.722 193.641 170.472 193.646 170.003 193.64C169.49 193.628 168.811 193.612 167.969 193.592C166.168 193.528 163.675 193.44 160.696 193.333L160.553 193.329L160.547 193.185C160.424 190.028 160.278 186.291 160.121 182.292C159.93 176.534 159.758 171.325 159.632 167.496C159.587 165.638 159.551 164.118 159.525 163.01C159.521 162.512 159.517 162.108 159.515 161.79C159.516 161.511 159.523 161.364 159.536 161.364C159.548 161.363 159.566 161.509 159.588 161.787C159.608 162.105 159.635 162.508 159.667 163.005C159.722 164.111 159.797 165.629 159.89 167.485C160.044 171.313 160.254 176.521 160.486 182.277C160.622 186.277 160.75 190.015 160.858 193.172L160.71 193.024C163.687 193.184 166.177 193.317 167.977 193.413C168.818 193.469 169.495 193.513 170.008 193.546C170.475 193.581 170.724 193.608 170.723 193.625Z" fill="#263238"/>
<path d="M164.487 176.608C164.48 176.594 164.658 176.475 165.032 176.431C165.4 176.384 165.978 176.458 166.541 176.849C166.816 177.045 167.091 177.318 167.275 177.684C167.459 178.049 167.544 178.501 167.474 178.956C167.349 179.854 166.664 180.797 165.605 181.065C164.542 181.311 163.51 180.812 162.944 180.115C162.345 179.403 162.282 178.494 162.442 177.853C162.598 177.193 162.933 176.739 163.198 176.485C163.467 176.227 163.657 176.143 163.667 176.16C163.685 176.185 163.526 176.307 163.302 176.58C163.083 176.851 162.805 177.296 162.694 177.906C162.58 178.504 162.667 179.294 163.201 179.901C163.709 180.503 164.628 180.922 165.519 180.712C166.403 180.493 167.021 179.677 167.142 178.905C167.29 178.111 166.872 177.418 166.387 177.056C165.901 176.68 165.383 176.571 165.039 176.572C164.69 176.571 164.498 176.639 164.487 176.608Z" fill="#263238"/>
<path d="M163.262 161.816C163.253 161.803 163.434 161.652 163.838 161.554C164.234 161.456 164.877 161.456 165.546 161.806C165.875 161.981 166.212 162.242 166.463 162.618C166.712 162.991 166.867 163.476 166.842 163.983C166.811 164.979 166.151 166.101 164.996 166.465C163.832 166.797 162.667 166.239 162.07 165.446C161.757 165.049 161.598 164.571 161.563 164.127C161.532 163.68 161.622 163.267 161.759 162.921C162.041 162.224 162.509 161.798 162.858 161.59C163.213 161.379 163.443 161.346 163.447 161.363C163.459 161.393 163.248 161.472 162.938 161.707C162.632 161.938 162.229 162.363 162 163.012C161.769 163.644 161.763 164.544 162.335 165.24C162.87 165.927 163.914 166.401 164.891 166.116C165.862 165.817 166.467 164.835 166.507 163.968C166.575 163.069 166.008 162.357 165.422 162.031C164.83 161.686 164.242 161.643 163.864 161.694C163.478 161.743 163.277 161.847 163.262 161.816Z" fill="#263238"/>
<path d="M159.535 218.317C159.533 218.311 159.592 218.284 159.711 218.236C159.849 218.183 160.021 218.117 160.236 218.033C160.704 217.875 161.37 217.58 162.22 217.186C163.893 216.357 166.237 214.931 168.657 212.609C171.097 210.312 173.604 207.178 176.028 203.466C178.463 199.756 180.898 195.521 183.21 190.951C187.837 181.802 191.113 173.095 193.408 166.785C194.555 163.628 195.444 161.057 196.067 159.284C196.371 158.418 196.612 157.735 196.785 157.243C196.865 157.027 196.929 156.854 196.98 156.715C197.026 156.597 197.053 156.538 197.058 156.54C197.065 156.542 197.05 156.605 197.015 156.727C196.973 156.869 196.92 157.046 196.854 157.267C196.697 157.765 196.477 158.455 196.2 159.331C195.619 161.118 194.767 163.701 193.65 166.873C191.416 173.209 188.173 181.945 183.534 191.117C181.217 195.698 178.766 199.941 176.308 203.651C173.859 207.367 171.314 210.508 168.833 212.798C166.372 215.115 163.983 216.521 162.281 217.315C161.416 217.692 160.738 217.967 160.26 218.103C160.04 218.172 159.863 218.228 159.723 218.272C159.6 218.308 159.537 218.324 159.535 218.317Z" fill="#263238"/>
<path d="M183.637 204.338C183.936 204.338 190.901 203.859 190.901 203.859C190.901 203.859 188.026 208.942 185.031 210.839H178.937L183.637 204.338Z" fill="#FAFAFA"/>
<path d="M158.317 233.709C158.31 233.698 158.447 233.594 158.715 233.407C159.013 233.201 159.403 232.931 159.889 232.595C160.906 231.886 162.367 230.847 164.125 229.498C167.654 226.817 172.284 222.809 177.265 218.23C179.764 215.946 182.157 213.786 184.226 211.716C186.301 209.651 188.036 207.665 189.358 205.892C190.688 204.126 191.594 202.576 192.167 201.48C192.471 200.941 192.66 200.499 192.811 200.209C192.957 199.917 193.038 199.765 193.05 199.77C193.062 199.775 193.003 199.936 192.878 200.238C192.749 200.539 192.579 200.992 192.294 201.545C191.757 202.665 190.878 204.247 189.566 206.046C188.262 207.85 186.534 209.868 184.464 211.954C182.399 214.046 180.009 216.216 177.511 218.499C172.528 223.079 167.857 227.069 164.28 229.704C162.499 231.03 161.011 232.039 159.968 232.714C159.448 233.052 159.034 233.299 158.755 233.469C158.474 233.636 158.324 233.719 158.317 233.709Z" fill="#263238"/>
<path d="M138.69 311.475C138.685 311.472 138.715 311.416 138.777 311.311C138.853 311.19 138.947 311.038 139.063 310.85C139.32 310.447 139.712 309.862 140.237 309.123C141.29 307.646 142.913 305.578 145.055 303.145C149.365 298.303 155.405 291.704 162.06 284.396C168.732 277.116 174.769 270.528 179.163 265.734C181.35 263.374 183.126 261.457 184.377 260.106C184.983 259.464 185.461 258.956 185.807 258.589C185.961 258.431 186.086 258.303 186.187 258.2C186.274 258.114 186.32 258.072 186.325 258.076C186.33 258.081 186.292 258.131 186.215 258.226C186.122 258.335 186.005 258.471 185.863 258.639C185.528 259.017 185.067 259.54 184.482 260.202C183.252 261.572 181.504 263.515 179.354 265.907C174.98 270.72 168.97 277.334 162.33 284.641C155.668 291.924 149.637 298.517 145.249 303.315C143.086 305.723 141.439 307.759 140.352 309.206C139.811 309.931 139.401 310.502 139.125 310.89C138.996 311.069 138.893 311.214 138.809 311.331C138.736 311.43 138.696 311.479 138.69 311.475Z" fill="#263238"/>
<path d="M199.387 147.667C199.989 148.569 213.517 150.073 216.824 153.379C220.13 156.686 253.199 181.939 253.199 181.939L229.643 213.709L214.422 210.358L199.387 147.667Z" fill="#004B24"/>
<path opacity="0.4" d="M249.217 178.89L222.778 212.198L229.643 213.709L253.199 181.939L249.217 178.89Z" fill="black"/>
<path d="M206.595 180.739C206.57 180.745 206.474 180.351 206.321 179.633C206.239 179.274 206.152 178.833 206.089 178.315C206.022 177.798 205.918 177.211 205.884 176.554C205.83 175.899 205.776 175.181 205.781 174.406C205.751 173.633 205.803 172.807 205.841 171.938C205.971 170.204 206.238 168.304 206.714 166.351C207.209 164.403 207.863 162.599 208.562 161.006C208.936 160.22 209.277 159.467 209.666 158.798C210.025 158.112 210.408 157.502 210.764 156.949C211.101 156.385 211.468 155.914 211.77 155.49C212.069 155.061 212.352 154.713 212.592 154.435C213.064 153.872 213.334 153.569 213.352 153.586C213.372 153.602 213.14 153.935 212.704 154.521C212.482 154.812 212.217 155.17 211.936 155.607C211.652 156.04 211.303 156.517 210.982 157.086C210.643 157.643 210.276 158.255 209.933 158.941C209.558 159.61 209.232 160.361 208.87 161.142C208.195 162.726 207.558 164.513 207.068 166.44C206.597 168.371 206.323 170.248 206.177 171.963C206.13 172.822 206.067 173.639 206.084 174.406C206.066 175.172 206.104 175.885 206.142 176.536C206.159 177.188 206.244 177.773 206.292 178.289C206.334 178.807 206.401 179.248 206.461 179.609C206.57 180.331 206.619 180.734 206.595 180.739Z" fill="#263238"/>
<path d="M217.179 206.837C217.085 206.876 215.776 203.984 214.254 200.379C212.731 196.772 211.572 193.817 211.665 193.778C211.758 193.739 213.068 196.63 214.59 200.237C216.112 203.842 217.271 206.798 217.179 206.837Z" fill="#263238"/>
<path d="M113.189 183.776C113.133 183.806 112.567 182.765 111.497 181.188C110.429 179.611 108.807 177.526 106.725 175.5C104.636 173.478 102.503 171.918 100.895 170.899C99.2867 169.876 98.2297 169.342 98.2584 169.285C98.2696 169.263 98.5426 169.377 99.0284 169.605C99.5163 169.827 100.203 170.192 101.03 170.679C102.686 171.65 104.868 173.194 106.979 175.238C109.085 177.286 110.692 179.421 111.712 181.046C112.224 181.858 112.609 182.534 112.846 183.015C113.089 183.494 113.212 183.764 113.189 183.776Z" fill="#263238"/>
<path opacity="0.4" d="M72.7539 217.677L74.3793 213.709L119.116 225.888L117.342 230.865L72.7539 217.677Z" fill="black"/>
<path d="M192.163 201.989H209.193V209.02L187.407 208.881C187.407 208.881 190.774 204.802 192.163 201.989Z" fill="#FAFAFA"/>
<g opacity="0.2">
<path d="M131.42 151.341C132.036 156.803 132.705 162.434 135.405 167.222C138.106 172.01 143.394 175.782 148.832 174.979C152.461 174.443 155.534 172.016 158.005 169.305C160.476 166.593 162.544 163.511 165.241 161.024C166.933 162.718 168.643 164.427 170.671 165.697C172.7 166.967 175.104 167.779 177.481 167.493C179.857 167.207 181.167 166.267 181.917 163.994C179.38 164.781 177.985 164.664 175.463 164.174C172.796 163.656 170.207 162.54 167.822 160.662C166.337 159.493 165.803 157.738 163.916 157.846C162.173 157.947 160.808 159.327 159.66 160.641C157.903 162.652 155.679 164.837 153.588 166.496C151.496 168.155 149.455 169.276 146.786 169.217C142.38 169.121 138.774 165.662 136.343 161.987C134.107 158.608 132.445 154.85 131.449 150.922" fill="black"/>
</g>
<path d="M182.965 144.529C182.978 144.528 183.003 144.662 183.04 144.919C183.073 145.177 183.13 145.556 183.176 146.047C183.28 147.028 183.386 148.452 183.427 150.217C183.519 153.741 183.253 158.646 182.119 163.921C182.111 163.96 182.103 163.998 182.096 164.033L182.073 164.144L181.964 164.171C179.316 164.829 176.664 164.596 174.422 163.973C172.166 163.351 170.27 162.377 168.836 161.355C167.4 160.333 166.38 159.315 165.783 158.534C165.455 158.167 165.274 157.825 165.122 157.617C164.98 157.402 164.911 157.285 164.921 157.278C165.001 157.198 166.079 159.184 168.982 161.143C170.414 162.123 172.291 163.058 174.509 163.649C176.714 164.244 179.306 164.456 181.871 163.819L181.74 163.957C181.747 163.922 181.754 163.884 181.763 163.847C182.89 158.604 183.196 153.732 183.17 150.222C183.162 148.465 183.095 147.042 183.035 146.06C183.007 145.602 182.985 145.228 182.967 144.929C182.954 144.667 182.953 144.531 182.965 144.529Z" fill="#263238"/>
<path d="M161.704 158.341C161.714 158.348 161.637 158.492 161.48 158.761C161.32 159.028 161.065 159.412 160.703 159.88C159.986 160.823 158.817 162.082 157.261 163.511C156.484 164.226 155.611 164.986 154.666 165.789C154.191 166.189 153.713 166.608 153.185 167.023C152.652 167.427 152.074 167.803 151.452 168.139C150.211 168.808 148.774 169.298 147.23 169.422C145.689 169.557 144.039 169.216 142.612 168.401C141.176 167.597 140.016 166.476 138.991 165.351C137.974 164.214 137.064 163.057 136.266 161.906C134.663 159.606 133.516 157.345 132.7 155.395C131.894 153.438 131.413 151.791 131.13 150.644C130.985 150.071 130.895 149.621 130.839 149.315C130.782 149.01 130.757 148.849 130.77 148.846C130.782 148.843 130.831 149 130.911 149.299C130.99 149.6 131.102 150.043 131.268 150.607C131.591 151.737 132.107 153.363 132.937 155.293C133.778 157.217 134.938 159.446 136.541 161.712C137.339 162.848 138.247 163.99 139.256 165.11C140.27 166.218 141.408 167.309 142.79 168.082C144.162 168.864 145.721 169.188 147.204 169.065C148.687 168.95 150.083 168.484 151.295 167.842C151.901 167.519 152.468 167.156 152.991 166.767C153.504 166.37 153.994 165.95 154.472 165.556C155.425 164.764 156.304 164.019 157.088 163.318C158.66 161.92 159.848 160.697 160.593 159.79C160.969 159.338 161.239 158.971 161.419 158.719C161.594 158.466 161.692 158.335 161.704 158.341Z" fill="#263238"/>
<path d="M146.625 238.768L152.018 230.904C152.018 230.904 155.728 218.005 155.224 216.207C154.721 214.408 153.081 207.68 153.469 207.601C153.856 207.522 157.895 206.017 160.084 211.41C161.448 214.768 161.896 219.19 162.04 222.048C162.116 223.552 163.505 224.628 164.979 224.327C168.711 223.562 174.919 222.393 176.393 222.745C178.535 223.259 180.452 225.991 180.638 226.903C180.825 227.816 179.346 229.884 179.346 229.884C179.346 229.884 181.167 230.816 181.726 232.223C181.802 232.413 181.867 232.601 181.923 232.782C182.277 233.929 181.982 235.177 181.173 236.064L180.602 236.69C180.602 236.69 182.872 237.312 183.154 238.614C183.435 239.914 183.076 241.482 183.076 241.482L180.945 243.684C180.945 243.684 181.94 244.567 182.05 245.767C182.16 246.967 178.963 249.93 178.963 249.93L165.236 254.85L159.791 256.239L146.625 238.768Z" fill="#FFBE9D"/>
<path d="M179.387 229.895C179.402 229.998 177.26 230.387 174.632 230.924C172.003 231.457 169.879 231.937 169.853 231.836C169.84 231.788 170.356 231.606 171.206 231.367C172.055 231.127 173.239 230.836 174.559 230.567C175.878 230.299 177.082 230.104 177.957 229.993C178.833 229.88 179.379 229.846 179.387 229.895Z" fill="#FFBE9D"/>
<path d="M180.642 236.683C180.671 236.78 179.045 237.361 177.01 237.981C174.975 238.602 173.302 239.028 173.272 238.931C173.243 238.835 174.869 238.254 176.904 237.633C178.939 237.013 180.613 236.587 180.642 236.683Z" fill="#FFBE9D"/>
<path d="M181.461 243.383C181.502 243.475 179.774 244.319 177.603 245.269C175.432 246.218 173.64 246.913 173.599 246.82C173.559 246.728 175.286 245.884 177.457 244.935C179.628 243.985 181.42 243.29 181.461 243.383Z" fill="#FFBE9D"/>
<path d="M114.995 287.393L165.477 253.526L152.742 230.455L106.665 254.151L111.892 229.253L80.6232 220.003L72.8217 262.604C71.6142 281.559 86.8161 296.864 105.146 291.886C108.651 290.935 111.978 289.417 114.995 287.393Z" fill="#FFBE9D"/>
<path d="M99.9965 267.52C99.9741 267.524 99.9041 267.301 99.8229 266.885C99.741 266.47 99.6633 265.859 99.6479 265.1C99.6087 263.589 99.9048 261.444 100.949 259.351C101.993 257.258 103.529 255.73 104.759 254.853C105.375 254.409 105.909 254.103 106.291 253.919C106.672 253.735 106.893 253.656 106.903 253.676C106.933 253.735 106.086 254.135 104.915 255.059C103.748 255.972 102.288 257.483 101.275 259.514C100.262 261.545 99.9328 263.62 99.9055 265.101C99.8719 266.591 100.062 267.509 99.9965 267.52Z" fill="#FFBE9D"/>
<path d="M229.644 213.709C229.959 213.279 265.598 234.988 265.598 234.988L277.019 287.035L293.46 293.068C293.46 293.068 298.594 235.15 294.685 226.132C290.777 217.113 251.183 184.683 251.183 184.683L229.644 213.709Z" fill="#FFBE9D"/>
<path d="M273.381 230.995C273.456 231.041 272.299 232.625 270.29 233.906C268.29 235.204 266.37 235.6 266.36 235.512C266.324 235.404 268.15 234.863 270.094 233.6C272.047 232.356 273.297 230.918 273.381 230.995Z" fill="#FFBE9D"/>
<path d="M186.785 213.823L189.573 263.772L246.526 259.923L244.803 222.739L236.512 211.578L186.785 213.823Z" fill="#263238"/>
<path d="M173.835 264.884C174.007 265.844 178.842 311.086 178.842 311.086L263.604 305.19L277.95 303.271L271.335 261.139L261.202 258.714L173.835 264.884Z" fill="#004B24"/>
<path opacity="0.4" d="M261.202 258.715L173.835 264.884C174.007 265.844 178.842 311.085 178.842 311.085L267.089 304.948L261.202 258.715Z" fill="black"/>
<path d="M237.988 260.501L189.573 263.772L186.785 213.823L236.512 211.578L237.988 260.501Z" fill="#455A64"/>
<path d="M204.835 213.008L205.855 228.401L208.445 226.919L209.884 228.401L211.665 226.919L214.422 228.401V212.574L204.835 213.008Z" fill="#263238"/>
<path d="M225.073 261.547L221.759 224.058L254.122 232.977L257.242 258.852L225.073 261.547Z" fill="#004B24"/>
<path d="M254.122 232.977C254.129 232.984 254.061 233.076 253.921 233.246C253.757 233.439 253.551 233.683 253.296 233.983C252.713 234.649 251.91 235.565 250.916 236.7C248.837 239.031 245.963 242.254 242.646 245.974L242.52 246.115L242.388 245.978C241.007 244.529 239.52 242.972 237.983 241.361C233.493 236.616 229.431 232.322 226.455 229.177C225.014 227.629 223.839 226.366 222.992 225.456C222.609 225.033 222.301 224.693 222.064 224.432C221.855 224.194 221.749 224.066 221.758 224.057C221.767 224.049 221.89 224.16 222.117 224.38C222.367 224.63 222.691 224.954 223.095 225.358C223.962 226.248 225.167 227.484 226.642 228.999C229.638 232.125 233.728 236.393 238.247 241.11C239.78 242.723 241.263 244.284 242.642 245.735L242.385 245.739C245.74 242.054 248.648 238.86 250.751 236.551C251.777 235.445 252.605 234.552 253.207 233.903C253.479 233.619 253.7 233.388 253.875 233.205C254.03 233.049 254.114 232.97 254.122 232.977Z" fill="#263238"/>
<path d="M235.977 239.924C236.065 239.972 233.759 244.397 230.825 249.806C227.891 255.217 225.441 259.564 225.352 259.516C225.264 259.468 227.57 255.044 230.504 249.633C233.438 244.223 235.889 239.875 235.977 239.924Z" fill="#263238"/>
<path d="M256.49 258.852C256.404 258.904 254.16 255.32 251.48 250.848C248.799 246.375 246.696 242.708 246.782 242.656C246.868 242.605 249.111 246.188 251.792 250.661C254.473 255.132 256.576 258.8 256.49 258.852Z" fill="#263238"/>
<path d="M242.449 260.085L240.338 236.21L260.947 241.891L262.934 258.368L242.449 260.085Z" fill="#004B24"/>
<path opacity="0.4" d="M242.449 260.085L240.338 236.21L260.947 241.891L262.934 258.368L242.449 260.085Z" fill="white"/>
<path d="M260.947 241.891C260.963 241.905 260.783 242.135 260.438 242.545C260.049 242.996 259.547 243.579 258.936 244.288C257.592 245.804 255.776 247.853 253.687 250.21L253.561 250.351L253.429 250.213C252.547 249.291 251.6 248.299 250.622 247.275C247.745 244.254 245.155 241.505 243.294 239.503C242.401 238.53 241.663 237.727 241.104 237.118C240.593 236.55 240.318 236.227 240.337 236.21C240.355 236.192 240.664 236.482 241.207 237.02C241.787 237.608 242.554 238.385 243.481 239.325C245.39 241.281 248.009 244.002 250.886 247.023C251.861 248.051 252.804 249.045 253.683 249.97L253.425 249.974C255.553 247.651 257.403 245.632 258.77 244.139C259.412 243.458 259.94 242.898 260.348 242.465C260.722 242.08 260.932 241.877 260.947 241.891Z" fill="#263238"/>
<path d="M249.393 246.314C249.481 246.362 248.038 249.195 246.17 252.639C244.301 256.085 242.715 258.839 242.626 258.791C242.538 258.743 243.981 255.911 245.849 252.466C247.717 249.02 249.304 246.266 249.393 246.314Z" fill="#263238"/>
<path d="M262.455 258.368C262.369 258.42 260.915 256.153 259.208 253.305C257.501 250.457 256.187 248.106 256.274 248.055C256.36 248.003 257.814 250.269 259.521 253.118C261.227 255.965 262.541 258.317 262.455 258.368Z" fill="#263238"/>
<path d="M255.585 240.882V242.803L258.595 243.152L258.752 241.686L255.585 240.882Z" fill="white"/>
<path d="M244.962 231.145C244.962 231.35 244.962 233.952 244.962 233.952L250.643 234.889L250.956 232.752L244.962 231.145Z" fill="white"/>
<path d="M222.778 275.51L222.498 261.547L211.173 262.313L212.386 276.492L222.778 275.51Z" fill="#004B24"/>
<path d="M259.655 282.849L240.655 284.65L242.249 301.458L261.249 299.657L259.655 282.849Z" fill="#FAFAFA"/>
<path d="M261.253 299.672C261.247 299.667 261.231 299.557 261.206 299.35C261.179 299.12 261.145 298.819 261.102 298.441C261.014 297.623 260.892 296.473 260.737 295.02C260.437 292.068 260.014 287.894 259.506 282.878L259.674 283.018C254.2 283.545 247.672 284.173 240.677 284.847C240.639 284.889 240.986 284.472 240.84 284.651L240.841 284.655L240.841 284.664L240.843 284.682L240.846 284.718L240.853 284.789L240.867 284.932L240.894 285.218L240.948 285.787C240.984 286.166 241.019 286.544 241.055 286.92C241.126 287.672 241.196 288.417 241.266 289.156C241.404 290.632 241.54 292.079 241.672 293.49C241.934 296.309 242.182 298.984 242.412 301.458L242.237 301.313C247.872 300.813 252.598 300.393 255.948 300.095C257.601 299.956 258.913 299.846 259.843 299.768C260.277 299.734 260.621 299.708 260.882 299.688C261.121 299.672 261.247 299.666 261.253 299.672C261.26 299.678 261.147 299.694 260.922 299.722C260.67 299.75 260.336 299.788 259.916 299.836C258.997 299.933 257.7 300.07 256.066 300.243C252.695 300.583 247.939 301.061 242.267 301.633L242.108 301.649L242.092 301.488C241.853 299.014 241.594 296.341 241.321 293.522C241.186 292.111 241.047 290.665 240.906 289.189C240.836 288.452 240.764 287.706 240.693 286.954C240.657 286.578 240.622 286.201 240.585 285.822L240.531 285.252L240.504 284.966L240.491 284.824L240.484 284.752L240.48 284.716L240.479 284.698L240.478 284.689L240.477 284.685C240.33 284.861 240.677 284.44 240.643 284.483C247.641 283.83 254.169 283.221 259.646 282.71L259.8 282.695L259.814 282.848C260.261 287.91 260.633 292.123 260.896 295.103C261.015 296.544 261.11 297.685 261.177 298.496C261.204 298.863 261.226 299.155 261.243 299.379C261.256 299.577 261.26 299.677 261.253 299.672Z" fill="#263238"/>
<path d="M258.176 286.891C258.186 286.991 254.865 287.423 250.758 287.855C246.649 288.288 243.311 288.557 243.301 288.457C243.29 288.357 246.611 287.925 250.719 287.493C254.826 287.06 258.165 286.791 258.176 286.891Z" fill="#263238"/>
<path d="M258.066 289.746C258.075 289.793 257.297 289.997 256.023 290.251C254.75 290.505 252.978 290.8 251.01 291.032C249.041 291.262 247.249 291.386 245.951 291.433C244.653 291.48 243.849 291.462 243.847 291.414C243.845 291.361 244.645 291.289 245.935 291.176C247.225 291.063 249.006 290.899 250.967 290.67C252.928 290.44 254.698 290.186 255.979 289.998C257.261 289.809 258.055 289.694 258.066 289.746Z" fill="#263238"/>
<path d="M258.867 295.99C258.876 296.037 258.099 296.242 256.825 296.496C255.552 296.75 253.78 297.045 251.812 297.276C249.842 297.507 248.051 297.631 246.753 297.677C245.455 297.725 244.651 297.706 244.649 297.659C244.647 297.606 245.447 297.534 246.737 297.421C248.027 297.308 249.808 297.144 251.769 296.914C253.73 296.683 255.5 296.431 256.781 296.242C258.063 296.053 258.857 295.939 258.867 295.99Z" fill="#263238"/>
<path d="M257.909 292.791C257.923 292.89 254.822 293.417 250.982 293.965C247.141 294.514 244.017 294.879 244.003 294.779C243.989 294.679 247.09 294.154 250.93 293.604C254.771 293.055 257.895 292.691 257.909 292.791Z" fill="#263238"/>
<path d="M274.687 318.821C274.687 318.821 290.331 308.471 291.535 303.176C292.738 297.881 293.46 293.068 293.46 293.068L276.746 286.145L278.405 292.167C278.405 292.167 272.411 295.731 271.8 300.047C271.391 302.927 263.645 307.849 263.645 307.849C262.329 306.26 260.327 305.404 258.269 305.55L251.759 306.01L256.155 315.933L274.687 318.821Z" fill="#FFBE9D"/>
<path d="M280.8 304.633C280.808 304.654 280.55 304.78 280.06 304.934C279.573 305.096 278.845 305.256 277.988 305.538C277.122 305.802 276.212 306.36 275.272 307.115C274.34 307.864 273.246 308.704 271.929 309.238C269.304 310.368 266.608 310.293 264.833 309.833C264.39 309.717 263.971 309.618 263.647 309.393C263.316 309.187 263.144 308.804 263.214 308.526C263.258 308.248 263.429 308.073 263.565 308.021C263.705 307.97 263.782 308.001 263.78 308.009C263.78 308.026 263.705 308.023 263.598 308.087C263.495 308.149 263.372 308.308 263.355 308.544C263.32 308.779 263.462 309.049 263.758 309.223C264.045 309.402 264.45 309.485 264.891 309.582C266.639 309.968 269.246 309.997 271.786 308.903C273.064 308.384 274.11 307.593 275.068 306.85C276.02 306.105 277.009 305.531 277.91 305.293C278.8 305.037 279.528 304.918 280.023 304.798C280.52 304.686 280.791 304.607 280.8 304.633Z" fill="#FFBE9D"/>
<path d="M269.963 312.662C269.932 312.714 269.159 312.255 267.828 311.706C266.5 311.157 264.585 310.561 262.401 310.355C261.854 310.296 261.316 310.28 260.798 310.268L260.699 310.266L260.648 310.186C259.678 308.663 258.577 307.507 257.737 306.75C256.895 305.99 256.332 305.597 256.362 305.555C256.374 305.537 256.528 305.615 256.796 305.782C257.063 305.95 257.441 306.213 257.888 306.575C258.781 307.294 259.941 308.444 260.948 309.993L260.799 309.911C261.328 309.918 261.877 309.932 262.436 309.993C264.666 310.203 266.611 310.853 267.931 311.47C268.595 311.774 269.105 312.074 269.452 312.285C269.795 312.507 269.976 312.641 269.963 312.662Z" fill="#FFBE9D"/>
<path d="M274.189 309.818C274.221 309.92 273.13 310.314 271.9 311.018C270.666 311.714 269.768 312.449 269.697 312.369C269.63 312.304 270.444 311.422 271.72 310.701C272.993 309.974 274.167 309.727 274.189 309.818Z" fill="#FFBE9D"/>
<path d="M282.663 291.21C282.649 291.319 281.578 291.187 280.326 291.523C279.07 291.841 278.2 292.48 278.134 292.391C278.065 292.331 278.888 291.514 280.234 291.17C281.576 290.813 282.694 291.122 282.663 291.21Z" fill="#FFBE9D"/>
<path d="M54.4362 285.231C56.4984 287.68 59.976 286.498 61.4817 284.756C62.9874 283.014 63.4774 280.641 63.9149 278.381C64.9138 273.216 65.9029 267.804 64.3671 262.773C63.9079 261.269 63.1981 259.791 62.0193 258.75C60.8405 257.709 59.1234 257.181 57.645 257.716C55.895 258.35 54.9381 260.205 54.2822 261.946C52.3544 267.066 51.5872 272.62 52.0555 278.071C52.2746 280.616 52.8129 283.259 54.4362 285.231Z" fill="#004B24"/>
<g opacity="0.2">
<path d="M54.4362 285.231C56.4984 287.68 59.976 286.498 61.4817 284.756C62.9874 283.014 63.4774 280.641 63.9149 278.381C64.9138 273.216 65.9029 267.804 64.3671 262.773C63.9079 261.269 63.1981 259.791 62.0193 258.75C60.8405 257.709 59.1234 257.181 57.645 257.716C55.895 258.35 54.9381 260.205 54.2822 261.946C52.3544 267.066 51.5872 272.62 52.0555 278.071C52.2746 280.616 52.8129 283.259 54.4362 285.231Z" fill="black"/>
</g>
<path d="M62.4708 297.847C65.324 296.037 68.8282 295.521 72.1973 295.774C74.0075 295.91 75.915 296.277 77.2485 297.509C78.582 298.74 79.023 301.078 77.7322 302.354C76.9636 303.114 75.8156 303.321 74.739 303.405C72.1364 303.606 69.2118 303.407 67.2749 305.156C66.1703 306.154 65.5137 307.708 64.1361 308.273C62.7886 308.826 61.1513 308.148 60.305 306.963C59.4587 305.778 59.2942 304.216 59.5112 302.776C59.5112 302.776 59.5966 299.671 62.4708 297.847Z" fill="#004B24"/>
<path d="M49.7491 289.428C51.5243 286.894 51.5936 283.423 50.4463 280.549C49.299 277.676 47.0779 275.342 44.5943 273.497C41.6823 271.334 38.344 269.747 34.8286 268.853C33.4447 268.501 31.9964 268.255 30.5929 268.517C29.1894 268.779 27.8286 269.63 27.2812 270.948C26.4713 272.897 27.6088 275.072 28.7862 276.824C30.8596 279.911 33.1766 282.835 35.7085 285.558C37.7455 287.749 40.0443 289.885 42.9227 290.7C45.8011 291.516 48.6809 291.132 49.9843 289.07" fill="#004B24"/>
<path d="M57.8334 324.646C57.8677 324.646 57.8859 324.217 57.8929 323.444C57.8999 322.573 57.9083 321.479 57.9188 320.177C57.9482 318.8 58.0021 317.161 58.2233 315.36C58.4431 313.565 58.8638 311.602 59.449 309.598C60.0629 307.602 60.8644 305.767 61.8598 304.268C62.8461 302.763 64.048 301.63 65.2114 300.935C66.3692 300.228 67.4339 299.887 68.1752 299.712C68.9256 299.567 69.3442 299.469 69.3414 299.436C69.3386 299.402 68.913 299.434 68.1374 299.525C67.3709 299.645 66.2572 299.941 65.0322 300.636C63.8023 301.319 62.5227 302.475 61.4846 304.013C60.4367 305.547 59.603 307.424 58.9786 309.454C58.3829 311.494 57.9727 313.475 57.7732 315.307C57.5744 317.136 57.5562 318.791 57.5716 320.175C57.5919 321.559 57.6521 322.677 57.7025 323.449C57.7529 324.221 57.7998 324.647 57.8334 324.646Z" fill="#263238"/>
<path d="M57.8339 322.133C57.8507 322.131 57.8444 321.94 57.8164 321.579C57.7786 321.165 57.7303 320.645 57.6715 320.005C57.5455 318.639 57.3698 316.66 57.2242 314.212C56.9085 309.316 56.7265 302.535 56.877 295.051C57.0331 287.563 57.5217 280.797 58.0831 275.924C58.2098 274.704 58.3484 273.603 58.4856 272.639C58.6123 271.673 58.7201 270.84 58.8349 270.164C58.9287 269.528 59.005 269.011 59.0659 268.6C59.1135 268.241 59.1303 268.051 59.1135 268.047C59.0967 268.045 59.047 268.228 58.9679 268.581C58.8832 268.988 58.7768 269.501 58.6459 270.131C58.5017 270.803 58.3666 271.633 58.2133 272.598C58.0502 273.561 57.8864 274.662 57.738 275.882C57.087 280.757 56.5417 287.537 56.3856 295.04C56.2351 302.541 56.4724 309.336 56.8777 314.236C57.0674 316.688 57.2963 318.665 57.4811 320.027C57.5777 320.664 57.6554 321.182 57.7177 321.593C57.7772 321.95 57.8171 322.136 57.8339 322.133Z" fill="#263238"/>
<path d="M56.7007 309.086C56.7343 309.082 56.6769 308.498 56.5425 307.442C56.3878 306.391 56.1057 304.875 55.6402 303.03C55.1579 301.19 54.5188 299.013 53.6102 296.665C52.7352 294.306 51.5963 291.775 50.2082 289.223C47.4782 284.081 44.0272 279.985 41.1236 277.518C40.4348 276.855 39.6928 276.399 39.0915 275.941C38.7814 275.724 38.5056 275.504 38.2291 275.334C37.9526 275.178 37.695 275.033 37.4563 274.898C36.5267 274.377 36.008 274.104 35.9919 274.135C35.9226 274.249 38.0716 275.267 40.894 277.779C43.7052 280.286 47.068 284.359 49.7756 289.458C51.1518 291.989 52.2949 294.494 53.1867 296.828C54.1121 299.15 54.7813 301.303 55.3035 303.12C55.8089 304.943 56.1407 306.438 56.3528 307.475C56.5453 308.516 56.6671 309.091 56.7007 309.086Z" fill="#263238"/>
</svg>
