<svg width="25" height="26" viewBox="0 0 25 26" fill="none" xmlns="http://www.w3.org/2000/svg">
<rect x="11.1816" y="11.8281" width="12.657" height="12.657" rx="2" fill="#008080"/>
<rect x="0.869141" y="1.51562" width="12.657" height="12.657" rx="2" fill="#008080"/>
<path d="M22.3454 25.3543H12.7843C11.4952 25.3543 10.4209 24.28 10.4209 22.9909V13.4298C10.4209 12.1407 11.4952 11.0664 12.7843 11.0664H22.3454C23.6345 11.0664 24.7088 12.1407 24.7088 13.4298V22.9909C24.7088 24.3875 23.6345 25.3543 22.3454 25.3543ZM12.7843 12.2481C12.0323 12.2481 11.4952 12.7853 11.4952 13.5372V23.0983C11.4952 23.8503 12.0323 24.3875 12.7843 24.3875H22.3454C23.0974 24.3875 23.6345 23.8503 23.6345 23.0983V13.5372C23.6345 12.7853 23.0974 12.2481 22.3454 12.2481H12.7843Z" fill="#008080"/>
<path d="M11.0651 14.826H2.36341C1.07428 14.826 0 13.7517 0 12.4626V3.00892C0 1.71979 1.07428 0.645508 2.36341 0.645508H11.9245C13.2136 0.645508 14.2879 1.71979 14.2879 3.00892V11.7106C14.2879 12.0329 14.0731 12.2477 13.7508 12.2477H12.8914C12.1394 12.2477 11.6022 12.7849 11.6022 13.5369V14.3963C11.6022 14.6111 11.2799 14.826 11.0651 14.826ZM2.36341 1.71979C1.61142 1.71979 1.07428 2.25693 1.07428 3.00892V12.57C1.07428 13.322 1.61142 13.8591 2.36341 13.8591H10.5279V13.5369C10.5279 12.2477 11.6022 11.1734 12.8914 11.1734H13.2136V3.00892C13.2136 2.25693 12.6765 1.71979 11.9245 1.71979H2.36341Z" fill="#008080"/>
<path d="M20.1963 22.3452C19.9814 22.3452 19.7666 22.2378 19.6591 22.0229L17.5106 16.3292L15.362 22.0229C15.2546 22.3452 14.9323 22.4526 14.7174 22.3452C14.5026 22.2378 14.3952 21.9155 14.5026 21.5932L17.0809 14.5029C17.1883 14.0732 17.9403 14.0732 18.0477 14.5029L20.626 21.5932C20.7334 21.9155 20.626 22.1303 20.3037 22.2378C20.4111 22.3452 20.3037 22.3452 20.1963 22.3452Z" fill="white"/>
<path d="M19.1218 20.3028H16.1138C15.7915 20.3028 15.5767 20.0879 15.5767 19.7657C15.5767 19.4434 15.7915 19.2285 16.1138 19.2285H19.1218C19.4441 19.2285 19.6589 19.4434 19.6589 19.7657C19.6589 20.0879 19.4441 20.3028 19.1218 20.3028Z" fill="white"/>
<path d="M3.65335 12.2465C3.33107 12.2465 3.11621 12.0316 3.11621 11.7093C3.11621 11.387 3.33107 11.1722 3.65335 11.1722C6.33905 11.1722 8.48761 9.02362 8.48761 6.33792C8.48761 6.01564 8.70246 5.80078 9.02475 5.80078C9.34703 5.80078 9.56189 6.01564 9.56189 6.33792C9.66932 9.56076 6.98362 12.2465 3.65335 12.2465Z" fill="white"/>
<path d="M10.5282 12.2465C7.30533 12.2465 4.61963 9.56076 4.61963 6.33792C4.61963 6.01564 4.83448 5.80078 5.15677 5.80078C5.47905 5.80078 5.69391 6.01564 5.69391 6.33792C5.69391 9.02362 7.84247 11.1722 10.5282 11.1722C10.8504 11.1722 11.0653 11.387 11.0653 11.7093C11.0653 12.0316 10.8504 12.2465 10.5282 12.2465Z" fill="white"/>
<path d="M10.5287 6.87701H3.65335C3.33107 6.87701 3.11621 6.55473 3.11621 6.33987C3.11621 6.12502 3.33107 5.80273 3.65335 5.80273H10.5287C10.851 5.80273 11.0659 6.01759 11.0659 6.33987C11.0659 6.66216 10.851 6.87701 10.5287 6.87701Z" fill="white"/>
<path d="M7.08987 6.87716C6.76759 6.87716 6.55273 6.55488 6.55273 6.34002V3.76175C6.55273 3.43947 6.76759 3.22461 7.08987 3.22461C7.41216 3.22461 7.62701 3.43947 7.62701 3.76175V6.23259C7.62701 6.55488 7.41216 6.87716 7.08987 6.87716Z" fill="white"/>
<path d="M24.1714 9.23974C23.8491 9.23974 23.6342 9.02489 23.6342 8.7026C23.6342 4.8352 20.5188 1.71979 16.6514 1.71979C16.3291 1.71979 16.1143 1.50493 16.1143 1.18265C16.1143 0.860364 16.3291 0.645508 16.6514 0.645508C21.1634 0.645508 24.7085 4.29806 24.7085 8.7026C24.7085 9.02489 24.4936 9.23974 24.1714 9.23974Z" fill="#008080"/>
<path d="M24.1711 9.45416H21.8076C21.4854 9.45416 21.2705 9.23931 21.2705 8.91702C21.2705 8.59474 21.4854 8.37988 21.8076 8.37988H24.1711C24.4933 8.37988 24.7082 8.59474 24.7082 8.91702C24.7082 9.23931 24.4933 9.45416 24.1711 9.45416Z" fill="#008080"/>
<path d="M8.0571 25.355C3.54512 25.355 0 21.7024 0 17.2979C0 16.9756 0.214856 16.7607 0.53714 16.7607C0.859424 16.7607 1.07428 16.9756 1.07428 17.2979C1.07428 21.1653 4.18969 24.2807 8.0571 24.2807C8.37938 24.2807 8.59424 24.4956 8.59424 24.8178C8.59424 25.1401 8.37938 25.355 8.0571 25.355Z" fill="#008080"/>
<path d="M2.79313 17.6182H0.53714C0.214856 17.6182 0 17.4034 0 17.0811C0 16.7588 0.214856 16.5439 0.53714 16.5439H2.79313C3.11541 16.5439 3.33027 16.7588 3.33027 17.0811C3.33027 17.4034 3.11541 17.6182 2.79313 17.6182Z" fill="#008080"/>
</svg>
