<svg width="82" height="22" viewBox="0 0 82 22" fill="none" xmlns="http://www.w3.org/2000/svg">
<path d="M30.6767 17.9466C31.6483 17.9466 31.9625 17.8271 31.9625 17.2739C31.9625 16.7806 31.783 15.9433 31.2298 15.9433H26.8943L31.5588 9.11109C31.6483 8.99158 31.6932 8.79721 31.6932 8.57284C31.6932 7.97484 31.4093 7.18268 31.1401 7.18268H24.5471C23.8894 7.18268 23.7699 8.0497 23.7699 8.46821C23.7699 9.05134 24.1435 9.20084 25.2946 9.20084H28.7183L23.8894 16.0628C23.7699 16.1974 23.725 16.4516 23.725 16.7057C23.725 17.2739 23.9491 17.9466 24.1884 17.9466H30.6767ZM36.6865 18.0961C38.2115 18.0961 39.3029 17.8271 39.8112 17.5578C40.0504 17.4234 40.14 17.2888 40.14 17.0496C40.14 16.7506 40.0204 15.5546 39.6766 15.5546C39.6019 15.5546 39.4373 15.6294 39.1983 15.7041C38.7796 15.8387 38.0769 16.0331 37.135 16.0331C35.4159 16.0331 34.8776 15.3453 34.7132 14.5232C34.8776 14.6427 35.0869 14.7622 35.341 14.837C35.67 14.9417 36.0588 14.9714 36.4473 14.9714C38.5852 14.9714 40.0353 14.2688 40.0353 11.9816C40.0353 10.0381 38.9591 8.8272 36.4473 8.8272C32.979 8.8272 32.1717 11.1295 32.1717 13.4766C32.1717 15.4799 32.7846 18.0961 36.6865 18.0961ZM36.3427 10.8602C37.0453 10.8602 37.5687 11.1592 37.5687 11.9068C37.5687 12.6543 37.0304 13.1028 36.0288 13.1028C35.5354 13.1028 35.0571 12.9981 34.6833 12.8186C34.803 11.6377 35.2364 10.8602 36.3427 10.8602ZM40.8726 9.44009V17.513C40.8726 17.9915 41.8891 18.0512 42.3078 18.0512C43.3393 18.0512 43.3392 17.5429 43.3392 16.1674V14.6278C43.3392 12.9384 44.3409 11.0846 45.791 11.0846C46.3742 11.0846 46.7629 10.7107 46.7629 9.48496C46.7629 9.18596 46.748 8.8272 46.0752 8.8272C44.4306 8.8272 43.6234 9.87349 43.2049 10.8154C43.1749 9.44009 43.0254 8.96159 42.1583 8.96159C41.6799 8.96159 40.8726 8.99159 40.8726 9.44009ZM46.748 13.4615C46.748 15.7789 47.7197 18.0961 50.949 18.0961C54.1631 18.0961 55.1797 15.7789 55.1797 13.4615C55.1797 11.1295 54.1631 8.8272 50.949 8.8272C47.7197 8.8272 46.748 11.1295 46.748 13.4615ZM50.949 10.92C52.2496 10.92 52.7279 12.176 52.7279 13.4766C52.7279 14.7324 52.2496 16.0031 50.949 16.0031C49.6781 16.0031 49.1998 14.7324 49.1998 13.4766C49.1998 12.176 49.6781 10.92 50.949 10.92ZM65.3458 17.9466C66.3174 17.9466 66.6313 17.8271 66.6313 17.2739C66.6313 16.7806 66.452 15.9433 65.8989 15.9433H61.5634L66.2277 9.11109C66.3174 8.99158 66.3623 8.79721 66.3623 8.57284C66.3623 7.97484 66.0782 7.18268 65.8092 7.18268H59.2162C58.5584 7.18268 58.4389 8.0497 58.4389 8.46821C58.4389 9.05134 58.8126 9.20084 59.9637 9.20084H63.3874L58.5584 16.0628C58.4389 16.1974 58.3941 16.4516 58.3941 16.7057C58.3941 17.2739 58.6182 17.9466 58.8574 17.9466H65.3458ZM71.3556 18.0961C72.8806 18.0961 73.9718 17.8271 74.4803 17.5578C74.7193 17.4234 74.809 17.2888 74.809 17.0496C74.809 16.7506 74.6895 15.5546 74.3456 15.5546C74.2708 15.5546 74.1064 15.6294 73.8671 15.7041C73.4486 15.8387 72.746 16.0331 71.8041 16.0331C70.085 16.0331 69.5467 15.3453 69.3823 14.5232C69.5467 14.6427 69.756 14.7622 70.0101 14.837C70.3391 14.9417 70.7276 14.9714 71.1164 14.9714C73.2543 14.9714 74.7044 14.2688 74.7044 11.9816C74.7044 10.0381 73.6279 8.8272 71.1164 8.8272C67.6481 8.8272 66.8408 11.1295 66.8408 13.4766C66.8408 15.4799 67.4537 18.0961 71.3556 18.0961ZM71.0117 10.8602C71.7144 10.8602 72.2377 11.1592 72.2377 11.9068C72.2377 12.6543 71.6995 13.1028 70.6978 13.1028C70.2045 13.1028 69.726 12.9981 69.3523 12.8186C69.4718 11.6377 69.9055 10.8602 71.0117 10.8602ZM79.0848 18.0961C80.1462 18.0961 81.0284 17.9766 81.5366 17.7373C81.8356 17.6027 82 17.4234 82 17.1691C82 16.8701 81.9254 15.6743 81.4617 15.6743C81.372 15.6743 81.3274 15.7041 81.1179 15.7789C80.8189 15.8835 79.937 16.0031 79.7575 16.0031C78.5317 16.0031 77.7093 15.2555 77.7093 13.4766C77.7093 11.7424 78.5615 10.9051 79.8921 10.9051C80.3704 10.9051 80.8788 11.0246 81.1479 11.0695C81.2076 11.0695 81.2376 11.0846 81.2674 11.0846C81.7159 11.0846 81.8056 9.91836 81.8056 9.58959C81.8056 9.23083 81.6861 9.1262 81.4917 9.05134C81.073 8.90184 80.2509 8.8272 79.6229 8.8272C77.2159 8.8272 75.1678 9.87349 75.1678 13.4018C75.1678 17.1393 77.3954 18.0961 79.0848 18.0961ZM18.6731 13.3629C18.6536 13.0414 18.633 12.6994 18.6112 12.3358C18.5698 11.6448 17.774 11.2797 17.2231 11.6989L17.2163 11.7041C16.2925 12.4084 15.2831 13.1222 14.2237 13.818C10.9546 15.9651 7.70586 17.6038 5.74402 18.0949C5.69937 18.1066 5.65427 18.1117 5.60963 18.1117C5.36282 18.1117 5.13754 17.9445 5.07481 17.6936C5.00109 17.3983 5.18058 17.0988 5.47615 17.0244C7.32558 16.5615 10.4457 14.9792 13.6177 12.8953C14.8808 12.0661 16.0773 11.206 17.1361 10.3696C17.3578 10.1945 17.5734 10.0205 17.7827 9.84784L17.7893 9.84235C18.1916 9.51061 18.4109 9.00692 18.3793 8.48653C18.3502 8.00414 18.3198 7.49863 18.2877 6.96839C18.2763 6.77676 18.2646 6.58216 18.2527 6.38412C18.241 6.19203 18.2106 6.00476 18.1634 5.8248C17.8358 4.56858 16.6918 3.65005 15.3483 3.65005H13.3926C13.1085 2.66581 12.7083 1.8677 12.1996 1.2713C11.4899 0.439535 10.5535 -0.000270844 9.49049 -0.000270844C8.42749 -0.000270844 7.49065 0.439535 6.78137 1.2713C6.27265 1.86724 5.87246 2.66581 5.58856 3.65005H3.63222C2.09668 3.65005 0.821219 4.85064 0.727809 6.38412L0.558846 9.18069L0.46658 10.7043L0.410717 11.6288C0.369278 12.3189 1.08268 12.8017 1.7077 12.5061C1.71022 12.505 1.71251 12.5038 1.71502 12.5027C3.31215 11.7396 5.14464 10.6913 6.97346 9.49023C7.80362 8.94488 8.61065 8.38305 9.37121 7.8203C9.61641 7.6392 9.96143 7.69094 10.143 7.93569C10.3241 8.18089 10.2726 8.5266 10.0271 8.70769C9.25033 9.28257 8.42658 9.85586 7.57925 10.4129C5.48416 11.7888 3.40602 12.9567 1.63924 13.7543L1.63192 13.7576C0.779093 14.1406 0.209246 14.9655 0.152925 15.8987L0.00548475 18.3342C-0.0416781 19.1103 0.21657 19.8578 0.731928 20.4396C1.24751 21.0216 1.95885 21.3677 2.73475 21.4149V21.4144C2.78901 21.4165 3.38587 21.419 16.0706 21.4199C17.6749 21.4199 18.9801 20.1147 18.9801 18.5102C18.9801 18.4899 18.9801 18.4633 18.6731 13.3629ZM7.00642 3.65005C7.52613 2.12549 8.35927 1.35417 9.49049 1.35417C10.6222 1.35417 11.4553 2.12549 11.9746 3.65005H7.00642Z" fill="#008080"/>
</svg>
