<svg width="23" height="22" viewBox="0 0 23 22" fill="none" xmlns="http://www.w3.org/2000/svg">
<path d="M8.48682 4.125C8.48682 3.21332 8.85002 2.33898 9.49651 1.69432C10.143 1.04966 11.0199 0.6875 11.9341 0.6875C12.8484 0.6875 13.7253 1.04966 14.3718 1.69432C15.0183 2.33898 15.3815 3.21332 15.3815 4.125V11.6875C15.3815 12.5992 15.0183 13.4735 14.3718 14.1182C13.7253 14.7628 12.8484 15.125 11.9341 15.125C11.0199 15.125 10.143 14.7628 9.49651 14.1182C8.85002 13.4735 8.48682 12.5992 8.48682 11.6875V4.125Z" fill="#008080"/>
<path d="M6.41847 9.625C6.60133 9.625 6.77669 9.69743 6.90599 9.82636C7.03529 9.9553 7.10793 10.1302 7.10793 10.3125V11.6875C7.10793 12.9639 7.61641 14.1879 8.52151 15.0905C9.42661 15.993 10.6542 16.5 11.9342 16.5C13.2142 16.5 14.4418 15.993 15.3469 15.0905C16.252 14.1879 16.7604 12.9639 16.7604 11.6875V10.3125C16.7604 10.1302 16.8331 9.9553 16.9624 9.82636C17.0917 9.69743 17.267 9.625 17.4499 9.625C17.6328 9.625 17.8081 9.69743 17.9374 9.82636C18.0667 9.9553 18.1394 10.1302 18.1394 10.3125V11.6875C18.1393 13.2096 17.5768 14.6782 16.5593 15.8127C15.5417 16.9473 14.1406 17.6681 12.6236 17.8374V19.9375H15.3815C15.5644 19.9375 15.7397 20.0099 15.869 20.1389C15.9983 20.2678 16.071 20.4427 16.071 20.625C16.071 20.8073 15.9983 20.9822 15.869 21.1111C15.7397 21.2401 15.5644 21.3125 15.3815 21.3125H8.48686C8.304 21.3125 8.12864 21.2401 7.99934 21.1111C7.87004 20.9822 7.7974 20.8073 7.7974 20.625C7.7974 20.4427 7.87004 20.2678 7.99934 20.1389C8.12864 20.0099 8.304 19.9375 8.48686 19.9375H11.2447V17.8374C9.72779 17.6681 8.32664 16.9473 7.30911 15.8127C6.29157 14.6782 5.72903 13.2096 5.729 11.6875V10.3125C5.729 10.1302 5.80164 9.9553 5.93094 9.82636C6.06024 9.69743 6.23561 9.625 6.41847 9.625Z" fill="#008080"/>
</svg>
