<svg width="22" height="22" viewBox="0 0 22 22" fill="none" xmlns="http://www.w3.org/2000/svg">
<path d="M8.0625 4.125C8.0625 3.34593 8.37199 2.59876 8.92287 2.04787C9.47376 1.49699 10.2209 1.1875 11 1.1875C11.7791 1.1875 12.5262 1.49699 13.0771 2.04787C13.628 2.59876 13.9375 3.34593 13.9375 4.125V11.6875C13.9375 12.4666 13.628 13.2137 13.0771 13.7646C12.5262 14.3155 11.7791 14.625 11 14.625C10.2209 14.625 9.47376 14.3155 8.92287 13.7646C8.37199 13.2137 8.0625 12.4666 8.0625 11.6875V4.125Z" stroke="#505050"/>
<path d="M11.6319 17.3405L11.1875 17.3903V17.8374V19.9375V20.4375H11.6875H14.4375C14.4872 20.4375 14.5349 20.4573 14.5701 20.4924C14.6052 20.5276 14.625 20.5753 14.625 20.625C14.625 20.6747 14.6052 20.7224 14.5701 20.7576C14.5349 20.7927 14.4872 20.8125 14.4375 20.8125H7.5625C7.51277 20.8125 7.46508 20.7927 7.42992 20.7576C7.39475 20.7224 7.375 20.6747 7.375 20.625C7.375 20.5753 7.39475 20.5276 7.42992 20.4924C7.46508 20.4573 7.51277 20.4375 7.5625 20.4375H10.3125H10.8125V19.9375V17.8374V17.3903L10.3681 17.3405C8.97773 17.1849 7.69345 16.5223 6.7608 15.4794C5.82814 14.4366 5.31252 13.0866 5.3125 11.6875C5.3125 11.6875 5.3125 11.6875 5.3125 11.6875V10.3125C5.3125 10.2628 5.33225 10.2151 5.36742 10.1799C5.40258 10.1448 5.45027 10.125 5.5 10.125C5.54973 10.125 5.59742 10.1448 5.63258 10.1799C5.66775 10.2151 5.6875 10.2628 5.6875 10.3125V11.6875C5.6875 13.0965 6.24721 14.4477 7.2435 15.444C8.23978 16.4403 9.59104 17 11 17C12.409 17 13.7602 16.4403 14.7565 15.444C15.7528 14.4477 16.3125 13.0965 16.3125 11.6875V10.3125C16.3125 10.2628 16.3323 10.2151 16.3674 10.1799C16.4026 10.1448 16.4503 10.125 16.5 10.125C16.5497 10.125 16.5974 10.1448 16.6326 10.1799C16.6677 10.2151 16.6875 10.2628 16.6875 10.3125V11.6875C16.6875 13.0866 16.1719 14.4366 15.2392 15.4794C14.3065 16.5223 13.0223 17.1849 11.6319 17.3405Z" stroke="#505050"/>
</svg>
