<svg width="256" height="185" viewBox="0 0 256 185" fill="none" xmlns="http://www.w3.org/2000/svg">
<path d="M81.0402 17.4707C80.6943 29.6545 81.2874 41.9124 81.0402 54.0961C81.7816 54.2197 82.7949 53.9232 83.4375 54.0961C85.2168 54.5163 86.8973 55.5048 88.8497 55.3071C88.7261 62.647 90.1101 61.0406 94.2373 65.8351C95.3988 67.1943 97.1535 69.1714 97.5736 70.9013C94.0396 69.5668 90.0607 67.5403 86.2054 67.9604C85.0191 68.084 83.5857 69.122 82.6466 68.9737C81.4604 68.776 78.297 66.0822 75.801 65.6621C71.7727 64.9701 67.7938 65.7856 64.2103 67.5897C56.3267 71.5933 50.346 84.8151 58.1308 91.6113C50.8156 100.088 53.5835 112.469 62.9005 118.005C57.2658 130.337 67.7691 143.757 81.0402 141.137C81.2379 149.713 80.7684 158.363 81.0402 166.963C69.0789 164.442 58.6745 155.174 50.4202 146.549C53.3611 142.373 48.1465 137.158 43.8217 138.74C34.1587 124.727 28.3016 106.958 28.7958 89.7825C28.9936 83.184 30.8718 76.2889 31.2178 69.6904C35.4191 69.6904 37.8904 64.0804 34.8259 61.2878L42.7343 47.2752C46.8614 40.8497 49.5799 37.5381 55.8572 33.6828C57.4388 36.6237 60.7504 41.171 63.1476 43.494C63.7902 44.1119 63.8891 44.7792 65.1494 44.4826L65.7673 42.0854L57.6612 32.4718C61.4671 27.6032 62.4557 26.3676 68.2633 22.9818C72.0198 20.7823 76.8389 18.3604 81.0649 17.4707H81.0402ZM48.6161 79.3287L46.5896 78.8097C40.9302 85.853 40.4112 101.694 45.7246 108.96C46.812 110.443 49.2339 111.827 48.5172 109.183C46.5154 101.991 44.2665 99.4949 45.0079 91.0182C45.3786 86.6686 47.3063 83.3322 48.6408 79.3287H48.6161ZM33.615 90.7216H30.6246V101.818C30.6246 104.314 33.0219 110.764 34.8012 112.642C35.3449 113.236 38.7801 116.3 39.0272 113.829C36.7042 111.679 33.6397 106.069 33.6397 103.004V90.6969L33.615 90.7216Z" fill="#BEDADB"/>
<path d="M186.097 20.4875C186.295 30.5706 186.171 40.6785 186.665 50.7616C186.295 53.9743 182.711 54.5675 181.302 57.0882C184.614 55.5807 187.876 59.09 189.507 59.3866C190.323 59.5349 191.361 58.4475 192.424 58.3239C204.039 57.0388 215.506 70.656 211.601 81.7029C210.02 86.2008 206.906 86.0278 205.349 88.0543C203.124 90.9952 204.187 95.4189 198.108 97.0253C192.745 98.4587 188.865 94.8258 187.679 94.9988C186.962 95.0977 184.392 97.2477 182.513 97.6431C179.647 98.2363 176.854 98.2363 174.259 96.8276C171.664 95.4189 172.554 94.0597 168.402 94.3068C164.25 94.554 162.199 97.2477 159.678 100.312C163.583 102.067 184.812 110.642 185.973 113.361C187.555 117.142 186.122 121.072 186.072 124.606C185.874 139.706 186.863 154.064 186.097 169.362C185.652 178.506 181.723 182.855 172.504 184.289C147.568 182.954 120.359 186.315 95.6948 184.388C90.9498 184.017 86.2789 181.966 83.4121 178.061C80.5454 174.156 81.1385 171.413 81.0149 166.965C80.7431 158.389 81.2127 149.739 81.0149 141.139C67.7191 143.759 57.2405 130.339 62.8752 118.007C53.5582 112.447 50.7903 100.09 58.1055 91.613C50.3207 84.8168 56.2767 71.5951 64.185 67.5915C67.7685 65.7627 71.7474 64.9719 75.7757 65.6638C78.2717 66.084 81.4351 68.7777 82.6213 68.9755C83.5604 69.1237 84.9938 68.0858 86.1801 67.9622C90.0107 67.5421 93.9895 69.5686 97.5483 70.9031C97.1282 69.1732 95.3982 67.1714 94.212 65.8368C90.0848 61.0424 88.7009 62.6735 88.8244 55.3089C88.8491 53.0105 89.4175 51.0334 89.4423 49.0316C89.64 39.1957 88.0583 24.4417 89.4423 15.4212C90.0354 11.6648 93.2976 9.39114 96.881 9.04515C119.988 6.79622 146.679 10.7998 170.181 9.04515C172.208 8.62502 177.67 13.3453 177.67 14.754V57.0882L183.675 51.2559C182.761 39.1709 184.861 25.4549 183.675 13.5677C183.082 7.71062 178.609 2.84206 172.603 2.42193C147.42 4.15187 119.346 0.197709 94.5085 2.42193C88.6761 2.94091 84.5984 6.72208 83.4863 12.4062L83.4369 54.0732C82.7696 53.9249 81.7811 54.1968 81.0397 54.0732C81.3115 41.8894 80.6937 29.6315 81.0397 17.4478C81.2868 8.84744 81.9293 3.43518 91.0981 0.172995L173.839 0C179.251 0.172995 185.355 5.88182 186.072 11.1952C186.443 13.9879 186.072 17.5219 186.122 20.4381L186.097 20.4875ZM172.554 61.5614C173.641 60.474 175.47 60.1033 175.346 58.0274C174.383 45.0528 176.508 30.5212 175.346 17.7443C175 14.0126 172.752 11.7884 169.045 11.4424C146.382 9.36643 120.557 13.0735 97.5483 11.4424C94.1873 11.9119 92.136 14.3833 91.8395 17.7196C90.6532 30.6695 92.7786 45.4235 91.8889 58.5711C93.5447 62.2287 103.603 70.5077 103.282 74.19C100.044 75.2774 96.8563 73.2262 93.693 72.979C95.3735 74.7584 93.4211 78.07 93.7671 79.4787C93.9648 80.2448 95.5712 81.3322 96.189 82.469C97.4494 84.8415 97.6719 87.387 95.7442 89.463C94.212 91.0941 91.2463 90.4762 91.8889 93.0959C92.5314 93.7631 105.901 90.0067 108.299 90.7728C108.867 90.9458 109.435 91.5142 109.287 92.1815L107.483 94.5787L110.473 97.05C110.918 99.1754 96.9552 106.688 94.8792 108.394C96.6586 111.161 98.2897 113.064 97.746 116.623C97.5483 117.933 96.016 120.132 96.1643 120.899C96.2879 121.566 98.0426 122.727 98.611 123.864C101.181 128.98 97.3506 135.331 91.8395 136.048C92.7291 143.561 90.7521 153.347 91.9136 160.589C92.2596 162.788 94.8051 165.358 97.0293 165.704C107.804 167.385 119.271 165.754 129.997 165.704C138.029 165.655 146.16 165.605 154.043 165.704C159.629 165.778 174.259 169.09 175.396 160.663V110.296C171.985 109.16 167.191 105.65 164.127 104.637C162.965 104.266 161.63 104.736 160.37 104.192C160.098 104.069 156.243 100.806 156.193 100.535L161.581 94.3068L155.576 93.3924C155.526 91.1435 164.25 83.68 166.4 81.9995C164.003 80.9121 156.292 82.4443 157.701 78.7126C158.195 77.4028 164.077 70.6807 165.486 69.0743C167.636 66.603 170.33 63.8598 172.653 61.5367L172.554 61.5614ZM161.803 79.3057H171.714C172.925 82.1725 158.665 89.9325 160.914 91.9096L171.936 90.6739C174.679 97.1242 183.724 97.1489 187.085 91.2671C191.015 93.0711 192.448 95.8144 197.564 94.6281C202.68 93.4418 201.642 86.9422 203.569 84.9898C204.681 83.853 206.584 85.1134 207.795 83.68C214.493 75.5987 204.064 59.955 193.733 60.7211C190.669 60.9436 190.768 63.2913 187.209 61.2648C186.838 61.0671 186.764 60.3504 186.295 60.128C176.879 55.9514 166.894 72.6083 161.235 78.0947L161.853 79.281L161.803 79.3057ZM79.6063 69.964C69.8444 63.5385 55.3129 74.2394 57.0675 84.9898C57.7842 89.3888 61.8867 88.6474 61.862 90.4268C61.862 91.2176 57.8831 95.6661 57.2158 97.8161C54.6703 105.996 59.0446 117.167 69.0536 115.338L69.0042 117.686C60.6263 118.452 64.0615 131.723 68.757 135.727C72.8348 139.211 81.9541 140.126 85.9082 136.048C86.6249 135.307 86.9215 133.577 87.1686 133.404C88.0089 132.86 91.2463 133.626 92.655 133.28C93.0504 133.181 93.0751 132.39 93.2729 132.292C94.0143 131.995 96.1643 131.773 96.4856 130.735C98.2156 125.248 95.7936 123.741 91.8889 120.973L95.1511 117.043C96.4362 114.275 94.1873 110.025 91.0239 110.469C89.5658 110.667 87.8112 112.694 85.8588 112.274C86.7485 106.886 77.0114 109.209 74.3176 110.519C73.6009 110.89 69.7703 115.462 69.0289 114.671C70.0916 106.762 78.1235 107.751 83.9064 105.848C86.4272 105.032 88.948 103.204 91.1475 102.141C94.0884 100.732 101.231 97.742 103.43 96.0862C106.396 93.8126 103.603 93.3924 101.231 93.7137C99.0558 94.0103 92.4326 96.3333 91.0981 95.9626C89.2198 95.4436 89.7388 93.2441 89.121 91.9096C85.2162 83.507 78.3212 82.0983 69.6714 84.6438C71.6732 79.1327 80.2983 80.7144 84.4501 83.0869C87.1439 84.6191 90.9498 91.786 93.7177 87.9802C96.7327 83.8283 91.8889 82.5679 91.3699 80.6155C91.0486 79.3799 92.0125 77.5758 91.9383 75.9694C91.8148 73.8193 89.64 70.3841 87.3663 70.2853C84.4501 70.1617 83.5604 71.8916 83.0662 72.0399C80.8172 72.6578 80.8667 70.7054 79.6557 69.8899L79.6063 69.964ZM106.865 97.3219C105.753 97.0995 105.061 97.4949 104.122 97.8903C100.514 99.4225 94.4097 102.957 90.8509 105.032C89.6647 105.724 86.4766 106.911 87.0698 108.443L88.8986 109.086L106.89 97.3466L106.865 97.3219ZM89.4423 135.751L83.4369 141.46C85.1915 152.334 77.5303 179.816 93.9154 181.422L175.346 181.125C180.759 179.766 183.28 175.664 183.749 170.301V115.041C183.354 113.04 179.35 112.323 177.719 111.137V162.467C177.719 162.64 176.261 165.062 175.915 165.457C174.086 167.706 171.244 168.472 168.402 168.744C146.432 170.919 121.076 167.113 98.7345 168.769C96.8316 168.645 93.9401 167.83 92.482 166.619C91.8148 166.075 89.467 162.244 89.467 161.849V135.727L89.4423 135.751Z" fill="#21201F"/>
<path d="M227.542 127.348C223.786 126.977 218.349 122.85 216.223 119.736C207.845 107.379 213.554 86.1257 231.125 91.019C230.656 84.8159 220.845 85.6561 220.894 80.1945C220.943 72.6815 234.832 82.2951 232.954 87.7074C234.338 87.9545 233.918 87.6332 234.289 86.9412C234.956 85.755 235.45 83.6543 235.945 82.2951C236.043 82.0233 235.821 81.6525 235.945 81.4548C244.1 80.0956 234.684 88.77 235.945 90.1046C250.797 85.8786 258.286 100.41 254.579 113.236C252.33 121.046 246.102 127.471 237.502 126.681C236.266 126.557 235.055 125.593 233.943 125.692C232.163 125.84 230.656 127.644 227.542 127.348ZM227.295 81.3807C226.529 80.837 223.489 78.4398 223.341 80.8123L229.643 85.3102C229.643 83.9015 228.382 82.1715 227.27 81.3807H227.295ZM246.967 120.354C249.339 118.031 251.687 115.139 252.478 111.754C254.875 101.325 247.955 87.3367 235.895 93.3915C234.61 94.034 234.412 95.5663 232.757 95.4427C222.154 87.4108 213.752 98.606 215.012 109.604C215.852 116.993 222.97 126.409 231.224 124.11C232.435 123.764 232.015 122.702 233.251 122.529C236.315 122.084 235.92 123.641 236.389 123.764C238.638 124.308 243.21 123.863 245.212 122.479C246.275 121.763 246.349 120.996 246.992 120.379L246.967 120.354Z" fill="#21201F"/>
<path d="M212.516 40.2822C213.381 39.8373 214.938 39.9609 215.852 39.1206C217.261 37.8602 216.816 33.1399 220.622 33.1152C224.23 33.1152 224.181 38.9476 225.219 39.5655C226.454 40.2822 230.359 38.7746 231.026 42.5064C231.966 47.5974 226.084 46.8312 224.799 48.0422C223.711 49.0802 224.23 50.8595 223.909 51.6751C222.871 54.2947 219.708 55.0114 217.978 52.5154C217.137 51.3044 217.039 48.4623 216.099 47.7951C215.012 47.0042 212.813 47.5479 211.28 46.0157C209.501 44.2363 210.564 41.2707 212.491 40.2822H212.516ZM221.512 36.0809C218.769 35.4136 220.004 38.2556 218.25 40.3316C217.039 41.765 213.628 42.5311 213.109 43.5938C212.467 44.9036 216.816 45.1013 217.879 46.0157C219.238 47.1525 219.51 50.5136 220.597 51.1067C221.932 51.8234 222.006 46.3864 223.316 46.0404L228.086 44.5082C228.728 41.765 226.306 42.7535 224.527 41.765C222.871 40.8506 221.561 38.0332 221.462 36.1056L221.512 36.0809Z" fill="#191918"/>
<path d="M56.2773 26.9387C55.4371 27.7789 52.5703 27.8037 51.6312 28.5945C49.8765 30.0526 50.7909 35.1189 45.9471 34.3033C42.9073 33.7843 43.451 29.6572 42.4872 28.4462C41.2268 26.8893 35.4438 29.41 36.6301 23.2069C37.2726 19.8953 41.4245 21.131 42.6849 19.6482C43.4757 18.6844 43.5746 15.8176 44.5384 14.6066C50.4202 12.3577 49.9013 19.1539 51.6559 20.1919C52.9904 20.9827 55.1158 20.0683 56.4009 22.0454C57.2165 23.3058 57.3895 25.876 56.3268 26.9387H56.2773ZM54.0284 25.2829C54.5721 21.996 51.4088 23.6024 49.7777 22.0207C48.5914 20.8592 48.1466 17.424 47.1086 16.8803C45.7741 16.1883 45.4034 21.3287 44.143 21.6994L39.0273 23.4788C38.8049 25.6042 41.2515 25.0852 42.4625 25.7524C44.5631 26.8893 45.8482 28.8663 45.6258 31.2883C48.715 31.9555 47.9489 27.8037 49.6541 26.4444C50.6674 25.6536 52.7186 25.2335 54.0284 25.2582V25.2829Z" fill="#191918"/>
<path d="M8.77711 83.0119C14.4118 81.0595 13.8681 86.6695 15.2768 88.3253C16.3147 89.5115 20.7385 88.2512 20.9856 92.2547C21.2574 96.5796 16.7596 96.0112 15.2273 97.2716C13.5715 98.6308 15.0791 102.585 10.4576 102.783C5.8362 102.98 7.56615 99.1745 6.28104 97.3457C5.0948 95.6652 0.893496 97.3704 0.522793 93.441C0.028522 88.0782 4.22982 89.8822 6.0092 88.6466C6.84946 88.0534 6.87417 83.6792 8.77711 83.0119ZM18.5884 93.7128C18.4895 91.1179 15.0049 91.6863 13.5221 90.08C12.1382 88.5971 12.2123 84.0004 9.59266 85.6809C9.14781 90.7472 6.97302 90.6731 2.99415 92.2053L3.36485 93.6881C7.46729 93.6881 9.74094 96.2336 9.59266 100.311C12.756 101.176 11.2238 96.7279 13.2255 95.2204C14.2882 94.4295 17.2044 93.96 18.6131 93.6881L18.5884 93.7128Z" fill="#191918"/>
<path d="M50.4203 146.551C48.0725 149.888 40.3866 148.998 40.9303 143.388C41.0291 142.35 43.1545 138.989 43.7971 138.742C48.1219 137.16 53.3365 142.375 50.3956 146.551H50.4203ZM43.8959 141.856C41.8941 145.044 46.738 147.935 48.3443 144.747C49.9507 141.559 45.0327 140.027 43.8959 141.856Z" fill="#191918"/>
<path d="M34.8012 61.3127C37.8656 64.1053 35.3943 69.7153 31.193 69.7153C30.1056 69.7153 27.6589 68.4796 27.0411 67.5652C23.7048 62.3259 30.7481 57.6551 34.7764 61.3127H34.8012ZM29.5619 66.552C31.5637 68.6032 35.5178 65.2669 32.7499 63.0426C30.328 61.0903 27.4365 64.4019 29.5619 66.552Z" fill="#191918"/>
<path d="M57.611 32.4727L65.717 42.0862L65.0992 44.4834C63.8388 44.78 63.7152 44.1127 63.0974 43.4949C60.7002 41.1718 57.3886 36.6245 55.8069 33.6836C56.0787 33.5106 57.5368 32.5715 57.611 32.4727Z" fill="#21201F"/>
<path d="M83.4366 54.0969L83.486 12.4299C84.5981 6.74578 88.7006 2.96461 94.5082 2.44562C119.345 0.221405 147.42 4.17557 172.603 2.44562C178.608 2.86575 183.082 7.7096 183.675 13.5914C184.861 25.4786 182.785 39.1946 183.675 51.2795L177.669 57.1119V14.7777C177.669 13.369 172.208 8.64872 170.181 9.06885C146.703 10.7988 119.988 6.81992 96.8807 9.06885C93.2973 9.41484 90.0351 11.6885 89.442 15.4449C88.058 24.4654 89.6397 39.2193 89.442 49.0553C89.3925 51.0571 88.8488 53.0342 88.8241 55.3326C86.8965 55.5303 85.1912 54.5664 83.4119 54.1216L83.4366 54.0969Z" fill="#88C7CA"/>
<path d="M48.6156 79.3295C47.2811 83.3084 45.3781 86.6694 44.9827 91.019C44.2413 99.4711 46.4902 101.967 48.492 109.183C49.2334 111.828 46.7868 110.444 45.6994 108.961C40.386 101.72 40.905 85.8539 46.5644 78.8105L48.5909 79.3295H48.6156Z" fill="#21201F"/>
<path d="M33.6149 90.7227V103.03C33.6149 106.094 36.6794 111.704 39.0025 113.855C38.7553 116.326 35.3448 113.261 34.7764 112.668C32.9971 110.765 30.5999 104.315 30.5999 101.844V90.7474H33.5902L33.6149 90.7227Z" fill="#21201F"/>
<path d="M172.555 61.5602C170.231 63.8833 167.562 66.6265 165.388 69.0978C163.979 70.7042 158.097 77.4263 157.603 78.7361C156.194 82.4679 163.88 80.9109 166.302 82.023C164.177 83.7035 155.428 91.1917 155.477 93.4159L161.483 94.3303L156.095 100.558C156.145 100.83 160 104.092 160.272 104.216C161.532 104.759 162.842 104.29 164.028 104.661C167.118 105.674 171.887 109.183 175.298 110.32V160.686C174.161 169.089 159.53 165.777 153.945 165.728C146.086 165.629 137.931 165.728 129.899 165.728C119.173 165.777 107.706 167.408 96.9311 165.728C94.7316 165.382 92.1861 162.812 91.8154 160.612C90.6786 153.396 92.631 143.584 91.7413 136.071C97.2524 135.355 101.083 129.003 98.5128 123.888C97.9444 122.751 96.2144 121.589 96.0661 120.922C95.9179 120.156 97.4501 117.956 97.6478 116.647C98.1915 113.088 96.5604 111.185 94.781 108.417C96.857 106.712 110.82 99.1742 110.375 97.0735L107.385 94.6022L109.189 92.205C109.337 91.5377 108.769 90.9693 108.2 90.7963C105.803 90.0302 92.4333 93.7866 91.7907 93.1194C91.1729 90.4997 94.1138 91.1176 95.646 89.4865C97.5737 87.4106 97.3513 84.8651 96.0909 82.4926C95.473 81.331 93.8419 80.2683 93.6689 79.5022C93.3229 78.1183 95.2753 74.7819 93.5948 73.0026C96.7581 73.2497 99.9709 75.3009 103.184 74.2135C103.505 70.5312 93.4465 62.2522 91.7907 58.5946C92.6804 45.447 90.555 30.693 91.7413 17.7431C92.0378 14.4068 94.1138 11.9107 97.4501 11.4659C120.458 13.0723 146.284 9.36523 168.946 11.4659C172.653 11.8119 174.902 14.0361 175.248 17.7678C176.435 30.5447 174.284 45.0763 175.248 58.0509C175.372 60.1021 173.568 60.4728 172.456 61.5849L172.555 61.5602ZM124.141 45.8671C117.048 46.6085 106.545 50.6615 100.91 55.0358C100.193 55.5795 95.473 59.5584 98.1915 60.1021C103.727 56.9882 107.756 53.38 113.934 51.23C127.625 46.485 141.885 47.0039 154.711 53.9732C156.441 54.9123 162.57 59.8303 163.114 59.9785C164.177 60.2751 164.498 59.9291 165.116 59.163C165.61 57.2601 160.222 53.9237 158.69 52.9846C148.212 46.5591 136.374 44.5326 124.141 45.8177V45.8671ZM156.688 69.691C157.084 69.1225 156.565 68.1834 156.071 67.615C155.033 66.4288 149.027 63.3149 147.297 62.5735C133.161 56.6422 116.801 58.9653 105.062 68.8013C106.421 73.1756 109.955 68.5294 112.451 67.1702C126.241 59.7067 137.585 60.4975 151.103 67.7633C152.191 68.3564 155.379 71.5692 156.688 69.6662V69.691ZM128.342 72.2859C124.536 72.6813 119.964 74.2135 116.751 76.3142C115.985 76.8332 110.276 81.1086 113.786 81.7264C114.28 81.8253 120.557 77.3521 122.485 76.6355C128.342 74.436 134.422 74.5101 140.205 76.9073C141.934 77.624 148.286 83.1598 148.879 80.2189C149.274 78.3407 142.256 74.7078 140.625 74.0653C136.522 72.4836 132.741 71.8163 128.317 72.2859H128.342ZM120.063 91.3153C122.46 91.7107 123.548 89.7336 125.648 88.7945C128.812 87.4106 132.074 87.2376 135.41 88.2755C138.054 89.0911 141.737 94.0338 142.874 90.4256C138.4 85.1122 132.123 83.3328 125.475 85.6312C123.004 86.4962 119.47 88.2755 120.063 91.3153Z" fill="#FAFAF9"/>
<path d="M79.6064 69.9639C80.8174 70.7548 80.7927 72.7318 83.0169 72.114C83.5111 71.9657 84.4008 70.2358 87.317 70.3593C89.566 70.4582 91.7655 73.8934 91.889 76.0434C91.9879 77.6745 90.9993 79.4786 91.3206 80.6896C91.8396 82.642 96.6835 83.9271 93.6684 88.0542C90.9005 91.8601 87.0946 84.6932 84.4008 83.1609C80.249 80.7884 71.6239 79.2068 69.6221 84.7179C78.2719 82.1724 85.1669 83.5811 89.0717 91.9837C89.6895 93.3182 89.1705 95.5177 91.0488 96.0367C92.3833 96.4074 99.0312 94.0843 101.181 93.7878C103.554 93.4665 106.346 93.8866 103.381 96.1603C101.206 97.8161 94.0391 100.782 91.0982 102.215C88.8987 103.278 86.3779 105.082 83.8571 105.922C78.0742 107.825 70.0423 106.837 68.9796 114.745C69.721 115.536 73.5269 110.964 74.2683 110.593C76.9621 109.258 86.6992 106.935 85.8095 112.348C87.7619 112.768 89.4918 110.741 90.9746 110.544C94.138 110.099 96.3869 114.349 95.1018 117.117L91.8396 121.047C95.7443 123.79 98.1663 125.298 96.4363 130.809C96.115 131.847 93.965 132.094 93.2236 132.366C93.0259 132.44 93.0011 133.255 92.6057 133.354C91.1971 133.7 87.9596 132.934 87.1193 133.478C86.8722 133.626 86.5756 135.381 85.8589 136.122C81.9295 140.175 72.8102 139.285 68.7077 135.801C64.0122 131.797 60.577 118.501 68.9549 117.76L69.0043 115.412C59.02 117.241 54.6457 106.07 57.1665 97.8902C57.8338 95.7401 61.8127 91.2917 61.8127 90.5009C61.8127 88.7215 57.7349 89.4629 57.0182 85.0639C55.2883 74.3135 69.7951 63.6125 79.557 70.0381L79.6064 69.9639ZM69.029 74.5112C63.2708 73.498 59.2672 82.4443 62.7765 86.4973C64.5559 87.0163 67.2744 83.4575 63.6415 84.1001L65.149 78.7372L69.029 74.5112Z" fill="#DD433A"/>
<path d="M89.443 135.75V161.872C89.443 162.268 91.8155 166.123 92.458 166.642C93.9408 167.853 96.8076 168.669 98.7106 168.792C121.052 167.136 146.408 170.917 168.378 168.767C171.22 168.496 174.062 167.705 175.891 165.48C176.212 165.06 177.695 162.663 177.695 162.49V111.16C179.326 112.346 183.33 113.063 183.7 115.065V170.324C183.256 175.687 180.735 179.765 175.322 181.149L93.8914 181.445C77.5064 179.839 85.1675 152.358 83.4129 141.484L89.4183 135.775L89.443 135.75ZM142.281 173.587H123.078V175.984H142.281V173.587Z" fill="#88C7CA"/>
<path d="M161.804 79.3034L161.186 78.1171C166.845 72.606 176.854 55.9491 186.245 60.1504C186.715 60.3481 186.814 61.0648 187.16 61.2872C190.719 63.3137 190.62 60.9659 193.684 60.7435C204.039 59.9774 214.444 75.6211 207.746 83.7024C206.56 85.1358 204.657 83.9001 203.52 85.0122C201.592 86.9398 202.878 93.3901 197.515 94.6505C192.152 95.9109 190.941 93.1182 187.036 91.2894C183.7 97.1465 174.63 97.1218 171.887 90.6963L160.865 91.932C158.616 89.9549 172.875 82.1949 171.664 79.3281H161.754L161.804 79.3034ZM182.514 65.4885C181.229 59.9774 172.085 68.8248 174.111 70.9008C175.693 71.2468 175.421 70.7772 176.088 70.1594C178.016 68.38 179.227 65.7604 182.514 65.4885ZM200.9 67.5397C198.306 65.8839 196.328 65.9334 193.313 66.1063V68.5036C199.64 67.8363 203.94 72.606 204.138 78.7102H205.942C206.634 74.5831 204.336 69.7392 200.925 67.5397H200.9Z" fill="#DD433A"/>
<path d="M106.865 97.3198L88.8738 109.059L87.045 108.416C86.4766 106.884 89.6399 105.698 90.8262 105.006C94.3849 102.93 100.489 99.3957 104.097 97.8635C105.036 97.4681 105.728 97.0974 106.841 97.2951L106.865 97.3198Z" fill="#C5C5C4"/>
<path d="M246.966 120.352C246.324 120.995 246.225 121.736 245.187 122.453C243.185 123.837 238.638 124.257 236.364 123.738C235.895 123.639 236.29 122.082 233.226 122.502C232.015 122.675 232.435 123.738 231.199 124.084C222.945 126.382 215.827 116.967 214.987 109.577C213.727 98.6044 222.129 87.3845 232.731 95.4164C234.387 95.5399 234.585 94.0077 235.87 93.3652C247.93 87.3103 254.85 101.323 252.453 111.727C251.662 115.113 249.314 118.029 246.942 120.328L246.966 120.352ZM244.347 116.522C249.018 117.387 249.611 107.452 249.116 104.264C248.943 103.201 247.263 99.0245 246.497 98.4808C245.805 97.9866 243.408 97.171 243.852 98.728C244.198 100.656 246.225 102.04 246.62 104.363C247.386 108.935 246.299 112.493 244.371 116.522H244.347Z" fill="#DD433A"/>
<path d="M227.295 81.3788C228.383 82.1696 229.643 83.8749 229.668 85.3083L223.366 80.8104C223.514 78.4626 226.554 80.8351 227.32 81.3788H227.295Z" fill="#71BDBD"/>
<path d="M212.516 40.2835C210.564 41.2721 209.501 44.2377 211.305 46.0171C212.838 47.5493 215.037 47.0056 216.125 47.7964C217.064 48.4637 217.163 51.3058 218.003 52.5167C219.733 55.0375 222.896 54.2961 223.934 51.6765C226.48 54.5927 227.814 58.1514 229.198 61.7349C231.842 68.5558 232.559 73.9928 234.141 80.8384C234.487 82.3707 233.572 82.4942 235.969 82.2965C235.475 83.6558 234.956 85.7564 234.314 86.9427C233.943 87.6346 234.363 87.9559 232.979 87.7088C234.857 82.2965 220.968 72.683 220.919 80.1959C220.894 85.6576 230.681 84.8173 231.15 91.0204C213.579 86.1271 207.87 107.381 216.248 119.738C218.373 122.851 223.786 126.979 227.567 127.349C220.919 146.107 205.176 162.986 186.147 169.387C186.913 154.089 185.925 139.731 186.122 124.631C186.172 121.097 187.605 117.167 186.023 113.386C184.887 110.668 163.658 102.092 159.728 100.337C162.249 97.2729 164.177 94.6039 168.452 94.332C172.728 94.0602 171.665 95.4194 174.309 96.8528C176.954 98.2862 179.697 98.2615 182.564 97.6683C184.442 97.2729 187.037 95.1476 187.729 95.024C188.915 94.851 192.77 98.4839 198.158 97.0505C204.237 95.4441 203.175 91.0204 205.399 88.0795C206.956 86.0283 210.045 86.226 211.651 81.7281C215.556 70.6812 204.089 57.064 192.474 58.3491C191.411 58.4727 190.373 59.5354 189.557 59.4118C187.926 59.1399 184.64 55.6306 181.353 57.1134C182.761 54.5927 186.345 53.9995 186.715 50.7868C186.221 40.7036 186.369 30.5958 186.147 20.5127C195.34 23.6019 204.534 30.8182 211.083 37.911C211.775 38.6524 212.59 39.1467 212.566 40.3329L212.516 40.2835Z" fill="#BEDADB"/>
<path d="M221.511 36.0792C221.585 38.0068 222.895 40.8242 224.575 41.7386C226.355 42.7271 228.801 41.7386 228.134 44.4818L223.364 46.014C222.055 46.36 221.98 51.797 220.646 51.0803C219.559 50.4871 219.287 47.1261 217.927 45.9893C216.865 45.0996 212.49 44.9019 213.158 43.5674C213.677 42.5047 217.087 41.7386 218.298 40.3052C220.053 38.254 218.817 35.4119 221.56 36.0544L221.511 36.0792Z" fill="#F3F4F4"/>
<path d="M54.0281 25.2807C52.7183 25.2313 50.6671 25.6514 49.6538 26.467C47.9486 27.8262 48.7147 31.9534 45.6255 31.3108C45.848 28.8642 44.5629 26.9118 42.4622 25.775C41.2512 25.1325 38.8293 25.6267 39.027 23.5014L44.1427 21.722C45.4278 21.3513 45.7738 16.2109 47.1084 16.9029C48.1463 17.4466 48.5912 20.8817 49.7774 22.0433C51.4085 23.6249 54.5471 22.0186 54.0281 25.3055V25.2807Z" fill="#F3F4F4"/>
<path d="M18.5887 93.7145C17.18 93.9616 14.2638 94.4559 13.2011 95.2467C11.1993 96.7542 12.7316 101.203 9.56824 100.338C9.71652 96.2599 7.44287 93.6897 3.34043 93.7145L2.96973 92.2316C6.9486 90.6994 9.1234 90.7735 9.56824 85.7073C12.1879 84.002 12.1137 88.6235 13.4977 90.1063C15.0052 91.6879 18.4898 91.1443 18.564 93.7392L18.5887 93.7145Z" fill="#F3F4F4"/>
<path d="M43.8961 141.854C45.0329 140.049 49.8767 141.73 48.3445 144.745C46.7381 147.908 41.8943 145.017 43.8961 141.854Z" fill="#F3F4F4"/>
<path d="M29.5611 66.5517C27.4605 64.4017 30.3272 61.09 32.7492 63.0424C35.5171 65.2666 31.5382 68.5782 29.5611 66.5517Z" fill="#F3F4F4"/>
<path d="M124.14 45.8664C136.373 44.5813 148.186 46.6078 158.689 53.0334C160.221 53.9725 165.609 57.3088 165.115 59.2117C164.497 59.9779 164.176 60.3238 163.113 60.0273C162.569 59.879 156.44 54.961 154.71 54.0219C141.859 47.0527 127.624 46.509 113.933 51.2787C107.755 53.4288 103.726 57.037 98.1904 60.1509C95.4967 59.6072 100.217 55.653 100.909 55.0846C106.568 50.6856 117.047 46.6573 124.14 45.9159V45.8664Z" fill="#21201F"/>
<path d="M156.688 69.6913C155.378 71.5695 152.19 68.3568 151.103 67.7884C137.585 60.5226 126.241 59.7318 112.451 67.1952C109.955 68.5545 106.421 73.1759 105.062 68.8263C116.8 58.9656 133.161 56.6426 147.297 62.5985C149.052 63.3399 155.032 66.4291 156.07 67.6401C156.565 68.2085 157.083 69.1476 156.688 69.716V69.6913Z" fill="#21201F"/>
<path d="M128.342 72.2881C132.741 71.8185 136.547 72.4858 140.649 74.0675C142.28 74.6853 149.274 78.3429 148.904 80.2211C148.31 83.1621 141.934 77.6262 140.229 76.9095C134.446 74.5123 128.367 74.4382 122.509 76.6377C120.582 77.3544 114.305 81.8275 113.81 81.7287C110.301 81.1108 116.01 76.8107 116.776 76.3164C119.989 74.2158 124.561 72.7082 128.367 72.2881H128.342Z" fill="#21201F"/>
<path d="M120.063 91.3147C119.47 88.2502 123.004 86.4708 125.475 85.6306C132.123 83.3322 138.401 85.1116 142.874 90.425C141.737 94.0332 138.055 89.0905 135.41 88.2749C132.099 87.237 128.812 87.41 125.648 88.7939C123.523 89.733 122.46 91.7101 120.063 91.3147Z" fill="#21201F"/>
<path d="M69.029 74.5101L65.149 78.7361L63.6415 84.0989C67.2497 83.4564 64.5559 87.0151 62.7765 86.4961C59.2672 82.4431 63.2955 73.4968 69.029 74.5101Z" fill="#21201F"/>
<path d="M200.9 67.5418C204.31 69.7413 206.608 74.6099 205.916 78.7123H204.112C203.915 72.6081 199.615 67.8384 193.288 68.5057V66.1084C196.303 65.9355 198.28 65.886 200.875 67.5418H200.9Z" fill="#21201F"/>
<path d="M182.514 65.4911C179.227 65.7382 178.016 68.3825 176.088 70.1619C175.421 70.7798 175.693 71.2493 174.111 70.9033C172.084 68.8274 181.228 59.9799 182.514 65.4911Z" fill="#21201F"/>
<path d="M244.346 116.524C246.274 112.495 247.361 108.937 246.595 104.365C246.2 102.042 244.173 100.658 243.827 98.73C243.382 97.173 245.804 97.9886 246.471 98.4829C247.238 99.0266 248.918 103.203 249.091 104.266C249.585 107.454 248.992 117.413 244.321 116.524H244.346Z" fill="#21201F"/>
<circle cx="131.464" cy="103.796" r="7.41406" fill="#008080"/>
</svg>
