<svg width="17" height="17" viewBox="0 0 17 17" fill="none" xmlns="http://www.w3.org/2000/svg">
<path d="M16.9322 3.62421V5.53349C16.8809 5.59371 16.8048 5.63236 16.7195 5.63343C15.9818 5.64289 15.3817 6.21069 15.3817 6.89919C15.3817 7.5876 15.9818 8.15539 16.7195 8.1648C16.8048 8.16592 16.8809 8.20453 16.9322 8.2648V10.0706C16.8449 10.2875 16.679 10.4671 16.4681 10.5771H3.67277C3.5315 10.5034 3.41039 10.3985 3.31958 10.2719V8.185C3.35109 8.17243 3.38537 8.16526 3.42132 8.16481C4.15902 8.1554 4.75917 7.5876 4.75917 6.8992C4.75917 6.21069 4.15902 5.64289 3.42132 5.63344C3.38537 5.63298 3.35109 5.62587 3.31958 5.61324V3.42278L3.51255 3.22124C3.51255 3.22124 3.5126 3.22124 3.5126 3.22119H16.6283L16.9322 3.62421Z" fill="#28E0CE"/>
<path d="M7.38431 4.29374C7.27969 4.29374 7.19489 4.20885 7.19489 4.10414V3.5275C7.19489 3.42278 7.27969 3.33789 7.38431 3.33789C7.48893 3.33789 7.57373 3.42278 7.57373 3.5275V4.10414C7.57373 4.20886 7.48893 4.29374 7.38431 4.29374Z" fill="#272F2F"/>
<path d="M7.38431 5.7747C7.27969 5.7747 7.19489 5.68981 7.19489 5.58509V5.00845C7.19489 4.90373 7.27969 4.81885 7.38431 4.81885C7.48893 4.81885 7.57373 4.90373 7.57373 5.00845V5.58509C7.57373 5.68981 7.48893 5.7747 7.38431 5.7747Z" fill="#272F2F"/>
<path d="M7.38431 7.25468C7.27969 7.25468 7.19489 7.1698 7.19489 7.06508V6.48843C7.19489 6.38371 7.27969 6.29883 7.38431 6.29883C7.48893 6.29883 7.57373 6.38371 7.57373 6.48843V7.06508C7.57373 7.1698 7.48893 7.25468 7.38431 7.25468Z" fill="#272F2F"/>
<path d="M7.38431 8.73515C7.27969 8.73515 7.19489 8.65027 7.19489 8.54555V7.9689C7.19489 7.86419 7.27969 7.7793 7.38431 7.7793C7.48893 7.7793 7.57373 7.86418 7.57373 7.9689V8.54555C7.57373 8.65026 7.48893 8.73515 7.38431 8.73515Z" fill="#272F2F"/>
<path d="M7.38431 10.2161C7.27969 10.2161 7.19489 10.1312 7.19489 10.0265V9.44986C7.19489 9.34514 7.27969 9.26025 7.38431 9.26025C7.48893 9.26025 7.57373 9.34514 7.57373 9.44986V10.0265C7.57373 10.1312 7.48893 10.2161 7.38431 10.2161Z" fill="#272F2F"/>
<path d="M13.1536 4.62901C13.0939 4.57961 13.0184 4.55646 12.9413 4.56385C12.8641 4.57123 12.7944 4.60823 12.7451 4.66806L9.62086 8.45574C9.51898 8.57925 9.53649 8.7627 9.65987 8.86466C9.71175 8.90754 9.77732 8.93115 9.84449 8.93115C9.93147 8.93115 10.0131 8.89268 10.0684 8.82561L13.1926 5.03793C13.2945 4.91442 13.277 4.73098 13.1536 4.62901Z" fill="#272F2F"/>
<path d="M10.1259 4.67725C9.64902 4.67725 9.26105 5.06293 9.26105 5.53707C9.26105 6.01116 9.64902 6.3969 10.1259 6.3969C10.6028 6.3969 10.9908 6.01116 10.9908 5.53707C10.9908 5.06293 10.6028 4.67725 10.1259 4.67725ZM10.1259 5.81596C9.96907 5.81596 9.84143 5.69086 9.84143 5.53707C9.84143 5.38328 9.96907 5.25818 10.1259 5.25818C10.2828 5.25818 10.4104 5.38328 10.4104 5.53707C10.4104 5.69085 10.2828 5.81596 10.1259 5.81596Z" fill="#272F2F"/>
<path d="M12.7036 7.04248C12.2267 7.04248 11.8388 7.42817 11.8388 7.9023C11.8388 8.37639 12.2267 8.76213 12.7036 8.76213C13.1805 8.76213 13.5685 8.37639 13.5685 7.9023C13.5685 7.42817 13.1805 7.04248 12.7036 7.04248ZM12.7036 8.18119C12.5468 8.18119 12.4191 8.05609 12.4191 7.9023C12.4191 7.74852 12.5468 7.62337 12.7036 7.62337C12.8605 7.62337 12.9881 7.74852 12.9881 7.9023C12.9881 8.05609 12.8605 8.18119 12.7036 8.18119Z" fill="#272F2F"/>
<path d="M3.70914 5.34865H3.14087V3.97391C3.14087 3.43689 3.59573 3 4.15484 3H11.09V3.56882H4.15484C3.90908 3.56882 3.70915 3.75054 3.70915 3.97391L3.70914 5.34865Z" fill="#272F2F"/>
<path d="M11.0899 10.125V10.6938H4.15478C3.9804 10.6938 3.81614 10.6514 3.67267 10.5766C3.53139 10.5029 3.41029 10.398 3.31948 10.2715C3.2068 10.1146 3.14081 9.92457 3.14081 9.71996V8.44873H3.70909V9.71996C3.70909 9.94333 3.909 10.125 4.15478 10.125H11.0899Z" fill="#272F2F"/>
<path d="M5.32742 6.89898C5.32742 7.38769 5.12816 7.84751 4.76634 8.19363C4.47628 8.47119 4.10822 8.64977 3.70916 8.71045C3.61712 8.72446 3.5234 8.73218 3.4286 8.73341H3.42487C3.38769 8.73341 3.35213 8.72626 3.31955 8.71317C3.21658 8.67201 3.14313 8.57216 3.14088 8.45447C3.14083 8.45386 3.14083 8.45325 3.14083 8.45263C3.1393 8.33157 3.21357 8.22717 3.31955 8.18478C3.35106 8.17221 3.38533 8.16505 3.42129 8.16459C4.15899 8.15518 4.75914 7.58738 4.75914 6.89898C4.75914 6.21048 4.15899 5.64268 3.42129 5.63322C3.38533 5.63276 3.35106 5.62566 3.31955 5.61303C3.21357 5.5707 3.1393 5.4663 3.14083 5.34518C3.14083 5.34456 3.14083 5.344 3.14088 5.34339C3.14308 5.2257 3.21658 5.12585 3.31955 5.0847C3.35213 5.07161 3.38769 5.06445 3.42487 5.06445H3.4286C3.5234 5.06568 3.61712 5.0734 3.70916 5.08741C4.10822 5.1481 4.47628 5.32668 4.76639 5.60424C5.12817 5.95035 5.32742 6.41022 5.32742 6.89898Z" fill="#272F2F"/>
<path d="M17 5.34865H16.4318V3.97391C16.4318 3.75054 16.2318 3.56882 15.9861 3.56882H9.0509V3H15.9861C16.5452 3 17 3.43689 17 3.97391V5.34865Z" fill="#272F2F"/>
<path d="M17 8.44873V9.71996C17 9.84333 16.976 9.96138 16.9323 10.0701C16.845 10.287 16.679 10.4666 16.4682 10.5766C16.3247 10.6514 16.1604 10.6938 15.9861 10.6938H9.0509V10.125H15.9861C16.2318 10.125 16.4318 9.94333 16.4318 9.71996V8.44873H17Z" fill="#272F2F"/>
<path d="M15.3817 6.89899C15.3817 7.58739 15.9818 8.15519 16.7195 8.16459C16.8048 8.16572 16.8809 8.20432 16.9322 8.2646C16.9746 8.31429 17.0001 8.37876 17 8.44901V8.45264C16.9991 8.52171 16.9737 8.58469 16.9322 8.63342C16.88 8.69466 16.8024 8.73342 16.716 8.73342H16.7123C16.6175 8.73219 16.5238 8.72447 16.4317 8.71046C16.0327 8.64983 15.6646 8.47124 15.3745 8.19364C15.0127 7.84752 14.8134 7.3877 14.8134 6.89899C14.8134 6.41023 15.0127 5.95036 15.3745 5.60424C15.6646 5.32663 16.0326 5.14805 16.4317 5.08741C16.5238 5.0734 16.6175 5.06568 16.7123 5.06445H16.716C16.8024 5.06445 16.88 5.10321 16.9322 5.16445C16.9737 5.21313 16.9991 5.27611 17 5.34518V5.34886C17 5.41911 16.9746 5.48358 16.9322 5.53327C16.8809 5.5935 16.8048 5.63215 16.7195 5.63322C15.9818 5.64268 15.3817 6.21048 15.3817 6.89899Z" fill="#272F2F"/>
<path d="M14.7115 7.70561L14.3506 9.58041C14.2888 9.62983 14.2068 9.65337 14.1229 9.63828C13.3967 9.50787 12.7001 9.95175 12.57 10.6278C12.4398 11.3038 12.9218 11.975 13.6444 12.1239C13.728 12.1412 13.7954 12.1935 13.8344 12.2624L13.4931 14.0355C13.3663 14.232 13.1694 14.377 12.9416 14.445L0.37734 12.0219C0.252539 11.9228 0.153455 11.7969 0.0881958 11.6554L0.482653 9.60616C0.515977 9.59978 0.550983 9.59924 0.586378 9.6056C1.31253 9.73607 2.00916 9.29218 2.13928 8.6162C2.26941 7.94013 1.78742 7.26894 1.06483 7.11995C1.02961 7.11269 0.9973 7.09922 0.968745 7.08085L1.38277 4.92995L1.61034 4.76859C1.61034 4.76859 1.61039 4.7686 1.6104 4.76855L14.4892 7.25232L14.7115 7.70561Z" fill="#FDD917"/>
<path d="M5.20935 6.55582C5.10662 6.53601 5.03939 6.43659 5.05918 6.33377L5.16817 5.76754C5.18796 5.66471 5.28728 5.59742 5.39001 5.61723C5.49274 5.63704 5.55997 5.73645 5.54018 5.83928L5.43119 6.40551C5.4114 6.50833 5.31208 6.57563 5.20935 6.55582Z" fill="#272F2F"/>
<path d="M4.9295 8.00943C4.82677 7.98962 4.75954 7.8902 4.77933 7.78737L4.88832 7.22115C4.90812 7.11832 5.00744 7.05103 5.11017 7.07084C5.2129 7.09065 5.28013 7.19007 5.26033 7.2929L5.15134 7.85912C5.13155 7.96195 5.03223 8.02924 4.9295 8.00943Z" fill="#272F2F"/>
<path d="M4.64978 9.46353C4.54705 9.44372 4.47982 9.34431 4.49961 9.24148L4.6086 8.67525C4.62839 8.57242 4.72771 8.50513 4.83044 8.52494C4.93317 8.54475 5.0004 8.64417 4.98061 8.747L4.87162 9.31322C4.85182 9.41605 4.7525 9.48335 4.64978 9.46353Z" fill="#272F2F"/>
<path d="M4.36987 10.9172C4.26714 10.8973 4.19991 10.7979 4.2197 10.6951L4.32869 10.1289C4.34849 10.026 4.44781 9.95875 4.55054 9.97856C4.65327 9.99837 4.72049 10.0978 4.7007 10.2006L4.59171 10.7668C4.57192 10.8697 4.4726 10.937 4.36987 10.9172Z" fill="#272F2F"/>
<path d="M4.09008 12.3703C3.98735 12.3505 3.92013 12.251 3.93992 12.1482L4.04891 11.582C4.0687 11.4792 4.16802 11.4119 4.27075 11.4317C4.37348 11.4515 4.44071 11.5509 4.42092 11.6537L4.31192 12.22C4.29214 12.3228 4.19282 12.3901 4.09008 12.3703Z" fill="#272F2F"/>
<path d="M10.811 7.97761C10.7617 7.91779 10.692 7.88077 10.6148 7.87341C10.5377 7.86604 10.4623 7.88919 10.4025 7.93859L6.61877 11.0662C6.4954 11.1682 6.47791 11.3517 6.5798 11.4751C6.62264 11.5271 6.68256 11.5627 6.74852 11.5754C6.83392 11.5919 6.92133 11.5695 6.98833 11.5142L10.7721 8.38654C10.8954 8.28455 10.9129 8.10111 10.811 7.97761Z" fill="#272F2F"/>
<path d="M7.82891 7.45138C7.36063 7.36107 6.90675 7.66632 6.81714 8.13189C6.72753 8.59742 7.03559 9.04966 7.50388 9.13997C7.97212 9.23028 8.42599 8.92498 8.5156 8.45945C8.60522 7.99388 8.29715 7.54168 7.82891 7.45138ZM7.61368 8.56953C7.45966 8.53982 7.35797 8.3928 7.38704 8.2418C7.41611 8.09079 7.56509 7.99212 7.71911 8.02182C7.87314 8.05153 7.97477 8.19853 7.94571 8.34954C7.91664 8.50055 7.7677 8.59923 7.61368 8.56953Z" fill="#272F2F"/>
<path d="M9.9131 10.2619C9.44481 10.1716 8.99099 10.4769 8.90137 10.9424C8.81176 11.408 9.11977 11.8602 9.58806 11.9505C10.0563 12.0408 10.5102 11.7355 10.5998 11.27C10.6894 10.8044 10.3813 10.3522 9.9131 10.2619ZM9.69787 11.3801C9.54384 11.3504 9.44215 11.2034 9.47122 11.0523C9.50029 10.9013 9.64928 10.8026 9.8033 10.8323C9.95733 10.862 10.059 11.0091 10.0299 11.1601C10.0008 11.3111 9.85189 11.4098 9.69787 11.3801Z" fill="#272F2F"/>
<path d="M1.40115 6.89532L0.84314 6.78771L1.10298 5.43779C1.20448 4.91047 1.73371 4.56761 2.28272 4.67349L9.09264 5.98683L8.98512 6.54538L2.1752 5.23204C1.93388 5.1855 1.70321 5.32608 1.66099 5.54541L1.40115 6.89532Z" fill="#272F2F"/>
<path d="M7.74599 12.9834L7.63848 13.542L0.828566 12.2286C0.657339 12.1956 0.504076 12.1228 0.377328 12.0222C0.252527 11.9231 0.153443 11.7971 0.0881839 11.6557C0.00719314 11.4803 -0.0216868 11.2812 0.0169855 11.0803L0.257262 9.83203L0.815275 9.93965L0.574999 11.1879C0.532779 11.4072 0.694741 11.6235 0.93608 11.6701L7.74599 12.9834Z" fill="#272F2F"/>
<path d="M2.69726 8.72351C2.60489 9.20339 2.32233 9.61718 1.90162 9.88852C1.56433 10.1061 1.16917 10.2118 0.76584 10.1958C0.672813 10.1921 0.579324 10.182 0.486006 10.1652L0.482346 10.1645C0.445834 10.1575 0.412279 10.1437 0.382755 10.1247C0.289423 10.0648 0.236175 9.95283 0.256212 9.83683C0.256276 9.83622 0.256394 9.83562 0.256512 9.83501C0.277888 9.71585 0.370546 9.6274 0.482626 9.60585C0.51595 9.59947 0.550956 9.59893 0.586351 9.60529C1.3125 9.73576 2.00913 9.29186 2.13925 8.61589C2.26938 7.93982 1.78739 7.26863 1.06481 7.11964C1.02958 7.11238 0.997273 7.09891 0.968718 7.08054C0.87265 7.01891 0.819457 6.90233 0.843854 6.78369C0.843972 6.78309 0.844075 6.78254 0.844243 6.78194C0.868645 6.66679 0.959689 6.58267 1.06858 6.56175C1.10305 6.55507 1.13931 6.55478 1.17582 6.56182L1.17948 6.56252C1.27234 6.58168 1.36291 6.60701 1.45064 6.63819C1.83103 6.77335 2.15868 7.01841 2.39109 7.3459C2.68092 7.75428 2.78964 8.24358 2.69726 8.72351Z" fill="#272F2F"/>
<path d="M14.452 9.41218L13.8939 9.30456L14.1538 7.95465C14.196 7.73531 14.034 7.51901 13.7927 7.47247L6.98279 6.15913L7.0903 5.60059L13.9002 6.91392C14.4492 7.0198 14.8133 7.53494 14.7118 8.06226L14.452 9.41218Z" fill="#272F2F"/>
<path d="M13.866 12.4567L13.6258 13.705C13.6024 13.8261 13.5566 13.9375 13.493 14.036C13.3663 14.2324 13.1694 14.3774 12.9416 14.4454C12.7866 14.4917 12.6172 14.5023 12.446 14.4693L5.63611 13.156L5.74362 12.5974L12.5535 13.9107C12.7948 13.9573 13.0255 13.8167 13.0677 13.5974L13.308 12.3491L13.866 12.4567Z" fill="#272F2F"/>
<path d="M12.5699 10.6285C12.4398 11.3044 12.9218 11.9756 13.6444 12.1246C13.7279 12.1418 13.7953 12.1941 13.8343 12.263C13.8665 12.3199 13.8794 12.388 13.866 12.457L13.8654 12.4605C13.8514 12.5282 13.8146 12.5852 13.7646 12.6252C13.7018 12.6755 13.6182 12.6988 13.5334 12.6825L13.5298 12.6818C13.4369 12.6626 13.3464 12.6373 13.2586 12.6061C12.8782 12.471 12.5506 12.2259 12.3182 11.8984C12.0283 11.49 11.9196 11.0007 12.0119 10.5209C12.1043 10.0409 12.3869 9.62709 12.8076 9.35574C13.1449 9.13808 13.5401 9.03242 13.9434 9.04846C14.0365 9.05215 14.1299 9.06231 14.2233 9.07906L14.2269 9.07975C14.3117 9.09612 14.3806 9.14887 14.4203 9.2189C14.4519 9.27456 14.4649 9.34121 14.4527 9.4092L14.452 9.41282C14.4388 9.4818 14.4016 9.54028 14.3506 9.58106C14.2888 9.63048 14.2068 9.65403 14.1229 9.63893C13.3967 9.50851 12.7001 9.95241 12.5699 10.6285Z" fill="#272F2F"/>
</svg>
