<svg width="53" height="53" viewBox="0 0 53 53" fill="none" xmlns="http://www.w3.org/2000/svg">
<path d="M52.9965 14.5333C52.9965 14.5333 51.2868 22.2269 44.4481 22.2269H44.166C44.3585 21.6777 44.454 21.0992 44.4481 20.5172C44.8242 19.7992 45.4568 18.705 46.0125 17.5937C46.3805 16.8786 46.6755 16.1283 46.893 15.354L47.0126 15.3882C48.0665 14.9708 49.1806 14.7254 50.3123 14.6616C51.2043 14.5733 52.1002 14.5305 52.9965 14.5333Z" fill="#598019"/>
<path d="M50.3129 14.661C49.1812 14.7249 48.0671 14.9702 47.0132 15.3876L46.8936 15.3534L47.0132 14.5328V12.6521C47.0129 12.1988 47.0733 11.7474 47.1927 11.31L47.6629 9.57471C47.7558 9.202 47.8131 8.82131 47.8339 8.43777H47.8766C47.9365 7.95051 48.3981 5.98438 52.1423 5.98438C52.1423 5.98438 52.1423 12.2162 50.2958 14.5328L50.3129 14.661Z" fill="#346C2F"/>
<path d="M36.5062 2.66789C36.1969 3.24413 35.6853 3.68562 35.0701 3.90741C34.5703 4.08296 34.1362 4.40718 33.826 4.83655C33.5158 5.26593 33.3444 5.77991 33.3348 6.30952V11.1137C32.6644 11.0881 32.0287 10.8092 31.5559 10.3332C31.0831 9.85726 30.8085 9.21972 30.7873 8.5492C30.7731 8.4789 30.7674 8.40715 30.7702 8.33549V3.89887C30.7705 3.51094 30.8929 3.13295 31.1199 2.81843C31.347 2.50391 31.6673 2.26881 32.0354 2.14644L32.6081 1.94983C33.0715 1.79394 33.4552 1.46243 33.6767 1.0266C33.8302 0.718206 34.0668 0.458794 34.3598 0.277564C34.6528 0.0963335 34.9906 0.000479592 35.3351 0.000791371H38.4125C38 -0.0123523 37.5991 0.138672 37.2978 0.420729C36.9966 0.702786 36.8195 1.09284 36.8054 1.50531C36.8067 1.91205 36.7037 2.31233 36.5062 2.66789Z" fill="#B9D671"/>
<path d="M44.4478 1.71094C44.8845 1.75964 45.2916 1.95542 45.6023 2.26611C45.913 2.57681 46.1088 2.98394 46.1575 3.42062C46.136 3.75573 46.2039 4.09054 46.3541 4.39089C46.5042 4.69123 46.7314 4.94638 47.0123 5.1303C47.2939 5.31358 47.5216 5.5686 47.6718 5.86911C47.8221 6.16962 47.8895 6.50475 47.8672 6.83998V7.69482C47.8672 7.89144 47.8586 8.15644 47.833 8.43854C47.8122 8.82208 47.7549 9.20277 47.662 9.57547L47.1918 11.3108C47.0724 11.7481 47.012 12.1995 47.0123 12.6529V14.5336L46.8926 15.3542C46.6752 16.1285 46.3802 16.8788 46.0122 17.5939C45.4565 18.7052 44.8239 19.7994 44.4478 20.5174V5.98514C44.4357 5.07328 44.113 4.19281 43.5331 3.48901C43.4043 3.32039 43.2613 3.16309 43.1057 3.01884C42.8646 2.7934 42.6106 2.58218 42.3449 2.38626C42.1396 2.2107 41.9958 1.97406 41.9346 1.71094H44.4478Z" fill="#B9D671"/>
<path d="M44.4479 9.77136V18.807C44.4089 17.0156 44.0559 15.2449 43.405 13.5754C42.9763 12.4272 42.4679 11.3103 41.8834 10.233C41.8577 9.8483 41.6697 5.39458 43.5332 3.48828C44.1131 4.19208 44.4358 5.07256 44.4479 5.98442V9.77136Z" fill="#89B029"/>
<path d="M44.4479 18.8076V19.6624C42.4305 17.0552 36.7543 15.3882 36.7543 15.3882V14.4821C36.6311 14.0403 36.422 13.6272 36.1389 13.2663C35.8558 12.9055 35.5043 12.604 35.1045 12.3792C35.1045 12.3792 40.0455 11.7466 43.405 13.576C44.0559 15.2454 44.4089 17.0161 44.4479 18.8076Z" fill="#88AB00"/>
<path d="M33.335 7.81411V6.30959C33.3446 5.77998 33.516 5.266 33.8262 4.83663C34.1364 4.40725 34.5705 4.08304 35.0703 3.90749C35.6856 3.68569 36.1971 3.2442 36.5064 2.66797C38.5779 4.97922 40.3817 7.51709 41.8834 10.2333V10.259C38.5238 7.65169 33.7624 7.81411 33.7624 7.81411H33.335Z" fill="#88AB00"/>
<path d="M41.9351 1.71047C41.9963 1.97359 42.1401 2.21023 42.3454 2.3858C42.6111 2.58171 42.8651 2.79293 43.1062 3.01838C43.2618 3.16263 43.4048 3.31992 43.5336 3.48854C41.6701 5.39484 41.8581 9.84856 41.8838 10.2332C40.3821 7.51702 38.5783 4.97915 36.5068 2.66789C36.7043 2.31233 36.8074 1.91205 36.806 1.50531C36.8201 1.09284 36.9972 0.702786 37.2985 0.420729C37.5998 0.138672 38.0006 -0.0123523 38.4131 0.000791371H40.5246C40.7031 0.000566348 40.88 0.0355695 41.045 0.103796C41.21 0.172022 41.3599 0.272131 41.4862 0.398389C41.6124 0.524647 41.7126 0.674573 41.7808 0.83958C41.849 1.00459 41.884 1.18143 41.8838 1.35999C41.8834 1.47871 41.9007 1.59684 41.9351 1.71047Z" fill="#93BD2C"/>
<path d="M33.7624 7.81449C33.7624 7.81449 38.5238 7.65207 41.8834 10.2593V10.2337C42.4679 11.311 42.9763 12.4279 43.405 13.5761C40.0455 11.7468 35.1045 12.3793 35.1045 12.3793C34.682 12.1594 34.2838 11.8958 33.9163 11.5929C33.5743 11.3279 33.335 11.1142 33.335 11.1142V7.81449H33.7624Z" fill="#80A100"/>
<path d="M36.7549 15.3877C36.7549 15.3877 42.431 17.0546 44.4485 19.6619V20.5167C44.4543 21.0987 44.3588 21.6772 44.1664 22.2264H39.7981C39.6126 20.6739 39.0231 19.1971 38.0884 17.9437C37.391 17.2496 36.9252 16.3568 36.7549 15.3877Z" fill="#80A100"/>
<path d="M35.9003 17.9521C35.9003 15.3277 33.0366 13.1735 29.3352 12.8658L29.3437 12.823C29.1445 12.5843 29.0437 12.2786 29.0616 11.9682V10.2585C29.063 9.80549 29.2435 9.37141 29.5639 9.05108C29.8842 8.73074 30.3183 8.55018 30.7713 8.54883H30.7884C30.8095 9.21935 31.0842 9.85689 31.557 10.3328C32.0298 10.8088 32.6655 11.0877 33.3358 11.1134C33.3358 11.1134 33.5752 11.3271 33.9171 11.5921C34.2846 11.895 34.6829 12.1586 35.1053 12.3785C35.5051 12.6033 35.8566 12.9048 36.1397 13.2657C36.4228 13.6265 36.632 14.0396 36.7552 14.4814V15.3876C36.9255 16.3567 37.3913 17.2494 38.0887 17.9435C39.0234 19.197 39.6129 20.6737 39.7984 22.2263H35.302C35.7051 20.8376 35.9066 19.3981 35.9003 17.9521Z" fill="#628C1B"/>
<path d="M50.3591 10.1083C50.2796 10.2874 50.141 10.4338 49.9664 10.5229C49.7919 10.612 49.5921 10.6384 49.4004 10.5977C49.2087 10.5571 49.0368 10.4518 48.9135 10.2995C48.7901 10.1472 48.7229 9.95722 48.7229 9.76126V7.05996C48.2663 7.43459 47.9648 7.96513 47.8766 8.5491H47.8339C47.8131 8.93264 47.7558 9.31333 47.6629 9.68603L47.1927 11.4214C47.0733 11.8587 47.0129 12.3101 47.0132 12.7635V14.6441L46.8936 15.4648L47.0132 15.499C48.0671 15.0815 49.1812 14.8362 50.3129 14.7723L50.2958 14.6441C52.1423 12.3275 52.1423 6.0957 52.1423 6.0957L50.3591 10.1083Z" fill="#335E33"/>
<path d="M46.8562 17.2191L47.4247 15.2282C47.2843 15.2733 47.1467 15.3267 47.0126 15.388L46.893 15.3538C46.6755 16.1281 46.3805 16.8785 46.0125 17.5935C45.4568 18.7048 44.8242 19.799 44.4481 20.5171C44.454 21.099 44.3585 21.6776 44.166 22.2268H44.4481C51.2868 22.2268 52.9965 14.5332 52.9965 14.5332L48.1906 18.1372C48.0474 18.2443 47.8743 18.3039 47.6955 18.3074C47.5167 18.311 47.3413 18.2584 47.194 18.157C47.0466 18.0556 46.9348 17.9106 46.8742 17.7424C46.8136 17.5741 46.8073 17.3911 46.8562 17.2191Z" fill="#346C2F"/>
<path d="M46.3738 15.2585C46.229 15.2562 46.0869 15.2185 45.9601 15.1486C45.8333 15.0787 45.7255 14.9787 45.6463 14.8575C45.4949 14.6169 45.4067 14.342 45.3898 14.0583C45.325 13.4568 45.4132 12.8487 45.6463 12.2904C45.931 11.6126 46.4353 10.9355 46.2635 10.2234C46.1428 9.89815 45.995 9.58359 45.8215 9.28312C45.4121 8.33339 45.8215 7.25971 45.8694 6.23134C45.9103 5.82965 45.8245 5.42522 45.6241 5.07474C45.4899 4.87043 45.2984 4.70545 45.1659 4.50028C44.8966 4.08312 44.894 3.53089 44.5735 3.15049C44.3958 2.97773 44.2089 2.81478 44.0135 2.66238C43.9169 2.5866 43.8427 2.48591 43.7991 2.37113C43.7554 2.25636 43.7438 2.13184 43.7656 2.01099C43.8128 1.8883 43.8971 1.7834 44.0067 1.71094H41.9346C41.9958 1.97406 42.1396 2.2107 42.3449 2.38626C42.6106 2.58218 42.8646 2.7934 43.1057 3.01884C43.2613 3.16309 43.4043 3.32039 43.5331 3.48901C44.113 4.19281 44.4357 5.07328 44.4478 5.98514V20.5174C44.8239 19.7994 45.4565 18.7052 46.0122 17.5939C46.3802 16.8788 46.6752 16.1285 46.8926 15.3542L46.9337 15.0712C46.9166 15.0798 46.9003 15.0909 46.8832 15.0995C46.7272 15.1893 46.5532 15.2436 46.3738 15.2585Z" fill="#9FC73D"/>
<path d="M35.3949 1.51471C35.2862 1.841 35.103 2.13748 34.8598 2.38067C34.6166 2.62386 34.3201 2.80707 33.9938 2.9158C33.553 3.06274 33.1696 3.34465 32.8979 3.72161C32.6261 4.09857 32.4799 4.55147 32.4799 5.01614V6.83952C32.4799 7.06624 32.3898 7.28367 32.2295 7.44398C32.0692 7.6043 31.8518 7.69436 31.6251 7.69436C31.3984 7.69436 31.1809 7.6043 31.0206 7.44398C30.8603 7.28367 30.7702 7.06624 30.7702 6.83952V8.33549C30.7674 8.40715 30.7731 8.4789 30.7873 8.5492C30.8085 9.21972 31.0831 9.85726 31.5559 10.3332C32.0287 10.8092 32.6644 11.0881 33.3348 11.1137V6.30952C33.3444 5.77991 33.5158 5.26593 33.826 4.83655C34.1362 4.40718 34.5703 4.08296 35.0701 3.90741C35.6853 3.68562 36.1969 3.24413 36.5062 2.66789C36.7037 2.31233 36.8067 1.91205 36.8054 1.50531C36.8195 1.09284 36.9966 0.702786 37.2978 0.420729C37.5991 0.138672 38 -0.0123523 38.4125 0.000791371H37.4953C37.0306 0.000679881 36.5776 0.14685 36.2006 0.41858C35.8236 0.690309 35.5417 1.07381 35.3949 1.51471Z" fill="#9FC73D"/>
<path d="M38.0883 17.9435C37.3908 17.2494 36.925 16.3567 36.7547 15.3876V14.4814C36.6315 14.0396 36.4224 13.6265 36.1393 13.2657C35.8562 12.9048 35.5047 12.6033 35.1049 12.3785C34.6824 12.1586 34.2842 11.895 33.9167 11.5921C33.5747 11.3271 33.3354 11.1134 33.3354 11.1134C32.665 11.0877 32.0293 10.8088 31.5565 10.3328C31.0838 9.85689 30.8091 9.21935 30.788 8.54883H30.7709C30.4697 8.55067 30.1746 8.63302 29.916 8.78733V9.15406C29.9162 9.69546 30.0878 10.2229 30.4061 10.6609C30.7244 11.0988 31.1732 11.4248 31.6881 11.5921C32.9704 12.0109 34.5595 12.7034 35.0451 13.6779C35.4964 15.0099 36.0936 16.2879 36.8257 17.4888C36.9106 17.6172 36.9589 17.7662 36.9657 17.92C36.9724 18.0738 36.9373 18.2265 36.864 18.3618C36.7907 18.4972 36.682 18.6101 36.5495 18.6885C36.4171 18.7669 36.2658 18.8078 36.1119 18.8069H35.87C35.8147 19.965 35.6239 21.1126 35.3015 22.2263H39.798C39.6125 20.6737 39.023 19.197 38.0883 17.9435Z" fill="#4D6E15"/>
<path d="M44.4482 20.5169V16.5992C44.2609 15.5428 43.9791 14.5054 43.6062 13.4995C43.1791 12.3575 42.6741 11.2462 42.0948 10.1733C42.076 9.77325 41.9238 5.5452 43.654 3.66199C43.6122 3.60471 43.5788 3.54146 43.5335 3.48589C43.4882 3.43033 43.4352 3.37989 43.3873 3.32518L43.3805 3.33458C41.8896 4.86048 41.6708 7.88747 41.6546 9.37916C40.2286 6.9311 38.5582 4.63381 36.6691 2.52249C36.6614 2.51394 36.6315 2.48658 36.623 2.47889C36.6144 2.4712 36.6025 2.46949 36.5939 2.46094C36.569 2.53132 36.5405 2.60037 36.5084 2.66781C36.4742 2.73278 36.4281 2.79005 36.3887 2.85245C38.2377 4.92408 39.8738 7.17621 41.2725 9.57492C38.9887 8.25519 36.3925 7.57265 33.755 7.59853C33.7269 7.59954 33.6993 7.60607 33.6738 7.61774C33.6482 7.62942 33.6253 7.64601 33.6061 7.66657C33.587 7.68712 33.5721 7.71125 33.5623 7.73757C33.5525 7.76388 33.548 7.79187 33.549 7.81993C33.55 7.848 33.5565 7.87559 33.5682 7.90113C33.5799 7.92667 33.5964 7.94967 33.617 7.9688C33.6376 7.98793 33.6617 8.00282 33.688 8.01263C33.7143 8.02243 33.7423 8.02696 33.7704 8.02595C33.8105 8.01997 38.472 7.89602 41.7358 10.4144C42.2072 11.2971 42.6277 12.2062 42.995 13.137C39.6568 11.6086 35.2732 12.1412 35.0783 12.1668C35.0468 12.1718 35.0169 12.1842 34.9911 12.2029C34.9652 12.2216 34.9441 12.2462 34.9295 12.2745C34.9885 12.3078 35.0475 12.3497 35.1056 12.3788C35.2037 12.4342 35.298 12.4962 35.3877 12.5643C36.4135 12.4703 40.3997 12.2266 43.2326 13.7286C43.8571 15.351 44.1961 17.0692 44.2345 18.8072V19.0919C41.9666 16.7171 37.0359 15.2451 36.8145 15.181C36.7939 15.175 36.7751 15.1878 36.7546 15.1878V15.3878C36.7569 15.4643 36.7644 15.5406 36.7768 15.6161C37.4607 15.8281 42.3778 17.4112 44.2345 19.7398V20.5169C44.2394 21.0745 44.1483 21.6289 43.9652 22.1556C43.9558 22.1796 43.9652 22.2018 43.9652 22.2266H44.1627C44.3563 21.6776 44.4529 21.099 44.4482 20.5169Z" fill="#B9D671"/>
<path d="M19.6572 8.54883C24.6409 8.54883 28.2056 12.823 28.2056 12.823H27.2055C20.8113 12.6948 19.6572 8.54883 19.6572 8.54883Z" fill="#80A100"/>
<path d="M28.2056 11.1137V12.8234C28.2056 12.8234 24.6409 8.5492 19.6572 8.5492C20.3136 8.24379 21.0016 8.01158 21.7088 7.85678C22.1652 7.74752 22.633 7.69299 23.1022 7.69436H23.2219C26.0685 7.69436 27.8808 9.08775 28.2056 11.1137Z" fill="#A1C203"/>
<path d="M27.206 12.8232H28.4113C28.7276 12.8232 29.0268 12.8403 29.3345 12.866C33.036 13.1737 35.8997 15.3279 35.8997 17.9523C35.9059 19.3983 35.7044 20.8378 35.3013 22.2265H19.4013C18.9982 20.8378 18.7966 19.3983 18.8029 17.9523C18.8166 17.0388 19.1492 16.1589 19.7432 15.4647C21.0169 13.8832 23.4703 12.8232 26.2913 12.8232H27.206Z" fill="#DB3744"/>
<path d="M32.0529 20.5171H26.069C25.0655 20.5201 24.1007 20.1301 23.3812 19.4305C22.6617 18.7309 22.2447 17.7774 22.2195 16.7742C22.1944 15.771 22.5631 14.7978 23.2466 14.0631C23.9302 13.3283 24.8743 12.8904 25.8767 12.8432C24.7285 12.8317 23.5905 13.0588 22.5347 13.5101C21.4789 13.9615 20.5283 14.6271 19.7432 15.465C19.1492 16.1591 18.8166 17.0391 18.8029 17.9526C18.7966 19.3986 18.9982 20.838 19.4013 22.2268H35.3013C35.7044 20.838 35.9059 19.3986 35.8997 17.9526C35.8975 17.7376 35.8757 17.5233 35.8347 17.3123C35.6848 18.2073 35.2227 19.0202 34.5304 19.6069C33.8381 20.1936 32.9604 20.516 32.0529 20.5171Z" fill="#AD313B"/>
<path d="M30.1456 14.2973C29.7951 14.3648 29.4053 14.5606 29.3583 14.9137C29.307 15.2975 29.6797 15.5881 30.0028 15.8001C30.7074 16.2603 31.3873 16.7571 32.0399 17.2884C32.416 17.5944 32.8888 17.933 33.3418 17.7603C33.4979 17.6962 33.6312 17.5869 33.7248 17.4466C33.8311 17.2784 33.8978 17.0883 33.92 16.8907C33.9422 16.693 33.9193 16.4929 33.853 16.3053C33.7457 15.9531 33.5644 15.6279 33.3213 15.3513C32.9074 14.9451 32.406 14.639 31.8556 14.4563C31.3052 14.2736 30.7203 14.2192 30.1456 14.2973Z" fill="#FF6666"/>
<path d="M26.4966 4.27483L26.488 4.37741C25.9237 4.30789 25.3555 4.27363 24.7869 4.27483C24.7869 4.27483 20.5127 3.41999 20.5127 0.855469H23.0772C25.6417 0.855469 26.4966 4.27483 26.4966 4.27483Z" fill="#A1C203"/>
<path d="M30.7708 6.49801V8.33592C30.7679 8.40758 30.7737 8.47932 30.7879 8.54963H30.7708C30.3177 8.55098 29.8837 8.73154 29.5633 9.05187C29.243 9.37221 29.0624 9.80629 29.0611 10.2593V11.969C29.0431 12.2794 29.144 12.5851 29.3432 12.8238L29.3346 12.8666C29.0269 12.8409 28.7277 12.8238 28.4114 12.8238H28.2062V11.1141C27.8814 9.08818 26.0691 7.69478 23.2225 7.69478H23.1028C22.6336 7.69342 22.1658 7.74794 21.7095 7.8572C21.0022 8.012 20.3142 8.24421 19.6578 8.54963V6.83994C19.6572 6.49651 19.5561 6.16075 19.3672 5.87397C20.6238 4.72849 22.5814 4.27542 24.7869 4.27542C25.3555 4.27422 25.9237 4.30848 26.488 4.378C27.3084 4.42219 28.1112 4.63294 28.8475 4.99741C29.5838 5.36189 30.2382 5.87246 30.7708 6.49801Z" fill="#FF9B00"/>
<path d="M19.6572 15.3876V8.54883C19.6572 8.54883 20.8113 12.6948 27.2055 12.823H26.2908C23.4698 12.823 21.0164 13.883 19.7427 15.4645L19.6572 15.3876Z" fill="#F1671C"/>
<path d="M30.7708 8.33594V7.69481C26.4307 7.69481 22.1369 6.40315 21.4684 4.72852C20.6931 4.95319 19.9761 5.34409 19.3672 5.874C19.5561 6.16078 19.6572 6.49654 19.6578 6.83997V8.54965C20.3142 8.24424 21.0022 8.01203 21.7095 7.85723C22.1658 7.74797 22.6336 7.69345 23.1028 7.69481H23.2225C26.0691 7.69481 27.8814 9.0882 28.2062 11.1142V12.8239H28.4114C28.7277 12.8239 29.0269 12.841 29.3346 12.8666L29.3432 12.8239C29.144 12.5851 29.0431 12.2795 29.0611 11.969V10.2593C29.0624 9.80632 29.243 9.37224 29.5633 9.0519C29.8837 8.73157 30.3177 8.55101 30.7708 8.54965H30.7879C30.7737 8.47935 30.7679 8.40761 30.7708 8.33594Z" fill="#F1671C"/>
<path d="M24.7869 4.27483C25.3555 4.27363 25.9237 4.30789 26.488 4.37741L26.4966 4.27483L20.5127 0.855469C20.5127 3.41999 24.7869 4.27483 24.7869 4.27483Z" fill="#88AB00"/>
<path d="M17.2986 19.8925L19.1451 22.2262H10.6394L8.45959 20.4909C7.79149 19.9487 7.32946 19.1939 7.15057 18.3523C6.97167 17.5107 7.08672 16.6332 7.47652 15.8662C7.51926 15.8064 7.562 15.7294 7.60475 15.661C7.91304 15.1704 8.32794 14.7555 8.81862 14.4472C8.88701 14.4044 8.96394 14.3617 9.02378 14.3189C9.72803 13.9626 10.5261 13.8353 11.3062 13.9548C12.0864 14.0744 12.8097 14.4348 13.3749 14.9857C13.4727 15.0853 13.5641 15.1909 13.6485 15.302L17.2986 19.8925Z" fill="#FF9B00"/>
<path d="M7.06528 15.5071L7.4756 15.8661C7.16789 16.4583 7.0289 17.1237 7.07382 17.7895L1.67978 17.3792C1.30791 17.346 0.959722 17.1825 0.696713 16.9176L0.457357 16.6782C0.212995 16.4331 0.0566378 16.1141 0.0126886 15.7708C-0.0312606 15.4275 0.039671 15.0794 0.214413 14.7806C0.389155 14.4819 0.657876 14.2494 0.978635 14.1195C1.2994 13.9896 1.65415 13.9695 1.98752 14.0624L7.06528 15.5071Z" fill="#88AB00"/>
<path d="M9.02314 14.3186C8.9633 14.3614 8.88637 14.4041 8.81798 14.4469C8.32731 14.7552 7.91241 15.1701 7.60411 15.6607C7.56136 15.7291 7.51862 15.806 7.47588 15.8659L7.06556 15.5069L2.27845 11.4635C1.97167 11.1508 1.7998 10.7303 1.7998 10.2923C1.7998 9.85432 1.97167 9.43381 2.27845 9.12119C2.43187 8.96674 2.61433 8.84415 2.81533 8.7605C3.01632 8.67685 3.23187 8.63379 3.44958 8.63379C3.66729 8.63379 3.88284 8.67685 4.08383 8.7605C4.28483 8.84415 4.46729 8.96674 4.62071 9.12119L8.66411 13.9083L9.02314 14.3186Z" fill="#88AB00"/>
<path d="M7.62117 7.30041C7.76606 7.15417 7.93849 7.03809 8.1285 6.95887C8.3185 6.87965 8.52233 6.83887 8.72819 6.83887C8.93405 6.83887 9.13787 6.87965 9.32788 6.95887C9.51788 7.03809 9.69031 7.15417 9.83521 7.30041L10.0746 7.53976C10.3395 7.80277 10.503 8.15096 10.5362 8.52283L10.9294 13.6946L10.9465 13.9169C10.2807 13.872 9.61528 14.0109 9.02311 14.3187L8.66407 13.9083L7.21939 8.83057C7.14332 8.5629 7.14047 8.27972 7.21114 8.01058C7.28181 7.74143 7.42341 7.49618 7.62117 7.30041Z" fill="#88AB00"/>
<path d="M12.9219 20.517C12.6183 20.5171 12.3177 20.4574 12.0372 20.3413C11.7567 20.2251 11.5019 20.0547 11.2874 19.8399L9.25117 17.8037C8.9646 17.5185 8.758 17.1629 8.65204 16.7727C8.54607 16.3825 8.54448 15.9714 8.6474 15.5803C8.75033 15.1893 8.95416 14.8322 9.2385 14.5448C9.52284 14.2573 9.87771 14.0496 10.2676 13.9424C9.83431 13.9952 9.41348 14.1228 9.02378 14.3194C8.96394 14.3621 8.88701 14.4049 8.81862 14.4476C8.32794 14.7559 7.91304 15.1708 7.60475 15.6615C7.562 15.7299 7.51926 15.8068 7.47652 15.8666C7.08672 16.6337 6.97167 17.5112 7.15057 18.3527C7.32946 19.1943 7.79149 19.9492 8.45959 20.4913L10.6394 22.2266H19.1451L17.7927 20.517H12.9219Z" fill="#F37924"/>
<path d="M7.47573 15.8664L7.0654 15.5074L6.43709 15.3287L6.25501 15.6912C6.1748 15.8517 6.0461 15.9829 5.88715 16.0662C5.7282 16.1496 5.54706 16.1807 5.3694 16.1553L0.936192 15.5219C0.752055 15.4948 0.581941 15.4079 0.45204 15.2746C0.322138 15.1413 0.239649 14.969 0.217271 14.7842C0.040957 15.0817 -0.0311492 15.4295 0.012355 15.7726C0.0558593 16.1156 0.212491 16.4344 0.457482 16.6785L0.696837 16.9179C0.959847 17.1828 1.30804 17.3463 1.6799 17.3795L7.07395 17.7898C7.02902 17.124 7.16801 16.4586 7.47573 15.8664Z" fill="#628C1B"/>
<path d="M8.66357 13.909L8.34215 13.5277L8.00022 13.756C7.6714 13.9751 7.27684 14.0735 6.88364 14.0345C6.49045 13.9956 6.12288 13.8216 5.84345 13.5423L3.17977 10.8786C2.89929 10.5964 2.72649 10.2249 2.69136 9.82855C2.65622 9.43223 2.76097 9.03612 2.98743 8.70898C2.71268 8.79032 2.4637 8.94146 2.26475 9.14766C2.06579 9.35386 1.92366 9.60809 1.8522 9.88557C1.78075 10.1631 1.7824 10.4543 1.85701 10.731C1.93161 11.0076 2.07663 11.2602 2.27791 11.4641L7.06502 15.5075L7.47534 15.8666C7.51808 15.8067 7.56083 15.7298 7.60357 15.6614C7.91187 15.1707 8.32677 14.7558 8.81744 14.4475C8.88583 14.4048 8.96277 14.362 9.0226 14.3193L8.66357 13.909Z" fill="#628C1B"/>
<path d="M10.8356 12.4644L10.3227 12.5935C10.2066 12.6226 10.0856 12.6269 9.96765 12.6063C9.8497 12.5857 9.7374 12.5405 9.63803 12.4737C9.53867 12.4068 9.45444 12.3199 9.39082 12.2185C9.32719 12.117 9.28559 12.0034 9.2687 11.8848L8.71562 8.0594C8.66062 7.63908 8.76558 7.21345 9.00969 6.86689C8.74775 6.81853 8.4778 6.83767 8.22531 6.9225C7.97281 7.00733 7.74607 7.15506 7.56647 7.35177C7.38687 7.54848 7.26031 7.78768 7.19874 8.04684C7.13716 8.30599 7.14259 8.57655 7.21452 8.83303L8.6592 13.9108L9.01823 14.3211C9.61041 14.0134 10.2758 13.8744 10.9416 13.9193L10.9245 13.6971L10.8356 12.4644Z" fill="#628C1B"/>
<path d="M11.5869 18.1415C11.5444 18.1804 11.5102 18.2275 11.4864 18.28C11.4626 18.3325 11.4497 18.3892 11.4484 18.4468C11.447 18.5044 11.4574 18.5617 11.4788 18.6152C11.5002 18.6687 11.5321 18.7173 11.5728 18.7582C11.6134 18.799 11.6619 18.8312 11.7153 18.8528C11.7688 18.8744 11.826 18.885 11.8836 18.8839C11.9412 18.8828 11.998 18.8701 12.0506 18.8466C12.1031 18.823 12.1504 18.789 12.1895 18.7467L14.5284 16.4138L14.0043 15.7539C13.98 15.7669 13.9568 15.7821 13.9351 15.7992L11.5869 18.1415Z" fill="#F37924"/>
<path d="M15.75 20.517L16.8869 19.3758L16.3518 18.7021L14.543 20.517H15.75Z" fill="#F37924"/>
<path d="M14.2511 20.809C14.171 20.8891 14.126 20.9978 14.126 21.1111C14.126 21.2245 14.171 21.3332 14.2511 21.4133C14.2905 21.4531 14.3373 21.4846 14.389 21.506C14.4407 21.5275 14.4961 21.5384 14.552 21.5381C14.6084 21.5382 14.6642 21.5272 14.7163 21.5056C14.7684 21.4841 14.8157 21.4524 14.8555 21.4125L15.7497 20.5166H14.5426L14.2511 20.809Z" fill="#E95410"/>
<path d="M10.14 15.0237C10.0434 15.0588 9.95707 15.1178 9.8891 15.195C9.82114 15.2722 9.77367 15.3653 9.75107 15.4656C9.74945 15.5459 9.76811 15.6253 9.80531 15.6964C9.84252 15.7675 9.89708 15.8281 9.96393 15.8725C10.0983 15.9605 10.2475 16.0236 10.4042 16.0589C10.9119 16.2025 11.4257 16.3265 11.9429 16.4196C12.0633 16.4611 12.1924 16.4711 12.3177 16.4486C12.4431 16.4262 12.5607 16.3721 12.6592 16.2914C12.7246 16.2064 12.7624 16.1035 12.7678 15.9965C12.7851 15.7784 12.7198 15.5617 12.5849 15.3896C12.2598 15.0926 11.8537 14.8991 11.4182 14.834C10.9828 14.7688 10.5378 14.8349 10.14 15.0237Z" fill="#FBCB00"/>
<path d="M13.6738 1.71094H17.0932V5.1303H13.6738V1.71094Z" fill="#30CFFF"/>
<path d="M19.6578 6.83965V8.54933H11.1094V6.83965C11.1107 6.38663 11.2913 5.95255 11.6116 5.63222C11.932 5.31188 12.366 5.13132 12.8191 5.12997H17.9481C18.1733 5.12768 18.3966 5.17035 18.6051 5.25546C18.8135 5.34057 19.0029 5.46641 19.1621 5.62563C19.3213 5.78485 19.4472 5.97423 19.5323 6.18269C19.6174 6.39115 19.6601 6.6145 19.6578 6.83965Z" fill="#E7F5F5"/>
<path d="M19.7433 15.4645L19.6578 15.3876V8.54883H11.1094V13.9386C11.9641 14.0106 12.7661 14.3813 13.3747 14.9858C13.4725 15.0853 13.5638 15.191 13.6483 15.3021L17.2984 19.8926L19.1449 22.2263H19.4013C18.9982 20.8376 18.7967 19.3981 18.8029 17.9521C18.8167 17.0386 19.1493 16.1586 19.7433 15.4645Z" fill="#30CFFF"/>
<path d="M13.6739 6.83956C13.6739 6.38613 13.854 5.95126 14.1747 5.63064C14.4953 5.31001 14.9301 5.12988 15.3836 5.12988H12.8191C12.366 5.13124 11.932 5.3118 11.6116 5.63213C11.2913 5.95247 11.1107 6.38654 11.1094 6.83956V8.54925H13.6739V6.83956Z" fill="#CEDADA"/>
<path d="M19.7433 15.4645L19.6578 15.3876V12.3956C19.6578 13.1891 19.3426 13.9501 18.7815 14.5112C18.2204 15.0723 17.4594 15.3876 16.6658 15.3876C15.8723 15.3876 15.1113 15.0723 14.5502 14.5112C13.9891 13.9501 13.6739 13.1891 13.6739 12.3956V8.54883H11.1094V13.9386C11.9641 14.0106 12.7661 14.3813 13.3747 14.9858C13.4725 15.0853 13.5638 15.191 13.6483 15.3021L17.2984 19.8926L19.1449 22.2263H19.4013C18.9982 20.8376 18.7967 19.3981 18.8029 17.9521C18.8167 17.0386 19.1493 16.1586 19.7433 15.4645Z" fill="#01A3EC"/>
<path d="M13.6738 1.71094V5.1303H17.0932V4.27546H15.3835C15.1568 4.27546 14.9394 4.1854 14.779 4.02508C14.6187 3.86477 14.5287 3.64734 14.5287 3.42062V1.71094H13.6738Z" fill="#01A3EC"/>
<path d="M15.3838 1.71094H16.2386V4.27546H15.3838V1.71094Z" fill="#01A3EC"/>
<path d="M18.8025 7.69468C18.8025 7.46797 18.7124 7.25053 18.5521 7.09022C18.3918 6.92991 18.1743 6.83984 17.9476 6.83984C17.7209 6.83984 17.5035 6.92991 17.3431 7.09022C17.1828 7.25053 17.0928 7.46797 17.0928 7.69468V8.54953H18.8025V7.69468Z" fill="white"/>
<path d="M17.0928 8.54883V11.9682C17.0928 12.1949 17.1828 12.4123 17.3431 12.5727C17.5035 12.733 17.7209 12.823 17.9476 12.823C18.1743 12.823 18.3918 12.733 18.5521 12.5727C18.7124 12.4123 18.8025 12.1949 18.8025 11.9682V8.54883H17.0928Z" fill="#99EFFF"/>
<path d="M23.0767 34.1945C26.3815 34.1945 29.0605 33.0463 29.0605 31.63C29.0605 30.2136 26.3815 29.0654 23.0767 29.0654C19.7719 29.0654 17.0928 30.2136 17.0928 31.63C17.0928 33.0463 19.7719 34.1945 23.0767 34.1945Z" fill="#88AB00"/>
<path d="M41.0287 22.2266V47.8718L37.6094 53.0008V22.2266H39.7978H41.0287Z" fill="#E5AA5C"/>
<path d="M37.6095 22.2266V53.0008H10.2546L8.54492 51.2912V22.2266H37.6095ZM29.0611 31.6298C29.0611 30.2108 26.3855 29.0653 23.0772 29.0653C19.769 29.0653 17.0933 30.2108 17.0933 31.6298C17.0933 33.0488 19.769 34.1943 23.0772 34.1943C26.3855 34.1943 29.0611 33.0488 29.0611 31.6298Z" fill="#FAD27A"/>
<path d="M44.1656 22.2266H41.0283V47.8718L44.4477 51.2912V22.2266H44.1656Z" fill="#D28E43"/>
<path d="M37.6094 53.0011L44.4481 51.2914L41.0287 47.8721L37.6094 53.0011Z" fill="#A15C27"/>
<path d="M23.0773 28.6377C19.422 28.6377 16.666 29.9242 16.666 31.6296C16.666 33.335 19.422 34.6216 23.0773 34.6216C26.7326 34.6216 29.4886 33.335 29.4886 31.6296C29.4886 29.9242 26.7326 28.6377 23.0773 28.6377ZM23.0773 34.1942C19.7725 34.1942 17.0934 33.0461 17.0934 31.6296C17.0934 30.2132 19.7725 29.0651 23.0773 29.0651C26.3821 29.0651 29.0612 30.2132 29.0612 31.6296C29.0612 33.0461 26.3821 34.1942 23.0773 34.1942Z" fill="#FAAB1B"/>
<path d="M24.7869 49.5815C21.6128 49.5815 18.5688 48.3206 16.3244 46.0762C14.08 43.8318 12.8191 40.7877 12.8191 37.6137V22.2266H8.54492V51.2912L10.2546 53.0008H37.6095V49.5815H24.7869Z" fill="#F5B662"/>
</svg>
