<svg width="107" height="107" viewBox="0 0 107 107" fill="none" xmlns="http://www.w3.org/2000/svg">
<path fill-rule="evenodd" clip-rule="evenodd" d="M5.34206 24.0857L1.25391 18.8659L12.6699 1.79395H82.5798L94.0206 18.8659L89.907 24.0857H5.34206Z" fill="#FB9E20"/>
<path fill-rule="evenodd" clip-rule="evenodd" d="M1.25391 18.8662H94.0469V87.8762H1.25391V18.8662Z" fill="#FEBF10"/>
<path fill-rule="evenodd" clip-rule="evenodd" d="M38.4584 39.6924H56.8162C59.6446 39.6924 61.9587 42.0065 61.9587 44.8349C61.9587 47.6626 59.6446 49.9767 56.8162 49.9767H38.4584C35.6302 49.9767 33.3418 47.6628 33.3418 44.8349C33.3418 42.0065 35.6302 39.6924 38.4584 39.6924Z" fill="#FB9E20"/>
<path fill-rule="evenodd" clip-rule="evenodd" d="M43.6521 24.0857H51.6227L54.4766 18.8659L52.7801 1.79395H42.4696L40.7725 18.8659L43.6521 24.0857Z" fill="#CA200A"/>
<path fill-rule="evenodd" clip-rule="evenodd" d="M40.7979 87.9014H54.5022V74.917L52.7798 76.28L51.0826 77.6426L49.3597 76.28L47.6373 74.917L45.9401 76.28L44.2179 77.6426L42.4948 76.28L40.7979 74.917V87.9014Z" fill="#F2501B"/>
<path fill-rule="evenodd" clip-rule="evenodd" d="M40.7979 18.8662H54.5022V31.8251L51.0826 29.1L47.6373 31.8251L44.2179 29.1L40.7979 31.8251V18.8662Z" fill="#F2501B"/>
<path fill-rule="evenodd" clip-rule="evenodd" d="M77.7463 105.206C93.1729 105.206 105.746 92.6328 105.746 77.2064C105.746 61.8049 93.1729 49.2324 77.7463 49.2324C62.3448 49.2324 49.7715 61.8049 49.7715 77.2064C49.7715 92.6328 62.3448 105.206 77.7463 105.206Z" fill="#008080"/>
<path fill-rule="evenodd" clip-rule="evenodd" d="M61.0593 80.7789C59.5935 79.3904 59.5164 77.077 60.8787 75.5848C62.2674 74.1194 64.5815 74.0425 66.0728 75.431L72.5779 81.4993L89.3677 65.2236C90.8076 63.8096 93.1472 63.8608 94.5612 65.3007C95.9756 66.7663 95.9497 69.0802 94.4836 70.4944L75.2004 89.2125H75.1747C73.7864 90.5753 71.5491 90.601 70.1355 89.2639L61.0593 80.7789Z" fill="white"/>
</svg>
