<svg width="729" height="486" viewBox="0 0 729 486" fill="none" xmlns="http://www.w3.org/2000/svg">
<g clip-path="url(#clip0_447_967)">
<path d="M264.639 265.303H210.378C209.27 265.303 209.268 267.025 210.378 267.025H264.639C265.747 267.026 265.749 265.303 264.639 265.303Z" fill="#C7ECFF"/>
<path d="M234.923 271.332H195.304C194.196 271.332 194.194 273.054 195.304 273.054H234.924C236.032 273.054 236.034 271.332 234.923 271.332Z" fill="#C7ECFF"/>
<path d="M433.432 265.303H487.693C488.801 265.303 488.803 267.025 487.693 267.025H433.432C432.324 267.026 432.322 265.303 433.432 265.303Z" fill="#C7ECFF"/>
<path d="M463.147 271.332H502.767C503.875 271.332 503.877 273.054 502.767 273.054H463.147C462.039 273.054 462.037 271.332 463.147 271.332Z" fill="#C7ECFF"/>
<path d="M160.363 305.431C160.065 300.98 159.067 269.467 159.067 269.467C156.378 266.47 73.2337 277.917 73.0452 278.022C73.0452 278.022 73.6148 242.956 73.0452 243.152C71.3033 237.467 67.3405 232.196 63.6226 227.523C60.2731 223.313 55.5424 218.188 49.861 217.466C45.9973 216.974 41.7575 218.79 40.6027 222.729C38.9698 228.296 44.1039 234.302 46.5747 238.851C50.7154 246.478 53.7568 254.347 54.5383 263.048C55.2789 271.289 54.2749 279.607 53.2173 287.774C51.3307 302.342 48.8443 318.138 54.8697 332.117C59.6364 343.176 70.4898 352.234 82.8488 351.544C82.8983 351.541 82.946 351.54 82.9955 351.542C85.2603 351.605 130.348 352.543 130.37 352.084C153.671 348.209 161.888 328.243 160.363 305.431Z" fill="#FD9F88"/>
<path d="M76.0592 332.783C70.6238 332.783 66.2031 328.361 66.2031 322.926V162.125C66.2031 156.689 70.6248 152.268 76.0592 152.268H142.237C147.672 152.268 152.093 156.689 152.093 162.125V322.926C152.093 328.362 147.671 332.783 142.237 332.783H76.0592Z" fill="#172B48"/>
<path d="M148.549 313.716H69.7471V162.211C69.7471 158.618 72.6592 155.706 76.2517 155.706H142.044C145.637 155.706 148.549 158.618 148.549 162.211V313.716Z" fill="#013D29"/>
<path d="M69.7471 163.015V173.304C76.831 180.388 83.9159 187.473 90.9999 194.557C110.183 213.74 129.367 232.924 148.549 252.106V241.817C122.282 215.549 96.0144 189.282 69.7471 163.015Z" fill="#172B48"/>
<path d="M148.549 163.015V173.304C141.465 180.388 134.38 187.473 127.296 194.557C108.113 213.74 88.9295 232.924 69.7471 252.106V241.817C96.0144 215.549 122.282 189.282 148.549 163.015Z" fill="#172B48"/>
<path d="M148.549 313.716H69.7471V210.013C69.7471 207.028 72.1674 204.607 75.1524 204.607H143.144C146.129 204.607 148.549 207.028 148.549 210.013V313.716Z" fill="white"/>
<path d="M109.148 328.529C111.934 328.529 114.192 326.271 114.192 323.485C114.192 320.7 111.934 318.441 109.148 318.441C106.363 318.441 104.104 320.7 104.104 323.485C104.104 326.271 106.363 328.529 109.148 328.529Z" fill="#0B2140"/>
<path d="M94.8801 241.697H81.3032C79.6333 241.697 78.2803 240.344 78.2803 238.674V221.127C78.2803 219.458 79.6343 218.104 81.3032 218.104H94.8801C96.55 218.104 97.903 219.458 97.903 221.127V238.674C97.903 240.344 96.55 241.697 94.8801 241.697Z" fill="#C7ECFF"/>
<path d="M140.017 219.28H102.681V223.901H140.017V219.28Z" fill="#013D29"/>
<path d="M128.993 226.263H102.976V227.144H128.993V226.263Z" fill="#C7ECFF"/>
<path d="M128.993 228.908H102.976V229.79H128.993V228.908Z" fill="#C7ECFF"/>
<path d="M128.993 231.555H102.976V232.436H128.993V231.555Z" fill="#C7ECFF"/>
<path d="M129.139 237.581H125.023V241.697H129.139V237.581Z" fill="#C7ECFF"/>
<path d="M134.358 237.802V241.477H130.683V237.802H134.358ZM134.578 237.581H130.463V241.697H134.578V237.581Z" fill="#C7ECFF"/>
<path d="M140.017 237.581H135.901V241.697H140.017V237.581Z" fill="#C7ECFF"/>
<path d="M137.977 238.247V241.031" stroke="white" stroke-width="0.705" stroke-miterlimit="10"/>
<path d="M139.369 239.639H136.585" stroke="white" stroke-width="0.705" stroke-miterlimit="10"/>
<path d="M128.455 239.639H125.671" stroke="white" stroke-width="0.705" stroke-miterlimit="10"/>
<path d="M94.8801 271.39H81.3032C79.6333 271.39 78.2803 270.036 78.2803 268.367V250.821C78.2803 249.151 79.6343 247.798 81.3032 247.798H94.8801C96.55 247.798 97.903 249.152 97.903 250.821V268.367C97.903 270.036 96.55 271.39 94.8801 271.39Z" fill="#C7ECFF"/>
<path d="M140.017 248.973H102.681V253.594H140.017V248.973Z" fill="#013D29"/>
<path d="M128.993 255.955H102.976V256.837H128.993V255.955Z" fill="#C7ECFF"/>
<path d="M128.993 258.601H102.976V259.482H128.993V258.601Z" fill="#C7ECFF"/>
<path d="M128.993 261.247H102.976V262.129H128.993V261.247Z" fill="#C7ECFF"/>
<path d="M129.139 267.273H125.023V271.389H129.139V267.273Z" fill="#C7ECFF"/>
<path d="M134.358 267.494V271.169H130.683V267.494H134.358ZM134.578 267.273H130.463V271.389H134.578V267.273Z" fill="#C7ECFF"/>
<path d="M140.017 267.273H135.901V271.389H140.017V267.273Z" fill="#C7ECFF"/>
<path d="M137.977 267.939V270.723" stroke="white" stroke-width="0.705" stroke-miterlimit="10"/>
<path d="M139.369 269.331H136.585" stroke="white" stroke-width="0.705" stroke-miterlimit="10"/>
<path d="M128.455 269.331H125.671" stroke="white" stroke-width="0.705" stroke-miterlimit="10"/>
<path d="M94.8801 301.083H81.3032C79.6333 301.083 78.2803 299.73 78.2803 298.06V280.513C78.2803 278.843 79.6343 277.49 81.3032 277.49H94.8801C96.55 277.49 97.903 278.844 97.903 280.513V298.06C97.903 299.73 96.55 301.083 94.8801 301.083Z" fill="#C7ECFF"/>
<path d="M140.017 278.666H102.681V283.287H140.017V278.666Z" fill="#013D29"/>
<path d="M128.993 285.647H102.976V286.529H128.993V285.647Z" fill="#C7ECFF"/>
<path d="M128.993 288.294H102.976V289.176H128.993V288.294Z" fill="#C7ECFF"/>
<path d="M128.993 290.94H102.976V291.822H128.993V290.94Z" fill="#C7ECFF"/>
<path d="M129.139 296.967H125.023V301.082H129.139V296.967Z" fill="#C7ECFF"/>
<path d="M134.358 297.187V300.863H130.683V297.187H134.358ZM134.578 296.967H130.463V301.082H134.578V296.967Z" fill="#C7ECFF"/>
<path d="M140.017 296.967H135.901V301.082H140.017V296.967Z" fill="#C7ECFF"/>
<path d="M137.977 297.633V300.417" stroke="white" stroke-width="0.705" stroke-miterlimit="10"/>
<path d="M139.369 299.024H136.585" stroke="white" stroke-width="0.705" stroke-miterlimit="10"/>
<path d="M128.455 299.024H125.671" stroke="white" stroke-width="0.705" stroke-miterlimit="10"/>
<path d="M128.151 165.745C132.866 156.982 131.312 145.923 123.849 139.341C119.838 135.803 114.57 133.656 108.8 133.656C108.276 133.656 107.756 133.674 107.242 133.709C91.2671 134.789 82.3723 152.934 90.5692 166.687C97.2614 177.916 108.978 192.586 108.978 192.586C108.978 192.586 121.833 177.488 128.151 165.745Z" fill="#172B48"/>
<path d="M102.237 154.285C102.237 150.66 105.176 147.721 108.801 147.721C112.426 147.721 115.364 150.659 115.364 154.285C115.364 157.909 112.426 160.848 108.801 160.848C105.176 160.848 102.237 157.909 102.237 154.285Z" fill="white"/>
<path d="M158.716 227.535C155.404 221.789 146.266 226.703 144.849 236.565C143.982 242.597 148.804 248.807 154.871 248.997C161.589 249.208 158.716 227.535 158.716 227.535Z" fill="#FD9F88"/>
<path d="M158.586 245.058C155.274 239.313 146.137 244.226 144.719 254.088C143.852 260.12 148.674 266.33 154.742 266.521C161.459 266.732 159.892 247.324 158.586 245.058Z" fill="#FD9F88"/>
<path d="M158.455 262.581C155.143 256.835 146.007 261.749 144.588 271.61C143.721 277.643 148.544 283.853 154.611 284.043C161.329 284.254 159.761 264.846 158.455 262.581Z" fill="#FD9F88"/>
<path d="M158.325 280.102C155.014 274.357 145.876 279.27 144.459 289.132C143.592 295.164 148.414 301.374 154.481 301.565C161.199 301.776 159.632 282.369 158.325 280.102Z" fill="#FD9F88"/>
<path d="M358.008 260.211H338.041C337.949 263.228 336.352 267.058 337.929 269.732C341.53 275.832 348.761 273.901 350.216 276.362C358.364 290.142 366.087 298.762 366.087 298.762C358.774 307.652 364.742 323.549 364.062 338.19L368.614 338.415L373.916 297.53C375.149 287.233 362.401 269.675 358.008 260.211Z" fill="#FD9F88"/>
<path d="M359.552 260.211H344.127V270.993C346.605 271.936 349.359 274.434 350.216 276.362C356.469 290.441 369.998 293.059 369.998 293.059C358.106 301.268 359.599 309.089 351.64 324.068L355.131 326.506L377.352 294.184C378.023 286.147 364.522 269.114 359.552 260.211Z" fill="#FF8F73"/>
<path d="M359.552 260.211H344.127V270.993C346.605 271.936 349.359 274.434 350.216 276.362C356.469 290.441 369.998 293.059 369.998 293.059C361.166 299.156 359.715 305.042 356.294 313.802C357.512 315.362 359.464 316.461 361.47 317.287L377.353 294.184C378.023 286.147 364.522 269.114 359.552 260.211Z" fill="#0B2140"/>
<path d="M357.38 324.821C357.754 325.733 358.833 328.451 359.252 330.447C359.252 330.447 359.775 331.647 361.938 332.267C362.112 332.317 362.23 332.483 362.216 332.664C362.215 332.683 362.213 332.703 362.21 332.723C362.136 333.35 361.627 333.833 361 333.913C360.64 333.958 360.17 333.953 359.571 333.83C359.571 333.83 355.434 332.883 354.229 331.374C354.172 331.302 354.146 331.211 354.162 331.12L354.208 330.843C354.208 330.843 353.24 330.123 353.137 330.105C353.078 330.096 352.944 330.199 352.84 330.29C352.749 330.369 352.623 330.391 352.511 330.346C351.82 330.065 349.397 328.967 348.19 327.013C348.131 326.917 348.13 326.796 348.185 326.697C348.51 326.115 349.69 324.107 351.019 323.13C351.192 323.003 351.408 322.94 351.619 322.98C351.815 323.017 352.005 323.135 351.987 323.465C351.987 323.465 353.685 326.057 355.738 325.705C355.84 325.55 355.718 325.399 356.06 325.059C356.261 324.859 356.637 324.703 356.912 324.609C357.1 324.546 357.304 324.637 357.38 324.821Z" fill="#001637"/>
<path d="M349.642 324.514C351.079 325.397 352.35 326.613 353.543 327.789C355.761 329.976 358.869 333.085 362.025 332.305C362.107 332.354 362.17 332.431 362.199 332.521C359.048 333.051 355.344 330.793 353.246 328.762C351.829 327.392 350.546 326.186 348.996 325.39C349.19 325.108 349.406 324.808 349.642 324.514Z" fill="white"/>
<path d="M430.964 318.517L433.792 350.561" stroke="#C7ECFF" stroke-width="0.2268" stroke-miterlimit="10"/>
<path d="M433.792 318.517L430.964 350.561" stroke="#C7ECFF" stroke-width="0.2268" stroke-miterlimit="10"/>
<path d="M431.05 319L444.668 348.144" stroke="#C7ECFF" stroke-width="0.2268" stroke-miterlimit="10"/>
<path d="M433.707 318.032L442.009 349.112" stroke="#C7ECFF" stroke-width="0.2268" stroke-miterlimit="10"/>
<path d="M431.294 319.425L454.059 342.154" stroke="#C7ECFF" stroke-width="0.2268" stroke-miterlimit="10"/>
<path d="M433.461 317.607L451.893 343.973" stroke="#C7ECFF" stroke-width="0.2268" stroke-miterlimit="10"/>
<path d="M431.671 319.741L460.837 333.314" stroke="#C7ECFF" stroke-width="0.2268" stroke-miterlimit="10"/>
<path d="M433.085 317.292L459.422 335.764" stroke="#C7ECFF" stroke-width="0.2268" stroke-miterlimit="10"/>
<path d="M432.132 319.91L464.181 322.689" stroke="#C7ECFF" stroke-width="0.2268" stroke-miterlimit="10"/>
<path d="M432.624 317.124L463.69 325.474" stroke="#C7ECFF" stroke-width="0.2268" stroke-miterlimit="10"/>
<path d="M432.624 319.909L463.69 311.559" stroke="#C7ECFF" stroke-width="0.2268" stroke-miterlimit="10"/>
<path d="M432.132 317.124L464.181 314.345" stroke="#C7ECFF" stroke-width="0.2268" stroke-miterlimit="10"/>
<path d="M433.085 319.741L459.422 301.27" stroke="#C7ECFF" stroke-width="0.2268" stroke-miterlimit="10"/>
<path d="M431.671 317.292L460.837 303.719" stroke="#C7ECFF" stroke-width="0.2268" stroke-miterlimit="10"/>
<path d="M433.461 319.425L451.893 293.06" stroke="#C7ECFF" stroke-width="0.2268" stroke-miterlimit="10"/>
<path d="M431.294 317.607L454.059 294.877" stroke="#C7ECFF" stroke-width="0.2268" stroke-miterlimit="10"/>
<path d="M433.707 319.001L442.009 287.921" stroke="#C7ECFF" stroke-width="0.2268" stroke-miterlimit="10"/>
<path d="M431.05 318.032L444.668 288.888" stroke="#C7ECFF" stroke-width="0.2268" stroke-miterlimit="10"/>
<path d="M433.792 318.517L430.964 286.472" stroke="#C7ECFF" stroke-width="0.2268" stroke-miterlimit="10"/>
<path d="M430.964 318.517L433.792 286.472" stroke="#C7ECFF" stroke-width="0.2268" stroke-miterlimit="10"/>
<path d="M433.707 318.032L420.089 288.888" stroke="#C7ECFF" stroke-width="0.2268" stroke-miterlimit="10"/>
<path d="M431.049 319.001L422.747 287.921" stroke="#C7ECFF" stroke-width="0.2268" stroke-miterlimit="10"/>
<path d="M433.461 317.607L410.696 294.877" stroke="#C7ECFF" stroke-width="0.2268" stroke-miterlimit="10"/>
<path d="M431.294 319.425L412.863 293.06" stroke="#C7ECFF" stroke-width="0.2268" stroke-miterlimit="10"/>
<path d="M433.085 317.292L403.919 303.719" stroke="#C7ECFF" stroke-width="0.2268" stroke-miterlimit="10"/>
<path d="M431.67 319.741L405.333 301.27" stroke="#C7ECFF" stroke-width="0.2268" stroke-miterlimit="10"/>
<path d="M432.624 317.124L400.574 314.345" stroke="#C7ECFF" stroke-width="0.2268" stroke-miterlimit="10"/>
<path d="M432.132 319.909L401.066 311.559" stroke="#C7ECFF" stroke-width="0.2268" stroke-miterlimit="10"/>
<path d="M432.132 317.124L401.066 325.474" stroke="#C7ECFF" stroke-width="0.2268" stroke-miterlimit="10"/>
<path d="M432.624 319.91L400.574 322.689" stroke="#C7ECFF" stroke-width="0.2268" stroke-miterlimit="10"/>
<path d="M431.67 317.292L405.333 335.764" stroke="#C7ECFF" stroke-width="0.2268" stroke-miterlimit="10"/>
<path d="M433.085 319.741L403.919 333.314" stroke="#C7ECFF" stroke-width="0.2268" stroke-miterlimit="10"/>
<path d="M431.294 317.607L412.863 343.973" stroke="#C7ECFF" stroke-width="0.2268" stroke-miterlimit="10"/>
<path d="M433.461 319.425L410.696 342.154" stroke="#C7ECFF" stroke-width="0.2268" stroke-miterlimit="10"/>
<path d="M431.049 318.032L422.747 349.112" stroke="#C7ECFF" stroke-width="0.2268" stroke-miterlimit="10"/>
<path d="M433.707 319L420.089 348.144" stroke="#C7ECFF" stroke-width="0.2268" stroke-miterlimit="10"/>
<path d="M432.378 284.821C413.769 284.821 398.683 299.907 398.683 318.517C398.683 337.126 413.768 352.212 432.378 352.212C450.987 352.212 466.072 337.127 466.072 318.517C466.073 299.908 450.987 284.821 432.378 284.821ZM432.378 349.998C414.991 349.998 400.897 335.903 400.897 318.517C400.897 301.13 414.992 287.036 432.378 287.036C449.764 287.036 463.859 301.13 463.859 318.517C463.859 335.903 449.764 349.998 432.378 349.998Z" fill="#172B48"/>
<path d="M432.311 350.046C414.915 350.046 400.763 335.893 400.763 318.497C400.763 301.102 414.915 286.949 432.311 286.949C449.707 286.949 463.859 301.102 463.859 318.497C463.859 335.893 449.707 350.046 432.311 350.046ZM432.311 288.303C415.662 288.303 402.118 301.848 402.118 318.496C402.118 335.145 415.662 348.69 432.311 348.69C448.959 348.69 462.504 335.145 462.504 318.496C462.504 301.848 448.959 288.303 432.311 288.303Z" fill="#C7ECFF"/>
<path d="M429.62 318.516C429.62 316.993 430.855 315.759 432.378 315.759C433.901 315.759 435.135 316.993 435.135 318.516C435.135 320.039 433.901 321.274 432.378 321.274C430.855 321.274 429.62 320.039 429.62 318.516Z" fill="#C7ECFF"/>
<path d="M430.964 318.517C430.964 317.735 431.597 317.103 432.378 317.103C433.159 317.103 433.792 317.735 433.792 318.517C433.792 319.297 433.159 319.931 432.378 319.931C431.597 319.931 430.964 319.297 430.964 318.517Z" fill="#172B48"/>
<path d="M313.667 318.517L316.496 350.561" stroke="#C7ECFF" stroke-width="0.2268" stroke-miterlimit="10"/>
<path d="M316.496 318.517L313.667 350.561" stroke="#C7ECFF" stroke-width="0.2268" stroke-miterlimit="10"/>
<path d="M313.752 319L327.371 348.144" stroke="#C7ECFF" stroke-width="0.2268" stroke-miterlimit="10"/>
<path d="M316.41 318.032L324.712 349.112" stroke="#C7ECFF" stroke-width="0.2268" stroke-miterlimit="10"/>
<path d="M313.997 319.425L336.762 342.154" stroke="#C7ECFF" stroke-width="0.2268" stroke-miterlimit="10"/>
<path d="M316.164 317.607L334.595 343.973" stroke="#C7ECFF" stroke-width="0.2268" stroke-miterlimit="10"/>
<path d="M314.374 319.741L343.54 333.314" stroke="#C7ECFF" stroke-width="0.2268" stroke-miterlimit="10"/>
<path d="M315.788 317.292L342.125 335.764" stroke="#C7ECFF" stroke-width="0.2268" stroke-miterlimit="10"/>
<path d="M314.835 319.91L346.884 322.689" stroke="#C7ECFF" stroke-width="0.2268" stroke-miterlimit="10"/>
<path d="M315.326 317.124L346.393 325.474" stroke="#C7ECFF" stroke-width="0.2268" stroke-miterlimit="10"/>
<path d="M315.326 319.909L346.393 311.559" stroke="#C7ECFF" stroke-width="0.2268" stroke-miterlimit="10"/>
<path d="M314.835 317.124L346.884 314.345" stroke="#C7ECFF" stroke-width="0.2268" stroke-miterlimit="10"/>
<path d="M315.788 319.741L342.125 301.27" stroke="#C7ECFF" stroke-width="0.2268" stroke-miterlimit="10"/>
<path d="M314.374 317.292L343.54 303.719" stroke="#C7ECFF" stroke-width="0.2268" stroke-miterlimit="10"/>
<path d="M316.164 319.425L334.595 293.06" stroke="#C7ECFF" stroke-width="0.2268" stroke-miterlimit="10"/>
<path d="M313.997 317.607L336.762 294.877" stroke="#C7ECFF" stroke-width="0.2268" stroke-miterlimit="10"/>
<path d="M316.41 319.001L324.712 287.921" stroke="#C7ECFF" stroke-width="0.2268" stroke-miterlimit="10"/>
<path d="M313.752 318.032L327.371 288.888" stroke="#C7ECFF" stroke-width="0.2268" stroke-miterlimit="10"/>
<path d="M316.496 318.517L313.667 286.472" stroke="#C7ECFF" stroke-width="0.2268" stroke-miterlimit="10"/>
<path d="M313.667 318.517L316.496 286.472" stroke="#C7ECFF" stroke-width="0.2268" stroke-miterlimit="10"/>
<path d="M316.41 318.032L302.792 288.888" stroke="#C7ECFF" stroke-width="0.2268" stroke-miterlimit="10"/>
<path d="M313.751 319.001L305.449 287.921" stroke="#C7ECFF" stroke-width="0.2268" stroke-miterlimit="10"/>
<path d="M316.164 317.607L293.399 294.877" stroke="#C7ECFF" stroke-width="0.2268" stroke-miterlimit="10"/>
<path d="M313.997 319.425L295.566 293.06" stroke="#C7ECFF" stroke-width="0.2268" stroke-miterlimit="10"/>
<path d="M315.788 317.292L286.622 303.719" stroke="#C7ECFF" stroke-width="0.2268" stroke-miterlimit="10"/>
<path d="M314.373 319.741L288.036 301.27" stroke="#C7ECFF" stroke-width="0.2268" stroke-miterlimit="10"/>
<path d="M315.326 317.124L283.277 314.345" stroke="#C7ECFF" stroke-width="0.2268" stroke-miterlimit="10"/>
<path d="M314.836 319.909L283.769 311.559" stroke="#C7ECFF" stroke-width="0.2268" stroke-miterlimit="10"/>
<path d="M314.836 317.124L283.769 325.474" stroke="#C7ECFF" stroke-width="0.2268" stroke-miterlimit="10"/>
<path d="M315.326 319.91L283.277 322.689" stroke="#C7ECFF" stroke-width="0.2268" stroke-miterlimit="10"/>
<path d="M314.373 317.292L288.036 335.764" stroke="#C7ECFF" stroke-width="0.2268" stroke-miterlimit="10"/>
<path d="M315.788 319.741L286.622 333.314" stroke="#C7ECFF" stroke-width="0.2268" stroke-miterlimit="10"/>
<path d="M313.997 317.607L295.566 343.973" stroke="#C7ECFF" stroke-width="0.2268" stroke-miterlimit="10"/>
<path d="M316.164 319.425L293.399 342.154" stroke="#C7ECFF" stroke-width="0.2268" stroke-miterlimit="10"/>
<path d="M313.751 318.032L305.449 349.112" stroke="#C7ECFF" stroke-width="0.2268" stroke-miterlimit="10"/>
<path d="M316.41 319L302.792 348.144" stroke="#C7ECFF" stroke-width="0.2268" stroke-miterlimit="10"/>
<path d="M315.081 284.821C296.472 284.821 281.386 299.907 281.386 318.517C281.386 337.126 296.471 352.212 315.081 352.212C333.69 352.212 348.776 337.127 348.776 318.517C348.775 299.908 333.69 284.821 315.081 284.821ZM315.081 349.998C297.694 349.998 283.6 335.903 283.6 318.517C283.6 301.13 297.695 287.036 315.081 287.036C332.468 287.036 346.562 301.13 346.562 318.517C346.562 335.903 332.467 349.998 315.081 349.998Z" fill="#172B48"/>
<path d="M315.014 350.046C297.618 350.046 283.465 335.893 283.465 318.497C283.465 301.102 297.617 286.949 315.014 286.949C332.41 286.949 346.562 301.102 346.562 318.497C346.562 335.893 332.41 350.046 315.014 350.046ZM315.014 288.303C298.366 288.303 284.821 301.848 284.821 318.496C284.821 335.145 298.366 348.69 315.014 348.69C331.662 348.69 345.207 335.145 345.207 318.496C345.207 301.848 331.662 288.303 315.014 288.303Z" fill="#C7ECFF"/>
<path d="M310.346 318.517C310.346 315.901 312.466 313.781 315.081 313.781C317.697 313.781 319.817 315.901 319.817 318.517C319.817 321.132 317.697 323.252 315.081 323.252C312.466 323.252 310.346 321.132 310.346 318.517Z" fill="#C7ECFF"/>
<path d="M313.667 318.517C313.667 317.735 314.3 317.103 315.081 317.103C315.862 317.103 316.496 317.735 316.496 318.517C316.496 319.297 315.863 319.931 315.081 319.931C314.3 319.931 313.667 319.297 313.667 318.517Z" fill="#565655"/>
<path d="M390.298 239.173C388.695 239.348 387.09 239.524 385.486 239.699C384.596 239.796 384.024 240.693 384.313 241.542C384.524 242.163 385.138 242.553 385.79 242.482C387.277 242.319 388.766 242.156 390.253 241.994C392.034 241.799 392.102 238.977 390.298 239.173Z" fill="#182B5D"/>
<path d="M389.88 240.717C389.868 241.46 391.8 257.258 391.974 257.85L393.543 257.316C393.402 256.866 391.52 241.923 391.539 240.744C391.556 239.676 389.897 239.648 389.88 240.717Z" fill="#C7ECFF"/>
<path d="M393.16 263.716L394.509 263.106C393.616 261.417 393.258 259.499 393.483 257.603C393.796 254.969 394.268 249.659 394.471 247.318C394.521 246.735 394.007 246.266 393.432 246.371C392.039 246.625 389.73 247.052 388.619 247.282C387.133 247.035 387.178 249.111 388.325 248.883C389.864 248.576 391.405 248.269 392.945 247.961C392.897 249.382 392.293 254.421 391.89 257.663C391.659 259.522 391.988 261.405 392.836 263.076L393.16 263.716Z" fill="#C7ECFF"/>
<path d="M390.859 246.55C388.954 246.967 387.049 247.384 385.143 247.802C384.518 247.939 384.072 248.493 384.072 249.133C384.072 250.003 384.877 250.65 385.727 250.465C387.554 250.064 389.381 249.665 391.209 249.264C392.917 248.89 392.578 246.174 390.859 246.55Z" fill="#182B5D"/>
<path d="M432.357 317.962L394.918 263.638L394.819 263.317L395.071 263.094C395.161 263.013 395.196 262.901 395.169 262.779C395.125 262.583 394.949 262.436 394.757 262.436C394.712 262.436 394.662 262.447 394.604 262.471C394.59 262.476 394.575 262.482 394.572 262.482C394.572 262.482 394.573 262.481 394.579 262.477C393.904 262.795 393.317 263.029 392.692 263.231L392.606 263.259C392.412 263.319 392.306 263.49 392.338 263.697C392.365 263.881 392.493 264.016 392.656 264.034L392.996 264.071L393.097 264.399C393.247 264.886 431.033 318.907 431.033 318.907C431.323 319.31 431.884 319.341 432.26 319.016C432.547 318.765 432.588 318.29 432.357 317.962Z" fill="#013D29"/>
<path d="M354.886 316.85L354.824 316.663C353.739 313.339 352.667 310.011 351.594 306.682C349.246 299.387 346.91 292.087 344.578 284.786L342.366 277.928H340.408L341.768 282.444L341.606 282.659C341.03 283.425 318.705 311.506 314.049 317.357C313.756 317.724 313.788 318.246 314.118 318.581C314.507 318.976 315.15 318.95 315.498 318.517C322.117 310.287 342.445 284.566 342.445 284.566L342.754 285.536C346.325 296.736 357.881 332.173 358.17 332.443C358.36 332.621 359.644 332.399 359.769 331.953C359.829 331.74 355.214 317.853 354.886 316.85Z" fill="#013D29"/>
<path d="M395.734 267.077L393.349 263.419C393.349 263.419 391.595 294.827 389.777 305.135C389.004 309.517 385.708 313.127 381.655 314.963C381.4 315.079 381.14 315.188 380.878 315.29C375.666 317.311 370.109 318.358 364.485 318.358H354.999V320.405H364.485C371.622 320.405 378.705 318.76 385.123 315.655C380.563 322.585 373.756 327.916 365.739 330.566L359.257 332.708L360.542 336.597L367.024 334.455C384.257 326.943 389.117 318.023 392.077 308.597C393.939 302.671 395.734 267.077 395.734 267.077Z" fill="#013D29"/>
<path d="M351.591 270.799C350.281 269.7 347.557 270.019 345.259 270.57C342.632 271.201 339.919 271.416 337.224 271.209H335.77C334.828 271.209 334.065 271.972 334.065 272.914C334.065 274.943 335.681 276.605 337.709 276.667C338.728 276.698 339.118 276.711 339.118 276.711L340.471 279.691H343.163L342.37 276.585L353.525 274.102C353.525 274.102 354.089 272.894 351.591 270.799Z" fill="#013D29"/>
<path d="M356.914 324.499C355.063 324.017 315.553 316.631 315.553 316.631C314.336 316.315 312.963 316.47 312.646 317.687C312.329 318.904 312.195 320.729 314.076 321.517L344.121 331.348C342.662 336.954 346.023 342.683 351.629 344.143C357.236 345.603 362.965 342.242 364.425 336.635C365.774 331.666 362.408 325.93 356.914 324.499Z" fill="#013D29"/>
<path d="M315.133 320.07C314.363 319.87 314.377 317.89 315.145 318.09C315.145 318.09 354.215 326.066 356.445 325.721C354.204 325.213 321.565 318.913 315.085 317.664C314.41 317.534 313.785 318.068 313.816 318.754C313.855 319.673 314.254 320.184 314.531 320.301L345.685 330.495L315.133 320.07Z" fill="#FFAC00"/>
<path d="M348.877 332.893C349.635 329.981 352.611 328.235 355.523 328.994C358.435 329.752 360.181 332.727 359.423 335.639C358.664 338.551 355.689 340.297 352.777 339.539C349.865 338.78 348.119 335.804 348.877 332.893Z" fill="#FFAC00"/>
<path d="M359.309 333.984C359.316 334.397 359.272 334.817 359.163 335.237C358.514 337.729 355.967 339.224 353.475 338.575C350.983 337.925 349.488 335.379 350.137 332.887C350.787 330.394 353.333 328.899 355.825 329.549C356.245 329.658 356.633 329.825 356.991 330.032C356.572 329.769 356.107 329.565 355.604 329.434C352.952 328.743 350.242 330.333 349.552 332.985C348.861 335.636 350.451 338.346 353.103 339.037C355.754 339.728 358.464 338.138 359.156 335.487C359.287 334.982 359.334 334.477 359.309 333.984Z" fill="#013D29"/>
<path d="M352.739 334.607L354.769 344.474C356.174 344.408 357.533 344.058 358.773 343.468C358.773 343.468 355.199 337.377 353.413 334.332C353.192 334.424 352.97 334.522 352.739 334.607Z" fill="#EDEDED"/>
<path d="M365.752 342.784L355.298 333.705C355.115 333.407 354.825 333.176 354.46 333.081C353.713 332.886 352.949 333.334 352.754 334.081C352.56 334.828 353.008 335.591 353.756 335.787L365.942 344.335L365.752 342.784Z" fill="white"/>
<path d="M365.244 344.936L371.364 344.965C371.824 344.967 372.191 344.582 372.168 344.124L372.084 342.513C372.062 342.085 371.707 341.751 371.279 341.754L365.214 341.794C364.768 341.797 364.41 342.163 364.419 342.609L364.448 344.151C364.456 344.585 364.81 344.934 365.244 344.936Z" fill="#0B2140"/>
<path d="M331.388 270.687H288.025V271.421H331.388V270.687Z" fill="#FDC62E"/>
<path d="M289.481 271.359H288.811V281.492H289.481V271.359Z" fill="#FDC62E"/>
<path d="M330.602 271.359H329.932V281.492H330.602V271.359Z" fill="#FDC62E"/>
<path d="M330.433 281.569H307.519V257.55H329.374L328.951 259.975C328.27 263.882 328.242 267.875 328.869 271.792L330.433 281.569Z" fill="#E6AE6C"/>
<path d="M322.125 258.806V253.859C322.125 252.307 320.449 251.045 318.388 251.045C316.327 251.045 314.651 252.307 314.651 253.859V258.806H314.286V253.859C314.286 252.156 316.126 250.771 318.388 250.771C320.65 250.771 322.49 252.156 322.49 253.859V258.806H322.125Z" fill="#E6AE6C"/>
<path d="M318.892 258.806V253.859C318.892 252.307 317.215 251.045 315.155 251.045C313.094 251.045 311.417 252.307 311.417 253.859V258.806H311.053V253.859C311.053 252.156 312.893 250.771 315.155 250.771C317.416 250.771 319.256 252.156 319.256 253.859V258.806H318.892Z" fill="#FCC584"/>
<path d="M327.534 281.569H302.797L304.192 274.119C305.214 268.656 305.397 263.068 304.732 257.549H326.838C325.264 263.021 325.016 268.79 326.117 274.377L327.534 281.569Z" fill="#FCC584"/>
<path d="M323.878 273.031C323.589 271.504 323.452 269.959 323.458 268.414H309.59C309.498 269.961 309.315 271.501 309.029 273.028L309.028 273.031H323.878Z" fill="white"/>
<path d="M305.653 273.031C305.364 271.504 305.227 269.959 305.233 268.414H291.366C291.273 269.961 291.09 271.501 290.805 273.028L290.804 273.031H305.653Z" fill="white"/>
<path d="M313.529 281.569H290.613V257.55H312.469L312.046 259.975C311.365 263.882 311.336 267.875 311.963 271.792L313.529 281.569Z" fill="#E6AE6C"/>
<path d="M305.222 258.806V253.859C305.222 252.307 303.545 251.045 301.485 251.045C299.424 251.045 297.747 252.307 297.747 253.859V258.806H297.383V253.859C297.383 252.156 299.223 250.771 301.485 250.771C303.746 250.771 305.586 252.156 305.586 253.859V258.806H305.222Z" fill="#E6AE6C"/>
<path d="M301.988 258.806V253.859C301.988 252.307 300.311 251.045 298.25 251.045C296.19 251.045 294.513 252.307 294.513 253.859V258.806H294.148V253.859C294.148 252.156 295.988 250.771 298.25 250.771C300.512 250.771 302.352 252.156 302.352 253.859V258.806H301.988Z" fill="#FCC584"/>
<path d="M310.631 281.569H285.894L287.288 274.119C288.311 268.656 288.494 263.068 287.829 257.549H309.935C308.36 263.021 308.113 268.79 309.214 274.377L310.631 281.569Z" fill="#FCC584"/>
<path d="M305.653 273.031C305.364 271.504 305.227 269.959 305.233 268.414H291.366C291.273 269.961 291.09 271.501 290.805 273.028L290.804 273.031H305.653Z" fill="white"/>
<path d="M343.077 281.454H284.423V284.651H343.077V281.454Z" fill="#013D29"/>
<path d="M327.786 270.687H284.423V271.421H327.786V270.687Z" fill="#FDC62E"/>
<path d="M285.88 271.359H285.209V281.492H285.88V271.359Z" fill="#FDC62E"/>
<path d="M327.001 271.359H326.33V281.492H327.001V271.359Z" fill="#FDC62E"/>
<path d="M358.007 260.211H338.04C337.948 263.228 336.351 267.058 337.928 269.732C341.529 275.832 348.76 273.901 350.215 276.362C358.364 290.142 366.086 298.762 366.086 298.762C358.773 307.652 364.741 323.549 364.061 338.19L368.613 338.415L373.916 297.53C375.148 287.233 362.4 269.675 358.007 260.211Z" fill="#FD9F88"/>
<path d="M363.204 322.878C365.649 323.535 368.242 323.803 370.593 323.146L373.916 297.53C375.148 287.232 362.4 269.675 358.007 260.211H338.04C337.948 263.228 336.351 267.058 337.928 269.732C341.529 275.832 348.76 273.901 350.215 276.362C358.364 290.142 366.086 298.762 366.086 298.762C361.305 304.575 362.201 313.383 363.204 322.878Z" fill="#172B48"/>
<path d="M374.13 339.4C374.13 339.4 375.238 340.097 377.375 339.393C377.547 339.336 377.737 339.406 377.827 339.564C377.837 339.58 377.847 339.598 377.857 339.616C378.148 340.176 377.999 340.862 377.526 341.28C377.254 341.52 376.862 341.781 376.299 342.016C376.299 342.016 372.345 343.562 370.501 342.992C370.413 342.965 370.34 342.904 370.302 342.821C370.302 342.821 368.778 342.745 368.742 342.878C368.711 342.995 368.62 343.084 368.502 343.11C367.772 343.265 365.152 343.723 363.054 342.787C362.951 342.74 362.882 342.64 362.871 342.527C362.812 341.865 362.658 339.54 363.207 337.985C363.279 337.783 363.421 337.609 363.619 337.523C363.802 337.443 364.026 337.434 364.195 337.717C364.195 337.717 367.058 338.904 368.557 337.458C368.554 337.272 368.368 337.216 368.459 336.742C368.513 336.464 368.735 336.124 368.91 335.891C369.03 335.733 372.66 337.986 374.13 339.4Z" fill="#172B48"/>
<path d="M367.915 340.416C370.979 340.976 375.298 341.797 377.468 339.376C377.564 339.369 377.659 339.397 377.734 339.456C375.427 341.667 371.095 341.885 368.218 341.386C366.276 341.05 364.537 340.776 362.808 340.99C362.808 340.647 362.819 340.278 362.847 339.903" fill="white"/>
<path d="M383.389 238.963C380.679 239.44 367.396 241.724 364.675 241.188C359.677 239.561 349.281 226.871 349.281 226.871C348.528 226.17 347.529 225.793 346.501 225.821C344.309 225.881 342.591 227.725 342.686 229.915L342.701 230.254C342.755 231.49 343.388 232.628 344.41 233.325C344.41 233.325 357.511 245.058 363.069 246.065C367.174 246.807 378.924 243.107 383.672 241.407C384.443 242.492 385.418 242.938 388.595 242.246C387.551 242.254 386.061 240.739 387.516 239.836C387.851 239.628 388.823 239.443 389.197 239.364C387.73 238.008 387.22 237.482 383.389 238.963Z" fill="#FF8F73"/>
<path d="M335.129 262.435C346.029 270.379 362.872 262.435 362.872 262.435C362.872 262.435 358.15 252.792 358.429 245.953C364.09 237.791 360.152 236.685 358.484 229.198C357.405 224.353 353.955 221.255 349.442 220.61C347.33 220.308 345.186 220.973 343.548 222.337C332.116 231.86 344.317 250.764 335.129 262.435Z" fill="#013D29"/>
<path d="M390.445 246.48C389.896 246.241 388.275 246.049 385.734 246.672C383.664 246.534 366.361 245.426 363.319 244.259C358.1 241.498 349.031 225.455 349.031 225.455C348.332 224.534 347.299 223.925 346.155 223.758C343.717 223.404 341.462 225.114 341.147 227.557L341.099 227.935C340.921 229.313 341.403 230.694 342.399 231.662C342.399 231.662 354.646 247.165 360.605 249.347C365.7 251.213 381.1 249.559 384.701 249.134C384.701 248.644 384.931 248.289 385.133 248.138C385.67 247.696 386.593 247.877 387.044 248.175C387.454 248.446 388.045 249.607 388.284 250.008C388.509 250.386 389.554 250.089 390.023 250.02C391.368 249.822 391.392 246.891 390.445 246.48Z" fill="#FD9F88"/>
<path d="M355.053 231.771C353.72 229.699 352.027 227.854 350.179 226.232C348.444 224.708 346.503 222.895 344.008 223.583C339.673 224.778 340.378 230.164 341.78 233.31C342.296 234.47 342.94 235.571 343.651 236.621C343.836 236.894 345.408 239.346 345.682 239.268C348.359 238.49 353.218 233.782 355.053 231.771Z" fill="#013D29"/>
<path d="M347.066 221.133L346.531 213.622L354.374 217.182C354.374 217.182 353.179 217.846 355.056 226.883C349.669 226.239 347.066 221.133 347.066 221.133Z" fill="#FD9F88"/>
<path d="M352.818 218.743L352.967 218.786C354.101 219.112 355.339 219.097 356.4 218.58C358.931 217.346 359.816 214.181 360.425 209.874C361.499 202.274 357.049 200.898 352.445 200.756C347.807 200.613 344.606 202.793 344.302 207.464C344.055 211.246 345.907 214.939 349.076 217.019C350.224 217.772 351.482 218.358 352.818 218.743Z" fill="#FD9F88"/>
<path d="M346.42 199.433C345.681 198.805 344.901 198.232 344.038 197.774C340.989 196.158 337.169 196.254 334.047 197.624C331.269 198.843 329.283 201.061 326.817 202.734C323.994 204.648 320.471 205.279 317.153 204.505C314.533 203.894 312.539 201.998 309.873 201.564C308.783 201.387 307.631 201.468 306.635 201.941C301.919 204.175 303.668 212.027 306.887 214.745C310.158 217.506 314.755 217.851 318.802 217.03C322.036 216.373 325.049 214.819 327.622 212.775C330.202 210.725 332.108 207.881 334.992 206.209C336.566 205.296 339.106 202.467 342.78 203.789C339.252 211.653 339.95 218.01 347.006 220.325L347.112 213.6C346.187 213.486 345.518 212.696 345.476 211.763C345.431 210.759 346.363 209.902 347.336 209.902H347.373C348.002 209.902 348.529 210.215 348.862 210.683C351.03 207.757 357.7 208.75 358.472 205.699C358.472 205.699 359.28 207.059 360.529 207.904C361.606 198.541 350.987 198.386 346.42 199.433Z" fill="url(#paint0_linear_447_967)"/>
<path d="M351.316 213.794C351.367 213.385 351.769 214.279 353.869 213.062C354.928 212.449 355.915 212.017 356.523 211.774C356.937 211.609 357.391 211.587 357.82 211.706C358.398 211.866 358.91 212.01 360.088 212.511C360.323 212.611 360.271 219.111 355.365 219.358C352.381 219.511 351.012 216.191 351.316 213.794Z" fill="white"/>
<path d="M351.466 214.902L349.395 210.2L352.24 214.478L351.466 214.902Z" fill="white"/>
<path d="M356.753 212.349C356.892 212.294 357.038 212.26 357.186 212.252C357.339 212.242 357.493 212.259 357.642 212.299C358.053 212.413 359.152 213.379 359.152 213.379C358.526 213.146 358.021 212.986 357.679 212.891C357.53 212.85 357.376 212.834 357.223 212.844C357.074 212.852 356.928 212.885 356.79 212.941C356.273 213.147 355.523 213.474 354.697 213.921C354.697 213.921 356.138 212.595 356.753 212.349Z" fill="#C7ECFF"/>
<path d="M355.621 218.891C357.482 217.62 357.346 214.458 357.155 213.346C357.102 214.472 356.664 217.496 355.621 218.891Z" fill="#C7ECFF"/>
<path d="M340.684 207.251C340.25 207.277 339.906 206.907 339.938 206.473C340.359 200.667 345.203 196.088 351.116 196.088C356.601 196.088 361.165 200.027 362.134 205.232C362.211 205.642 361.89 206.022 361.474 206.046L340.684 207.251Z" fill="#FDD159"/>
<path d="M340.684 207.251C340.25 207.277 339.906 206.907 339.938 206.473L362.134 205.231C362.211 205.642 361.89 206.022 361.474 206.046L340.684 207.251Z" fill="#FDC62E"/>
<path d="M354.171 219.093C354.171 219.093 348.393 217.541 349.431 206.636L347.557 206.764C347.557 206.764 347.428 219.248 354.171 219.093Z" fill="#FDC62E"/>
<path d="M349.999 196.145C349.213 196.222 348.454 196.388 347.724 196.62C350.846 196.844 353.585 198.664 354.988 201.528C355.238 202.038 355.999 201.592 355.749 201.083C354.567 198.669 352.469 196.92 349.999 196.145Z" fill="#013D29"/>
<path d="M357.978 200.817C357.325 199.172 356.253 197.787 354.915 196.753C353.975 196.415 352.978 196.201 351.94 196.125C354.305 196.956 356.219 198.767 357.183 201.2C357.392 201.729 358.186 201.343 357.978 200.817Z" fill="#013D29"/>
<path d="M440.379 184.346C440.356 184.32 440.336 184.291 440.317 184.261C439.437 182.86 437.245 182.511 435.979 183.585C434.615 181.269 431.267 180.402 428.951 181.765C429.878 179.515 429.42 176.758 427.814 174.928C426.209 173.099 423.534 172.287 421.182 172.915C422.477 170.36 421.424 167.186 419.685 164.912C417.916 162.599 415.449 160.819 412.526 160.382C408.507 159.782 404.794 161.769 402.392 164.912C400.652 167.187 399.599 170.361 400.894 172.915C398.543 172.287 395.867 173.099 394.262 174.928C392.656 176.758 392.198 179.515 393.126 181.765C390.809 180.402 387.461 181.269 386.097 183.585C384.832 182.511 382.64 182.86 381.759 184.261C381.741 184.291 381.72 184.32 381.697 184.346C381.273 184.834 381.62 185.593 382.265 185.593H411.038H439.811C440.457 185.592 440.803 184.833 440.379 184.346Z" fill="#EBF7FF"/>
<path d="M304.779 183.255C304.762 183.235 304.745 183.213 304.732 183.189C304.046 182.1 302.342 181.828 301.359 182.663C300.298 180.862 297.695 180.189 295.894 181.249C296.615 179.5 296.259 177.355 295.011 175.933C293.763 174.511 291.683 173.879 289.854 174.368C290.861 172.382 290.043 169.915 288.69 168.146C287.315 166.347 285.397 164.963 283.123 164.624C279.999 164.157 277.112 165.702 275.244 168.146C273.891 169.915 273.073 172.383 274.08 174.368C272.251 173.88 270.171 174.511 268.923 175.933C267.675 177.355 267.318 179.5 268.04 181.249C266.238 180.189 263.635 180.862 262.575 182.663C261.591 181.828 259.886 182.1 259.202 183.189C259.188 183.213 259.172 183.235 259.154 183.255C258.824 183.634 259.093 184.224 259.596 184.224H281.967H304.339C304.84 184.224 305.109 183.634 304.779 183.255Z" fill="#EBF7FF"/>
<path d="M355.338 166.75C355.328 166.739 355.32 166.727 355.312 166.715C354.951 166.139 354.052 165.996 353.533 166.438C352.973 165.487 351.599 165.132 350.65 165.691C351.031 164.769 350.842 163.636 350.183 162.887C349.524 162.136 348.427 161.803 347.462 162.061C347.994 161.013 347.562 159.71 346.848 158.777C346.123 157.829 345.11 157.099 343.911 156.919C342.262 156.673 340.739 157.487 339.753 158.777C339.04 159.71 338.607 161.013 339.139 162.061C338.175 161.803 337.077 162.136 336.418 162.887C335.759 163.637 335.572 164.769 335.952 165.691C335.001 165.131 333.628 165.487 333.069 166.438C332.55 165.997 331.651 166.14 331.289 166.715C331.282 166.727 331.273 166.739 331.264 166.75C331.09 166.95 331.232 167.261 331.497 167.261H343.3H355.103C355.37 167.262 355.512 166.95 355.338 166.75Z" fill="#EBF7FF"/>
<path d="M675.019 136.572H572.462V352.412H675.019V136.572Z" fill="#0E1C41"/>
<path d="M688.727 136.572H586.17V352.412H688.727V136.572Z" fill="#EBF7FF"/>
<path d="M674.039 337.55V307.125H600.858V337.55H674.039Z" stroke="#C7ECFF" stroke-width="2.0148" stroke-miterlimit="10" stroke-linecap="round"/>
<path d="M674.039 181.859V151.435H600.858V181.859H674.039Z" stroke="#C7ECFF" stroke-width="2.0148" stroke-miterlimit="10" stroke-linecap="round"/>
<path d="M674.039 295.375V193.54H600.858V295.375H674.039Z" stroke="#C7ECFF" stroke-width="2.0148" stroke-miterlimit="10" stroke-linecap="round"/>
<path d="M586.169 214.859C568.33 227.727 552.754 259.605 551.42 271.483C554.713 272.512 555.504 272.795 559.056 272.432C561.489 263.83 577.248 242.331 586.169 234.344V214.859Z" fill="#013D29"/>
<path d="M558.575 271.727C558.575 271.727 556.963 272.399 555.126 272.142C553.289 271.885 551.922 270.796 551.922 270.796C551.922 270.796 553.534 270.123 555.372 270.381C557.21 270.638 558.575 271.727 558.575 271.727Z" fill="#06104F"/>
<path d="M560.278 285.74C559.677 285.395 559.106 284.953 558.682 284.401C558.219 283.799 558.13 283.241 558.147 282.502C558.164 281.732 558.117 280.541 558.07 279.62C558.026 278.768 557.671 277.963 557.068 277.361L557.067 277.36L557.647 271.548C555.648 270.59 554.853 270.406 552.751 270.701C552.338 271.568 551.955 273.378 551.31 275.293C551.079 275.982 550.777 276.651 550.39 277.266C548.552 280.185 547.795 282.799 547.61 283.228C547.459 283.579 546.983 284.444 546.43 285.431C545.613 286.578 544.887 287.775 544.331 289.099C544.203 289.405 544.243 289.804 544.606 289.93C545.106 290.104 545.504 289.343 545.748 289.03C546.128 288.542 548.397 286.015 548.863 285.708C548.157 287.387 546.36 291.765 546.203 292.37C546.119 292.692 546.218 293.081 546.595 293.153C547.115 293.252 547.399 292.441 547.595 292.097C547.901 291.56 550.813 286.704 550.971 286.509C550.897 286.823 549.56 292.14 549.59 294.326C549.595 294.659 549.792 295.008 550.175 294.978C550.702 294.938 550.764 294.08 550.862 293.696C551.015 293.098 551.149 292.493 551.31 291.896C551.635 290.679 552.62 287.628 552.599 287.787C552.312 289.944 552.145 292.057 552.463 294.22C552.511 294.549 552.752 294.869 553.128 294.79C553.646 294.68 553.593 293.823 553.64 293.428C553.713 292.814 553.767 292.197 553.847 291.584C553.989 290.495 555.247 286.22 555.857 285.34C557.029 285.188 557.632 286.786 558.774 286.99C559.424 287.107 560.211 287.342 560.662 286.769C561.103 286.213 560.766 286.021 560.278 285.74Z" fill="#FD9F88"/>
<path d="M585.891 261.761L598.343 245.159C599.678 243.378 602.344 243.36 603.704 245.122L616.827 262.121" stroke="white" stroke-width="1.1102" stroke-miterlimit="10"/>
<path d="M620.783 259.693H581.934V281.277H620.783V259.693Z" fill="#FCC584"/>
<path d="M590.96 269.066C590.468 269.066 589.997 268.997 589.547 268.859C589.097 268.715 588.74 268.532 588.476 268.31L588.881 267.401C589.133 267.599 589.445 267.764 589.817 267.896C590.189 268.028 590.57 268.094 590.96 268.094C591.29 268.094 591.557 268.058 591.761 267.986C591.965 267.914 592.115 267.818 592.211 267.698C592.307 267.572 592.355 267.431 592.355 267.275C592.355 267.083 592.286 266.93 592.148 266.816C592.01 266.696 591.83 266.603 591.608 266.537C591.392 266.465 591.149 266.399 590.879 266.339C590.615 266.279 590.348 266.21 590.078 266.132C589.814 266.048 589.571 265.943 589.349 265.817C589.133 265.685 588.956 265.511 588.818 265.295C588.68 265.079 588.611 264.803 588.611 264.467C588.611 264.125 588.701 263.813 588.881 263.531C589.067 263.243 589.346 263.015 589.718 262.847C590.096 262.673 590.573 262.586 591.149 262.586C591.527 262.586 591.902 262.634 592.274 262.73C592.646 262.826 592.97 262.964 593.246 263.144L592.877 264.053C592.595 263.885 592.304 263.762 592.004 263.684C591.704 263.6 591.416 263.558 591.14 263.558C590.816 263.558 590.552 263.597 590.348 263.675C590.15 263.753 590.003 263.855 589.907 263.981C589.817 264.107 589.772 264.251 589.772 264.413C589.772 264.605 589.838 264.761 589.97 264.881C590.108 264.995 590.285 265.085 590.501 265.151C590.723 265.217 590.969 265.283 591.239 265.349C591.509 265.409 591.776 265.478 592.04 265.556C592.31 265.634 592.553 265.736 592.769 265.862C592.991 265.988 593.168 266.159 593.3 266.375C593.438 266.591 593.507 266.864 593.507 267.194C593.507 267.53 593.414 267.842 593.228 268.13C593.048 268.412 592.769 268.64 592.391 268.814C592.013 268.982 591.536 269.066 590.96 269.066ZM593.776 268.976L596.611 262.676H597.763L600.607 268.976H599.383L596.944 263.297H597.412L594.982 268.976H593.776ZM595.081 267.518L595.396 266.6H598.798L599.113 267.518H595.081ZM602.48 265.574H605.621V266.564H602.48V265.574ZM602.579 268.976H601.409V262.676H606.008V263.657H602.579V268.976ZM608.219 265.295H611.351V266.258H608.219V265.295ZM608.309 267.995H611.864V268.976H607.139V262.676H611.738V263.657H608.309V267.995Z" fill="white"/>
<path d="M588.53 278.695V277.912L592.598 272.944L592.733 273.385H588.593V272.395H593.786V273.178L589.718 278.146L589.574 277.705H593.903V278.695H588.53ZM597.857 278.785C597.365 278.785 596.912 278.704 596.498 278.542C596.084 278.38 595.724 278.155 595.418 277.867C595.112 277.573 594.875 277.231 594.707 276.841C594.539 276.445 594.455 276.013 594.455 275.545C594.455 275.077 594.539 274.648 594.707 274.258C594.875 273.862 595.112 273.52 595.418 273.232C595.724 272.938 596.084 272.71 596.498 272.548C596.912 272.386 597.362 272.305 597.848 272.305C598.34 272.305 598.79 272.386 599.198 272.548C599.612 272.71 599.972 272.938 600.278 273.232C600.584 273.52 600.821 273.862 600.989 274.258C601.157 274.648 601.241 275.077 601.241 275.545C601.241 276.013 601.157 276.445 600.989 276.841C600.821 277.237 600.584 277.579 600.278 277.867C599.972 278.155 599.612 278.38 599.198 278.542C598.79 278.704 598.343 278.785 597.857 278.785ZM597.848 277.759C598.166 277.759 598.46 277.705 598.73 277.597C599 277.489 599.234 277.336 599.432 277.138C599.63 276.934 599.783 276.7 599.891 276.436C600.005 276.166 600.062 275.869 600.062 275.545C600.062 275.221 600.005 274.927 599.891 274.663C599.783 274.393 599.63 274.159 599.432 273.961C599.234 273.757 599 273.601 598.73 273.493C598.46 273.385 598.166 273.331 597.848 273.331C597.53 273.331 597.236 273.385 596.966 273.493C596.702 273.601 596.468 273.757 596.264 273.961C596.066 274.159 595.91 274.393 595.796 274.663C595.688 274.927 595.634 275.221 595.634 275.545C595.634 275.863 595.688 276.157 595.796 276.427C595.91 276.697 596.066 276.934 596.264 277.138C596.462 277.336 596.696 277.489 596.966 277.597C597.236 277.705 597.53 277.759 597.848 277.759ZM602.481 278.695V272.395H603.444L607.395 277.246H606.918V272.395H608.079V278.695H607.116L603.165 273.844H603.642V278.695H602.481ZM590.087 286.014H593.219V286.977H590.087V286.014ZM590.177 288.714H593.732V289.695H589.007V283.395H593.606V284.376H590.177V288.714Z" fill="white"/>
<path d="M616.469 242.166H592.969V246.817H616.469V242.166Z" fill="#C7ECFF"/>
<path d="M578.789 352.412H539.587V311.321H576.976L576.252 315.47C575.085 322.154 575.038 328.985 576.11 335.685L578.789 352.412Z" fill="#E6AE6C"/>
<path d="M564.577 313.469V305.004C564.577 302.35 561.708 300.19 558.184 300.19C554.658 300.19 551.791 302.35 551.791 305.004V313.469H551.167V305.004C551.167 302.091 554.314 299.721 558.184 299.721C562.052 299.721 565.201 302.091 565.201 305.004V313.469H564.577Z" fill="#E6AE6C"/>
<path d="M559.043 313.469V305.004C559.043 302.35 556.175 300.19 552.651 300.19C549.125 300.19 546.258 302.35 546.258 305.004V313.469H545.634V305.004C545.634 302.091 548.782 299.721 552.651 299.721C556.52 299.721 559.668 302.091 559.668 305.004V313.469H559.043Z" fill="#FCC584"/>
<path d="M573.83 352.412H531.511L533.896 339.668C535.646 330.321 535.958 320.761 534.82 311.32H572.639C569.945 320.682 569.522 330.55 571.406 340.108L573.83 352.412Z" fill="#FCC584"/>
<path d="M567.051 335.574C566.502 332.672 566.242 329.733 566.254 326.798H539.892C539.717 329.737 539.369 332.667 538.825 335.569L538.824 335.575H567.051V335.574Z" fill="white"/>
<path d="M538.319 330.828H508.821V352.411H538.319V330.828Z" fill="#E6AE6C"/>
<path d="M540.117 330.828H510.62V352.411H540.117V330.828Z" fill="#DBA360"/>
<path d="M538.319 330.828H508.821V352.411H538.319V330.828Z" fill="#FCBF76"/>
<path d="M532.442 337.303H514.697V343.148H532.442V337.303Z" fill="white"/>
<path d="M528.085 320.235H522.742C519.872 320.235 517.545 322.562 517.545 325.433H533.283C533.283 322.562 530.956 320.235 528.085 320.235ZM520.062 324.057C520.445 322.649 521.735 321.611 523.263 321.611H527.565C529.093 321.611 530.382 322.649 530.765 324.057H520.062Z" fill="#E6AE6C"/>
<path d="M540.116 330.828H510.62L514.937 325.433H535.8L540.116 330.828Z" fill="#E6AE6C"/>
<path d="M538.319 330.828H508.821L513.138 325.433H534.002L538.319 330.828Z" fill="#FCC584"/>
<path d="M526.242 320.235H520.898C518.028 320.235 515.701 322.562 515.701 325.433H531.439C531.439 322.562 529.112 320.235 526.242 320.235ZM518.219 324.057C518.602 322.649 519.891 321.611 521.419 321.611H525.721C527.249 321.611 528.538 322.649 528.921 324.057H518.219Z" fill="#FCBF76"/>
</g>
<defs>
<linearGradient id="paint0_linear_447_967" x1="-3370.1" y1="2235.23" x2="528.136" y2="100.906" gradientUnits="userSpaceOnUse">
<stop stop-color="#3A24FF"/>
<stop offset="1" stop-color="#1D0B58"/>
</linearGradient>
<clipPath id="clip0_447_967">
<rect width="729" height="486" fill="white"/>
</clipPath>
</defs>
</svg>
