<svg width="18" height="18" viewBox="0 0 18 18" fill="none" xmlns="http://www.w3.org/2000/svg">
<g clip-path="url(#clip0_192_3255)">
<path d="M17.4727 3.16406H15.8555C15.6875 3.16406 15.5295 3.24408 15.4302 3.37957L14.42 4.7571C14.2846 4.94177 14.0283 4.98843 13.8365 4.8633C13.6287 4.72781 13.5765 4.44424 13.7269 4.24339C14.6897 2.91997 14.8008 2.91407 14.8008 2.63672C14.8008 2.34461 14.5622 2.10938 14.2734 2.10938H12.2467C13.3116 1.42295 14.5519 1.05469 15.8491 1.05469H17.4727C17.7639 1.05469 18 0.818578 18 0.527344C18 0.236109 17.7639 0 17.4727 0H15.849C13.8703 0 11.975 0.757793 10.5459 2.10938H7.41797C7.12673 2.10938 6.89062 2.34548 6.89062 2.63672V6.36328H3.69141C3.40017 6.36328 3.16406 6.59939 3.16406 6.89062V12.7403C2.09552 12.8172 1.06576 13.2217 0.230379 13.899C0.00414844 14.0824 -0.0305508 14.4144 0.152895 14.6407C0.33634 14.867 0.668426 14.9016 0.894656 14.7182C1.63986 14.114 2.57857 13.7812 3.53791 13.7812H4.71094C5.00171 13.7812 5.23828 14.0178 5.23828 14.3086C5.23828 14.5994 5.00171 14.8359 4.71094 14.8359H3.16406C2.87283 14.8359 2.63672 15.072 2.63672 15.3633C2.63672 15.6545 2.87283 15.8906 3.16406 15.8906H8.31199C8.09437 16.5045 7.50786 16.9453 6.82031 16.9453H0.527344C0.236109 16.9453 0 17.1814 0 17.4727C0 17.7639 0.236109 18 0.527344 18H6.82031C8.09367 18 9.15898 17.0927 9.40398 15.8906H12.1641C12.4553 15.8906 12.6914 15.6545 12.6914 15.3633V9.49219H16.3828C16.674 9.49219 16.9102 9.25608 16.9102 8.96484V4.21875H17.4727C17.7639 4.21875 18 3.98264 18 3.69141C18 3.40017 17.7639 3.16406 17.4727 3.16406ZM12.6037 6.59974C12.5093 6.45732 12.3478 6.36328 12.1641 6.36328H11.0075C10.6008 5.67555 11.0979 4.79883 11.9004 4.79883C12.8494 4.79883 13.2906 5.96693 12.6037 6.59974ZM7.94531 3.16406H13.2177C12.9392 3.55004 12.8218 3.65316 12.711 3.90765C11.1298 3.24049 9.43861 4.67891 9.87638 6.36328H7.94531V3.16406ZM7.41797 7.41797H8.47266V9.52734H7.41797V7.41797ZM11.6367 14.8359C9.76236 14.8359 8.15463 14.8359 6.20262 14.8359C6.56617 13.8106 5.80166 12.7266 4.71094 12.7266H4.21875V7.41797H6.36328V10.0547C6.36328 10.3459 6.59939 10.582 6.89062 10.582H9C9.29123 10.582 9.52734 10.3459 9.52734 10.0547V7.41797H11.6367V14.8359ZM12.6914 8.4375V7.77329C13.421 7.47724 13.93 6.78913 13.9865 5.98507C14.4945 6.0139 14.9738 5.78542 15.2705 5.3808L15.8555 4.58314V8.4375H12.6914Z" fill="#008080"/>
</g>
<defs>
<clipPath id="clip0_192_3255">
<rect width="18" height="18" fill="white"/>
</clipPath>
</defs>
</svg>
