<svg width="18" height="18" viewBox="0 0 18 18" fill="none" xmlns="http://www.w3.org/2000/svg">
<path d="M15.2905 1.62179C14.9256 1.2561 14.4403 1.05469 13.9239 1.05469H13.0518V0.878906C13.0518 0.394277 12.6575 0 12.1729 0H5.84473C5.3601 0 4.96582 0.394277 4.96582 0.878906V1.05469H4.09054C3.02667 1.05469 2.16018 1.92115 2.15898 2.98614L2.14453 16.0643C2.14397 16.5811 2.34461 17.0672 2.70949 17.4329C3.07442 17.7986 3.55975 18 4.07609 18H13.9094C14.9733 18 15.8398 17.1335 15.841 16.0686L15.8555 2.99043C15.8561 2.47352 15.6554 1.98745 15.2905 1.62179ZM6.02051 1.05469H11.9971V2.10938H6.02051V1.05469ZM14.7874 16.0674C14.7869 16.5515 14.393 16.9453 13.9094 16.9453H4.07609C3.84138 16.9453 3.62078 16.8538 3.45491 16.6875C3.28904 16.5213 3.19785 16.3004 3.19809 16.0655L3.21254 2.98733C3.21307 2.5032 3.60693 2.10938 4.09054 2.10938H4.96582V2.28516C4.96582 2.76979 5.3601 3.16406 5.84473 3.16406H12.1729C12.6575 3.16406 13.0518 2.76979 13.0518 2.28516V2.10938H13.9239C14.1586 2.10938 14.3792 2.20092 14.5451 2.36714C14.711 2.53336 14.8022 2.75432 14.8019 2.98923L14.7874 16.0674Z" fill="#008080"/>
<path d="M9.17969 7.03125H12.9263C13.2176 7.03125 13.4537 6.79514 13.4537 6.50391C13.4537 6.21267 13.2176 5.97656 12.9263 5.97656H9.17969C8.88845 5.97656 8.65234 6.21267 8.65234 6.50391C8.65234 6.79514 8.88845 7.03125 9.17969 7.03125Z" fill="#008080"/>
<path d="M9.17969 10.5469H12.9263C13.2176 10.5469 13.4537 10.3108 13.4537 10.0195C13.4537 9.7283 13.2176 9.49219 12.9263 9.49219H9.17969C8.88845 9.49219 8.65234 9.7283 8.65234 10.0195C8.65234 10.3108 8.88845 10.5469 9.17969 10.5469Z" fill="#008080"/>
<path d="M12.9414 13.0078H9.17969C8.88845 13.0078 8.65234 13.2439 8.65234 13.5352C8.65234 13.8264 8.88845 14.0625 9.17969 14.0625H12.9414C13.2326 14.0625 13.4688 13.8264 13.4688 13.5352C13.4688 13.2439 13.2327 13.0078 12.9414 13.0078Z" fill="#008080"/>
<path d="M6.93434 5.06754L5.71821 6.28367L5.43148 5.9969C5.22553 5.79095 4.89165 5.79095 4.68571 5.9969C4.47976 6.20281 4.47976 6.53672 4.68571 6.74267L5.34535 7.40234C5.44424 7.50123 5.57836 7.55681 5.71825 7.55681C5.8581 7.55681 5.99222 7.50127 6.09112 7.40234L7.68014 5.81335C7.88609 5.60744 7.88609 5.27352 7.68014 5.06758C7.4742 4.8616 7.14032 4.8616 6.93434 5.06754Z" fill="#008080"/>
<path d="M6.93434 8.85169L5.71821 10.0678L5.43148 9.78108C5.22553 9.57514 4.89165 9.57514 4.68571 9.78108C4.47976 9.98699 4.47976 10.3209 4.68571 10.5269L5.34535 11.1865C5.44424 11.2854 5.57836 11.341 5.71825 11.341C5.8581 11.341 5.99226 11.2855 6.09112 11.1865L7.68014 9.5975C7.88609 9.39159 7.88609 9.05767 7.68014 8.85173C7.4742 8.64578 7.14028 8.64578 6.93434 8.85169Z" fill="#008080"/>
<path d="M6.93434 12.3673L5.71821 13.5834L5.43148 13.2967C5.22553 13.0908 4.89165 13.0908 4.68571 13.2967C4.47976 13.5026 4.47976 13.8365 4.68571 14.0425L5.34535 14.7022C5.44424 14.801 5.57836 14.8566 5.71825 14.8566C5.8581 14.8566 5.99226 14.8011 6.09112 14.7022L7.68014 13.1131C7.88609 12.9072 7.88609 12.5733 7.68014 12.3674C7.4742 12.1614 7.14028 12.1614 6.93434 12.3673Z" fill="#008080"/>
</svg>
