<svg width="224" height="224" viewBox="0 0 224 224" fill="none" xmlns="http://www.w3.org/2000/svg">
<path d="M133 129.5C158.129 129.5 178.5 109.129 178.5 84C178.5 58.871 158.129 38.5 133 38.5C107.871 38.5 87.5 58.871 87.5 84C87.5 109.129 107.871 129.5 133 129.5Z" fill="white"/>
<path d="M140 45.5C114.877 45.5 94.5 65.877 94.5 91C94.5 101.78 98.266 111.664 104.538 119.455C112.329 125.727 122.22 129.5 133 129.5C158.13 129.5 178.5 109.13 178.5 84C178.5 73.22 174.734 63.336 168.462 55.538C160.671 49.273 150.78 45.5 140 45.5Z" fill="#008080"/>
<path d="M133 133C105.98 133 84 111.013 84 84C84 56.987 105.98 35 133 35C142.464 35 151.641 37.702 159.544 42.805C161.168 43.855 161.63 46.018 160.58 47.642C159.53 49.259 157.367 49.742 155.743 48.678C148.981 44.31 141.113 42 133 42C109.837 42 91 60.837 91 84C91 107.163 109.837 126 133 126C156.163 126 175 107.163 175 84C175 79.506 174.293 75.089 172.907 70.861C172.305 69.02 173.306 67.046 175.14 66.444C176.974 65.821 178.955 66.85 179.557 68.67C181.174 73.612 182 78.764 182 84C182 111.013 160.02 133 133 133Z" fill="#455A64"/>
<path d="M129.5 102.893C129.472 102.893 129.444 102.893 129.416 102.893C128.401 102.865 127.456 102.41 126.805 101.633L109.305 80.6335C108.073 79.1425 108.276 76.9375 109.753 75.6985C111.244 74.4665 113.442 74.6695 114.688 76.1465L129.619 94.0735L173.124 46.0185C174.44 44.5905 176.652 44.5065 178.066 45.8015C179.487 47.1105 179.585 49.3225 178.276 50.7505L132.076 101.759C131.411 102.487 130.487 102.893 129.5 102.893Z" fill="#455A64"/>
<path d="M154 203C154 210.728 160.279 217 168 217C175.721 217 182 210.728 182 203C182 195.272 175.721 189 168 189C160.279 189 154 195.272 154 203ZM168 196C171.864 196 175 199.143 175 203C175 206.857 171.864 210 168 210C164.136 210 161 206.857 161 203C161 199.143 164.136 196 168 196Z" fill="#455A64"/>
<path d="M168 210C171.866 210 175 206.866 175 203C175 199.134 171.866 196 168 196C164.134 196 161 199.134 161 203C161 206.866 164.134 210 168 210Z" fill="#FF8A80"/>
<path d="M59.5 147H10.5C8.568 147 7 145.432 7 143.5C7 141.568 8.568 140 10.5 140H59.5C61.432 140 63 141.568 63 143.5C63 145.432 61.432 147 59.5 147Z" fill="#455A64"/>
<path d="M45.5 168H17.5C15.568 168 14 166.432 14 164.5C14 162.568 15.568 161 17.5 161H45.5C47.432 161 49 162.568 49 164.5C49 166.432 47.432 168 45.5 168Z" fill="#455A64"/>
<path d="M45.5 119H24.5C22.568 119 21 117.432 21 115.5C21 113.568 22.568 112 24.5 112H45.5C47.432 112 49 113.568 49 115.5C49 117.432 47.432 119 45.5 119Z" fill="#455A64"/>
<path d="M213.696 73.36C212.072 71.225 209.447 70 206.5 70H192.5C190.568 70 189 71.568 189 73.5C189 75.432 190.568 77 192.5 77H206.5C207.256 77 207.83 77.217 208.131 77.602C208.425 77.994 208.474 78.603 208.278 79.338L190.967 142.814C190.344 145.082 187.642 147.28 185.304 147.413L182 147.616L87.269 153.181C85.869 153.265 84.525 153.566 83.223 153.951L55.482 24.423C55.076 22.54 53.172 21 51.247 21H24.5C22.568 21 21 22.568 21 24.5C21 26.425 22.568 28 24.5 28H49.091L76.804 157.43C71.358 161.952 68.397 169.414 70.903 177.072C73.304 184.38 80.584 189 88.277 189H189C190.932 189 192.5 187.432 192.5 185.5C192.5 183.568 190.932 182 189 182H87.5C81.711 182 77 177.289 77 171.5C77 165.599 81.795 160.524 87.675 160.167L185.717 154.406C191.03 154.098 196.308 149.821 197.722 144.662L215.033 81.186C215.81 78.337 215.327 75.495 213.696 73.36Z" fill="#455A64"/>
<path d="M98 213.5C103.799 213.5 108.5 208.799 108.5 203C108.5 197.201 103.799 192.5 98 192.5C92.201 192.5 87.5 197.201 87.5 203C87.5 208.799 92.201 213.5 98 213.5Z" fill="#FF8A80"/>
<path d="M98 217C96.068 217 94.5 215.432 94.5 213.5C94.5 211.568 96.068 210 98 210C101.857 210 105 206.864 105 203C105 199.136 101.857 196 98 196C94.143 196 91 199.136 91 203C91 204.932 89.432 206.5 87.5 206.5C85.568 206.5 84 204.932 84 203C84 195.279 90.279 189 98 189C105.721 189 112 195.279 112 203C112 210.721 105.721 217 98 217Z" fill="#455A64"/>
<path d="M98 217H45.5C43.568 217 42 215.432 42 213.5C42 211.568 43.568 210 45.5 210H98C99.932 210 101.5 211.568 101.5 213.5C101.5 215.432 99.932 217 98 217Z" fill="#455A64"/>
<path d="M31.5 217C33.433 217 35 215.433 35 213.5C35 211.567 33.433 210 31.5 210C29.567 210 28 211.567 28 213.5C28 215.433 29.567 217 31.5 217Z" fill="#455A64"/>
</svg>
