<svg width="244" height="186" viewBox="0 0 244 186" fill="none" xmlns="http://www.w3.org/2000/svg">
<path d="M142.429 8.49307C138.262 11.3302 134.696 20.7202 128.395 22.5279C127.039 22.327 125.507 22.5781 124.126 21.9253C119.733 5.25428 93.7721 6.08281 93.0189 24.3607C77.4275 19.4397 59.1245 30.4616 58.3211 47.3084C58.2458 49.0157 59.3756 50.5472 58.7479 52.606C58.4215 53.6605 53.1993 58.3555 51.9188 60.4142C46.2196 69.4778 49.3328 80.9015 58.4467 86.0986C61.0578 87.605 64.0204 87.8059 66.1796 89.6387C59.9782 89.5634 49.8601 103.473 48.1779 109.147C39.8424 93.2792 34.9717 71.4111 22.8701 57.9035C37.5326 15.7239 80.9174 -8.4039 124.754 2.69337C130.755 4.22489 136.328 7.38837 142.429 8.51818V8.49307Z" fill="#BEDADB"/>
<path d="M142.428 8.49553C143.307 7.89297 144.136 7.94318 145.14 7.86786C159.3 6.68783 175.218 8.69639 189.554 8.04361L205.899 21.7269C207.004 23.5848 206.426 30.2633 206.476 32.8995C206.677 47.1853 206.351 61.4963 206.451 75.8073C212.452 77.6652 214.008 89.0135 205.874 87.8084V93.2817C212.125 93.5579 217.423 96.872 223.172 98.755L224.202 97.2737C224.202 96.8218 222.595 97.6001 222.997 94.9136C223.524 91.3987 226.11 89.2646 229.675 89.6663C237.785 90.5701 240.797 103.801 230.554 102.019L229.65 103.4C229.65 104.178 235.249 109.928 236.278 111.434C254.631 138.298 237.785 174.678 205.949 178.796L205.899 183.616H242.505L242.153 185.449H130.879C128.946 183.265 132.511 185.55 132.135 182.662C131.984 181.507 131.005 181.884 130.904 181.382C130.478 179.499 130.98 175.783 130.904 173.549C130.854 172.369 131.532 171.113 129.674 171.44C129.674 171.038 129.674 170.636 129.674 170.209C129.699 168.377 129.649 166.544 129.674 164.711C130.226 164.611 131.08 164.862 131.507 164.711C130.955 171.088 133.716 177.44 132.737 183.616H201.957L203.388 182.612L203.463 178.721C199.672 179.273 196.132 178.168 192.492 177.515C191.387 177.315 191.337 177.515 191.261 177.515C190.533 177.34 190.031 177.064 189.429 176.913V175.683H186.391C184.583 175.005 183.855 174.729 182.123 173.85C182.022 173.323 182.273 172.394 182.123 172.017H182.725C183.026 173.523 184.483 172.946 185.16 173.247C187.018 174.026 187.998 174.553 190.031 175.08C190.107 175.08 190.358 175.482 191.261 175.683C223.223 182.738 250.413 151.655 238.513 120.799C227.064 91.1225 186.767 86.9296 167.761 111.635C167.284 112.263 166.581 112.413 166.857 113.468H175.695C176.147 113.468 177.277 111.283 177.905 110.781C193.27 98.2278 211.523 99.2571 224.804 113.468L222.972 114.07C212.351 102.873 195.429 101.567 182.75 110.154L178.457 114.372C180.691 117.259 191.513 117.485 192.391 120.598C193.27 123.711 188.274 125.419 185.763 125.067C185.713 126.096 185.914 127.151 185.462 128.13C185.261 128.532 179.511 134.005 178.859 134.332C175.519 136.064 171.251 136.34 170.799 131.771C169.243 132.423 169.619 134.181 169.268 134.809C168.916 135.436 168.063 136.24 167.435 136.641C167.435 136.516 166.958 136.064 166.832 135.411C166.732 134.984 168.464 133.629 166.23 134.809C166.029 133.227 166.531 131.243 166.23 129.737C166.18 129.511 164.648 128.607 164.146 127.452C162.69 124.088 161.409 120.372 160.154 117.108L170.448 105.107C171.226 103.199 167.561 102.471 166.255 102.471C158.045 94.537 174.063 84.2432 177.854 95.1396C177.754 95.5162 177.854 96.0183 177.704 96.5205C177.277 97.826 175.143 98.2026 176.951 99.4078C183.579 96.9222 190.081 93.3068 197.388 93.3068V87.8084C195.756 87.7581 194.073 88.0594 192.467 87.5322C187.696 86.0007 191.211 76.209 192.818 76.209H204.091V24.0367L203.087 23.2082C200.225 22.4801 197.337 23.6601 194.676 23.7354C174.816 24.3129 147.525 25.2419 128.469 22.4801C134.746 20.6724 138.336 11.2824 142.504 8.44532L142.428 8.49553ZM188.198 10.3283H144.588L134.52 21.3001H182.7L188.198 10.3283ZM201.003 21.3001C201.279 20.12 200.576 20.12 199.974 19.5928C198.442 18.2119 190.985 11.5084 189.73 11.5335L185.135 21.3001H201.003ZM208.937 85.3479L207.405 78.6443H193.069C193.32 79.8746 191.513 85.3479 193.37 85.3479H208.937ZM203.438 87.7833H199.773L200.4 93.2817H203.438V87.7833ZM227.667 92.1268C226.637 92.5787 224.98 94.6877 225.658 95.7171C228.445 96.3196 231.031 101.592 233.692 99.4078C237.107 96.6209 230.73 91.474 227.667 92.1016V92.1268ZM167.636 94.6877C166.079 96.0686 166.255 100.161 167.761 100.588C168.715 100.864 175.143 96.2192 175.218 95.4158C175.494 91.7753 169.695 92.88 167.636 94.6877ZM190.006 120.724C182.424 120.347 172.255 111.811 165.05 115.577C162.514 116.907 161.46 119.267 162.564 121.929C164.497 121.703 164.899 119.92 166.933 119.292C176.147 116.455 179.009 125.72 189.152 122.004C190.006 121.703 190.182 122.23 190.006 120.724ZM172.155 121.502C170.121 119.77 164.723 121.602 164.523 124.163C164.497 124.59 165.552 127.276 165.677 127.377C166.255 127.804 173.109 125.293 174.766 126.197C175.093 125.921 172.481 121.778 172.155 121.502ZM182.7 124.992L174.766 121.929C174.013 122.657 180.039 129.059 182.097 127.126L182.7 124.967V124.992ZM180.867 130.465C182.072 129.21 175.293 126.925 174.766 127.427C174.49 128.356 175.419 129.486 175.394 130.114C175.369 130.716 172.958 130.641 173.536 132.599C174.515 135.888 179.311 129.812 180.842 130.465H180.867Z" fill="#191918"/>
<path d="M22.8943 57.9047C34.9958 71.4123 39.8666 93.2804 48.2021 109.148C49.8591 103.474 60.0023 89.5395 66.2038 89.6399C66.3544 89.6399 68.1119 90.8702 69.2417 90.2425C55.7844 95.6907 50.0851 109.274 45.8923 122.078C41.6994 134.883 38.6865 147.913 35.749 160.14C33.9413 167.697 32.1336 175.305 30.8029 182.962C33.9664 182.435 54.9558 183.866 55.8848 182.611C58.0691 169.129 59.7262 155.521 58.8474 141.812C58.4708 135.987 56.7636 130.464 55.7091 124.815C55.1065 121.626 56.5878 122.078 58.044 124.338C63.2662 132.422 61.4837 165.588 60.0526 175.932C59.7764 177.991 58.0189 180.276 58.8725 182.988L129.272 183.515C130.226 183.138 130.201 182.31 130.277 181.456C130.503 179.046 129.649 174.426 129.624 171.388C131.482 171.037 130.804 172.317 130.854 173.497C130.955 175.757 130.427 179.473 130.854 181.33C130.98 181.833 131.934 181.481 132.084 182.611C132.461 185.498 128.896 183.214 130.829 185.398L128.394 186L126.887 184.168C105.647 185.398 82.5735 182.511 61.559 184.168C59.6759 184.318 59.9772 183.866 60.0526 186C44.8126 186 29.5476 186 14.3077 186V183.565H27.7399L33.2383 158.91C21.413 137.017 11.3451 112.839 4.41556 88.8867C1.72912 79.6223 -1.86118 67.6211 1.50315 58.206C5.64579 46.6317 16.492 50.7995 22.8692 57.9299L22.8943 57.9047ZM20.2329 58.7082C8.05608 46.8577 1.52825 57.9047 2.83381 70.9353C4.66662 89.414 20.5342 127.978 29.0706 145.352L34.4686 154.868L46.4446 113.09C41.6492 100.888 37.1801 88.3344 31.3553 76.5843C28.7693 71.3621 24.3003 62.6751 20.258 58.7082H20.2329Z" fill="#21201F"/>
<path d="M206.477 32.8979C207.883 33.2745 209.841 35.735 210.745 36.8648C222.797 52.1047 229.45 70.031 229.676 89.6145C226.111 89.2127 223.525 91.3468 222.997 94.8618C222.596 97.5483 224.203 96.795 224.203 97.2219L223.173 98.7032C217.424 96.8202 212.126 93.506 205.9 93.2299V87.7565C214.009 88.9617 212.453 77.6133 206.452 75.7554C206.352 61.4696 206.678 47.1335 206.477 32.8477V32.8979Z" fill="#BEDADB"/>
<path d="M60.1031 185.975C60.0278 183.841 59.7265 184.293 61.6095 184.142C82.624 182.485 105.697 185.372 126.938 184.142L128.444 185.975C105.672 185.95 82.9002 186 60.1282 185.975H60.1031Z" fill="#191918"/>
<path d="M128.419 22.5279C147.475 25.2897 174.767 24.3607 194.626 23.7833C197.288 23.708 200.2 22.5279 203.037 23.256L204.041 24.0846V76.2317H192.768C191.187 76.2317 187.672 86.0234 192.417 87.5549C194.024 88.0822 195.706 87.7809 197.338 87.8311V93.3295C190.032 93.3295 183.529 96.9449 176.901 99.4305C175.093 98.2254 177.227 97.8488 177.654 96.5432C177.83 96.0411 177.704 95.5138 177.805 95.1623C185.236 67.394 157.493 46.1285 131.281 51.3758C127.867 52.0537 123.674 56.4474 119.255 55.5185C118.125 54.4891 114.56 52.9073 114.058 51.878L111.874 40.6552C119.933 38.6717 126.31 30.3111 124.126 21.9756C125.507 22.6284 127.038 22.3773 128.394 22.5782L128.419 22.5279Z" fill="#FAFAF9"/>
<path d="M124.151 21.9021C126.335 30.2628 119.958 38.5983 111.899 40.5817L114.083 51.8045C114.585 52.8339 118.15 54.4156 119.28 55.445C130.478 65.7891 130.126 79.7736 115.615 86.5525C111.246 88.5862 112.577 86.6027 109.84 86.5023C108.76 86.4772 107.229 86.9542 106.451 87.7577C105.647 87.7325 104.819 87.7577 104.015 87.7577V86.5274H96.0814C93.5456 83.5146 93.2945 80.5269 93.0434 76.7608C92.9681 75.5055 93.2443 74.2501 92.4409 73.0952C93.4451 71.7143 95.2277 65.4878 95.5792 65.2367C96.0312 64.9354 98.4917 65.2869 99.7972 64.8852C102.81 63.9814 104.768 57.6544 102.659 55.5454C101.354 54.265 93.0434 55.5957 90.3068 55.3948C81.2432 54.742 74.389 50.1475 67.7356 44.4231L64.9739 52.9594L71.0749 52.6581C71.0247 55.1939 65.7773 53.8884 64.3462 54.1646C64.1955 62.4247 64.2207 71.2875 71.3761 76.7106C75.0669 79.5226 80.741 80.1 85.0845 78.5434V80.3762C83.6032 80.803 82.4734 81.2801 80.8164 80.9788V89.5151C80.8164 89.5151 79.6614 90.4441 78.9835 90.1177C78.858 89.6658 79.1342 88.8624 78.9835 88.31C78.3057 87.7325 70.4472 89.6407 69.2421 90.1177C68.1123 90.7454 66.3548 89.5151 66.2041 89.5151C64.0449 87.6823 61.0823 87.4564 58.4712 85.9751C49.3573 80.7779 46.2441 69.3543 51.9434 60.2907C53.2489 58.2319 58.4712 53.5369 58.7724 52.4824C59.4001 50.4236 58.2703 48.8921 58.3456 47.1848C59.149 30.3381 77.452 19.3412 93.0434 24.2371C93.7966 5.93413 119.757 5.1056 124.151 21.8017V21.9021Z" fill="#030303"/>
<path d="M104.015 87.7817C104.819 87.7817 105.647 87.7566 106.451 87.7817C110.116 87.9072 109.589 88.2587 111.798 88.9617C128.871 94.4852 132.11 103.649 134.47 121.073C135.198 126.497 130.679 127.099 126.486 129.334C125.708 129.735 125.733 131.166 123.549 130.489C124.252 128.455 122.72 128.254 122.394 127.551C118.703 119.542 114.728 111.859 110.61 104.051H108.961C108.233 106.411 113.104 113.617 114.334 116.228C115.037 117.709 114.585 119.19 116.167 120.019L122.394 134.079C123.95 135.083 135.248 127.727 137.533 126.497C139.014 125.693 140.37 125.844 141.4 124.237L156.815 117.031C159.301 117.91 159.351 120.948 160.23 122.68C161.109 124.413 164.448 129.233 164.849 130.991C165.678 134.631 164.272 133.351 163.192 136.012C162.992 136.062 162.766 135.937 162.59 136.012C158.598 137.519 150.162 146.733 146.245 149.997C139.291 155.771 128.244 165.588 119.557 167.094C107.957 169.103 100.425 154.641 95.8556 146.331C94.324 143.519 86.7418 126.497 85.7375 125.944C84.9089 125.492 84.7583 125.568 84.1809 126.246C83.3272 127.551 84.5073 129.66 85.0094 130.941C88.198 139.251 98.542 159.06 104.919 164.709C112.225 171.137 119.783 170.358 128.394 167.145L129.624 170.183C129.624 170.584 129.624 170.986 129.624 171.413C129.65 174.451 130.503 179.096 130.277 181.481C130.202 182.334 130.227 183.138 129.273 183.54L58.8731 183.012C58.0194 180.301 59.7769 178.016 60.0531 175.957C61.4591 165.613 63.2417 132.447 58.0445 124.362C56.6134 122.128 55.107 121.651 55.7096 124.84C56.7892 130.489 58.4714 135.987 58.848 141.837C59.7267 155.545 58.0445 169.178 55.8853 182.636C54.9564 183.891 33.9669 182.46 30.8035 182.987C32.1341 175.33 33.9418 167.722 35.7495 160.165C38.6619 147.938 41.8505 134.455 45.8928 122.103C49.935 109.75 55.7849 95.7155 69.2422 90.2672C70.4474 89.7902 78.3058 87.8821 78.9837 88.4596C79.1595 89.0119 78.8582 89.8153 78.9837 90.2672C80.0884 93.958 84.1808 95.5648 87.8465 95.2133C88.1226 95.1882 92.6168 93.8575 92.8427 93.7571C93.9726 93.2299 97.3118 89.037 98.316 87.8319C100.199 87.7817 102.107 87.8821 103.99 87.8319L104.015 87.7817Z" fill="#47A9A8"/>
<path d="M222.946 114.019C227.792 119.141 231.583 127.05 231.483 134.155C231.282 134.356 226.763 133.502 227.215 135.662C228.269 137.268 229.7 137.344 231.483 137.193C231.483 153.387 217.523 166.644 201.606 167.07L202.258 162.601C197.664 159.137 199.697 166.568 199.145 167.095C185.161 165.991 172.607 154.793 170.147 140.884C169.77 138.775 170.347 136.465 169.268 134.758C169.594 134.13 169.268 132.373 170.799 131.72C171.251 136.289 175.494 136.013 178.859 134.281C179.511 133.954 185.261 128.481 185.462 128.079C185.939 127.1 185.713 126.046 185.763 125.016C188.249 125.368 193.295 123.811 192.391 120.547C191.487 117.283 180.666 117.208 178.457 114.321L182.75 110.103C195.429 101.516 212.351 102.822 222.972 114.019H222.946ZM201.606 109.124H199.17V131.996C199.17 132.322 194.701 133.879 197.287 137.519C199.873 141.16 203.187 137.444 205.547 137.143C208.56 136.766 219.582 137.896 221.139 136.892C221.691 136.54 222.068 135.862 221.44 135.335C217.448 131.77 201.606 137.695 201.606 130.163V109.124Z" fill="#FAFAF9"/>
<path d="M177.83 95.1127C174.039 84.2163 158.045 94.5102 166.23 102.444C163.293 102.444 157.87 105.934 154.505 106.888C148.304 108.696 140.822 109.198 134.495 107.917C131.558 97.6234 125.055 91.0956 115.59 86.5764C130.101 79.7975 130.453 65.8129 119.255 55.4689C123.674 56.3978 127.867 52.0292 131.281 51.3262C157.493 46.0538 185.236 67.3445 177.805 95.1127H177.83ZM158.297 89.6143C160.732 84.4674 174.114 76.0817 171.252 69.6292C170.097 67.0432 161.586 58.8332 160.908 64.9844C160.606 67.6708 163.77 69.9807 161.987 72.868C161.711 73.3199 154.631 78.5422 153.627 79.1447C152.823 79.6469 151.894 79.8226 150.965 79.8226L153.401 83.7644C153.074 85.2457 147.676 85.6223 146.245 85.7227C145.793 85.7478 145.517 85.321 145.467 85.321C145.894 79.7473 151.467 80.9022 150.99 74.048C150.363 64.884 135.525 66.0138 136.905 75.8306C140.32 77.4123 139.491 74.048 140.822 72.4412C143.584 69.0768 149.258 71.0854 147.425 75.9812C146.019 79.7473 139.517 81.329 143.006 85.2959C140.772 85.5219 135.374 86.8023 135.776 89.7147C136.679 96.2174 146.622 91.9242 150.94 93.8323C149.936 95.5898 147.149 101.038 151.794 99.9584C152.396 99.8077 154.48 90.8697 158.246 92.602C160.255 96.0919 153.978 100.586 153.953 101.44C153.953 103.021 155.811 103.423 157.041 102.67C157.845 102.193 161.837 95.2132 161.912 94.0833C162.037 92.125 160.205 89.8654 158.271 89.5641L158.297 89.6143Z" fill="#BEDADB"/>
<path d="M191.237 175.605L190.007 175.003C187.973 174.475 186.994 173.948 185.136 173.17L182.7 171.94H182.098C181.495 170.559 177.453 168.651 175.997 167.37C173.185 164.91 169.645 161.52 167.46 158.507C165.276 155.494 163.418 151.076 161.962 147.536L161.359 145.703C161.108 145 161.058 143.795 160.757 143.267L161.234 142.966L160.757 141.435C160.857 141.033 160.531 140.38 160.908 139.778C161.56 138.723 165.678 137.417 165.628 135.334C166.029 135.334 166.431 135.334 166.858 135.334C166.983 135.986 167.435 136.438 167.46 136.564C169.318 145.904 169.143 149.896 175.972 157.629C206.075 191.623 255.31 146.029 224.78 113.39C211.498 99.1796 193.245 98.1502 177.88 110.704C177.252 111.206 176.122 113.39 175.67 113.39H166.833C166.557 112.336 167.26 112.16 167.737 111.557C186.743 86.8521 227.039 91.045 238.488 120.721C250.389 151.578 223.198 182.66 191.237 175.605Z" fill="#71BDBD"/>
<path d="M159.526 146.332C159.551 147.813 162.162 154.466 163.192 155.471L163.794 156.073C164.472 157.605 164.899 157.931 165.627 159.111C170.146 166.467 174.44 169.907 182.097 173.748C183.83 174.627 184.558 174.903 186.365 175.581C187.37 175.958 187.847 176.36 189.403 176.811C189.981 176.987 190.508 177.238 191.236 177.414H192.466C196.107 178.067 199.647 179.172 203.438 178.619L203.363 182.511L201.932 183.515H132.712C133.691 177.339 130.954 170.987 131.482 164.609C134.168 163.681 141.273 157.655 143.96 155.445C148.831 151.453 153.475 147.01 158.02 142.666L159.551 146.332H159.526Z" fill="#FAFAF9"/>
<path d="M188.199 10.3271L182.7 21.2989H134.52L144.588 10.3271H188.199Z" fill="#BEDADB"/>
<path d="M166.23 102.419C167.536 102.419 171.201 103.172 170.423 105.055L160.129 117.056C159.728 116.027 158.924 113.441 157.669 113.642L136.956 123.785C136.604 118.738 135.901 112.813 134.52 107.917C140.847 109.173 148.329 108.671 154.53 106.888C157.87 105.909 163.318 102.419 166.255 102.444L166.23 102.419Z" fill="#F3F4F4"/>
<path d="M224.78 113.391C255.285 146.03 206.075 191.624 175.972 157.629C169.143 149.921 169.318 145.904 167.46 136.564C168.088 136.163 168.967 135.359 169.293 134.732C170.373 136.439 169.795 138.749 170.172 140.858C172.658 154.742 185.186 165.965 199.171 167.069C199.698 166.542 197.664 159.11 202.284 162.575L201.631 167.044C217.549 166.617 231.508 153.361 231.508 137.167C229.726 137.318 228.295 137.242 227.24 135.635C226.788 133.451 231.307 134.305 231.508 134.129C231.609 127.024 227.818 119.115 222.972 113.993L224.805 113.391H224.78Z" fill="#21201F"/>
<path d="M129.624 170.133L128.394 167.095C119.757 170.308 112.2 171.087 104.919 164.659C98.5421 159.01 88.1981 139.201 85.0095 130.89C84.5073 129.61 83.3273 127.501 84.1809 126.195C84.7584 125.492 84.909 125.442 85.7376 125.894C86.7418 126.446 94.299 143.469 95.8557 146.281C100.425 154.591 107.932 169.078 119.557 167.044C128.244 165.538 139.266 155.721 146.245 149.947C150.187 146.683 158.598 137.468 162.59 135.962L158.975 141.812L158.924 142.666C159.276 142.766 160.004 142.54 160.155 142.666C160.054 143.193 159.552 146.13 159.552 146.331L158.02 142.666C153.476 147.034 148.831 151.453 143.961 155.445C141.274 157.654 134.169 163.68 131.482 164.609C131.056 164.76 130.202 164.483 129.65 164.609C129.625 166.442 129.675 168.275 129.65 170.107L129.624 170.133Z" fill="#21201F"/>
<path d="M160.732 143.293C160.531 142.916 160.406 142.891 160.129 142.69C160.255 142.113 160.657 141.736 160.732 141.46L161.209 142.991L160.732 143.293Z" fill="#21201F"/>
<path d="M190.008 120.723C190.208 122.23 190.008 121.677 189.154 122.004C179.011 125.745 176.123 116.455 166.934 119.292C164.901 119.92 164.499 121.728 162.566 121.928C161.461 119.242 162.515 116.882 165.051 115.576C172.257 111.81 182.45 120.347 190.008 120.723Z" fill="#F3F4F4"/>
<path d="M208.938 85.3461H193.371C191.513 85.3461 193.321 79.8728 193.07 78.6426H207.406L208.938 85.3461Z" fill="#71BDBD"/>
<path d="M201.004 21.2981H185.136L189.731 11.5315C190.986 11.4813 198.468 18.1849 199.974 19.5909C200.577 20.1432 201.28 20.1181 201.004 21.2981Z" fill="#88C7CA"/>
<path d="M182.098 171.966C182.249 172.318 181.998 173.272 182.098 173.799C174.44 169.958 170.147 166.518 165.628 159.162L167.461 159.764V158.534C169.645 161.547 173.185 164.911 175.997 167.397C177.453 168.677 181.496 170.586 182.098 171.966Z" fill="#21201F"/>
<path d="M172.155 121.499C172.482 121.775 175.068 125.918 174.767 126.194C173.135 125.29 166.255 127.775 165.678 127.374C165.552 127.273 164.498 124.587 164.523 124.16C164.724 121.599 170.122 119.766 172.155 121.499Z" fill="#F3F4F4"/>
<path d="M227.667 92.1248C230.755 91.4971 237.107 96.6441 233.693 99.4309C231.031 101.615 228.445 96.3177 225.658 95.7402C224.981 94.7108 226.612 92.6018 227.667 92.1499V92.1248Z" fill="#71BDBD"/>
<path d="M167.636 94.6854C169.695 92.8777 175.495 91.7729 175.219 95.4135C175.168 96.1918 168.716 100.837 167.762 100.585C166.23 100.159 166.055 96.0411 167.636 94.6854Z" fill="#71BDBD"/>
<path d="M180.868 130.462C179.337 129.81 174.516 135.886 173.562 132.596C172.985 130.613 175.395 130.713 175.42 130.111C175.445 129.483 174.491 128.353 174.792 127.424C175.32 126.922 182.099 129.207 180.893 130.462H180.868Z" fill="#C5C5C4"/>
<path d="M182.701 124.991L182.098 127.15C180.04 129.083 174.014 122.681 174.767 121.953L182.701 125.016V124.991Z" fill="#BEDADB"/>
<path d="M203.439 87.7803V93.2787L200.401 93.2536L199.774 87.7803H203.439Z" fill="#BEDADB"/>
<path d="M186.366 175.607H189.429V176.838C187.872 176.386 187.37 175.984 186.391 175.607H186.366Z" fill="#21201F"/>
<path d="M185.136 173.171C184.458 172.895 183.002 173.447 182.7 171.94L185.136 173.171Z" fill="#21201F"/>
<path d="M192.467 177.44H191.236C191.236 177.44 191.362 177.239 192.467 177.44Z" fill="#21201F"/>
<path d="M191.237 175.605C190.333 175.405 190.082 175.003 190.007 175.003L191.237 175.605Z" fill="#21201F"/>
<path d="M20.2331 58.7089C24.3004 62.6507 28.7443 71.3628 31.3303 76.5851C37.1551 88.3602 41.6242 100.889 46.4196 113.091L34.4436 154.869L29.0456 145.353C20.5092 128.004 4.64165 89.4398 2.80884 70.936C1.52839 57.9055 8.03107 46.8584 20.2079 58.7089H20.2331ZM16.7934 69.4798C17.17 69.1032 25.3298 71.8398 24.0995 67.9483C22.7186 63.5797 4.49103 72.9948 20.6348 73.748L21.6641 71.9152L17.3709 71.6139L16.7683 69.4798H16.7934ZM17.873 84.8955C15.1615 85.247 7.70468 88.1091 8.90981 91.6743C9.38685 93.1054 16.1155 93.9088 17.6972 93.9339C21.8399 93.9842 32.5606 91.7748 29.8992 86.0002C28.1668 84.092 20.5595 84.544 17.873 84.8955ZM36.0002 106.688C34.3934 106.236 28.4681 106.688 26.2336 106.688C25.4051 106.688 18.9777 109.425 18.2747 110.304C17.0947 111.76 16.9943 113.794 18.9275 112.814C20.1828 112.187 21.1871 111.057 22.6935 110.479C25.1791 109.525 32.9623 108.295 35.0713 109.425C35.8747 109.852 35.699 110.153 35.0713 110.655C33.59 111.86 30.3763 111.911 28.9703 113.718C32.0333 114.723 37.5317 113.392 37.5568 109.45C37.5568 108.521 36.7786 106.939 35.9751 106.713L36.0002 106.688Z" fill="#F2A747"/>
<path d="M85.1099 78.6438C80.7664 80.2004 75.0922 79.5978 71.4015 76.811C64.246 71.3628 64.1958 62.5251 64.3716 54.2649C65.7776 53.9888 71.05 55.2692 71.1002 52.7585L64.9992 53.0598L67.761 44.5234C74.3892 50.2478 81.2685 54.8424 90.3321 55.4952C93.0688 55.696 101.379 54.3654 102.685 55.6458C104.794 57.7548 102.81 64.0817 99.8226 64.9856C98.517 65.3873 96.0565 65.0358 95.6046 65.3371C95.2531 65.5631 93.4705 71.8147 92.4662 73.1956C91.7632 74.1496 86.2146 78.2923 85.135 78.694L85.1099 78.6438ZM82.4486 58.5833C80.1136 59.3616 81.8711 64.0315 85.1099 62.4749C87.5202 61.32 85.5869 57.5288 82.4486 58.5833ZM75.9459 59.1106L72.9832 60.1149L72.8828 64.2073C76.8246 67.2201 75.9459 61.797 75.9459 59.1357V59.1106ZM67.4848 62.726C68.3886 64.1822 73.5607 63.3034 71.4266 60.3157C70.121 58.4829 66.0035 60.3157 67.4848 62.726ZM82.6745 70.1074C82.3983 69.8061 75.4688 72.7185 74.9165 73.0198C74.2135 73.3964 73.8871 73.0198 74.1382 74.3756C76.3476 75.9824 85.0597 72.6683 82.6745 70.1074Z" fill="#F3F4F4"/>
<path d="M93.0432 76.8096C93.2943 80.5505 93.5454 83.5633 96.0812 86.5762C93.2692 90.6435 89.4781 93.1291 84.306 91.9239C82.7745 91.5725 81.4689 89.6643 80.8162 89.6141V81.0777C82.4732 81.379 83.603 80.8769 85.0843 80.4752C88.4236 79.5462 89.9802 78.3411 93.0181 76.8096H93.0432Z" fill="#F3F4F4"/>
<path d="M96.0817 86.5527H104.016V87.783C102.133 87.8332 100.224 87.7328 98.3414 87.783C97.3371 89.0132 93.9979 93.181 92.868 93.7082C92.6421 93.8086 88.148 95.1393 87.8718 95.1644C84.2062 95.5159 80.1388 93.9091 79.009 90.2183C79.6869 90.5447 80.7414 89.5907 80.8418 89.6158C81.4946 89.666 82.8002 91.5741 84.3317 91.9256C89.4786 93.1308 93.2949 90.6452 96.1069 86.5778L96.0817 86.5527Z" fill="#21201F"/>
<path d="M93.0432 76.8092C90.0052 78.3407 88.4737 79.5207 85.1094 80.4748V78.642C86.189 78.2654 91.7376 74.0976 92.4406 73.1436C93.244 74.2734 92.9679 75.5538 93.0432 76.8092Z" fill="#21201F"/>
<path d="M165.628 135.358C165.653 137.442 161.561 138.748 160.908 139.802C160.531 140.405 160.883 141.058 160.757 141.459C160.682 141.736 160.255 142.087 160.155 142.69C160.004 142.564 159.301 142.79 158.925 142.69L158.975 141.836L162.59 135.986C162.766 135.911 163.017 136.036 163.193 135.986C164.122 135.71 164.523 135.434 165.628 135.384V135.358Z" fill="#191918"/>
<path d="M160.732 143.292C161.033 143.82 161.084 145.025 161.335 145.728C161.536 146.305 161.636 146.782 161.937 147.56C163.394 151.126 165.201 155.444 167.436 158.532V159.762L165.603 159.16C164.875 157.98 164.448 157.653 163.77 156.122C163.67 155.871 163.368 155.67 163.168 155.519C162.138 154.49 159.527 147.862 159.502 146.38C159.502 146.205 160.004 143.242 160.104 142.715C160.381 142.916 160.506 142.966 160.707 143.317L160.732 143.292Z" fill="#191918"/>
<path d="M201.606 109.121V130.161C201.606 137.693 217.449 131.742 221.441 135.333C222.043 135.86 221.692 136.538 221.14 136.889C219.558 137.894 208.536 136.764 205.548 137.14C203.213 137.442 199.824 141.082 197.288 137.517C194.752 133.952 199.171 132.32 199.171 131.994V109.121H201.606Z" fill="#191918"/>
<path d="M145.492 85.3459C145.492 85.3459 145.819 85.7979 146.271 85.7476C147.702 85.6472 153.1 85.2706 153.426 83.7893L150.991 79.8475C151.92 79.8475 152.849 79.6467 153.652 79.1696C154.631 78.542 161.737 73.3197 162.013 72.8929C163.795 70.0056 160.632 67.6958 160.933 65.0093C161.611 58.8581 170.122 67.0681 171.277 69.6541C174.114 76.0815 160.757 84.4672 158.322 89.6392C154.305 89.0115 152.799 90.7941 150.991 93.9074C146.672 91.9993 136.73 96.2926 135.826 89.7899C135.424 86.8524 140.822 85.5719 143.057 85.371C143.86 85.2957 144.689 85.4464 145.492 85.371V85.3459ZM140.998 87.2541C139.191 87.8566 139.894 90.8444 141.651 91.3465C145.492 92.4763 145.417 85.7979 140.998 87.2541Z" fill="#FAFAF9"/>
<path d="M143.057 85.3465C139.567 81.3545 146.045 79.7978 147.476 76.0318C149.309 71.136 143.635 69.1274 140.873 72.4917C139.542 74.0986 140.371 77.4629 136.956 75.8812C135.575 66.0392 150.413 64.9094 151.041 74.0986C151.518 80.9528 145.944 79.7978 145.518 85.3716C144.714 85.4469 143.886 85.2963 143.082 85.3716L143.057 85.3465Z" fill="#191918"/>
<path d="M158.297 89.6143C160.255 89.9156 162.088 92.2004 161.937 94.1336C161.862 95.2634 157.87 102.243 157.067 102.72C155.836 103.473 153.953 103.047 153.978 101.49C153.978 100.636 160.28 96.1421 158.272 92.6523C154.506 90.9199 152.422 99.858 151.819 100.009C147.174 101.088 149.936 95.64 150.966 93.8825C152.748 90.7693 154.28 88.9867 158.297 89.6143Z" fill="#191918"/>
<path d="M161.962 147.56C161.661 146.807 161.56 146.305 161.359 145.728L161.962 147.56Z" fill="#21201F"/>
<path d="M163.794 156.099L163.192 155.496C163.418 155.672 163.694 155.848 163.794 156.099Z" fill="#21201F"/>
<path d="M17.8734 84.8948C20.5599 84.5433 28.1672 84.0914 29.8996 85.9995C32.561 91.7741 21.8403 93.9835 17.6976 93.9333C16.1159 93.9333 9.38725 93.1048 8.91022 91.6737C7.70508 88.1085 15.1619 85.2463 17.8734 84.8948ZM27.4643 87.1795C25.7319 86.7527 20.5598 87.1795 18.3253 87.1795C17.547 87.1795 12.3248 89.1128 11.9231 89.9413C11.672 91.4226 14.3082 91.4226 15.2372 91.4979C20.1581 91.8243 24.2004 90.8703 28.3932 88.4098C28.5439 88.1838 27.6902 87.2549 27.4894 87.2046L27.4643 87.1795Z" fill="#21201F"/>
<path d="M36 106.687C36.8285 106.913 37.5817 108.52 37.5817 109.424C37.5566 113.365 32.0582 114.721 28.9951 113.692C30.4011 111.884 33.5897 111.834 35.0961 110.629C35.7238 110.127 35.9247 109.825 35.0961 109.398C32.9872 108.269 25.204 109.499 22.7184 110.453C21.1869 111.03 20.2077 112.16 18.9523 112.788C17.0191 113.767 17.1196 111.733 18.2996 110.277C19.0277 109.398 25.4299 106.662 26.2585 106.662C28.493 106.662 34.4182 106.21 36.0251 106.662L36 106.687Z" fill="#21201F"/>
<path d="M16.7939 69.4768L17.3964 71.6109L21.6897 71.9121L20.6603 73.745C4.49144 72.9666 22.7191 63.5515 24.1251 67.9453C25.3553 71.8368 17.1956 69.0751 16.819 69.4768H16.7939Z" fill="#21201F"/>
<path d="M82.6741 70.1048C85.0593 72.6657 76.3472 75.9799 74.1378 74.373C73.8867 72.9921 74.2131 73.3938 74.9161 73.0172C75.4684 72.716 82.3979 69.8036 82.6741 70.1048Z" fill="#21201F"/>
<path d="M75.9461 59.1091C75.9461 61.7704 76.8248 67.1935 72.8831 64.1807L72.9835 60.0883L75.9461 59.084V59.1091Z" fill="#21201F"/>
<path d="M82.4484 58.5817C85.5867 57.5272 87.52 61.3183 85.1097 62.4732C81.896 64.0299 80.1134 59.36 82.4484 58.5817Z" fill="#191918"/>
<path d="M67.485 62.7259C66.0037 60.3156 70.1213 58.4828 71.4268 60.3156C73.5609 63.3034 68.3889 64.1821 67.485 62.7259Z" fill="#191918"/>
<path d="M140.998 87.2537C145.392 85.7975 145.492 92.4759 141.651 91.3461C139.893 90.844 139.19 87.8563 140.998 87.2537Z" fill="#21201F"/>
<path d="M27.4638 87.1787C27.6646 87.2289 28.5182 88.1829 28.3676 88.3838C24.1747 90.8443 20.1325 91.7983 15.2116 91.472C14.2826 91.4217 11.6213 91.3966 11.8974 89.9153C12.2991 89.1119 17.5214 87.1536 18.2997 87.1536C20.5342 87.1536 25.7314 86.7267 27.4386 87.1536L27.4638 87.1787Z" fill="#F2A747"/>
<path d="M113.12 102.939H108.099L88.0135 123.025L84.2475 121.77L80.4814 133.068L103.078 165.707L128.185 175.75L133.206 123.025L119.397 116.748L113.12 102.939Z" fill="#47A9A8"/>
</svg>
