<svg width="22" height="22" viewBox="0 0 22 22" fill="none" xmlns="http://www.w3.org/2000/svg">
<g clip-path="url(#clip0_202_3650)">
<path fill-rule="evenodd" clip-rule="evenodd" d="M18.2954 3.67408C16.3659 1.74225 13.7997 0.677891 11.0658 0.676758C5.43249 0.676758 0.847759 5.26136 0.845493 10.8962C0.844738 12.6975 1.3153 14.4559 2.20971 16.0058L0.759766 21.3018L6.17773 19.8805C7.6706 20.6949 9.35129 21.124 11.0617 21.1245H11.066C16.6987 21.1245 21.2839 16.5395 21.2861 10.9044C21.2872 8.17346 20.2251 5.60579 18.2954 3.67408ZM11.0658 19.3985H11.0623C9.53811 19.3979 8.04322 18.9882 6.7388 18.2144L6.42875 18.0303L3.21364 18.8737L4.0718 15.739L3.86975 15.4176C3.0194 14.0651 2.57037 12.5019 2.57113 10.8969C2.57289 6.21331 6.38368 2.40289 11.0692 2.40289C13.3382 2.40365 15.4711 3.28837 17.0748 4.89403C18.6786 6.49969 19.5613 8.63395 19.5606 10.9038C19.5586 15.5877 15.748 19.3985 11.0658 19.3985ZM15.7254 13.0364C15.4701 12.9085 14.2145 12.2909 13.9803 12.2056C13.7464 12.1203 13.576 12.0779 13.4059 12.3335C13.2356 12.589 12.7463 13.1643 12.5972 13.3346C12.4482 13.5051 12.2994 13.5265 12.044 13.3986C11.7886 13.2708 10.9658 13.001 9.99028 12.131C9.2312 11.4539 8.71872 10.6176 8.56967 10.3621C8.42088 10.1063 8.56841 9.98142 8.68171 9.84093C8.95815 9.49765 9.23497 9.13774 9.32007 8.96742C9.4053 8.79697 9.36262 8.6478 9.29867 8.52002C9.23497 8.39225 8.72426 7.13529 8.51151 6.62382C8.30405 6.12607 8.0937 6.19329 7.93685 6.18549C7.78805 6.17806 7.61773 6.17655 7.44741 6.17655C7.27721 6.17655 7.00051 6.24037 6.76637 6.49617C6.53235 6.75184 5.87271 7.36956 5.87271 8.62652C5.87271 9.88348 6.78777 11.0978 6.91542 11.2682C7.04306 11.4387 8.7162 14.0181 11.2778 15.1241C11.8871 15.3874 12.3627 15.5444 12.7337 15.6621C13.3455 15.8565 13.902 15.829 14.3421 15.7633C14.8328 15.6899 15.8529 15.1455 16.0659 14.549C16.2786 13.9525 16.2786 13.4412 16.2147 13.3346C16.151 13.2281 15.9806 13.1643 15.7254 13.0364Z" fill="#008080"/>
</g>
<defs>
<clipPath id="clip0_202_3650">
<rect width="22" height="22" fill="white"/>
</clipPath>
</defs>
</svg>
