<svg id="Layer_1" enable-background="new 0 0 100 100" viewBox="0 0 100 100" xmlns="http://www.w3.org/2000/svg"><g><path d="m84.444 42.949c-3.145-3.144-7.236-4.984-11.631-5.29v-17.726h2.641c.713 0 1.29-.578 1.29-1.29v-7.353c0-.713-.577-1.29-1.29-1.29h-53.578c-.713 0-1.29.578-1.29 1.29v7.353c0 .713.577 1.29 1.29 1.29h2.65v15.931l-13.628 7.071c-.427.222-.696.663-.696 1.145v35.912c0 .713.577 1.29 1.29 1.29h14.318c.002 0 .004.001.006.001h8.509 27.857c4.152 5.353 8.258 8.249 8.605 8.487.221.154.477.23.733.23s.512-.076.732-.228c.717-.494 17.545-12.343 17.545-33.899 0-4.883-1.901-9.472-5.353-12.924zm-61.277-30.368h50.998v4.772h-2.629c-.004 0-.008-.003-.013-.003h-45.706c-.004 0-.008.002-.013.003h-2.637zm-10.383 32.284 11.743-6.093v39.93h-11.743zm14.323-24.932h43.126v17.726c-1.083.075-2.145.247-3.182.507v-1.517c0-.713-.577-1.29-1.29-1.29h-7.266c-.713 0-1.29.578-1.29 1.29v7.265c0 .17.037.331.097.48-2.626 3.241-4.059 7.248-4.059 11.479 0 .012.001.023.001.035h-18.918c-.713 0-1.29.578-1.29 1.29v21.506h-5.929zm32.679 21.937v-3.931h4.685v1.063c-1.686.705-3.261 1.671-4.685 2.868zm-24.17 16.619h11.759v20.215h-11.759zm14.34 20.215v-20.215h3.381c.538 8.361 3.577 15.136 6.982 20.215zm21.564 8.389c-3.11-2.458-15.054-12.978-15.666-29.873 0-.008.004-.014.004-.022 0-.01-.005-.018-.006-.027-.015-.43-.029-.86-.029-1.298 0-4.193 1.633-8.134 4.597-11.099 2.965-2.964 6.905-4.597 11.098-4.597h.001c4.194 0 8.135 1.632 11.1 4.597 2.964 2.964 4.597 6.906 4.597 11.099 0 17.684-12.503 28.697-15.696 31.22z"/><path d="m71.52 46.621c-5.101 0-9.252 4.15-9.252 9.252s4.151 9.252 9.252 9.252c5.102 0 9.253-4.151 9.253-9.252s-4.151-9.252-9.253-9.252zm0 15.923c-3.678 0-6.671-2.993-6.671-6.671s2.993-6.671 6.671-6.671c3.679 0 6.672 2.993 6.672 6.671s-2.993 6.671-6.672 6.671z"/><path d="m31.569 32.356h7.271c.713 0 1.29-.578 1.29-1.29v-7.271c0-.713-.577-1.29-1.29-1.29h-7.271c-.713 0-1.29.578-1.29 1.29v7.271c-.001.712.577 1.29 1.29 1.29zm1.29-7.271h4.69v4.69h-4.69z"/><path d="m45.03 32.356h7.271c.713 0 1.29-.578 1.29-1.29v-7.271c0-.713-.577-1.29-1.29-1.29h-7.271c-.713 0-1.29.578-1.29 1.29v7.271c0 .712.577 1.29 1.29 1.29zm1.291-7.271h4.69v4.69h-4.69z"/><path d="m58.49 32.356h7.271c.713 0 1.29-.578 1.29-1.29v-7.271c0-.713-.577-1.29-1.29-1.29h-7.271c-.713 0-1.29.578-1.29 1.29v7.271c0 .712.577 1.29 1.29 1.29zm1.291-7.271h4.69v4.69h-4.69z"/><path d="m38.839 45.21c.713 0 1.29-.578 1.29-1.29v-7.271c0-.713-.577-1.29-1.29-1.29h-7.271c-.713 0-1.29.578-1.29 1.29v7.271c0 .713.577 1.29 1.29 1.29zm-5.98-7.271h4.69v4.69h-4.69z"/><path d="m45.03 45.21h7.271c.713 0 1.29-.578 1.29-1.29v-7.271c0-.713-.577-1.29-1.29-1.29h-7.271c-.713 0-1.29.578-1.29 1.29v7.271c0 .712.577 1.29 1.29 1.29zm1.291-7.271h4.69v4.69h-4.69z"/></g></svg>