<svg width="36" height="36" viewBox="0 0 36 36" fill="none" xmlns="http://www.w3.org/2000/svg">
<path d="M35.8852 22.0398C35.7051 21.6863 35.3419 21.4637 34.9453 21.4637H31.4812V15.7403C31.4812 15.2835 31.1871 14.8786 30.7527 14.7373C30.3182 14.5961 29.8424 14.7505 29.5736 15.1199L20.5361 27.5464C20.3028 27.8672 20.2692 28.2918 20.4492 28.6454C20.6292 28.9989 20.9923 29.2215 21.389 29.2215H24.8531V34.945C24.8531 35.4018 25.1472 35.8066 25.5816 35.948C26.0161 36.0891 26.492 35.9347 26.7608 35.5653L35.7982 23.1388C36.0315 22.8179 36.0652 22.3933 35.8852 22.0398Z" fill="#008080"/>
<path d="M34.9453 21.4637H31.4812V15.7403C31.4812 15.2835 31.1871 14.8786 30.7527 14.7373C30.3182 14.5961 29.8424 14.7505 29.5736 15.1199L28.1672 17.0538V33.6315L35.7983 23.1388C36.0316 22.8179 36.0652 22.3933 35.8852 22.0399C35.7052 21.6863 35.342 21.4637 34.9453 21.4637Z" fill="#008080"/>
<path d="M8.795 3.79C8.765 4.2 8.755 4.595 8.765 4.975V4.99C8.185 5.97 7.555 6.93 6.875 7.87C6.195 8.81 5.54 9.765 4.91 10.735L4.895 10.75C5.295 10.7 5.635 10.665 5.915 10.645C6.205 10.625 6.48 10.615 6.74 10.615C7.01 10.605 7.29 10.6 7.58 10.6C7.88 10.59 8.245 10.575 8.675 10.555V10.6C8.725 10.98 8.74 11.385 8.72 11.815C8.7 12.245 8.675 12.64 8.645 13V13.03C7.695 12.98 6.7 12.95 5.66 12.94C4.63 12.93 3.58 12.955 2.51 13.015C2.45 12.835 2.415 12.65 2.405 12.46C2.395 12.26 2.39 12.06 2.39 11.86C2.39 11.65 2.39 11.445 2.39 11.245C2.4 11.035 2.395 10.825 2.375 10.615C2.595 10.125 2.855 9.635 3.155 9.145C3.455 8.655 3.77 8.17 4.1 7.69C4.44 7.21 4.775 6.74 5.105 6.28C5.445 5.82 5.76 5.385 6.05 4.975C5.82 4.945 5.535 4.92 5.195 4.9C4.865 4.88 4.525 4.865 4.175 4.855C3.825 4.835 3.49 4.82 3.17 4.81C2.86 4.79 2.615 4.78 2.435 4.78C2.375 4.68 2.34 4.545 2.33 4.375C2.32 4.205 2.315 4.025 2.315 3.835C2.315 3.645 2.31 3.455 2.3 3.265C2.3 3.065 2.275 2.885 2.225 2.725V2.71C2.225 2.69 2.215 2.67 2.195 2.65C3.225 2.55 4.29 2.515 5.39 2.545C6.49 2.565 7.615 2.58 8.765 2.59C8.815 2.98 8.825 3.38 8.795 3.79ZM11.8073 9.28C11.5873 9.27 11.4273 9.255 11.3273 9.235V9.505C11.3373 9.805 11.3473 10.05 11.3573 10.24C11.3773 10.43 11.4423 10.615 11.5523 10.795C11.6723 11.025 11.8423 11.195 12.0623 11.305C12.2823 11.415 12.4973 11.45 12.7073 11.41C12.9173 11.37 13.0923 11.25 13.2323 11.05C13.3823 10.84 13.4473 10.53 13.4273 10.12C13.5273 10.13 13.6623 10.135 13.8323 10.135C14.0023 10.125 14.1773 10.115 14.3573 10.105C14.5473 10.095 14.7273 10.095 14.8973 10.105C15.0673 10.105 15.2073 10.12 15.3173 10.15C15.2973 10.41 15.2773 10.665 15.2573 10.915C15.2373 11.165 15.2123 11.4 15.1823 11.62C15.1523 11.83 15.1123 12.015 15.0623 12.175C15.0223 12.325 14.9673 12.43 14.8973 12.49C14.7273 12.73 14.5073 12.9 14.2373 13C13.9673 13.1 13.6723 13.16 13.3523 13.18C13.0323 13.2 12.7023 13.2 12.3623 13.18C12.0323 13.16 11.7273 13.15 11.4473 13.15C11.1673 13.11 10.9073 13.02 10.6673 12.88C10.3973 12.69 10.1723 12.445 9.9923 12.145C9.8123 11.835 9.6673 11.5 9.5573 11.14C9.4473 10.77 9.3723 10.38 9.3323 9.97C9.2923 9.56 9.2823 9.15 9.3023 8.74C9.3323 8.37 9.3623 8.015 9.3923 7.675C9.4323 7.325 9.5123 6.985 9.6323 6.655C9.7623 6.365 9.9623 6.12 10.2323 5.92C10.5023 5.71 10.8073 5.555 11.1473 5.455C11.4873 5.345 11.8473 5.285 12.2273 5.275C12.6073 5.265 12.9773 5.305 13.3373 5.395C13.7973 5.475 14.1673 5.635 14.4473 5.875C14.7273 6.115 14.9373 6.405 15.0773 6.745C15.2273 7.085 15.3173 7.46 15.3473 7.87C15.3773 8.28 15.3773 8.695 15.3473 9.115C15.2773 9.135 15.1423 9.155 14.9423 9.175C14.7523 9.195 14.5223 9.215 14.2523 9.235C13.9923 9.255 13.7123 9.27 13.4123 9.28C13.1123 9.29 12.8223 9.295 12.5423 9.295C12.2723 9.295 12.0273 9.29 11.8073 9.28ZM13.5623 7.315C13.4623 7.135 13.3223 7 13.1423 6.91C13.0623 6.86 12.9823 6.825 12.9023 6.805C12.8223 6.775 12.7273 6.76 12.6173 6.76C12.3773 6.76 12.1823 6.785 12.0323 6.835C11.8823 6.885 11.7623 6.955 11.6723 7.045C11.5823 7.135 11.5123 7.24 11.4623 7.36C11.4223 7.48 11.3923 7.605 11.3723 7.735C11.3523 7.845 11.3423 7.925 11.3423 7.975C11.3523 8.015 11.4023 8.045 11.4923 8.065C11.5823 8.075 11.7223 8.08 11.9123 8.08C12.1123 8.07 12.4023 8.065 12.7823 8.065C13.0423 8.065 13.2373 8.07 13.3673 8.08C13.4973 8.09 13.5873 8.095 13.6373 8.095C13.6973 8.085 13.7273 8.07 13.7273 8.05C13.7273 8.02 13.7273 7.965 13.7273 7.885C13.7273 7.685 13.6723 7.495 13.5623 7.315ZM18.2323 5.875C18.2423 5.905 18.2473 5.955 18.2473 6.025C18.2873 6.005 18.3773 5.965 18.5173 5.905C18.6673 5.845 18.8123 5.79 18.9523 5.74C19.1423 5.68 19.3573 5.635 19.5973 5.605C19.8373 5.565 20.0623 5.54 20.2723 5.53C20.4823 5.52 20.6573 5.52 20.7973 5.53C20.9473 5.53 21.0223 5.535 21.0223 5.545C21.0223 5.885 21.0173 6.185 21.0073 6.445C21.0073 6.705 21.0073 6.94 21.0073 7.15C21.0073 7.35 21.0073 7.535 21.0073 7.705C21.0073 7.875 21.0123 8.035 21.0223 8.185L20.8873 8.14C20.8373 8.12 20.7823 8.105 20.7223 8.095C20.6723 8.075 20.6223 8.055 20.5723 8.035C20.4523 8.005 20.3273 7.98 20.1973 7.96C20.0773 7.94 20.0123 7.93 20.0023 7.93C19.7323 7.9 19.4823 7.885 19.2523 7.885C19.0323 7.885 18.8373 7.92 18.6673 7.99C18.5073 8.06 18.3823 8.17 18.2923 8.32C18.2023 8.47 18.1623 8.685 18.1723 8.965C18.1823 9.315 18.1923 9.645 18.2023 9.955C18.2123 10.265 18.2173 10.58 18.2173 10.9C18.2173 11.21 18.2173 11.53 18.2173 11.86C18.2273 12.18 18.2323 12.525 18.2323 12.895V12.955C18.0623 13.005 17.9073 13.035 17.7673 13.045C17.6273 13.055 17.4823 13.055 17.3323 13.045C17.1823 13.045 17.0173 13.04 16.8373 13.03C16.6673 13.02 16.4623 13.025 16.2223 13.045C16.2223 11.815 16.2073 10.585 16.1773 9.355C16.1573 8.125 16.1673 6.85 16.2073 5.53C16.3273 5.54 16.4273 5.55 16.5073 5.56C16.5873 5.56 16.6623 5.56 16.7323 5.56C16.8023 5.56 16.8773 5.56 16.9573 5.56C17.0373 5.55 17.1373 5.54 17.2573 5.53C17.2973 5.53 17.3673 5.525 17.4673 5.515C17.5773 5.505 17.6873 5.495 17.7973 5.485C17.9173 5.475 18.0173 5.475 18.0973 5.485C18.1873 5.485 18.2323 5.495 18.2323 5.515C18.2323 5.595 18.2323 5.655 18.2323 5.695C18.2323 5.735 18.2323 5.77 18.2323 5.8C18.2323 5.82 18.2323 5.845 18.2323 5.875ZM21.7148 6.61C21.7748 6.42 21.8198 6.27 21.8498 6.16C21.9198 6.01 22.0298 5.88 22.1798 5.77C22.3398 5.66 22.5198 5.57 22.7198 5.5C22.9298 5.42 23.1498 5.365 23.3798 5.335C23.6198 5.305 23.8598 5.29 24.0998 5.29C24.2998 5.31 24.4898 5.315 24.6698 5.305C24.8598 5.285 25.0598 5.285 25.2698 5.305C25.5898 5.325 25.8948 5.39 26.1848 5.5C26.4748 5.6 26.7248 5.75 26.9348 5.95C27.0748 6.04 27.1848 6.185 27.2648 6.385C27.3448 6.585 27.4048 6.82 27.4448 7.09C27.4848 7.35 27.5098 7.64 27.5198 7.96C27.5298 8.27 27.5398 8.59 27.5498 8.92C27.5398 9.21 27.5248 9.54 27.5048 9.91C27.4948 10.28 27.4698 10.635 27.4298 10.975C27.3998 11.315 27.3548 11.62 27.2948 11.89C27.2448 12.16 27.1698 12.345 27.0698 12.445C26.8998 12.685 26.6748 12.855 26.3948 12.955C26.1248 13.055 25.8298 13.115 25.5098 13.135C25.1898 13.165 24.8598 13.165 24.5198 13.135C24.1798 13.115 23.8698 13.105 23.5898 13.105C23.0798 13.015 22.6498 12.795 22.2998 12.445C22.0298 12.205 21.8448 11.905 21.7448 11.545C21.6448 11.185 21.5848 10.81 21.5648 10.42C21.5448 10.02 21.5398 9.62 21.5498 9.22C21.5698 8.82 21.5648 8.455 21.5348 8.125C21.5348 7.945 21.5398 7.77 21.5498 7.6C21.5598 7.42 21.5798 7.235 21.6098 7.045C21.6198 6.935 21.6548 6.79 21.7148 6.61ZM24.2348 7.6C24.0248 7.66 23.8548 7.77 23.7248 7.93C23.6648 7.97 23.6198 8.07 23.5898 8.23C23.5498 8.55 23.5298 8.87 23.5298 9.19C23.5298 9.5 23.5198 9.83 23.4998 10.18C23.4898 10.41 23.5498 10.59 23.6798 10.72C23.8098 10.84 23.9648 10.925 24.1448 10.975C24.3348 11.015 24.5298 11.025 24.7298 11.005C24.9298 10.975 25.0948 10.925 25.2248 10.855C25.3948 10.775 25.5098 10.61 25.5698 10.36C25.6098 10.04 25.6398 9.72 25.6598 9.4C25.6898 9.07 25.6748 8.76 25.6148 8.47C25.5648 8.12 25.4198 7.865 25.1798 7.705C24.9398 7.545 24.6248 7.51 24.2348 7.6Z" fill="#008080"/>
<path d="M8.9 18.395C8.94 19.325 8.935 20.27 8.885 21.23L8.84 26.015C8.69 25.995 8.525 25.985 8.345 25.985C8.165 25.985 7.985 25.985 7.805 25.985C7.625 25.985 7.45 25.99 7.28 26C7.12 26 6.98 26 6.86 26C6.84 25.57 6.825 25.105 6.815 24.605C6.815 24.105 6.81 23.595 6.8 23.075C6.8 22.555 6.785 22.045 6.755 21.545C6.735 21.045 6.7 20.585 6.65 20.165C6.58 20.275 6.5 20.45 6.41 20.69C6.32 20.92 6.23 21.16 6.14 21.41C6.05 21.66 5.965 21.88 5.885 22.07C5.805 22.26 5.745 22.355 5.705 22.355C5.655 22.355 5.595 22.305 5.525 22.205C5.465 22.095 5.4 21.96 5.33 21.8C5.27 21.64 5.205 21.47 5.135 21.29C5.065 21.11 5.005 20.945 4.955 20.795C4.905 20.645 4.86 20.52 4.82 20.42C4.79 20.32 4.775 20.27 4.775 20.27C4.695 21.21 4.665 22.16 4.685 23.12C4.715 24.08 4.76 25.025 4.82 25.955C4.5 26.005 4.15 26.025 3.77 26.015C3.39 26.005 3.04 26 2.72 26C2.7 26 2.685 25.985 2.675 25.955C2.665 25.915 2.655 25.82 2.645 25.67C2.635 25.52 2.625 25.295 2.615 24.995C2.615 24.685 2.615 24.28 2.615 23.78C2.615 23.28 2.615 22.66 2.615 21.92C2.625 21.18 2.63 20.3 2.63 19.28C2.64 18.26 2.65 17.07 2.66 15.71C2.79 15.67 2.94 15.645 3.11 15.635C3.28 15.625 3.455 15.625 3.635 15.635C3.815 15.635 3.995 15.64 4.175 15.65C4.355 15.65 4.53 15.645 4.7 15.635H4.715C4.805 15.735 4.895 15.89 4.985 16.1C5.075 16.3 5.16 16.515 5.24 16.745C5.32 16.975 5.395 17.195 5.465 17.405C5.545 17.615 5.625 17.78 5.705 17.9C5.735 17.93 5.765 17.945 5.795 17.945C5.825 17.955 5.87 17.86 5.93 17.66C6 17.46 6.07 17.23 6.14 16.97C6.22 16.7 6.305 16.435 6.395 16.175C6.495 15.915 6.59 15.725 6.68 15.605C6.75 15.615 6.875 15.615 7.055 15.605C7.245 15.595 7.445 15.585 7.655 15.575C7.875 15.565 8.095 15.56 8.315 15.56C8.545 15.55 8.74 15.545 8.9 15.545C8.86 16.505 8.86 17.455 8.9 18.395ZM11.0596 18.455C11.2896 18.465 11.5646 18.465 11.8846 18.455H12.1396V18.5C12.1296 19.71 12.1046 20.945 12.0646 22.205C12.0346 23.465 12.0546 24.7 12.1246 25.91C12.0746 25.97 11.9496 26 11.7496 26C11.5496 26.01 11.3296 26.01 11.0896 26C10.8596 26 10.6396 25.995 10.4296 25.985C10.2196 25.975 10.0796 25.98 10.0096 26C10.0596 25.37 10.0796 24.73 10.0696 24.08C10.0696 23.43 10.0596 22.785 10.0396 22.145C10.0196 21.505 10.0096 20.875 10.0096 20.255C10.0096 19.625 10.0396 19.015 10.0996 18.425V18.41C10.1396 18.4 10.2046 18.4 10.2946 18.41C10.3946 18.42 10.4696 18.425 10.5196 18.425C10.6496 18.435 10.8296 18.445 11.0596 18.455ZM10.0546 16.355C10.0346 16.035 10.0296 15.645 10.0396 15.185L12.0796 15.23C12.0796 15.29 12.0796 15.4 12.0796 15.56C12.0896 15.71 12.0946 15.88 12.0946 16.07C12.1046 16.25 12.1096 16.44 12.1096 16.64C12.1196 16.83 12.1246 17 12.1246 17.15C12.0846 17.21 11.9896 17.25 11.8396 17.27C11.6996 17.29 11.5296 17.3 11.3296 17.3C11.1396 17.29 10.9346 17.28 10.7146 17.27C10.4946 17.25 10.2896 17.245 10.0996 17.255C10.0996 16.965 10.0846 16.665 10.0546 16.355ZM15.1401 18.935C15.1401 19.045 15.1451 19.17 15.1551 19.31C15.2051 19.28 15.2651 19.245 15.3351 19.205C15.4151 19.165 15.4801 19.125 15.5301 19.085C15.7401 18.935 15.9751 18.815 16.2351 18.725C16.4951 18.635 16.7601 18.585 17.0301 18.575C17.3101 18.565 17.5801 18.595 17.8401 18.665C18.1001 18.735 18.3351 18.86 18.5451 19.04C18.6451 19.13 18.7201 19.32 18.7701 19.61C18.8301 19.89 18.8651 20.23 18.8751 20.63C18.8951 21.03 18.9001 21.47 18.8901 21.95C18.8901 22.42 18.8851 22.9 18.8751 23.39C18.8651 23.87 18.8551 24.335 18.8451 24.785C18.8351 25.235 18.8401 25.63 18.8601 25.97C18.5101 26.02 18.1951 26.04 17.9151 26.03C17.6451 26.03 17.3351 26.03 16.9851 26.03C16.9651 25.8 16.9551 25.54 16.9551 25.25C16.9551 24.96 16.9551 24.66 16.9551 24.35C16.9651 24.04 16.9651 23.73 16.9551 23.42C16.9551 23.11 16.9451 22.82 16.9251 22.55C16.9151 22.43 16.9051 22.3 16.8951 22.16C16.8851 22.01 16.8651 21.865 16.8351 21.725C16.8151 21.585 16.7801 21.46 16.7301 21.35C16.6901 21.24 16.6301 21.155 16.5501 21.095C16.5401 21.085 16.5301 21.08 16.5201 21.08C16.5101 21.08 16.5001 21.075 16.4901 21.065C16.4101 21.025 16.2901 20.995 16.1301 20.975C15.9801 20.945 15.8301 20.955 15.6801 21.005C15.5301 21.045 15.3951 21.135 15.2751 21.275C15.1551 21.405 15.0851 21.605 15.0651 21.875C15.0451 22.225 15.0401 22.57 15.0501 22.91C15.0601 23.24 15.0701 23.575 15.0801 23.915C15.1001 24.245 15.1101 24.575 15.1101 24.905C15.1101 25.235 15.0901 25.565 15.0501 25.895V25.955C14.8801 26.005 14.7301 26.035 14.6001 26.045C14.4801 26.055 14.3551 26.055 14.2251 26.045C14.0951 26.045 13.9501 26.04 13.7901 26.03C13.6301 26.02 13.4301 26.025 13.1901 26.045C13.1901 24.815 13.1751 23.585 13.1451 22.355C13.1251 21.125 13.1351 19.85 13.1751 18.53C13.2951 18.54 13.3951 18.55 13.4751 18.56C13.5551 18.56 13.6301 18.56 13.7001 18.56C13.7701 18.56 13.8451 18.56 13.9251 18.56C14.0051 18.55 14.1051 18.54 14.2251 18.53C14.2651 18.53 14.3351 18.525 14.4351 18.515C14.5351 18.495 14.6351 18.48 14.7351 18.47C14.8351 18.46 14.9251 18.46 15.0051 18.47C15.0851 18.47 15.1251 18.485 15.1251 18.515C15.1451 18.685 15.1501 18.825 15.1401 18.935ZM25.613 19.355C25.813 19.785 25.913 20.27 25.913 20.81C25.593 20.86 25.238 20.89 24.848 20.9C24.468 20.91 24.108 20.88 23.768 20.81C23.798 20.69 23.783 20.57 23.723 20.45C23.673 20.33 23.593 20.225 23.483 20.135C23.383 20.045 23.263 19.98 23.123 19.94C22.993 19.89 22.863 19.87 22.733 19.88C22.503 19.92 22.328 20.01 22.208 20.15C22.098 20.28 22.043 20.425 22.043 20.585C22.043 20.745 22.103 20.905 22.223 21.065C22.343 21.225 22.518 21.345 22.748 21.425C23.308 21.505 23.833 21.615 24.323 21.755C24.813 21.885 25.173 22.1 25.403 22.4C25.623 22.76 25.758 23.13 25.808 23.51C25.858 23.88 25.788 24.34 25.598 24.89C25.368 25.38 25.008 25.73 24.518 25.94C24.028 26.15 23.493 26.25 22.913 26.24C22.403 26.26 21.943 26.215 21.533 26.105C21.123 25.995 20.768 25.83 20.468 25.61C20.178 25.39 19.948 25.12 19.778 24.8C19.618 24.48 19.538 24.12 19.538 23.72V23.675V23.645C19.868 23.605 20.243 23.595 20.663 23.615C21.083 23.625 21.448 23.63 21.758 23.63C21.768 23.86 21.873 24.05 22.073 24.2C22.283 24.34 22.503 24.425 22.733 24.455C22.963 24.475 23.173 24.43 23.363 24.32C23.553 24.21 23.643 24.01 23.633 23.72C23.663 23.48 23.608 23.3 23.468 23.18C23.328 23.06 23.143 22.97 22.913 22.91C22.683 22.84 22.423 22.78 22.133 22.73C21.843 22.68 21.558 22.595 21.278 22.475C20.718 22.285 20.308 21.99 20.048 21.59C19.798 21.18 19.678 20.76 19.688 20.33C19.708 19.89 19.848 19.485 20.108 19.115C20.378 18.745 20.758 18.495 21.248 18.365C21.438 18.315 21.668 18.275 21.938 18.245C22.218 18.215 22.513 18.2 22.823 18.2C23.133 18.2 23.443 18.22 23.753 18.26C24.063 18.29 24.348 18.335 24.608 18.395C25.078 18.595 25.413 18.915 25.613 19.355Z" fill="#27325D"/>
</svg>
