<svg width="213" height="63" viewBox="0 0 213 63" fill="none" xmlns="http://www.w3.org/2000/svg">
<path d="M65.8638 63L65.85 53.3524H67.5703L67.6461 54.3361C67.8253 54.0516 68.0427 53.8156 68.2976 53.6282C68.6992 53.3344 69.1916 53.1856 69.7742 53.1856C70.412 53.1856 70.9664 53.3344 71.4331 53.6282C71.898 53.9227 72.2613 54.3374 72.5201 54.8734C72.78 55.4113 72.9053 56.0532 72.8953 56.7984C72.9053 57.5318 72.78 58.1712 72.5201 58.7135C72.2613 59.2558 71.898 59.6742 71.4331 59.9661C70.9664 60.2606 70.412 60.4088 69.7742 60.4088C69.1916 60.4088 68.6992 60.2606 68.2976 59.9661C68.0564 59.7912 67.8491 59.5696 67.6756 59.3037L67.6818 63H65.8638ZM67.8886 57.8052C68.0276 58.0996 68.2162 58.3281 68.4568 58.4937C68.6973 58.6575 68.9792 58.7403 69.3031 58.7403C69.637 58.7403 69.929 58.6575 70.1833 58.4937C70.4377 58.3281 70.6425 58.1009 70.7935 57.8101C70.9464 57.5206 71.0234 57.1851 71.0234 56.7984C71.014 56.4205 70.9401 56.0849 70.801 55.793C70.6619 55.4985 70.4634 55.2662 70.2052 55.1031C69.9471 54.9369 69.6508 54.8591 69.3169 54.8684C68.993 54.8591 68.7092 54.9369 68.4649 55.1031C68.22 55.2662 68.0257 55.496 67.8823 55.7842C67.7576 56.0383 67.6868 56.3278 67.6712 56.6552L67.6718 56.8956C67.6893 57.2324 67.7614 57.5368 67.8886 57.8052ZM159.382 60.1268C159.164 59.9089 159.056 59.6511 159.056 59.3473C159.056 59.0441 159.164 58.7845 159.382 58.5691C159.599 58.3536 159.859 58.2441 160.165 58.2441C160.471 58.2441 160.731 58.3536 160.948 58.5691C161.166 58.7845 161.274 59.0441 161.274 59.3473C161.274 59.6511 161.166 59.9089 160.948 60.1268C160.731 60.3416 160.471 60.4499 160.165 60.4499C159.859 60.4499 159.599 60.3416 159.382 60.1268ZM88.7106 60.1268C88.4945 59.9089 88.3848 59.6511 88.3848 59.3473C88.3848 59.0441 88.4945 58.7845 88.7106 58.5691C88.9292 58.3536 89.1898 58.2441 89.4956 58.2441C89.8 58.2441 90.0619 58.3536 90.2786 58.5691C90.4954 58.7845 90.6044 59.0441 90.6044 59.3473C90.6044 59.6511 90.4954 59.9089 90.2786 60.1268C90.0619 60.3416 89.8 60.4499 89.4956 60.4499C89.1898 60.4499 88.9292 60.3416 88.7106 60.1268ZM153.002 60.1872C152.535 60.0415 152.114 59.8217 151.74 59.5272C151.365 59.2315 151.091 58.8691 150.916 58.4377L152.649 57.9272C152.851 58.221 153.096 58.4377 153.376 58.5772C153.658 58.7135 153.952 58.782 154.258 58.782C154.739 58.782 155.128 58.6369 155.429 58.3474C155.73 58.0592 155.879 57.67 155.879 57.1851C155.879 56.7349 155.734 56.357 155.442 56.0532C155.152 55.7512 154.766 55.5993 154.286 55.5993C153.998 55.5993 153.735 55.6628 153.495 55.793C153.255 55.9206 153.07 56.0713 152.941 56.2462L151.234 55.8733L151.816 50.5956H157.308V52.3052H153.469L153.138 54.6524C153.36 54.516 153.604 54.4052 153.869 54.3181C154.203 54.2072 154.572 54.1562 154.979 54.1661C155.506 54.1661 155.987 54.2925 156.421 54.5441C156.855 54.7968 157.198 55.1411 157.453 55.5775C157.707 56.0152 157.834 56.5214 157.834 57.0998C157.834 57.7529 157.688 58.3281 157.391 58.8231C157.095 59.3193 156.688 59.7084 156.172 59.9879C155.653 60.2687 155.053 60.4088 154.369 60.4088C153.924 60.4088 153.469 60.3347 153.002 60.1872ZM124.836 59.8447C124.443 59.4662 124.248 58.9302 124.248 58.231V54.8952H123.124V53.3524H124.248V51.2014H126.078V53.3524H127.811V54.8952H126.078V57.8319C126.078 58.1239 126.144 58.3474 126.273 58.4993C126.402 58.6519 126.591 58.7272 126.841 58.7272C126.932 58.7272 127.036 58.7073 127.145 58.6649C127.256 58.6239 127.371 58.5603 127.493 58.48L128.131 59.8447C127.908 60.0085 127.661 60.1448 127.39 60.2494C127.115 60.3565 126.845 60.4088 126.577 60.4088C125.81 60.4088 125.229 60.2214 124.836 59.8447ZM113.41 59.8447C113.016 59.4662 112.82 58.9302 112.82 58.231V54.8952H111.697V53.3524H112.82V51.2014H114.652V53.3524H116.384V54.8952H114.652V57.8319C114.652 58.1239 114.715 58.3474 114.844 58.4993C114.975 58.6519 115.164 58.7272 115.415 58.7272C115.506 58.7272 115.608 58.7073 115.718 58.6649C115.83 58.6239 115.945 58.5603 116.066 58.48L116.704 59.8447C116.481 60.0085 116.235 60.1448 115.961 60.2494C115.689 60.3565 115.418 60.4088 115.15 60.4088C114.383 60.4088 113.803 60.2214 113.41 59.8447ZM106.289 59.9468C105.763 59.6393 105.347 59.2147 105.047 58.6712C104.747 58.1301 104.596 57.5051 104.596 56.7984C104.596 56.0906 104.751 55.4642 105.061 54.9232C105.371 54.3809 105.796 53.957 106.336 53.6488C106.879 53.34 107.499 53.1856 108.202 53.1856C108.804 53.1856 109.36 53.3462 109.873 53.6625C110.386 53.98 110.801 54.4444 111.115 55.0533C111.429 55.6666 111.586 56.4068 111.586 57.2791H110.684H106.503C106.542 57.51 106.613 57.7118 106.718 57.8855C106.885 58.1625 107.108 58.3717 107.384 58.5143C107.662 58.6562 107.966 58.7272 108.3 58.7272C108.659 58.7272 108.953 58.6506 109.18 58.4937C109.406 58.3381 109.579 58.1351 109.701 57.8855L111.419 58.5498C111.226 58.9351 110.974 59.2657 110.664 59.549C110.354 59.8286 109.986 60.0415 109.561 60.1872C109.136 60.3347 108.651 60.4088 108.105 60.4088C107.421 60.4088 106.816 60.2556 106.289 59.9468ZM109.554 55.8621C109.55 55.8502 109.546 55.8378 109.541 55.8272C109.406 55.4636 109.219 55.2021 108.979 55.0403C108.739 54.8796 108.456 54.7993 108.132 54.7993C107.773 54.7993 107.467 54.8722 107.218 55.021C106.968 55.1666 106.782 55.3889 106.656 55.6871C106.633 55.7431 106.613 55.801 106.594 55.8621H109.554ZM97.1711 59.7669C96.408 59.3411 95.8098 58.7527 95.375 58.0038C94.9396 57.2535 94.7235 56.3925 94.7235 55.4194C94.7235 54.4457 94.9396 53.5859 95.375 52.8369C95.8098 52.0867 96.408 51.4977 97.1711 51.0713C97.9341 50.6442 98.8099 50.4319 99.7979 50.4319C100.39 50.4319 100.936 50.519 101.435 50.6927C101.934 50.8658 102.375 51.1086 102.76 51.4168C103.144 51.7231 103.463 52.0767 103.724 52.4696L102.17 53.4352C102.013 53.1856 101.806 52.967 101.552 52.7734C101.298 52.5804 101.019 52.4285 100.714 52.3202C100.409 52.2081 100.104 52.1533 99.7979 52.1533C99.1877 52.1533 98.647 52.2934 98.1766 52.5742C97.7055 52.855 97.334 53.2366 97.0658 53.7235C96.7996 54.211 96.6643 54.7763 96.6643 55.4194C96.6643 56.0532 96.7958 56.6173 97.0596 57.1159C97.3239 57.6109 97.6954 57.9988 98.1766 58.2783C98.6571 58.5591 99.2115 58.6992 99.8392 58.6992C100.33 58.6992 100.767 58.6021 101.151 58.4109C101.534 58.2173 101.836 57.9465 102.059 57.5972C102.254 57.2896 102.364 56.9422 102.388 56.5494H100.117V55.0751H104.194V56.2462H104.193C104.175 57.0979 103.988 57.8269 103.633 58.4377C103.259 59.0796 102.74 59.5696 102.081 59.9051C101.419 60.2419 100.658 60.4088 99.7979 60.4088C98.8099 60.4088 97.9341 60.1959 97.1711 59.7669ZM81.0833 59.8447C80.6918 59.4662 80.495 58.9302 80.495 58.231V54.8952H79.3705V53.3524H80.495V51.2014H82.325V53.3524H84.0597V54.8952H82.325V57.8319C82.325 58.1239 82.3907 58.3474 82.5198 58.4993C82.6488 58.6519 82.8374 58.7272 83.088 58.7272C83.1795 58.7272 83.2828 58.7073 83.3918 58.6649C83.5034 58.6239 83.6186 58.5603 83.7395 58.48L84.3773 59.8447C84.1549 60.0085 83.9087 60.1448 83.6368 60.2494C83.3624 60.3565 83.0918 60.4088 82.8236 60.4088C82.0568 60.4088 81.4767 60.2214 81.0833 59.8447ZM59.0628 59.8578C58.6036 59.488 58.3756 58.97 58.3756 58.3001C58.3756 57.5655 58.6237 57.0114 59.1186 56.639C59.611 56.2661 60.3083 56.0812 61.2047 56.0812H62.791C62.769 55.9449 62.7396 55.8185 62.7026 55.7014C62.6093 55.4113 62.4683 55.1922 62.2798 55.0403C62.0906 54.8908 61.8381 54.8143 61.5242 54.8143C61.2461 54.8143 60.9961 54.8722 60.7756 54.9929C60.5526 55.1118 60.364 55.3055 60.2049 55.5713L58.5422 55.0073C58.6713 54.7128 58.8599 54.4239 59.1104 54.145C59.361 53.8654 59.6868 53.6345 60.0877 53.457C60.4912 53.2771 60.9823 53.1856 61.5643 53.1856C62.2578 53.1856 62.8379 53.3101 63.3047 53.5591C63.7714 53.8082 64.1216 54.173 64.3515 54.6561C64.5845 55.1374 64.6954 55.727 64.6854 56.4261L64.6441 60.2432H62.9094L62.8724 59.4774C62.8423 59.5272 62.811 59.5758 62.7784 59.6231C62.4126 60.1461 61.8187 60.4088 60.9961 60.4088C60.1654 60.4088 59.5195 60.2251 59.0628 59.8578ZM60.5946 57.6458C60.364 57.7883 60.2469 57.9863 60.2469 58.2441C60.2469 58.4483 60.3402 58.6064 60.525 58.721C60.7098 58.8355 60.9679 58.8922 61.3018 58.8922C61.5982 58.8922 61.86 58.8218 62.0924 58.6799C62.323 58.5373 62.5059 58.3536 62.6394 58.1289C62.774 57.9017 62.8417 57.6701 62.8417 57.431H61.8425C61.2423 57.431 60.8251 57.5026 60.5946 57.6458ZM147.519 60.2432V53C147.254 53.1831 146.982 53.3319 146.706 53.4495C146.313 53.6152 145.899 53.678 145.466 53.6432V51.9323C145.696 51.9504 145.947 51.8943 146.213 51.7605C146.481 51.6266 146.748 51.4517 147.012 51.2363C147.274 51.0202 147.504 50.8023 147.697 50.5813L147.712 50.5956H149.334L149.32 60.2432H147.519ZM139.738 60.2432V56.7144C139.738 56.2462 139.684 55.8839 139.579 55.6273C139.472 55.3708 139.323 55.1822 139.128 55.0683C138.933 54.9525 138.707 54.8952 138.449 54.8952C137.978 54.8858 137.614 55.0278 137.36 55.3223C137.105 55.6168 136.978 56.0532 136.978 56.6316V60.2432H135.148V53.3524H136.867L136.948 54.2813C137.129 54.0005 137.348 53.772 137.602 53.5934C137.991 53.3219 138.449 53.1856 138.975 53.1856C139.818 53.1856 140.461 53.4408 140.91 53.952C141.357 54.4612 141.578 55.2457 141.568 56.3022V60.2432H139.738ZM131.985 53.3524H133.817V60.2432H131.985V53.3524ZM120.559 53.3524H122.388V60.2432H120.559V53.3524ZM76.8057 53.3524H78.6357V60.2432H76.8057V53.3524ZM54.2565 60.2432L54.244 52.3202H51.3297V50.5956H59.0409V52.3202H56.1297L56.1422 60.2432H54.2565ZM159.277 57.0998L159.154 50.5956H161.178L161.053 57.0998H159.277ZM88.6078 57.0998L88.4825 50.5956H90.5073L90.382 57.0998H88.6078ZM132.166 51.9273C131.953 51.7194 131.846 51.4735 131.846 51.1902C131.846 50.9032 131.953 50.6591 132.166 50.4512C132.378 50.2445 132.623 50.1424 132.901 50.1424C133.187 50.1424 133.436 50.2445 133.642 50.4512C133.851 50.6591 133.954 50.9032 133.954 51.1902C133.954 51.4735 133.851 51.7194 133.642 51.9273C133.436 52.1315 133.187 52.2361 132.901 52.2361C132.623 52.2361 132.378 52.1315 132.166 51.9273ZM120.74 51.9273C120.527 51.7194 120.419 51.4735 120.419 51.1902C120.419 50.9032 120.527 50.6591 120.74 50.4512C120.952 50.2445 121.196 50.1424 121.474 50.1424C121.761 50.1424 122.007 50.2445 122.216 50.4512C122.424 50.6591 122.528 50.9032 122.528 51.1902C122.528 51.4735 122.424 51.7194 122.216 51.9273C122.007 52.1315 121.761 52.2361 121.474 52.2361C121.196 52.2361 120.952 52.1315 120.74 51.9273ZM76.9862 51.9273C76.7738 51.7194 76.6667 51.4735 76.6667 51.1902C76.6667 50.9032 76.7738 50.6591 76.9862 50.4512C77.1992 50.2445 77.4435 50.1424 77.7216 50.1424C78.0073 50.1424 78.256 50.2445 78.4628 50.4512C78.6714 50.6591 78.7747 50.9032 78.7747 51.1902C78.7747 51.4735 78.6714 51.7194 78.4628 51.9273C78.256 52.1315 78.0073 52.2361 77.7216 52.2361C77.4435 52.2361 77.1992 52.1315 76.9862 51.9273ZM4.93633 44.1014C2.09277 44.1014 -0.161901 41.72 0.00912595 38.8991L0.255333 34.8206C0.41195 32.2343 1.71752 29.8523 3.81557 28.3214L22.5477 14.6195L20.885 12.3757L3.55558 25.0491C2.43107 25.8721 0.851105 25.0173 0.936932 23.6327L1.606 12.6329C1.76325 10.0423 3.92269 8.02388 6.53383 8.02388H10.9085C11.9954 3.38624 15.4272 0 19.4899 0C23.5551 0 26.9869 3.38624 28.0713 8.02388H32.4466C35.0571 8.02388 37.2171 10.0423 37.3738 12.6329L37.6939 17.8856C37.7396 18.6253 37.4038 19.3325 36.8037 19.7727L12.8819 37.2698L14.5451 39.5142L36.3426 23.5704C37.0442 23.0587 38.0378 23.5231 38.0892 24.3842L38.9713 38.8991C39.1442 41.72 36.8895 44.1014 34.0441 44.1014H4.93633ZM15.4009 5.03485C14.7155 5.89215 14.1931 6.90882 13.8573 8.02388H25.125C24.7873 6.90882 24.2648 5.89215 23.5789 5.03485C22.4449 3.61722 20.9922 2.83525 19.4899 2.83525C17.9901 2.83525 16.5373 3.61722 15.4009 5.03485ZM113.62 37.0426C111.429 34.8623 110.352 32.1665 110.352 28.9583C110.352 25.7875 111.429 23.0923 113.62 20.912C115.814 18.6931 118.608 17.583 121.995 17.583C125.387 17.583 128.178 18.6931 130.37 20.912C132.564 23.0923 133.64 25.7875 133.64 28.9583C133.64 32.1665 132.564 34.8623 130.37 37.0426C128.178 39.2229 125.387 40.3317 121.995 40.3317C118.608 40.3317 115.814 39.2229 113.62 37.0426ZM117.689 24.599C116.533 25.7875 115.975 27.2549 115.975 28.9583C115.975 30.6636 116.533 32.1273 117.689 33.3581C118.846 34.546 120.28 35.1406 121.995 35.1406C123.71 35.1406 125.107 34.546 126.263 33.3581C127.419 32.1273 128.017 30.6636 128.017 28.9583C128.017 27.2549 127.419 25.7875 126.263 24.599C125.107 23.4073 123.71 22.814 121.995 22.814C120.28 22.814 118.846 23.4073 117.689 24.599ZM194.417 37.0837C192.263 34.9824 191.186 32.2474 191.186 28.9583C191.186 25.6692 192.263 22.9342 194.455 20.8329C196.648 18.6931 199.439 17.6241 202.871 17.6241C207.295 17.6241 211.204 19.8044 213 23.647L208.492 26.1031C207.176 23.9228 205.303 22.814 202.948 22.814C201.154 22.814 199.68 23.4073 198.524 24.599C197.367 25.7482 196.769 27.2144 196.769 28.9583C196.769 30.742 197.328 32.2088 198.484 33.3955C199.64 34.546 201.115 35.1406 202.829 35.1406C205.102 35.1406 207.417 33.792 208.372 31.89L212.919 34.546C211.045 38.0331 207.176 40.2526 202.71 40.2526C199.32 40.2526 196.568 39.1849 194.417 37.0837ZM170.647 36.9635C168.615 34.7832 167.618 32.0887 167.618 28.9583C167.618 25.6692 168.653 22.9734 170.767 20.8329C172.881 18.6931 175.593 17.6241 178.943 17.6241C182.092 17.6241 184.725 18.614 186.76 20.5571C188.792 22.4977 189.829 25.1145 189.829 28.4808C189.829 29.236 189.75 30.0677 189.63 30.9381H173.32C174.117 33.9888 176.231 35.5372 179.66 35.5372C182.013 35.5372 184.804 34.6251 186.68 33.3581L188.911 37.2804C186.161 39.2615 183.01 40.2526 179.422 40.2526C175.593 40.2526 172.682 39.145 170.647 36.9635ZM173.32 26.7768H184.365C183.848 23.9645 181.814 22.2587 178.943 22.2587C176.111 22.2587 173.998 23.9645 173.32 26.7768ZM75.1387 36.9635C73.1058 34.7832 72.1085 32.0887 72.1085 28.9583C72.1085 25.6692 73.1459 22.9734 75.2577 20.8329C77.3721 18.6931 80.0841 17.6241 83.4338 17.6241C86.5831 17.6241 89.2155 18.614 91.2503 20.5571C93.2826 22.4977 94.32 25.1145 94.32 28.4808C94.32 29.236 94.2404 30.0677 94.1214 30.9381H77.8106C78.6075 33.9888 80.7218 35.5372 84.1511 35.5372C86.5035 35.5372 89.2951 34.6251 91.1707 33.3581L93.4041 37.2804C90.652 39.2615 87.5009 40.2526 83.9124 40.2526C80.0841 40.2526 77.1729 39.145 75.1387 36.9635ZM77.8106 26.7768H88.8559C88.3372 23.9645 86.3049 22.2587 83.4338 22.2587C80.6022 22.2587 78.4884 23.9645 77.8106 26.7768ZM143.571 39.777V35.5745L158.166 15.9207H144.129V10.4899H166.221V14.848L151.905 34.3468H166.66V39.777H143.571ZM96.8334 39.777V18.1776H102.215V21.0714C103.533 18.7317 105.526 17.583 108.198 17.583C109.075 17.583 109.952 17.7437 110.831 18.0581L110.352 23.4073C109.434 23.1315 108.556 22.9734 107.759 22.9734C104.568 22.9734 102.456 25.0354 102.456 29.5143V39.777H96.8334ZM48.0614 39.777V35.5745L62.6569 15.9207H48.6196V10.4899H70.7121V14.848L56.3966 34.3468H71.1506V39.777H48.0614Z" fill="white"/>
</svg>
